<svg id="圖層_1" data-name="圖層 1" xmlns="http://www.w3.org/2000/svg" viewBox="0 0 84 42"><defs><style>.cls-1{fill:#fff;}</style></defs><path class="cls-1" d="M46.6,19.32a8.87,8.87,0,1,0-9.3-.05c-4.27,1.32-5.9,4.45-5.9,7.23V39.05H52V26.15C52,23.37,50.33,20.58,46.6,19.32ZM35.12,11.77A6.87,6.87,0,1,1,42,18.63h0A6.88,6.88,0,0,1,35.12,11.77ZM50,37.05H33.4V26.5c0-1.37.62-5.86,8.57-5.87h0c5.55,0,8,2.77,8,5.52Z"/><path class="cls-1" d="M75.6,19.32a8.87,8.87,0,1,0-9.3-.05c-4.27,1.32-5.9,4.45-5.9,7.23V39.05H81V26.15C81,23.37,79.33,20.58,75.6,19.32ZM64.12,11.77A6.87,6.87,0,1,1,71,18.63h0A6.88,6.88,0,0,1,64.12,11.77ZM79,37.05H62.4V26.5c0-1.37.62-5.86,8.57-5.87h0c5.55,0,8,2.77,8,5.52Z"/><path class="cls-1" d="M17.6,19.32a8.87,8.87,0,1,0-9.3-.05C4,20.59,2.4,23.72,2.4,26.5V39.05H23V26.15C23,23.37,21.33,20.58,17.6,19.32ZM6.12,11.77A6.87,6.87,0,1,1,13,18.63h0A6.88,6.88,0,0,1,6.12,11.77ZM21,37.05H4.4V26.5c0-1.37.62-5.86,8.57-5.87h0c5.55,0,8,2.77,8,5.52Z"/></svg>