<?xml version="1.0" encoding="utf-8"?>
<!-- Generator: Adobe Illustrator 24.1.1, SVG Export Plug-In . SVG Version: 6.00 Build 0)  -->
<svg version="1.1" id="圖層_1" xmlns="http://www.w3.org/2000/svg" xmlns:xlink="http://www.w3.org/1999/xlink" x="0px" y="0px"
	 viewBox="0 0 84 42" style="enable-background:new 0 0 84 42;" xml:space="preserve">
<style type="text/css">
	.st0{fill:#FFFFFF;}
</style>
<path class="st0" d="M46.6,19.3c2.5-1.6,4.2-4.4,4.2-7.6c0-4.9-4-8.9-8.9-8.9s-8.9,4-8.9,8.9c0,3.2,1.7,5.9,4.2,7.5
	c-4.3,1.3-5.9,4.4-5.9,7.2V39H52V26.1C52,23.4,50.3,20.6,46.6,19.3z M35.1,11.8c0-3.8,3.1-6.9,6.9-6.9c3.8,0,6.9,3.1,6.9,6.9
	c0,3.8-3.1,6.9-6.8,6.9c0,0,0,0,0,0c0,0,0,0,0,0C38.2,18.6,35.1,15.5,35.1,11.8z M50,37H33.4V26.5c0-1.4,0.6-5.9,8.6-5.9
	c0,0,0,0,0,0c0,0,0,0,0,0c5.6,0,8,2.8,8,5.5V37z"/>
</svg>
