<svg xmlns="http://www.w3.org/2000/svg" xmlns:xlink="http://www.w3.org/1999/xlink" viewBox="0 0 139.02 171.68"><defs><style>.cls-1,.cls-4{isolation:isolate;}.cls-1{fill:url(#radial-gradient);}.cls-2{fill:none;}.cls-3{fill:#231815;}.cls-4{fill:#ea5504;}</style><radialGradient id="radial-gradient" cx="69.51" cy="63.24" r="20.3" gradientUnits="userSpaceOnUse"><stop offset="0" stop-color="#fff"/><stop offset="0.1" stop-color="#fce6da"/><stop offset="0.29" stop-color="#f7bb9a"/><stop offset="0.47" stop-color="#f29665"/><stop offset="0.63" stop-color="#ef7a3b"/><stop offset="0.78" stop-color="#ec661d"/><stop offset="0.91" stop-color="#eb590a"/><stop offset="1" stop-color="#ea5504"/></radialGradient></defs><g id="圖層_2" data-name="圖層 2"><g id="圖層_1-2" data-name="圖層 1"><path class="cls-1" d="M89.81,63.24a20.3,20.3,0,1,1-20.3-20.3A20.3,20.3,0,0,1,89.81,63.24Z"/><path class="cls-2" d="M46.18,41.37,47.55,40C47.08,40.45,46.62,40.9,46.18,41.37Z"/><path class="cls-3" d="M106,0h0L74.38,31.63a32,32,0,0,1,26.53,25.53H139Z"/><path class="cls-3" d="M38.11,69.32H0l33,57.15L64.62,94.84A32,32,0,0,1,38.11,69.32Z"/><path class="cls-2" d="M93.1,84.82,91,86.9C91.74,86.24,92.43,85.55,93.1,84.82Z"/><polygon class="cls-4" points="78.05 99.87 121.38 99.87 123.66 95.93 81.99 95.93 78.05 99.87"/><path class="cls-4" d="M93.1,84.82c-.56.61-1.14,1.19-1.74,1.75h37.7l2.28-3.94H94.93C94.35,83.38,93.74,84.12,93.1,84.82Z"/><polygon class="cls-4" points="51.44 126.48 106.02 126.48 108.3 122.53 55.39 122.53 51.44 126.48"/><polygon class="cls-4" points="84.69 93.22 125.22 93.22 127.5 89.28 88.64 89.28 84.69 93.22"/><polygon class="cls-4" points="58.09 119.83 109.86 119.83 112.14 115.88 62.04 115.88 58.09 119.83"/><path class="cls-4" d="M98.84,76a31.34,31.34,0,0,1-2.06,3.94H132.9L135.18,76Z"/><polygon class="cls-4" points="71.39 106.53 117.54 106.53 119.82 102.58 75.34 102.58 71.39 106.53"/><path class="cls-4" d="M139,69.32H100.91a32.26,32.26,0,0,1-1,4h36.87Z"/><polygon class="cls-4" points="64.74 113.18 113.7 113.18 115.98 109.23 68.69 109.23 64.74 113.18"/><polygon class="cls-4" points="15.36 30.55 57 30.55 60.95 26.6 17.64 26.6 15.36 30.55"/><polygon class="cls-4" points="19.2 23.9 63.65 23.9 67.6 19.95 21.48 19.95 19.2 23.9"/><path class="cls-4" d="M7.68,43.85h36.4c.66-.86,1.36-1.69,2.1-2.48.44-.47.9-.92,1.37-1.37l.1-.1H10Z"/><polygon class="cls-4" points="23.04 17.25 70.3 17.25 74.25 13.3 25.32 13.3 23.04 17.25"/><path class="cls-4" d="M0,57.16H38.11a31.13,31.13,0,0,1,1-4H2.28Z"/><path class="cls-4" d="M3.84,50.5H40.18a32.11,32.11,0,0,1,2-4H6.12Z"/><polygon class="cls-4" points="11.52 37.2 50.35 37.2 54.3 33.25 13.8 33.25 11.52 37.2"/><polygon class="cls-4" points="87.55 0 33 0 30.72 3.95 83.61 3.95 87.55 0"/><polygon class="cls-4" points="29.16 6.65 26.88 10.6 76.95 10.6 80.9 6.65 29.16 6.65"/><polygon points="64.83 139.57 64.81 139.56 64.8 139.57 64.65 139.57 64.65 139.75 52.59 154.75 40.36 139.56 40.35 139.57 32.94 139.57 32.94 171.45 40.35 167.75 40.35 151.37 47.83 160.67 52.59 166.58 57.34 160.67 64.65 151.58 64.65 171.45 72.06 167.75 72.06 139.57 64.83 139.57"/><path class="cls-3" d="M83.16,157.66H93.31a3.71,3.71,0,0,1,0,7.41l-.58,0H89.17l-3.7,5.62H93.3l2.58,0a8.7,8.7,0,0,0,8.71-8.71,8.83,8.83,0,0,0-4.76-7.79A8.44,8.44,0,0,0,94.75,139H75.81v31.66h7.35v-13m0-5.63v-7.38h8.67a3.7,3.7,0,1,1,0,7.4l-.32,0H83.16"/><polygon class="cls-3" points="112.46 170.56 104.87 170.56 117.82 139.1 125.59 139.1 138.73 170.65 130.77 170.65 127.63 163.34 117.86 163.34 120.08 157.88 126.15 157.88 121.71 146.59 112.46 170.56"/><polygon points="3.99 139.1 0.29 145.42 12.84 145.42 12.84 171.68 20.09 167.98 20.09 145.42 30.48 145.42 30.48 139.1 3.99 139.1"/></g></g></svg>