<svg xmlns="http://www.w3.org/2000/svg" xmlns:xlink="http://www.w3.org/1999/xlink" viewBox="0 0 368.28 50.92"><defs><style>.cls-1,.cls-4{isolation:isolate;}.cls-1{fill:url(#radial-gradient);}.cls-2{fill:none;}.cls-3{fill:#231815;}.cls-4{fill:#ea5504;}</style><radialGradient id="radial-gradient" cx="20.61" cy="18.76" r="6.02" gradientUnits="userSpaceOnUse"><stop offset="0" stop-color="#fff"/><stop offset="0.1" stop-color="#fce6da"/><stop offset="0.29" stop-color="#f7bb9a"/><stop offset="0.47" stop-color="#f29665"/><stop offset="0.63" stop-color="#ef7a3b"/><stop offset="0.78" stop-color="#ec661d"/><stop offset="0.91" stop-color="#eb590a"/><stop offset="1" stop-color="#ea5504"/></radialGradient></defs><g id="圖層_2" data-name="圖層 2"><g id="圖層_1-2" data-name="圖層 1"><path class="cls-1" d="M26.64,18.75a6,6,0,1,1-6-6A6,6,0,0,1,26.64,18.75Z"/><path class="cls-2" d="M13.7,12.27l.4-.4Z"/><path class="cls-3" d="M31.44,0h0L22.06,9.38A9.51,9.51,0,0,1,29.93,17h11.3Z"/><path class="cls-3" d="M11.3,20.56H0l9.79,17,9.37-9.38A9.51,9.51,0,0,1,11.3,20.56Z"/><path class="cls-2" d="M27.61,25.16l-.62.61C27.21,25.58,27.41,25.37,27.61,25.16Z"/><polygon class="cls-4" points="23.15 29.62 36 29.62 36.67 28.45 24.32 28.45 23.15 29.62"/><path class="cls-4" d="M27.61,25.16c-.16.18-.34.35-.51.52H38.28L39,24.51H28.15C28,24.73,27.8,25,27.61,25.16Z"/><polygon class="cls-4" points="15.26 37.51 31.44 37.51 32.12 36.34 16.43 36.34 15.26 37.51"/><polygon class="cls-4" points="25.12 27.65 37.14 27.65 37.81 26.48 26.29 26.48 25.12 27.65"/><polygon class="cls-4" points="17.23 35.54 32.58 35.54 33.26 34.37 18.4 34.37 17.23 35.54"/><path class="cls-4" d="M29.31,22.53a8.11,8.11,0,0,1-.61,1.17H39.41l.68-1.17Z"/><polygon class="cls-4" points="21.17 31.59 34.86 31.59 35.53 30.42 22.34 30.42 21.17 31.59"/><path class="cls-4" d="M41.23,20.56H29.93a9.15,9.15,0,0,1-.31,1.17H40.55Z"/><polygon class="cls-4" points="19.2 33.57 33.72 33.57 34.4 32.4 20.37 32.4 19.2 33.57"/><polygon class="cls-4" points="4.56 9.06 16.91 9.06 18.08 7.89 5.23 7.89 4.56 9.06"/><polygon class="cls-4" points="5.7 7.09 18.88 7.09 20.05 5.92 6.37 5.92 5.7 7.09"/><path class="cls-4" d="M2.28,13H13.07c.2-.26.41-.5.63-.74l.4-.4,0,0H3Z"/><polygon class="cls-4" points="6.83 5.12 20.85 5.12 22.02 3.94 7.51 3.94 6.83 5.12"/><path class="cls-4" d="M0,17H11.3a9.15,9.15,0,0,1,.31-1.17H.68Z"/><path class="cls-4" d="M1.14,15H11.92a9.2,9.2,0,0,1,.6-1.17H1.81Z"/><polygon class="cls-4" points="3.42 11.03 14.93 11.03 16.1 9.86 4.09 9.86 3.42 11.03"/><polygon class="cls-4" points="25.97 0 9.79 0 9.11 1.17 24.8 1.17 25.97 0"/><polygon class="cls-4" points="8.65 1.97 7.97 3.14 22.82 3.14 23.99 1.97 8.65 1.97"/><polygon points="19.23 41.4 19.22 41.39 19.22 41.4 19.17 41.4 19.17 41.45 15.6 45.9 11.97 41.39 11.97 41.4 9.77 41.4 9.77 50.85 11.97 49.75 11.97 44.89 14.19 47.65 15.6 49.4 17.01 47.65 19.17 44.96 19.17 50.85 21.37 49.75 21.37 41.4 19.23 41.4"/><path class="cls-3" d="M24.66,46.76h3a1.1,1.1,0,0,1,0,2.2H26.45l-1.1,1.67h3.09A2.59,2.59,0,0,0,31,48a2.63,2.63,0,0,0-1.41-2.31,2.51,2.51,0,0,0-1.51-4.5H22.48v9.39h2.18V46.76m0-1.67V42.9h2.57a1.1,1.1,0,0,1,0,2.2H24.66"/><polygon class="cls-3" points="33.35 50.58 31.1 50.58 34.94 41.26 37.25 41.26 41.14 50.61 38.78 50.61 37.85 48.44 34.95 48.44 35.61 46.82 37.41 46.82 36.1 43.48 33.35 50.58"/><polygon points="1.18 41.26 0.09 43.13 3.81 43.13 3.81 50.92 5.96 49.82 5.96 43.13 9.04 43.13 9.04 41.26 1.18 41.26"/><path class="cls-3" d="M71.83,17.29,56.37,18.55l-.47-1.78,1.9-.14a45.73,45.73,0,0,0,4-5.83l1.45.9a40,40,0,0,1-3.09,4.77l10.27-.75a20.78,20.78,0,0,0-2.52-2.56L69.22,12a70,70,0,0,1,5.39,6L73.22,19ZM59.74,28.41v.89h-1.8V20.85a.55.55,0,0,1,.63-.63H72a.55.55,0,0,1,.62.63V29.3H70.8v-.89Zm0-1.71H70.8V22.2c0-.18-.08-.26-.26-.26H60c-.2,0-.28.1-.26.26Z"/><path class="cls-3" d="M79.15,19.23a15.44,15.44,0,0,0-2.32-1.89l1-1.26a15,15,0,0,1,2.38,2Zm-2.32,9.2a15.63,15.63,0,0,0,2-6.94l1.56.08a17.45,17.45,0,0,1-1.94,7.35Zm2.55-13.86a16.29,16.29,0,0,0-2.49-2l1-1.25a16.12,16.12,0,0,1,2.53,2.12Zm.84,6.16a18.57,18.57,0,0,0,.49-2.37l1.19.27-.51,2.46Zm2.1-3.11-1.73.22a7,7,0,0,0-.33-1.27l1-.14.93-1.09a8.92,8.92,0,0,0-1.92-1.4l.63-1.17.44.27,1.11-2.3,1.17.62a26.12,26.12,0,0,1-1.29,2.4l.61.51a13.12,13.12,0,0,0,.83-1.82l1.25.43a11.34,11.34,0,0,1-2,3.26L84.2,16,84,15.28,85.09,15a11.79,11.79,0,0,1,.7,2.63l-1.15.26-.1-.57-.89.15v3.43H82.32Zm.1,9.18-.1.69L81,27l.49-3.21a.45.45,0,0,1,.5-.4h10.9v-.67c0-.08-.06-.14-.18-.14H81.31V21.29H93.89c.24,0,.36.12.36.34v3.66H92.86v-.55H83c-.24,0-.26.12-.36.73H94.57c.28,0,.45.12.45.4a7,7,0,0,1-.55,2.64l-.32.33c-.61.52-2,.76-4.1.76A55.65,55.65,0,0,1,84,29.18l-.08-1.43a50.06,50.06,0,0,0,7,.46,3.88,3.88,0,0,0,2.5-.56,3.08,3.08,0,0,0,.1-.85Zm2.08-6.14a13.8,13.8,0,0,0-.4-2.05l1.23-.19.38,2.14Zm7.69-3.18-1.73.22a6,6,0,0,0-.35-1.31l1.09-.14.79-.93a10.78,10.78,0,0,0-2-1.58l.06-.12H85.55v-1h4.68v.77l.47-.77.44.27,1-2.08,1.15.62a21.91,21.91,0,0,1-1.19,2.22l.63.61a14.1,14.1,0,0,0,.86-1.9l1.25.42A12.46,12.46,0,0,1,92.94,16L94,15.84l-.24-.77L95,14.75a24.39,24.39,0,0,1,.8,2.75l-1.21.22-.14-.55-.91.14v3.62H92.19Zm-6.32-6.36H90v1H85.87Zm.17,3h3.87v1H86Zm.08,1.41h3.71v1H86.12Zm3.71,5.1a.15.15,0,0,1-.16.17H86.3c-.1,0-.14-.06-.14-.17V17.17c0-.1,0-.14.14-.14h3.37c.1,0,.16,0,.16.14ZM88.7,18H87.27l0,0v1.66l0,.06H88.7l.06-.06V18.08Zm1.45,2.56a18.62,18.62,0,0,0,.37-2.46l1.23.22a22.26,22.26,0,0,1-.39,2.55Zm4.3.19a11.47,11.47,0,0,0-.58-2.35l1.19-.28a23.19,23.19,0,0,1,.6,2.44Z"/><path class="cls-3" d="M106.11,26.74v-13H98.64V11.91h16.67V13.7H108v13h8.22v1.79H97.77V26.74Z"/><path class="cls-3" d="M121.26,23.61V12.13a.51.51,0,0,1,.57-.57h12.45a.52.52,0,0,1,.59.57V23.61h2.3v1.57H118.84V23.61ZM119,27.85a12.51,12.51,0,0,0,5.53-2.22l1,1.41a14.19,14.19,0,0,1-5.87,2.46Zm4-13.3h10.17V13.36c0-.16-.06-.24-.24-.24H123.2c-.16,0-.22.08-.22.24Zm0,3.15h10.17V16.1H123Zm0,2.92h10.17V19.27H123Zm0,3h10.17V22.18H123Zm13.44,6a35,35,0,0,0-5.81-2.19l.58-1.64A29.13,29.13,0,0,1,137.07,28Z"/><path class="cls-3" d="M149.36,19.66l-3.49.86.22.35-1.43.92-1-1.71V29.5h-1.64V21.11c-.3.85-.58,1.59-.86,2.2l-1.7-.34a18.49,18.49,0,0,0,2.18-6.62h-1.76V14.63h2.14V10.82h1.64v3.81h1.61v1.72h-1.61v.88c.74,1.05,1.45,2.12,2.14,3.21a8,8,0,0,0-.53-1.37l.81-.18a21.73,21.73,0,0,0,1.35-2.1A15,15,0,0,0,144.78,14l.93-1.26.58.51c.32-.77.65-1.58,1-2.46l1.43.6a23.11,23.11,0,0,1-1.29,2.93l.81.91a12.46,12.46,0,0,0,.54-1.9l1.52.3a14.34,14.34,0,0,1-2.14,4.7l.8-.2-.24-.64,1.33-.39a27.18,27.18,0,0,1,.91,3l-1.35.26Zm6.13,1.51H158v1.57h-4.73a12.84,12.84,0,0,0,.91,2.18l1.49-1.85L157,24a17.1,17.1,0,0,1-1.94,2.36c.62.83,1,1.26,1.19,1.26s.16-.08.2-.23a14.85,14.85,0,0,0,.28-2.32l1.62.49c-.2,2.1-.61,3.39-1.11,3.89a1.48,1.48,0,0,1-.65.27c-.8,0-1.71-.79-2.72-2.35a15.8,15.8,0,0,1-5.11,2.18L148,28a15.32,15.32,0,0,0,5.06-2,17.13,17.13,0,0,1-1.33-3.25H148c-.15,0-.21,0-.21.18v.83a35.57,35.57,0,0,1,3.62,1.52l-.69,1.55c-.85-.48-1.82-1-3-1.47A6.33,6.33,0,0,1,146,29.56l-1.45-.82a5.6,5.6,0,0,0,1.59-4.26V21.61c0-.3.14-.44.42-.44h4.77a44.91,44.91,0,0,1-1.13-10.25l1.65.1,0,2.76.81-1.09.52.43a20.18,20.18,0,0,0,1.07-2.34l1.39.7a24.61,24.61,0,0,1-1.37,2.71l.85,1a14.41,14.41,0,0,0,1.17-3l1.49.4a16.19,16.19,0,0,1-2.7,5.19l1.13-.22-.26-.69,1.33-.42c.56,1.61.95,2.72,1.07,3.29l-1.33.32-.31-1-1.85.38a10.65,10.65,0,0,1,1.23,1.05Zm-1.13-4.66a13.91,13.91,0,0,0-2.44-2.42,35.16,35.16,0,0,0,.42,4.25l.81-.16Zm.49,4.66a9.82,9.82,0,0,0-1-.83l.66-.85-1.89.39.28,1.29Z"/><path class="cls-3" d="M162.32,11.66h7.12v5.88h-.71a30.83,30.83,0,0,1,1.42,3l-1.36.51c-.14-.37-.32-.79-.5-1.19a31.28,31.28,0,0,1-6.72,1.49l-.46-1.47,1.21-.12Zm-1,15.73h17.35v1.45H161.33Zm2.12-.79V21.11h13.21V26.6ZM167.91,14V13h-4.06v1Zm-4.06,1.29v.86h4.06v-.86Zm0,2.26v2a14.21,14.21,0,0,0,3.79-1l-.34-.63.89-.4Zm11.2,5.71v-.91h-10v.91Zm-10,1.21v.91h10v-.91Zm13.32-12.8V13H176a8.94,8.94,0,0,1-.38,2.16h3.14v1.39h-3.63a7,7,0,0,1-.3.68h1v1.3a.79.79,0,0,0,.78.82.93.93,0,0,0,.69-.16,5.13,5.13,0,0,0,.1-1.21l1.37.26a4.26,4.26,0,0,1-.32,1.94,1.32,1.32,0,0,1-1,.55h-1.69a1.62,1.62,0,0,1-1.44-1.44V18.08A7.91,7.91,0,0,1,171.5,21l-1.21-1.19c.1,0,.42-.23.91-.49a7.48,7.48,0,0,0,2.42-2.7h-3.47V15.2h1l.74-2,1.32.48-.59,1.52h1.55a7.27,7.27,0,0,0,.43-2.16h-3.86V11.66Z"/><path class="cls-3" d="M190.17,15.05h-6.32a.14.14,0,0,0-.16.15v2.68h-1.63v-4a.27.27,0,0,1,.3-.3h7.81v-.77h-6.76V11.4h15.07v1.39h-6.66v.77H199l1.33.69a13.63,13.63,0,0,1-.73,3.81l-1.57-.5a12.23,12.23,0,0,0,.54-2.32c0-.13-.06-.19-.18-.19h-6.6v3.44H191l1.23.44-.16.18a24.31,24.31,0,0,0,8.31,2.56l-.67,1.7A30.11,30.11,0,0,1,194.85,22v1.21h-7.51V22.06a40.7,40.7,0,0,1-5.1,1.57l-.67-1.69c4.38-.75,7.39-1.92,9-3.45h-.42Zm.7,10.48v4h-1.63v-4h-6.6V24.06h15.5c.34,0,.5.18.48.5V27c0,2.2-2.26,2.2-3.26,2.2a10.26,10.26,0,0,1-2.08-.2l-.2-1.63a12.23,12.23,0,0,0,2.48.32c.82,0,1.47-.12,1.51-1.23v-.71a.21.21,0,0,0-.24-.24Zm-6.53-9.67h5v1.31h-5Zm0,2h5v1.33h-5Zm10,3.91c-1.05-.46-2.18-1-3.38-1.63a21.53,21.53,0,0,1-3,1.63Zm-1.64-5.95h4.92v1.31h-4.92Zm0,2h5v1.33h-5Z"/><path class="cls-3" d="M205.57,20.83l-2.64.36a7.5,7.5,0,0,0-.43-1.49l1.13-.19a20.3,20.3,0,0,0,1.92-2.17,14.87,14.87,0,0,0-3-2.23l.73-1.37a1.3,1.3,0,0,1,.54.33,36.6,36.6,0,0,0,1.88-3.33l1.31.82a23.9,23.9,0,0,1-2,3.35l1.44,1.17a14.62,14.62,0,0,0,1.67-3.43l1.48.51a17.86,17.86,0,0,1-3.82,6l2.6-.42-.52-1.52,1.49-.4.61,1.82a17.27,17.27,0,0,1,.64,2.36l-1.49.28-.26-1-1.62.26V29.5h-1.63Zm-3,7.18a40.33,40.33,0,0,0,.75-5.79l1.53.24a49.25,49.25,0,0,1-.78,5.87Zm7-5.91.67,4.36-1.55.22L208,22.44Zm1.76,5.1V12a.52.52,0,0,1,.58-.57h7.8c.4,0,.6.2.6.57V27.2h1.13v1.64h-11.6V27.2Zm1.63-10.47h5.72V13.32c0-.16-.08-.24-.27-.24h-5.2a.22.22,0,0,0-.25.24Zm0,5.19h5.72V18.36h-5.72Zm0,5.28h5.72V23.57h-5.72Z"/><path class="cls-3" d="M225.65,19.31l-.56.87-1.64-.69A19.85,19.85,0,0,0,226.84,11l1.68.26a30.55,30.55,0,0,1-1.15,4.48V29.36h-1.72Zm9.26,3.82h-6.07V21.41h6.07V15.88h-3.39a13.75,13.75,0,0,1-1.91,3.47l-1.52-.93a11.29,11.29,0,0,0,2.61-7.14l1.71.1a22,22,0,0,1-.36,2.79h2.86V10.82h1.8v3.35h4.92v1.71h-4.92v5.53h5.49v1.72h-5.49v6.31h-1.8Z"/><path class="cls-3" d="M253,26.74v-13h-7.47V11.91h16.67V13.7h-7.35v13h8.22v1.79H244.7V26.74Z"/><path class="cls-3" d="M283.39,28.58a24.43,24.43,0,0,1-7.61-3.31v4.17h-1.65v-4a21.82,21.82,0,0,1-7.81,3.07l-.62-1.66A20.81,20.81,0,0,0,273.56,24h-7.3V22.44h7.87V21.31h-6.84V19.92h6.84V18.71h-7.41v-1.4h4.44a19.33,19.33,0,0,0-.78-1.83H266V13.92h3.43a12.77,12.77,0,0,0-1.21-2.07l1.35-.83A12.22,12.22,0,0,1,271,13.48l-.84.44h2.36v-3.1h1.57v3.1h1.82v-3.1h1.57v3.1h1.94l-.61-.44A17.69,17.69,0,0,0,280.47,11l1.33.82a14.75,14.75,0,0,1-1.35,2.14h3.33v1.56H279.2l-.71,1.83h4.66v1.4h-7.37v1.21h6.81v1.39h-6.81v1.13h7.83V24h-7a20.32,20.32,0,0,0,7.61,3ZM272.84,17.31h3.91l.79-1.83h-5.41Z"/><path class="cls-3" d="M289.23,29.26h-1.7V11.93c0-.41.18-.61.61-.61h15.52c.42,0,.64.2.64.61V27.24c0,1.46-.95,2.18-2.86,2.18a14.86,14.86,0,0,1-2.71-.3l-.14-1.92a13.3,13.3,0,0,0,2.73.51c.56,0,1.27-.41,1.27-1.05V13.18c0-.1-.06-.14-.16-.14H289.37c-.1,0-.14,0-.14.14Zm1.33-14.59H301.3v1.64H290.56Zm10.11,10.47a.42.42,0,0,1-.48.47h-8.5a.42.42,0,0,1-.46-.47v-6.7a.41.41,0,0,1,.46-.46h8.5a.42.42,0,0,1,.48.46ZM299,19.7c0-.06,0-.08-.09-.08H293c-.08,0-.1,0-.08.08v4.17l.08.1h5.85l.09-.1Z"/><path class="cls-3" d="M325.37,28.58a24.43,24.43,0,0,1-7.61-3.31v4.17h-1.65v-4a21.82,21.82,0,0,1-7.81,3.07l-.62-1.66A20.81,20.81,0,0,0,315.54,24h-7.3V22.44h7.87V21.31h-6.84V19.92h6.84V18.71H308.7v-1.4h4.44a19.33,19.33,0,0,0-.78-1.83H308V13.92h3.43a12.07,12.07,0,0,0-1.21-2.07l1.35-.83A11.76,11.76,0,0,1,313,13.48l-.84.44h2.36v-3.1h1.57v3.1h1.82v-3.1h1.57v3.1h1.94l-.61-.44A16.85,16.85,0,0,0,322.45,11l1.33.82a14.75,14.75,0,0,1-1.35,2.14h3.33v1.56h-4.58l-.71,1.83h4.66v1.4h-7.37v1.21h6.81v1.39h-6.81v1.13h7.83V24h-7a20.32,20.32,0,0,0,7.61,3ZM314.82,17.31h3.91l.79-1.83h-5.41Z"/><path class="cls-3" d="M328.56,19.78a15.83,15.83,0,0,0,3.86-6.24l1.69.61a18.14,18.14,0,0,1-3.93,6.66Zm15.71,7.69L329.39,28.7l-.48-1.76,2.28-.16a64.17,64.17,0,0,0,4.6-9.24l1.65.72a62,62,0,0,1-4.11,8.38l9.89-.75a46.85,46.85,0,0,0-3.29-4.54l1.47-1A82.74,82.74,0,0,1,347,28.47l-1.54.87Zm-9.55-16.15h7.57a.38.38,0,0,1,.44.34,12.13,12.13,0,0,0,4.62,8.12l-1.61,1c-2.14-2.24-3.05-3.43-4.26-7.49,0-.18-.08-.26-.18-.26h-6.58Z"/><path class="cls-3" d="M367.66,15.6a47.54,47.54,0,0,1-5.29-1.45v1h-6.86V14.13a50.6,50.6,0,0,1-5.37,1.41l-.58-1.64c4.45-.58,7.54-1.65,9.16-3.14l1.43.6-.14.14A24.79,24.79,0,0,0,368.28,14Zm-1,5.37a.2.2,0,0,1-.22.22H351.35a.2.2,0,0,1-.22-.22V16.23c0-.15.08-.21.22-.21h15.06c.14,0,.22.06.22.21Zm-12.57,7.65v.72h-1.64V22.46c0-.16.06-.26.26-.26h12.55c.23,0,.35.1.35.32v6.82h-1.64v-.72Zm1.51-11a11.2,11.2,0,0,1,1.11,2.12h1.45V17.5h-5.39q-.09,0-.06.06v2.08l.06.08h2.2l-.76-1.38Zm-1.51,7.12h9.88v-.91c0-.14-.08-.22-.24-.22h-9.42c-.16,0-.24.08-.22.22Zm9.88,1.39h-9.88V27.2h9.88Zm-2.58-12.39-2.5-1.23a18.51,18.51,0,0,1-2.32,1.23Zm2.44,4.79-.74,1.21H365l.09-.08V17.56L365,17.5h-5.28v2.22h1.37a14.33,14.33,0,0,0,1.39-2.08Z"/><path class="cls-3" d="M54.29,35.79H60.8V37H54.29Zm2.61.76h1.29V45H56.9Z"/><path class="cls-3" d="M61.47,44.61a2.22,2.22,0,0,1,0-3,2.46,2.46,0,0,1,1.66-.49H65l.09,1h-2a1.11,1.11,0,0,0-.76.23.91.91,0,0,0-.25.69.86.86,0,0,0,.33.74,1.79,1.79,0,0,0,1,.24,2.89,2.89,0,0,0,1.11-.16.51.51,0,0,0,.36-.49l.13.92a1.36,1.36,0,0,1-.42.44A1.8,1.8,0,0,1,64,45a2.85,2.85,0,0,1-.74.08A2.76,2.76,0,0,1,61.47,44.61Zm3.43-3.77a1.34,1.34,0,0,0-.35-1,1.28,1.28,0,0,0-1-.36,2.53,2.53,0,0,0-.77.12,2.46,2.46,0,0,0-.67.33l-.94-.64a2.44,2.44,0,0,1,1-.7,3.56,3.56,0,0,1,1.37-.25,3.18,3.18,0,0,1,1.4.28,2.13,2.13,0,0,1,.89.84,2.75,2.75,0,0,1,.3,1.33V45H64.9Z"/><path class="cls-3" d="M68.1,35.79h1.29v1.3H68.1Zm0,2.64h1.29V45H68.1Z"/><path class="cls-3" d="M70.79,38.43h1.35l1.17,4.7L75,38.43h.91l1.64,4.7,1.17-4.7H80L78,45H77l-1.6-4.55L73.8,45h-1Z"/><path class="cls-3" d="M81.7,44.61a1.9,1.9,0,0,1-.6-1.53,1.85,1.85,0,0,1,.55-1.47,2.5,2.5,0,0,1,1.67-.49h1.87l.09,1h-2a1.11,1.11,0,0,0-.76.23.87.87,0,0,0-.25.69.86.86,0,0,0,.33.74,1.73,1.73,0,0,0,1,.24,2.83,2.83,0,0,0,1.11-.16.51.51,0,0,0,.37-.49l.13.92a1.36,1.36,0,0,1-.42.44,1.8,1.8,0,0,1-.58.26,2.88,2.88,0,0,1-.75.08A2.76,2.76,0,0,1,81.7,44.61Zm3.44-3.77a1.38,1.38,0,0,0-.35-1,1.3,1.3,0,0,0-1-.36,2.53,2.53,0,0,0-.77.12,2.33,2.33,0,0,0-.67.33l-1-.64a2.41,2.41,0,0,1,1-.7,3.51,3.51,0,0,1,1.36-.25,3.12,3.12,0,0,1,1.4.28,2.07,2.07,0,0,1,.89.84,2.64,2.64,0,0,1,.31,1.33V45H85.14Z"/><path class="cls-3" d="M88.34,38.43h1.29V45H88.34Zm4,2.6A1.5,1.5,0,0,0,92,40a1.31,1.31,0,0,0-1-.38,1.35,1.35,0,0,0-1,.33,1.28,1.28,0,0,0-.35,1l-.13-1.27a2.39,2.39,0,0,1,.79-.92,1.91,1.91,0,0,1,1.09-.32A2,2,0,0,1,93,39a3,3,0,0,1,.59,2v4h-1.3Z"/><path class="cls-3" d="M104.58,35.79h1.21V45h-1.26V38.11l.06.4-2.27,5.23h-.9l-2.27-5.1.06-.53V45H98V35.79h1.21l2.71,6.09Z"/><path class="cls-3" d="M108.24,44.61a2.23,2.23,0,0,1-.06-3,2.5,2.5,0,0,1,1.67-.49h1.88l.09,1h-2a1.11,1.11,0,0,0-.76.23.87.87,0,0,0-.25.69.86.86,0,0,0,.33.74,1.76,1.76,0,0,0,1,.24,2.8,2.8,0,0,0,1.1-.16.51.51,0,0,0,.37-.49l.13.92a1.36,1.36,0,0,1-.42.44,1.8,1.8,0,0,1-.58.26,2.85,2.85,0,0,1-.74.08A2.76,2.76,0,0,1,108.24,44.61Zm3.43-3.77a1.38,1.38,0,0,0-.35-1,1.28,1.28,0,0,0-1-.36,2.53,2.53,0,0,0-.77.12,2.46,2.46,0,0,0-.67.33l-.94-.64a2.44,2.44,0,0,1,1-.7,3.56,3.56,0,0,1,1.37-.25,3.18,3.18,0,0,1,1.4.28,2.13,2.13,0,0,1,.89.84,2.75,2.75,0,0,1,.3,1.33V45h-1.23Z"/><path class="cls-3" d="M116.63,45.11l-.64-.33a2.24,2.24,0,0,1-1-1,3.23,3.23,0,0,1-.34-1.55V41.17a3.15,3.15,0,0,1,.34-1.53,2.17,2.17,0,0,1,1-1,3.31,3.31,0,0,1,1.54-.33,3.85,3.85,0,0,1,1,.12,2.7,2.7,0,0,1,.81.36,2.37,2.37,0,0,1,.61.57l-.94.84a1.83,1.83,0,0,0-.65-.49,1.77,1.77,0,0,0-.78-.17,1.54,1.54,0,0,0-1.16.42,1.57,1.57,0,0,0-.42,1.18v1.08a1.7,1.7,0,0,0,.41,1.21,1.57,1.57,0,0,0,1.17.42,1.75,1.75,0,0,0,.78-.18,1.92,1.92,0,0,0,.65-.52l.94.9a2.33,2.33,0,0,1-.61.56,2.86,2.86,0,0,1-.82.35,3.33,3.33,0,0,1-1,.12Z"/><path class="cls-3" d="M121.34,35.79h1.3V45h-1.3Zm4,5.24A1.5,1.5,0,0,0,125,40a1.31,1.31,0,0,0-1-.38,1.39,1.39,0,0,0-1,.33,1.22,1.22,0,0,0-.34.93l-.13-1.27a2.25,2.25,0,0,1,.79-.9,1.91,1.91,0,0,1,1.09-.32,2,2,0,0,1,1.66.7,3,3,0,0,1,.59,2v4h-1.3Z"/><path class="cls-3" d="M128.61,35.79h1.29v1.3h-1.29Zm0,2.64h1.29V45h-1.29Z"/><path class="cls-3" d="M131.87,38.43h1.29V45h-1.29Zm4,2.6a1.5,1.5,0,0,0-.36-1.08,1.33,1.33,0,0,0-1-.38,1.37,1.37,0,0,0-1,.33,1.28,1.28,0,0,0-.35,1L133,39.58a2.33,2.33,0,0,1,.8-.92,1.88,1.88,0,0,1,1.08-.32,2.06,2.06,0,0,1,1.67.7,3,3,0,0,1,.58,2v4h-1.29Z"/><path class="cls-3" d="M140.91,45.11l-.64-.34a2.28,2.28,0,0,1-1-1,3.48,3.48,0,0,1-.34-1.61v-.74a3.86,3.86,0,0,1,.33-1.67,2.26,2.26,0,0,1,.95-1,2.91,2.91,0,0,1,1.49-.36,2.35,2.35,0,0,1,1.41.41,2.49,2.49,0,0,1,.89,1.19,5,5,0,0,1,.31,1.87v.44h-4.44v-1h3.21a2.24,2.24,0,0,0-.42-1.25,1.14,1.14,0,0,0-1-.45,1.39,1.39,0,0,0-1.14.49,2.1,2.1,0,0,0-.4,1.36v.84a1.74,1.74,0,0,0,.43,1.26,1.66,1.66,0,0,0,1.23.43,2,2,0,0,0,.78-.16,2.08,2.08,0,0,0,.69-.44l.85.85a3.52,3.52,0,0,1-1.1.73,3.1,3.1,0,0,1-1.22.25Z"/><path class="cls-3" d="M147.18,35.79h6.51V37h-6.51Zm2.61.76h1.29V45h-1.29Z"/><path class="cls-3" d="M154.94,44.78a2.32,2.32,0,0,1-.93-1,3.51,3.51,0,0,1-.32-1.55V41.17a3.45,3.45,0,0,1,.32-1.53,2.24,2.24,0,0,1,.93-1,3.07,3.07,0,0,1,1.47-.33,3,3,0,0,1,1.46.33,2.13,2.13,0,0,1,.93,1,3.32,3.32,0,0,1,.32,1.53v1.09a3.28,3.28,0,0,1-.32,1.54,2.2,2.2,0,0,1-.93,1,3,3,0,0,1-1.46.33A3.07,3.07,0,0,1,154.94,44.78Zm2.52-1.32a1.76,1.76,0,0,0,.37-1.2V41.17a1.69,1.69,0,0,0-.37-1.18,1.52,1.52,0,0,0-2.1,0,1.69,1.69,0,0,0-.37,1.18v1.09a1.76,1.76,0,0,0,.37,1.2,1.52,1.52,0,0,0,2.1,0Z"/><path class="cls-3" d="M162,44.78a2.2,2.2,0,0,1-.93-1,3.38,3.38,0,0,1-.32-1.55V41.17a3.32,3.32,0,0,1,.32-1.53,2.13,2.13,0,0,1,.93-1,3,3,0,0,1,1.46-.33,3.07,3.07,0,0,1,1.47.33,2.24,2.24,0,0,1,.93,1,3.45,3.45,0,0,1,.32,1.53v1.09a3.41,3.41,0,0,1-.32,1.54,2.32,2.32,0,0,1-.93,1,3.07,3.07,0,0,1-1.47.33A3,3,0,0,1,162,44.78Zm2.51-1.32a1.76,1.76,0,0,0,.37-1.2V41.17a1.69,1.69,0,0,0-.37-1.18,1.52,1.52,0,0,0-2.1,0,1.69,1.69,0,0,0-.37,1.18v1.09a1.76,1.76,0,0,0,.37,1.2,1.52,1.52,0,0,0,2.1,0Z"/><path class="cls-3" d="M169.34,43.32a.58.58,0,0,0,.11.37.35.35,0,0,0,.29.13h.61v1.23h-.76a1.43,1.43,0,0,1-1.14-.46,1.85,1.85,0,0,1-.4-1.28V35.79h1.29Z"/><path class="cls-3" d="M175.53,41.36a1.45,1.45,0,0,0-.43,1.11,1.37,1.37,0,0,0,.46,1.09,2,2,0,0,0,1.3.39,2.22,2.22,0,0,0,1.36-.42,2.59,2.59,0,0,0,.86-1.24,5.63,5.63,0,0,0,.3-1.95h1.23a6.43,6.43,0,0,1-.47,2.58,3.59,3.59,0,0,1-1.38,1.63,4,4,0,0,1-2.19.56,3.19,3.19,0,0,1-1.47-.31,2.08,2.08,0,0,1-.93-.9,2.91,2.91,0,0,1-.32-1.43,2.54,2.54,0,0,1,.62-1.81,2.61,2.61,0,0,1,1.76-.79l.53,1.09A1.74,1.74,0,0,0,175.53,41.36Zm.61,0a6.58,6.58,0,0,1-.75-1,4.43,4.43,0,0,1-.48-1,3.71,3.71,0,0,1-.16-1.1,2.56,2.56,0,0,1,.64-1.87,2.42,2.42,0,0,1,1.83-.67,2.51,2.51,0,0,1,1.82.64,2.44,2.44,0,0,1,.64,1.81v.12h-1.29v-.12A1.06,1.06,0,0,0,177.22,37a1.13,1.13,0,0,0-.87.33,1.32,1.32,0,0,0-.31.94,2.56,2.56,0,0,0,.12.76,3.28,3.28,0,0,0,.36.79,4.18,4.18,0,0,0,.56.73L181.3,45h-1.64Z"/><path class="cls-3" d="M187.37,35.79h1.11l3.4,9.23h-1.4l-2.56-7.45L185.37,45H184Zm-1.83,6h4.85V43h-4.85Z"/><path class="cls-3" d="M194.91,45.11l-.64-.33a2.32,2.32,0,0,1-1-1,3.35,3.35,0,0,1-.33-1.55V41.17a3.26,3.26,0,0,1,.33-1.53,2.24,2.24,0,0,1,1-1,3.31,3.31,0,0,1,1.54-.33,3.85,3.85,0,0,1,1,.12,2.7,2.7,0,0,1,.81.36,2.18,2.18,0,0,1,.6.57l-.93.84a1.93,1.93,0,0,0-.65-.49,1.77,1.77,0,0,0-.78-.17,1.58,1.58,0,0,0-1.17.42,1.61,1.61,0,0,0-.41,1.18v1.08a1.7,1.7,0,0,0,.41,1.21,1.57,1.57,0,0,0,1.17.42,1.78,1.78,0,0,0,.78-.18,1.92,1.92,0,0,0,.65-.52l.93.9a2.05,2.05,0,0,1-.61.56,2.69,2.69,0,0,1-.81.35,3.33,3.33,0,0,1-1,.12Z"/><path class="cls-3" d="M201.38,45.11l-.64-.33a2.29,2.29,0,0,1-1-1,3.35,3.35,0,0,1-.34-1.55V41.17a3.26,3.26,0,0,1,.34-1.53,2.22,2.22,0,0,1,1-1,3.33,3.33,0,0,1,1.54-.33,3.74,3.74,0,0,1,1,.12,2.88,2.88,0,0,1,.82.36,2.18,2.18,0,0,1,.6.57l-.93.84a2,2,0,0,0-.66-.49,1.77,1.77,0,0,0-.78-.17,1.54,1.54,0,0,0-1.16.42,1.61,1.61,0,0,0-.41,1.18v1.08a1.66,1.66,0,0,0,.41,1.21,1.54,1.54,0,0,0,1.16.42,1.79,1.79,0,0,0,.79-.18,1.92,1.92,0,0,0,.65-.52l.93.9a2.33,2.33,0,0,1-.61.56,2.64,2.64,0,0,1-.82.35,3.33,3.33,0,0,1-1,.12Z"/><path class="cls-3" d="M207.88,45.11l-.65-.34a2.26,2.26,0,0,1-1-1,3.48,3.48,0,0,1-.34-1.61v-.74a4,4,0,0,1,.32-1.67,2.37,2.37,0,0,1,1-1,3,3,0,0,1,1.5-.36,2.35,2.35,0,0,1,1.41.41,2.49,2.49,0,0,1,.89,1.19,5,5,0,0,1,.31,1.87v.44h-4.44v-1h3.21a2.24,2.24,0,0,0-.42-1.25,1.17,1.17,0,0,0-1-.45,1.39,1.39,0,0,0-1.14.49,2,2,0,0,0-.4,1.36v.84a1.74,1.74,0,0,0,.43,1.26,1.66,1.66,0,0,0,1.23.43,2,2,0,0,0,.78-.16,2.31,2.31,0,0,0,.69-.44l.85.85a3.64,3.64,0,0,1-1.1.73,3.13,3.13,0,0,1-1.22.25Z"/><path class="cls-3" d="M214.81,45.11,214.3,45a4.12,4.12,0,0,1-1-.34,3.88,3.88,0,0,1-.82-.57l.77-1a4.25,4.25,0,0,0,1.06.61,2.74,2.74,0,0,0,1,.2,2.21,2.21,0,0,0,1.15-.24.76.76,0,0,0,.38-.71.57.57,0,0,0-.21-.48,1.29,1.29,0,0,0-.52-.21c-.2,0-.5-.07-.87-.1H215a5,5,0,0,1-1.09-.18,1.51,1.51,0,0,1-.74-.51,1.76,1.76,0,0,1-.29-1.08,2.19,2.19,0,0,1,.28-1.16,1.75,1.75,0,0,1,.86-.69,3.59,3.59,0,0,1,1.41-.23,5.18,5.18,0,0,1,1,.09,4.39,4.39,0,0,1,.89.28,4.51,4.51,0,0,1,.82.48l-.78.94a4.1,4.1,0,0,0-1-.47,2.86,2.86,0,0,0-.94-.16,1.77,1.77,0,0,0-1,.22.77.77,0,0,0-.33.68.45.45,0,0,0,.19.4,1.05,1.05,0,0,0,.47.18c.19,0,.46.05.81.07h.24a5.77,5.77,0,0,1,1.18.18,1.6,1.6,0,0,1,.82.56,1.85,1.85,0,0,1,.33,1.19,2.05,2.05,0,0,1-.31,1.18,1.87,1.87,0,0,1-.91.7,4.31,4.31,0,0,1-1.54.23Z"/><path class="cls-3" d="M221.55,45.11,221,45a4.12,4.12,0,0,1-.95-.34,3.88,3.88,0,0,1-.82-.57l.77-1a4.44,4.44,0,0,0,1.06.61,2.78,2.78,0,0,0,1,.2,2.21,2.21,0,0,0,1.15-.24.76.76,0,0,0,.38-.71.6.6,0,0,0-.2-.48,1.4,1.4,0,0,0-.53-.21c-.2,0-.49-.07-.87-.1h-.32a5,5,0,0,1-1.09-.18,1.44,1.44,0,0,1-.73-.51,1.69,1.69,0,0,1-.3-1.08,2.19,2.19,0,0,1,.29-1.16,1.68,1.68,0,0,1,.85-.69,3.62,3.62,0,0,1,1.41-.23,5.1,5.1,0,0,1,1,.09,4.49,4.49,0,0,1,.9.28,4.79,4.79,0,0,1,.81.48l-.78.94a4.1,4.1,0,0,0-1-.47,2.86,2.86,0,0,0-.94-.16,1.77,1.77,0,0,0-1,.22.77.77,0,0,0-.33.68.45.45,0,0,0,.19.4,1.05,1.05,0,0,0,.47.18c.19,0,.46.05.81.07h.25a5.77,5.77,0,0,1,1.17.18,1.6,1.6,0,0,1,.82.56A1.85,1.85,0,0,1,224.9,43a2.05,2.05,0,0,1-.31,1.18,1.82,1.82,0,0,1-.91.7,4.27,4.27,0,0,1-1.54.23Z"/><path class="cls-3" d="M227.61,44.78a2.2,2.2,0,0,1-.93-1,3.51,3.51,0,0,1-.32-1.55V41.17a3.45,3.45,0,0,1,.32-1.53,2.13,2.13,0,0,1,.93-1,3,3,0,0,1,1.47-.33,3,3,0,0,1,1.46.33,2.13,2.13,0,0,1,.93,1,3.32,3.32,0,0,1,.32,1.53v1.09a3.28,3.28,0,0,1-.32,1.54,2.2,2.2,0,0,1-.93,1,3,3,0,0,1-1.46.33A3,3,0,0,1,227.61,44.78Zm2.52-1.32a1.81,1.81,0,0,0,.37-1.2V41.17a1.74,1.74,0,0,0-.37-1.18,1.33,1.33,0,0,0-1-.42A1.31,1.31,0,0,0,228,40a1.69,1.69,0,0,0-.38,1.18v1.09a1.76,1.76,0,0,0,.38,1.2,1.31,1.31,0,0,0,1.05.42A1.33,1.33,0,0,0,230.13,43.46Z"/><path class="cls-3" d="M233.63,38.43h1.3V45h-1.3Zm3.2,1.24a1.66,1.66,0,0,0-.61-.1,1.18,1.18,0,0,0-1.29,1.28l-.13-1.27a2.44,2.44,0,0,1,.78-.92,1.84,1.84,0,0,1,1.07-.32,2.39,2.39,0,0,1,.82.13,1.69,1.69,0,0,1,.63.38L237.26,40A1.24,1.24,0,0,0,236.83,39.67Z"/><path class="cls-3" d="M238.48,38.43h1.32l2,5.73-.72,1.4Zm5.84,0-2.81,8.13a1.91,1.91,0,0,1-.4.72,1.36,1.36,0,0,1-.61.37,2.82,2.82,0,0,1-.89.12h-.26V46.52h.26a1,1,0,0,0,.58-.14,1.28,1.28,0,0,0,.37-.5L243,38.43Z"/><path class="cls-3" d="M247.81,35.79h1.29V45h-1.29Zm.76,8h2.5a2.27,2.27,0,0,0,1.43-.37,1.29,1.29,0,0,0,.46-1.06v0a1.78,1.78,0,0,0-.17-.8,1,1,0,0,0-.51-.52,1.93,1.93,0,0,0-.89-.18h-2.82V39.7h2.82a1.51,1.51,0,0,0,1.08-.34,1.28,1.28,0,0,0,.36-1,1.29,1.29,0,0,0-.4-1,1.85,1.85,0,0,0-1.22-.34h-2.64v-1.2h2.87a3.34,3.34,0,0,1,1.5.3,2.1,2.1,0,0,1,.9.87,2.75,2.75,0,0,1,.3,1.33,2.18,2.18,0,0,1-.18.89,1.76,1.76,0,0,1-.56.71,2.17,2.17,0,0,1-.94.4,2.08,2.08,0,0,1,1.59,1.18,2.45,2.45,0,0,1,.21,1v0a2.61,2.61,0,0,1-.33,1.32,2.22,2.22,0,0,1-.94.88,3.12,3.12,0,0,1-1.44.31h-3Z"/><path class="cls-3" d="M257.37,42.44a1.5,1.5,0,0,0,.35,1.07,1.3,1.3,0,0,0,1,.37,1.38,1.38,0,0,0,1-.33,1.3,1.3,0,0,0,.35-1l.09,1.38a2,2,0,0,1-.66.81,1.89,1.89,0,0,1-1.13.33,2.06,2.06,0,0,1-1.68-.7,2.92,2.92,0,0,1-.6-2v-4h1.3Zm2.68-4h1.28V45h-1.28Z"/><path class="cls-3" d="M263.3,35.79h1.3v1.3h-1.3Zm0,2.64h1.3V45h-1.3Z"/><path class="cls-3" d="M267.86,43.32a.53.53,0,0,0,.11.37.34.34,0,0,0,.29.13h.61v1.23h-.76a1.43,1.43,0,0,1-1.14-.46,1.86,1.86,0,0,1-.41-1.28V35.79h1.3Z"/><path class="cls-3" d="M271.18,44.82a2,2,0,0,1-.78-.92,3.67,3.67,0,0,1-.26-1.44V41a3.69,3.69,0,0,1,.26-1.45,1.93,1.93,0,0,1,.76-.92,2.18,2.18,0,0,1,1.19-.31,2,2,0,0,1,1.07.3,2.2,2.2,0,0,1,.79.86l-.14,1.34a1.55,1.55,0,0,0-.15-.71,1.09,1.09,0,0,0-.44-.46,1.48,1.48,0,0,0-.7-.15,1.23,1.23,0,0,0-1,.4,1.6,1.6,0,0,0-.36,1.12v1.44a1.57,1.57,0,0,0,.36,1.1,1.25,1.25,0,0,0,1,.39,1.37,1.37,0,0,0,.7-.16,1.09,1.09,0,0,0,.44-.46,1.68,1.68,0,0,0,.15-.74l.09,1.4a1.85,1.85,0,0,1-.64.81,1.82,1.82,0,0,1-1.1.33A2.31,2.31,0,0,1,271.18,44.82Zm2.89-9h1.3V45h-1.3Z"/><path class="cls-3" d="M279.12,45.11l-.65-.34a2.26,2.26,0,0,1-1-1,3.48,3.48,0,0,1-.34-1.61v-.74a4,4,0,0,1,.32-1.67,2.37,2.37,0,0,1,.95-1,3,3,0,0,1,1.5-.36,2.35,2.35,0,0,1,1.41.41,2.49,2.49,0,0,1,.89,1.19,5,5,0,0,1,.31,1.87v.44h-4.44v-1h3.21a2.24,2.24,0,0,0-.42-1.25,1.17,1.17,0,0,0-1-.45,1.39,1.39,0,0,0-1.14.49,2,2,0,0,0-.4,1.36v.84a1.74,1.74,0,0,0,.43,1.26,1.65,1.65,0,0,0,1.22.43,1.91,1.91,0,0,0,.78-.16,2.24,2.24,0,0,0,.7-.44l.85.85a3.64,3.64,0,0,1-1.1.73,3.15,3.15,0,0,1-1.23.25Z"/><path class="cls-3" d="M284.31,38.43h1.29V45h-1.29Zm3.19,1.24a1.57,1.57,0,0,0-.6-.1,1.18,1.18,0,0,0-1.3,1.28l-.13-1.27a2.38,2.38,0,0,1,.79-.92,1.81,1.81,0,0,1,1.06-.32,2.39,2.39,0,0,1,.82.13,1.81,1.81,0,0,1,.64.38L287.93,40A1.16,1.16,0,0,0,287.5,39.67Z"/><path class="cls-3" d="M291.6,45.11l-.51-.11a4.37,4.37,0,0,1-1-.34,4.15,4.15,0,0,1-.82-.57l.77-1a4.64,4.64,0,0,0,1.06.61,2.78,2.78,0,0,0,1,.2,2.23,2.23,0,0,0,1.16-.24.77.77,0,0,0,.38-.71.57.57,0,0,0-.21-.48,1.29,1.29,0,0,0-.52-.21c-.21,0-.5-.07-.88-.1h-.31a5,5,0,0,1-1.09-.18,1.46,1.46,0,0,1-.74-.51,1.76,1.76,0,0,1-.29-1.08,2.19,2.19,0,0,1,.28-1.16,1.72,1.72,0,0,1,.85-.69,3.67,3.67,0,0,1,1.42-.23,5.18,5.18,0,0,1,1,.09,4.39,4.39,0,0,1,.89.28,4.51,4.51,0,0,1,.82.48l-.78.94a4.16,4.16,0,0,0-1-.47,2.8,2.8,0,0,0-.93-.16,1.77,1.77,0,0,0-1,.22.77.77,0,0,0-.33.68.45.45,0,0,0,.19.4,1.05,1.05,0,0,0,.47.18c.19,0,.46.05.81.07h.24a5.88,5.88,0,0,1,1.18.18,1.68,1.68,0,0,1,.82.56A1.92,1.92,0,0,1,295,43a2.13,2.13,0,0,1-.31,1.18,1.85,1.85,0,0,1-.92.7,4.27,4.27,0,0,1-1.54.23Z"/><path class="cls-3" d="M296.09,35.79h1.29v1.3l-1.29,1.28Z"/><path class="cls-3" d="M303.77,35.79h1.1L308.28,45h-1.4l-2.56-7.45L301.76,45h-1.39Zm-1.84,6h4.86V43h-4.86Z"/><path class="cls-3" d="M311.29,45.11l-.51-.11a4.37,4.37,0,0,1-1-.34,4.09,4.09,0,0,1-.81-.57l.76-1a4.64,4.64,0,0,0,1.06.61,2.83,2.83,0,0,0,1.05.2,2.21,2.21,0,0,0,1.15-.24.77.77,0,0,0,.38-.71.57.57,0,0,0-.21-.48,1.29,1.29,0,0,0-.52-.21c-.2,0-.5-.07-.87-.1h-.32A5,5,0,0,1,310.4,42a1.51,1.51,0,0,1-.74-.51,1.76,1.76,0,0,1-.29-1.08,2.19,2.19,0,0,1,.28-1.16,1.72,1.72,0,0,1,.85-.69,3.67,3.67,0,0,1,1.42-.23,5.18,5.18,0,0,1,1,.09,4.39,4.39,0,0,1,.89.28,4.51,4.51,0,0,1,.82.48l-.78.94a4.1,4.1,0,0,0-1-.47,2.86,2.86,0,0,0-.94-.16,1.77,1.77,0,0,0-1,.22.77.77,0,0,0-.33.68.45.45,0,0,0,.19.4,1.05,1.05,0,0,0,.47.18c.19,0,.46.05.81.07h.24a5.88,5.88,0,0,1,1.18.18,1.64,1.64,0,0,1,.82.56,1.85,1.85,0,0,1,.33,1.19,2.05,2.05,0,0,1-.31,1.18,1.85,1.85,0,0,1-.92.7,4.21,4.21,0,0,1-1.53.23Z"/><path class="cls-3" d="M318,45.11l-.51-.11a4.37,4.37,0,0,1-1-.34,4.09,4.09,0,0,1-.81-.57l.76-1a4.64,4.64,0,0,0,1.06.61,2.83,2.83,0,0,0,1.05.2,2.21,2.21,0,0,0,1.15-.24.77.77,0,0,0,.38-.71.57.57,0,0,0-.21-.48,1.29,1.29,0,0,0-.52-.21c-.2,0-.5-.07-.87-.1h-.32a5,5,0,0,1-1.09-.18,1.51,1.51,0,0,1-.74-.51,1.76,1.76,0,0,1-.29-1.08,2.19,2.19,0,0,1,.28-1.16,1.72,1.72,0,0,1,.85-.69,3.67,3.67,0,0,1,1.42-.23,5.18,5.18,0,0,1,1,.09,4.39,4.39,0,0,1,.89.28,4.51,4.51,0,0,1,.82.48l-.78.94a4.1,4.1,0,0,0-1-.47,2.86,2.86,0,0,0-.94-.16,1.77,1.77,0,0,0-1,.22.77.77,0,0,0-.33.68.45.45,0,0,0,.19.4A1.05,1.05,0,0,0,318,41c.19,0,.46.05.81.07h.24a5.88,5.88,0,0,1,1.18.18,1.6,1.6,0,0,1,.82.56,1.85,1.85,0,0,1,.33,1.19,2.05,2.05,0,0,1-.31,1.18,1.85,1.85,0,0,1-.92.7,4.21,4.21,0,0,1-1.53.23Z"/><path class="cls-3" d="M324.09,44.78a2.2,2.2,0,0,1-.93-1,3.38,3.38,0,0,1-.32-1.55V41.17a3.32,3.32,0,0,1,.32-1.53,2.13,2.13,0,0,1,.93-1,3.42,3.42,0,0,1,2.93,0,2.13,2.13,0,0,1,.93,1,3.45,3.45,0,0,1,.32,1.53v1.09A3.41,3.41,0,0,1,328,43.8a2.2,2.2,0,0,1-.93,1,3.42,3.42,0,0,1-2.93,0Zm2.52-1.32a1.81,1.81,0,0,0,.37-1.2V41.17a1.74,1.74,0,0,0-.37-1.18,1.54,1.54,0,0,0-2.11,0,1.74,1.74,0,0,0-.37,1.18v1.09a1.81,1.81,0,0,0,.37,1.2,1.54,1.54,0,0,0,2.11,0Z"/><path class="cls-3" d="M331.87,45.11l-.64-.33a2.29,2.29,0,0,1-1-1,3.23,3.23,0,0,1-.34-1.55V41.17a3.15,3.15,0,0,1,.34-1.53,2.22,2.22,0,0,1,1-1,3.33,3.33,0,0,1,1.54-.33,3.79,3.79,0,0,1,1,.12,2.88,2.88,0,0,1,.82.36,2.18,2.18,0,0,1,.6.57l-.93.84a2,2,0,0,0-.66-.49,1.77,1.77,0,0,0-.78-.17,1.54,1.54,0,0,0-1.16.42,1.57,1.57,0,0,0-.41,1.18v1.08a1.66,1.66,0,0,0,.41,1.21,1.54,1.54,0,0,0,1.16.42,1.79,1.79,0,0,0,.79-.18,2,2,0,0,0,.65-.52l.93.9a2.33,2.33,0,0,1-.61.56,2.64,2.64,0,0,1-.82.35,3.33,3.33,0,0,1-1,.12Z"/><path class="cls-3" d="M336.59,35.79h1.29v1.3h-1.29Zm0,2.64h1.29V45h-1.29Z"/><path class="cls-3" d="M340.13,44.61a2.25,2.25,0,0,1-.05-3,2.5,2.5,0,0,1,1.67-.49h1.88l.08,1h-1.95a1.11,1.11,0,0,0-.76.23.87.87,0,0,0-.25.69.86.86,0,0,0,.33.74,1.76,1.76,0,0,0,1,.24,2.8,2.8,0,0,0,1.1-.16.51.51,0,0,0,.37-.49l.13.92a1.36,1.36,0,0,1-.42.44,1.8,1.8,0,0,1-.58.26,2.85,2.85,0,0,1-.74.08A2.8,2.8,0,0,1,340.13,44.61Zm3.44-3.77a1.38,1.38,0,0,0-.35-1,1.3,1.3,0,0,0-1-.36,2.53,2.53,0,0,0-.77.12,2.33,2.33,0,0,0-.67.33l-.95-.64a2.41,2.41,0,0,1,1-.7,3.51,3.51,0,0,1,1.36-.25,3.2,3.2,0,0,1,1.41.28,2,2,0,0,1,.88.84,2.64,2.64,0,0,1,.31,1.33V45h-1.23Z"/><path class="cls-3" d="M346.26,38.43h3V39.6h-3Zm1.05,6.18a2,2,0,0,1-.37-1.3v-6.8h1.29v6.81a.65.65,0,0,0,.1.37.32.32,0,0,0,.28.13h.62v1.23h-.75A1.47,1.47,0,0,1,347.31,44.61Z"/><path class="cls-3" d="M351,35.79h1.29v1.3H351Zm0,2.64h1.29V45H351Z"/><path class="cls-3" d="M355.33,44.78a2.2,2.2,0,0,1-.93-1,3.51,3.51,0,0,1-.32-1.55V41.17a3.45,3.45,0,0,1,.32-1.53,2.13,2.13,0,0,1,.93-1,3.07,3.07,0,0,1,1.47-.33,3,3,0,0,1,1.46.33,2.13,2.13,0,0,1,.93,1,3.32,3.32,0,0,1,.32,1.53v1.09a3.28,3.28,0,0,1-.32,1.54,2.2,2.2,0,0,1-.93,1,3,3,0,0,1-1.46.33A3.07,3.07,0,0,1,355.33,44.78Zm2.52-1.32a1.81,1.81,0,0,0,.37-1.2V41.17a1.74,1.74,0,0,0-.37-1.18,1.33,1.33,0,0,0-1.05-.42,1.31,1.31,0,0,0-1.05.42,1.69,1.69,0,0,0-.37,1.18v1.09a1.76,1.76,0,0,0,.37,1.2,1.31,1.31,0,0,0,1.05.42A1.33,1.33,0,0,0,357.85,43.46Z"/><path class="cls-3" d="M361.35,38.43h1.3V45h-1.3Zm4,2.6A1.5,1.5,0,0,0,365,40a1.31,1.31,0,0,0-1-.38,1.39,1.39,0,0,0-1,.33,1.27,1.27,0,0,0-.34,1l-.13-1.27a2.31,2.31,0,0,1,.79-.92,1.91,1.91,0,0,1,1.09-.32,2,2,0,0,1,1.66.7,3,3,0,0,1,.59,2v4h-1.3Z"/></g></g></svg>