<?xml version="1.0" encoding="utf-8"?>
<!-- Generator: Adobe Illustrator 22.0.1, SVG Export Plug-In . SVG Version: 6.00 Build 0)  -->
<svg version="1.1" id="圖層_6" xmlns="http://www.w3.org/2000/svg" xmlns:xlink="http://www.w3.org/1999/xlink" x="0px" y="0px"
	 viewBox="0 0 43 40.7" style="enable-background:new 0 0 43 40.7;" xml:space="preserve">
<style type="text/css">
	.st0{fill:#13216A;}
</style>
<path class="st0" d="M33.7,21.8c1.2-2.8,1.8-5.6,1.3-8.7C33.7,5.9,26.8,0.9,19.6,2C12.7,3,7.8,9,7.8,15.4c0,2.3,0.5,4.4,1.4,6.3
	c0.8,1.6,1.8,3.1,2.7,4.6c2.7,4.3,5.8,8.3,9,12.2c0.1,0.1,0.1,0.5,0.4,0.4c0.3,0,0.2-0.3,0.4-0.5c2-2.2,3.8-4.5,5.6-6.9
	C29.8,28.4,32.1,25.3,33.7,21.8z M21.7,24.6c-5,0-9.1-4-9.1-9.1c0-5,4.1-9.2,9.1-9.1c5.4,0.1,9.1,4.5,9,9.1
	C30.9,20.3,26.9,24.6,21.7,24.6z"/>
<circle class="st0" cx="21.7" cy="15.5" r="7"/>
</svg>
