<?xml version="1.0" encoding="utf-8"?>
<!-- Generator: Adobe Illustrator 22.0.1, SVG Export Plug-In . SVG Version: 6.00 Build 0)  -->
<svg version="1.1" id="圖層_6" xmlns="http://www.w3.org/2000/svg" xmlns:xlink="http://www.w3.org/1999/xlink" x="0px" y="0px"
	 viewBox="0 0 43 40.7" style="enable-background:new 0 0 43 40.7;" xml:space="preserve">
<style type="text/css">
	.st0{fill:#13216A;}
</style>
<g>
	<path class="st0" d="M7.4,40.7H5.1c-2.1,0-3.9-1.7-3.9-3.9V11.6c0-2.1,1.7-3.9,3.9-3.9h2.3c2.1,0,3.9,1.7,3.9,3.9v25.2
		C11.2,39,9.5,40.7,7.4,40.7z"/>
	<path class="st0" d="M39,13V7.7c0,0-4.8-4.4-8.5-7.7H15.6c-1.5,0-2.8,1.2-2.8,2.8v35.1c0,1.5,1.2,2.8,2.8,2.8h23.3
		c1.5,0,2.8-1.2,2.8-2.8V16L39,13z M21.5,34.4h-3.8V31h3.8V34.4z M21.5,28.5h-3.8v-3.4h3.8V28.5z M21.5,23.2h-3.8v-3.4h3.8V23.2z
		 M27.7,34.4h-3.8V31h3.8V34.4z M27.7,28.5h-3.8v-3.4h3.8V28.5z M27.7,23.2h-3.8v-3.4h3.8V23.2z M33.4,34.4h-3.8V31h3.8V34.4z
		 M33.4,28.5h-3.8v-3.4h3.8V28.5z M33.4,23.2h-3.8v-3.4h3.8V23.2z M35.4,15.1H16.2v-11c0.2,0,13.4,0,13.4,0v5.5h5.9L35.4,15.1
		L35.4,15.1z"/>
</g>
</svg>
