<?xml version="1.0" encoding="utf-8"?>
<!-- Generator: Adobe Illustrator 22.0.1, SVG Export Plug-In . SVG Version: 6.00 Build 0)  -->
<svg version="1.1" id="圖層_6" xmlns="http://www.w3.org/2000/svg" xmlns:xlink="http://www.w3.org/1999/xlink" x="0px" y="0px"
	 viewBox="0 0 43 40.7" style="enable-background:new 0 0 43 40.7;" xml:space="preserve">
<style type="text/css">
	.st0{fill:#1741C9;}
	.st1{fill:#FFFFFF;}
	.st2{fill-rule:evenodd;clip-rule:evenodd;fill:#2319DC;}
	.st3{fill-rule:evenodd;clip-rule:evenodd;fill:#FEC722;}
	.st4{fill-rule:evenodd;clip-rule:evenodd;fill:#DC483C;}
	.st5{fill-rule:evenodd;clip-rule:evenodd;fill:#0077B5;}
	.st6{fill-rule:evenodd;clip-rule:evenodd;fill:#EA5E00;}
	.st7{fill-rule:evenodd;clip-rule:evenodd;fill:#1DA1F3;}
	.st8{fill-rule:evenodd;clip-rule:evenodd;fill:#FFFFFF;}
	.st9{fill:#E60012;}
	.st10{fill:#030000;}
	.st11{stroke:#727171;stroke-miterlimit:10;}
	.st12{fill:none;stroke:#000000;stroke-width:2;stroke-linecap:round;stroke-linejoin:round;stroke-miterlimit:10;}
	.st13{fill-rule:evenodd;clip-rule:evenodd;}
	.st14{fill:none;stroke:#000000;stroke-linecap:round;stroke-linejoin:round;stroke-miterlimit:10;}
	.st15{fill:none;stroke:#000000;stroke-width:0.25;stroke-miterlimit:10;}
	.st16{fill:none;stroke:#000000;stroke-miterlimit:10;}
	.st17{fill:#231815;}
	.st18{fill:#01B901;}
	.st19{clip-path:url(#SVGID_4_);fill:#626366;}
	.st20{clip-path:url(#SVGID_4_);fill:#C6C8CA;}
	.st21{clip-path:url(#SVGID_6_);fill:#626366;}
	.st22{clip-path:url(#SVGID_6_);fill:#C6C8CA;}
	.st23{stroke:#000000;stroke-width:0.5669;stroke-miterlimit:10;}
	.st24{fill:none;stroke:#231815;stroke-miterlimit:10;}
	.st25{fill:none;stroke:#000000;stroke-width:5;stroke-miterlimit:10;}
	.st26{fill:none;stroke:#000000;stroke-width:6;stroke-miterlimit:10;}
	.st27{fill:none;stroke:#000000;stroke-width:12;stroke-miterlimit:10;}
	.st28{fill:none;stroke:#000000;stroke-width:5;stroke-linecap:round;stroke-linejoin:round;stroke-miterlimit:10;}
	.st29{fill:none;stroke:#000000;stroke-width:4;stroke-miterlimit:10;}
	.st30{fill:none;stroke:#030000;stroke-width:2;stroke-linecap:round;stroke-linejoin:round;stroke-miterlimit:10;}
	.st31{fill:#FFFFFF;stroke:#231815;stroke-miterlimit:10;}
	.st32{fill:#FF0F0F;}
	.st33{fill:none;stroke:#FFFFFF;stroke-miterlimit:10;}
	.st34{opacity:0.43;fill:#FFFFFF;}
	.st35{opacity:0.5;fill:none;stroke:#FFFFFF;stroke-width:0.5;stroke-miterlimit:10;}
	.st36{opacity:0.5;fill:none;stroke:#FFFFFF;stroke-miterlimit:10;}
	.st37{fill:#6B6B6B;}
</style>
<path id="XMLID_7_" class="st8" d="M19.9,40.7c4.6-1.3,8.1-4.3,11.7-7.1c3.7-2.9,7.5-5.6,9.5-9.5c7.2-14-8.7-25.2-22.1-24
	C9.9,0.9-0.1,7,0,17.5c0.1,8,6.4,13.3,12.3,15.5c2.4,0.9,5.1,0.9,7.4,2.2C20.7,36.9,18.6,39.6,19.9,40.7z M29.4,12.6
	c1.4-0.3,5-0.7,6,0.3c0,0.5,0,0.9,0,1.4c-0.9,0.6-2.8,0.1-4.1,0.3c0,0.6,0,1.3,0,1.9c0.8,0.8,3.3-0.2,4.1,0.5
	c0.5,2.5-2.2,1.8-4.1,1.9c0,0.5,0,1.1,0,1.6c0.8,0.7,3.2-0.1,4.1,0.6c0,0.5,0,1.1,0,1.6c-1.4,0.4-4.6,0.4-6,0
	C29,20,29,15.4,29.4,12.6z M8.2,23c-1-2.2-0.6-7.2-0.3-9.8c0-1.1,1.2-0.8,1.9-0.5c0,2.6,0,5.3,0,7.9c1,0.8,4.1-0.5,4.4,1.1
	C14.2,24.1,10.2,22.6,8.2,23z M16.4,23c-1.6,0-1.1-2.5-1.1-4.4c0-2.3-0.3-5.1,0.5-6.3c0.4,0,0.7,0,1.1,0c0.9,1,0.6,3.6,0.6,5.7
	C17.5,20,18,22.7,16.4,23z M19.1,18.6c0-2.3-0.3-5.1,0.6-6.3c0.2,0,0.4,0,0.5,0c2.4,1.3,3.1,4.4,5.2,6c0.3-2-0.7-5.2,0.8-6
	c2-0.1,1.4,3.2,1.4,5.2c0,2.2,0.5,4.9-0.8,5.5c-2.8-1.1-3.2-4.5-5.5-6c-0.4,2,1,5.7-1.1,6C18.6,23,19.1,20.5,19.1,18.6z"/>
</svg>
