<?xml version="1.0" encoding="utf-8"?>
<!-- Generator: Adobe Illustrator 22.0.1, SVG Export Plug-In . SVG Version: 6.00 Build 0)  -->
<svg version="1.1" id="圖層_6" xmlns="http://www.w3.org/2000/svg" xmlns:xlink="http://www.w3.org/1999/xlink" x="0px" y="0px"
	 viewBox="0 0 43 40.7" style="enable-background:new 0 0 43 40.7;" xml:space="preserve">
<style type="text/css">
	.st0{fill:#13216A;}
</style>
<g>
	<path class="st0" d="M36.7,38.1l-9.2-9.2c-1.3,1.3-2.9,0.1-6.1-2.5c-2.1-1.7-4.5-4-6.6-6.6c-1.5-1.8-2.8-3.7-1.4-5.1L3.8,5.3
		C2.4,7-0.6,15.2,12.5,28.6C26.3,42.7,35.2,39.7,36.7,38.1z"/>
	<path class="st0" d="M9.2,1.9c-0.6-0.6-1.5-0.6-2,0L4.5,4.6L14,14l2.6-2.6l0,0c0.6-0.6,0.5-1.5,0-2.1l0,0C16.6,9.3,9.2,1.9,9.2,1.9
		z"/>
	<path class="st0" d="M40,34.8L40,34.8c0.6-0.6,0.5-1.5,0-2.1l0,0l-7.2-7.2c-0.6-0.6-1.5-0.6-2,0l-2.6,2.6l9.3,9.2
		C37.4,37.4,40,34.8,40,34.8z"/>
</g>
</svg>
