<?xml version="1.0" encoding="utf-8"?>
<!-- Generator: Adobe Illustrator 22.0.1, SVG Export Plug-In . SVG Version: 6.00 Build 0)  -->
<svg version="1.1" id="圖層_6" xmlns="http://www.w3.org/2000/svg" xmlns:xlink="http://www.w3.org/1999/xlink" x="0px" y="0px"
	 viewBox="0 0 43 40.7" style="enable-background:new 0 0 43 40.7;" xml:space="preserve">
<style type="text/css">
	.st0{fill:#13216A;}
</style>
<g>
	<path class="st0" d="M21.5,39.7C10.9,39.8,2.2,31,2.3,20.5C2.4,10,10.6,1.4,21.4,1.3c10.8,0,19.2,8.6,19.2,19.2
		C40.7,31,32,39.8,21.5,39.7z M6.4,22c0.3,0.4,0.5,0.9,0.8,1.3c0.7,1,1.1,1.9,0.3,3.1c-0.7,1.1-0.3,1.9,0.7,2.7
		c0.3,0.2,0.7,0.4,0.8,0.8c0.2,0.7,0.7,1.1,1.2,1.4c1.2,0.8,2.4,1.5,2.7,3c0.1,0.3,0.3,0.6,0.6,0.9c0.9,1.2,2,2.1,3.6,2.3
		c0.1,0,0.3,0.2,0.4-0.1c0.4-0.6,1.1-0.9,1.7-1.1c0.6-0.2,0.9-0.5,0.7-1.1c-0.1-0.3,0-0.5,0.3-0.7c0.8-0.5,1.7-0.9,1.7-2
		c0-0.2,0.2-0.3,0.3-0.5c0.2-0.2,0.4-0.5,0.6-0.7c0.5-0.8,0.3-1.2-0.6-1.3c-1-0.2-1.9-0.4-2.8-1c-0.6-0.5-1.3-1-2.1-0.3
		c-0.4,0.3-0.7-0.1-0.7-0.4c0-1.2-0.2-1.5-1.4-1.8c-0.3-0.1-0.6-0.1-0.8-0.4c-0.7-1.4-1.9-1.8-3.3-2.1c-0.8-0.2-1.4-0.6-2.3-0.3
		c-0.2,0-0.4-0.2-0.6-0.2C7.4,23.1,7.1,22.4,6.4,22z M6.1,20c-0.8,0.4-1-0.2-1.2-0.8c-0.3-1.1,0.4-1.8,1-2.6c0.2-0.3,2,0.1,2.6,0.3
		c0.8,0.3,0.6,1,0.6,1.5c0,0.2,0,0.4,0.2,0.5c0.3,0,0.3-0.2,0.3-0.4c0.2-1.2,0.7-1.7,1.9-1.7c0.2,0,0.4,0,0.6-0.2
		c1.1-1.5,2.8-1.6,4.3-2.1c0.4-0.1,0.9-0.1,0.9-0.7c0-0.7-0.6,0.1-0.8-0.3c0.1-0.3,0.4-0.4,0.7-0.5c0.5,0,1.1-0.1,1.6-0.1
		s0.8-0.2,1.1-0.5c0.1-0.1,0.2-0.1,0.1-0.3c-0.4-0.6,0-1.8-1.4-1.8c0,0,0,0-0.1-0.1c-0.6-0.5-1.1-0.5-1.7,0c-0.5,0.5-1,1-1.5,1.5
		c-0.2,0.2-0.4,0.4-0.6,0.2c-0.5-0.2-0.8-2.1-0.3-2.3c1.2-0.5,2-1.7,3.5-1.5c0.1,0,0.3-0.1,0.3-0.2c0.1-0.3-0.2-0.2-0.3-0.2
		c-0.4-0.1-0.2-0.6-0.6-0.7c-0.4,0.3-0.6,1-1.4,0.8c-1.1-0.3-2.1-0.7-3.2-0.1c-0.1,0-0.2,0-0.2-0.2c0.2-0.2,0.5-0.2,0.8-0.3
		c0.2-0.1,0.4-0.5,0.2-0.5c-0.2,0-0.5-0.5-0.9-0.7c-0.6-0.4-1,0.1-1.5,0.3c-1.2,0.8-1.7,2.3-3,3.1c-0.7,0.5-1.2,1.2-1.7,1.9
		c-1,1.8-1.9,3.6-2.2,5.6c-0.2,1.5-0.8,3,1.1,3.9C5.8,21.1,6,21,6,20.5C6.2,20.4,6.3,20.2,6.1,20z M38.3,25.6c0.4-1.1,0.5-2,0.7-3
		c0.3-2.7,0-5.3-0.8-7.8c-0.1-0.2-0.2-0.6-0.5-0.2c-0.5,0.7-0.9,0.2-1.3-0.1c-0.4-0.4-0.7-0.5-1.2-0.3s-1,0.5-1.6,0.7
		c-0.5,0.2-0.9,0.5-1.1,1c-0.5,1.3-1.2,2.6-2,3.8c-0.1,0.2-0.3,0.4-0.1,0.7c0.4,0.7,0.4,1.6,0.4,2.4c0,0.4,0,0.6,0.3,0.8
		c0.5,0.4,0.9,0.8,1.4,1.2c0.5,0.4,1,0.9,1.6,0.1c0.1-0.1,0.3-0.1,0.5-0.1c0.7-0.2,1.4-0.4,2.1-0.6c0.9-0.3,1.2-0.2,1.4,0.7
		C38.2,25,38.2,25.2,38.3,25.6z M37,12.3c-1-2-2.3-3.6-3.9-4.8c0,0.2,0.1,0.4,0.2,0.6c0.3,0.5,0.4,0.9-0.4,1c-0.3,0-0.4,0.2-0.4,0.5
		c0,0.2-0.1,0.4-0.4,0.4c-0.8,0-0.6,0.4-0.3,0.8c0.2,0.3,0.5,0.6,0.7,0.9c0.4,0.5,0.3,0.8-0.4,0.9c-0.4,0.1-0.7,0.2-0.4,0.7
		c0.1,0.2,0.2,0.4,0.2,0.6c0,0.5,0.3,0.6,0.7,0.4c0.5-0.2,1.2-0.2,1-1.2c-0.1-0.4,0.1-0.9,0.3-1.3c0.2-0.5,0.5-0.6,0.9-0.2
		c0.2,0.2,0.5,0.5,0.9,0.4c0-0.3-0.2-0.4-0.4-0.6c-0.2-0.1-0.5-0.1-0.3-0.4c0.1-0.3,0.4-0.1,0.6,0C36,11.6,36.2,12.1,37,12.3z
		 M26.2,6.3c0-0.9-1.2-2-1.9-1.7c-0.3,0.1-0.6,0.2-1,0.1c-0.5-0.1-1,0.3-1.3,0.7s0.2,0.5,0.4,0.8c0.3,0.6,0.7,1.2,0.4,2
		c-0.2,0.5,0,0.8,0.3,1.2c0.4,0.4,0.6-0.1,0.8-0.2C24.2,9,24.6,8.7,25,8.6C25.9,8,26.2,7.2,26.2,6.3z M32.4,6.8
		c-1-0.6-1.6-1.4-2.8-1.5c0.2,0.8,0.9,1.1,1,1.8s0.5,0.9,1.2,0.7c0-0.6-0.7-0.9-0.6-1.4C31.7,6.2,31.7,6.9,32.4,6.8z"/>
	<path class="st0" d="M11.7,13.7c-0.1,0.1-0.2,0.1-0.3,0.2c-0.2,0.1-0.3,0.3-0.5,0.1s-0.1-0.4,0.1-0.5c0.2-0.3,0.5-0.6,0.3-1.1
		c-0.1-0.2,0.3-0.4,0.6-0.5c0.4,0,0.8-0.1,1,0.4c0.2,0.4,0.4,0.7,0.6,1.1c0.1,0.2,0,0.3-0.1,0.4c-0.2,0.1-0.5,0.3-0.7,0.4
		c-0.3,0.2-0.5,0.4-0.8,0.3S12,14,11.7,13.7z"/>
</g>
</svg>
