<svg xmlns="http://www.w3.org/2000/svg" viewBox="0 0 58.27 56.92"><defs><style>.cls-1{fill:#fff;}</style></defs><title>booth</title><g id="圖層_2" data-name="圖層 2"><g id="圖層_6" data-name="圖層 6"><path class="cls-1" d="M57.77,27.4,35.22,8.61A1.37,1.37,0,0,0,33,9.67v10.1H19.23a2.48,2.48,0,0,0-2.48,2.48V34.67a2.48,2.48,0,0,0,2.48,2.48H33v10.1a1.37,1.37,0,0,0,2.25,1.06l22.55-18.8A1.37,1.37,0,0,0,57.77,27.4Z"/><path class="cls-1" d="M29.14,53c0-4.44,0-4.45-4.35-4.46-2.28,0-11.88-.06-14.16,0-1.73,0-2.33-.69-2.33-2.38q.06-17.67,0-35.35c0-1.85.66-2.56,2.5-2.5,2.85.08,13,0,15.87,0,1.68,0,2.47-.69,2.45-2.35,0-.19,0-.38,0-.57C29.37,0,29.37,0,24.06,0,20.35,0,9.33,0,5.62,0,1.45,0,0,1.48,0,5.73c0,7.6,0,15.2,0,22.8S0,43.74,0,51.34c0,4,1.48,5.51,5.49,5.54,4.46,0,16.25-.06,20.71,0,2.05,0,3.06-.67,2.92-2.77C29.11,53.77,29.14,53.39,29.14,53Z"/></g></g></svg>