<svg xmlns="http://www.w3.org/2000/svg" viewBox="0 0 23.81 23.77"><defs><style>.cls-1{fill:#fff;}</style></defs><title>goto-top</title><g id="圖層_2" data-name="圖層 2"><g id="圖層_6" data-name="圖層 6"><path class="cls-1" d="M10.71,0c.21.12.4.27.33.55s-.29.36-.55.39A10.81,10.81,0,0,0,2.36,6.37,10.21,10.21,0,0,0,.9,12.42a10.8,10.8,0,0,0,5.6,9,10.5,10.5,0,0,0,6.23,1.39,11,11,0,0,0,10-9,10.73,10.73,0,0,0-3-9.73A10.47,10.47,0,0,0,13.38,1l-.23,0c-.23,0-.44-.1-.51-.36A.51.51,0,0,1,12.9,0h.4a1.24,1.24,0,0,0,.16,0,11.94,11.94,0,0,1,10,9c.15.62.22,1.26.31,1.89v1.8c-.09.59-.15,1.18-.28,1.77a11.93,11.93,0,0,1-23.17.35C.2,14.24.1,13.57,0,12.9V10.78c0-.23.07-.46.11-.69A11.79,11.79,0,0,1,7.44.8,12.51,12.51,0,0,1,10.51,0Z"/><path class="cls-1" d="M11.88,16h-5c-.5,0-.51,0-.27-.43L11.68,6.8c.2-.35.24-.35.44,0q2.52,4.37,5,8.73a1.71,1.71,0,0,1,.13.23c.07.13,0,.21-.11.22H11.88Z"/></g></g></svg>