<svg xmlns="http://www.w3.org/2000/svg" viewBox="0 0 27.02 27.02"><defs><style>.cls-1{fill:#13216a;}</style></defs><title>lang</title><g id="圖層_2" data-name="圖層 2"><g id="分離模式"><path class="cls-1" d="M13.51,0A13.51,13.51,0,1,0,27,13.51,13.51,13.51,0,0,0,13.51,0Zm6.08,24.11L17,24.52h-2.1l-.06-1.4-.17-2L14,20.25s.12.35-1-.47.82-.7-1.11-.82c2.63.24-1.93-.11,0,0l-2.63-.23s0-2.1-.76-2.92-1.7-.35-2.69-2S4.38,7.68,4.38,7.68a4.29,4.29,0,0,1,4.1-4.39c4.32-.58,6.25.53,6.37.7s-2.69,1.06-2.16,2.34,2.92,1.35,2.92,1.35L17,4.52s2.81,0,3.63,1.87S21,8,19.59,9.2a15.62,15.62,0,0,0-2.69,3.27s.11.53-1,1.58-2.74.7-3.21.94-1.17.29-.76,1.11a4.83,4.83,0,0,0,1.92,1.52L15.2,18l.06,1.23,2.51.29,2.63-.88s2.4-.17,2.23,1.7S19.59,24.11,19.59,24.11Z"/></g></g></svg>