<?xml version="1.0" encoding="utf-8"?>
<!-- Generator: Adobe Illustrator 22.0.1, SVG Export Plug-In . SVG Version: 6.00 Build 0)  -->
<svg version="1.1" id="圖層_6" xmlns="http://www.w3.org/2000/svg" xmlns:xlink="http://www.w3.org/1999/xlink" x="0px" y="0px"
	 viewBox="0 0 34.4 36.2" style="enable-background:new 0 0 34.4 36.2;" xml:space="preserve">
<style type="text/css">
	.st0{fill:#1741C6;}
	.st1{fill:#FFFFFF;}
	.st2{fill-rule:evenodd;clip-rule:evenodd;fill:#2319D9;}
	.st3{fill-rule:evenodd;clip-rule:evenodd;fill:#FBC422;}
	.st4{fill-rule:evenodd;clip-rule:evenodd;fill:#D9483C;}
	.st5{fill-rule:evenodd;clip-rule:evenodd;fill:#0077B2;}
	.st6{fill-rule:evenodd;clip-rule:evenodd;}
	.st7{fill-rule:evenodd;clip-rule:evenodd;fill:#E75E00;}
	.st8{fill-rule:evenodd;clip-rule:evenodd;fill:#1D9EF0;}
	.st9{fill-rule:evenodd;clip-rule:evenodd;fill:#FFFFFF;}
	.st10{fill:#E30012;}
	.st11{fill:#030000;}
	.st12{stroke:#727171;stroke-miterlimit:10;}
	.st13{fill:none;stroke:#000000;stroke-width:2;stroke-linecap:round;stroke-linejoin:round;stroke-miterlimit:10;}
	.st14{fill:none;stroke:#000000;stroke-linecap:round;stroke-linejoin:round;stroke-miterlimit:10;}
	.st15{fill:none;stroke:#000000;stroke-width:0.25;stroke-miterlimit:10;}
	.st16{fill:none;stroke:#000000;stroke-miterlimit:10;}
	.st17{fill:#231815;}
	.st18{fill:#01B601;}
	.st19{clip-path:url(#SVGID_4_);fill:#626366;}
	.st20{clip-path:url(#SVGID_4_);fill:#C3C5C7;}
	.st21{clip-path:url(#SVGID_6_);fill:#626366;}
	.st22{clip-path:url(#SVGID_6_);fill:#C3C5C7;}
	.st23{stroke:#000000;stroke-width:0.5669;stroke-miterlimit:10;}
	.st24{fill:none;stroke:#231815;stroke-miterlimit:10;}
	.st25{fill:none;stroke:#000000;stroke-width:5;stroke-miterlimit:10;}
	.st26{fill:none;stroke:#000000;stroke-width:6;stroke-miterlimit:10;}
	.st27{fill:none;stroke:#000000;stroke-width:12;stroke-miterlimit:10;}
	.st28{fill:none;stroke:#000000;stroke-width:5;stroke-linecap:round;stroke-linejoin:round;stroke-miterlimit:10;}
	.st29{fill:none;stroke:#000000;stroke-width:4;stroke-miterlimit:10;}
	.st30{fill:none;stroke:#030000;stroke-width:2;stroke-linecap:round;stroke-linejoin:round;stroke-miterlimit:10;}
	.st31{fill:#FFFFFF;stroke:#231815;stroke-miterlimit:10;}
	.st32{fill:#FF0F0F;}
	.st33{fill:none;stroke:#FFFFFF;stroke-miterlimit:10;}
	.st34{opacity:0.43;fill:#FFFFFF;}
	.st35{opacity:0.5;fill:none;stroke:#FFFFFF;stroke-width:0.5;stroke-miterlimit:10;}
	.st36{opacity:0.5;fill:none;stroke:#FFFFFF;stroke-miterlimit:10;}
	.st37{fill:#6B6B6B;}
	.st38{fill:#E20000;}
	.st39{fill:#1C2A72;}
	.st40{fill:#E53828;}
	.st41{stroke:#FFFFFF;stroke-miterlimit:10;}
</style>
<g>
	<path d="M26.1,19.6c-4.6,0-8.3,3.7-8.3,8.3c0,4.6,3.7,8.3,8.3,8.3c4.6,0,8.3-3.7,8.3-8.3C34.4,23.4,30.6,19.6,26.1,19.6z
		 M30.8,29.1h-3.5v3.5c0,0.6-0.5,1.1-1.1,1.1c-0.6,0-1.1-0.5-1.1-1.1v-3.5h-3.5c-0.6,0-1.1-0.5-1.1-1.1c0-0.6,0.5-1.1,1.1-1.1H25
		v-3.5c0-0.6,0.5-1.1,1.1-1.1c0.6,0,1.1,0.5,1.1,1.1v3.5h3.5c0.6,0,1.1,0.5,1.1,1.1C31.9,28.6,31.4,29.1,30.8,29.1z"/>
	<path d="M34.3,7c0-1-0.5-1.4-1.4-1.4c-2.1,0.2-11.7-0.1-14.5-0.1c-1,0-1.7-0.3-2.3-1.2c-0.7-1.1-1.6-2.2-2.4-3.3
		c-0.5-0.7-1.1-1-2-1c-3.4,0-6.9,0-10.3,0C0.3,0,0,0.4,0,1.5C0,5.7,0,10,0,14.3s0,8.5,0,12.8c0,1.1,0.4,1.5,1.5,1.5c2.3,0,4.7,0,7,0
		c0.1,0,0.2,0,0.3,0h6.3c0.8,0,1.5-0.7,1.5-1.5s-0.7-1.5-1.5-1.5h-0.3c-0.1,0-0.3,0-0.4,0c-1.5,0-2.9,0-4.4,0H8.8c0,0,0,0,0,0
		c-1.5,0-3.1,0-4.6,0c-0.8,0-1.2-0.3-1.2-1.2c0-6.8,0-13.6,0-20.3c0-0.9,0.3-1.2,1.2-1.2c2.1,0,4.2,0,6.3,0c0.8,0,1.3,0.3,1.7,0.9
		C13.1,5,14,6.2,14.8,7.4c0.6,0.9,1.3,1.2,2.3,1.1c4.2,0,8.4,0,12.7,0c1.6,0,1.6,0,1.6,1.6c0,0,0,0.1,0,0.1v9.1
		c0,0.8,0.7,1.5,1.5,1.5c0.8,0,1.5-0.7,1.5-1.5L34.3,7L34.3,7z"/>
</g>
</svg>
