<?xml version="1.0" encoding="utf-8"?>
<!-- Generator: Adobe Illustrator 22.0.1, SVG Export Plug-In . SVG Version: 6.00 Build 0)  -->
<svg version="1.1" id="圖層_6" xmlns="http://www.w3.org/2000/svg" xmlns:xlink="http://www.w3.org/1999/xlink" x="0px" y="0px"
	 viewBox="0 0 14.5 13.6" style="enable-background:new 0 0 14.5 13.6;" xml:space="preserve">
<style type="text/css">
	.st0{fill:#FFFFFF;}
</style>
<g>
	<path class="st0" d="M7.2,2.5c1.1,0,2.2,0.4,3,1.1L9.5,4.2C9.1,4.7,9.4,5.5,10,5.5l3.7,0.1c0.1,0,0.2,0,0.3-0.1c0,0,0.1,0,0.1-0.1
		c0.2-0.1,0.4-0.3,0.4-0.6l-0.1-3.7c0-0.6-0.8-0.9-1.2-0.5L12,1.8C10.7,0.7,9,0,7.2,0C3.8,0,0.9,2.3,0.1,5.5h2.6
		C3.4,3.8,5.1,2.5,7.2,2.5z"/>
	<path class="st0" d="M7.4,11.1c-1.1,0-2.2-0.4-3-1.1L5,9.4c0.5-0.5,0.1-1.2-0.5-1.2L0.8,8C0.7,8,0.6,8,0.5,8.1c0,0-0.1,0-0.1,0.1
		C0.3,8.3,0.1,8.5,0.1,8.8l0.1,3.7c0,0.6,0.8,0.9,1.2,0.5l1.2-1.2c1.3,1.1,2.9,1.8,4.8,1.8c3.4,0,6.2-2.3,7.1-5.5h-2.6
		C11.2,9.8,9.5,11.1,7.4,11.1z"/>
</g>
</svg>
