<svg xmlns="http://www.w3.org/2000/svg" xmlns:xlink="http://www.w3.org/1999/xlink" width="481" height="54" viewBox="0 0 481 54">
  <defs>
    <clipPath id="clip-path">
      <path id="SVGID" d="M548.316,190.131c.012.011.03.025.027.044-.029.008-.052-.009-.027-.044C548.328,190.142,548.291,190.166,548.316,190.131Z" transform="translate(-548.306 -190.131)" fill="none"/>
    </clipPath>
    <clipPath id="clip-path-2">
      <path id="SVGID-2" data-name="SVGID" d="M547.263,190.156c.145.009.286-.016.436,0a5.877,5.877,0,0,1,1.409.371,10.481,10.481,0,0,1,1.918.887q.658.451,1.316.9.566.386,1.13.775c.964.76,1.01,2.149,1.152,3.269a8.425,8.425,0,0,1-.494,4.957,3.156,3.156,0,0,1-.75.976,3.775,3.775,0,0,1-1.61.642,11.365,11.365,0,0,1-1.853.211,4.469,4.469,0,0,1-.709.064,3.708,3.708,0,0,1-1.195-.492c-.81-.409-1.637-.786-2.44-1.2a11.744,11.744,0,0,1-2.628-1.973,4.374,4.374,0,0,1-1.027-1.265,2.329,2.329,0,0,1-.156-.921l-.092-.926a2.922,2.922,0,0,1,.193-1.766,4.271,4.271,0,0,1,.737-.761c.082-.086.186-.168,4.663-3.744C547.408,190.165,542.786,193.732,547.263,190.156Z" transform="translate(-541.625 -190.15)" fill="none"/>
    </clipPath>
  </defs>
  <g id="footer_logo_tmts_2024_tw" transform="translate(-391 -3609)">
    <rect id="矩形_200" data-name="矩形 200" width="481" height="54" transform="translate(391 3609)" fill="#fff" opacity="0"/>
    <g id="组_692" data-name="组 692" transform="translate(48.068 3450.67)">
      <g id="组_259" data-name="组 259" transform="translate(483.854 158.964)">
        <path id="路径_646" data-name="路径 646" d="M584.476,212.33H576.75l-19.387-26.683,19.387-26.683h7.726l-19.387,26.683Z" transform="translate(-514.798 -158.964)" fill="#c5ce00"/>
        <path id="路径_647" data-name="路径 647" d="M507.62,158.964h7.726l19.387,26.683L515.345,212.33H507.62l19.387-26.683Z" transform="translate(-507.62 -158.964)" fill="#00a2e9"/>
        <g id="组_258" data-name="组 258" transform="translate(15.452)">
          <g id="组_257" data-name="组 257">
            <path id="路径_648" data-name="路径 648" d="M566.418,212.33h-7.726L539.3,185.647l19.387-26.683h7.726l-19.387,26.683Z" transform="translate(-527.644 -158.964)" fill="#c5ce00"/>
            <path id="路径_649" data-name="路径 649" d="M525.677,158.964H533.4l19.387,26.683L533.4,212.33h-7.726l19.387-26.683Z" transform="translate(-525.677 -158.964)" fill="#00a2e9"/>
            <g id="组_254" data-name="组 254" transform="translate(19.363 26.67)">
              <g id="组_253" data-name="组 253" clip-path="url(#clip-path)">
                <path id="路径_650" data-name="路径 650" d="M525.677,158.964H533.4l19.387,26.683L533.4,212.33h-7.726l19.387-26.683Z" transform="translate(-545.04 -185.633)" fill="#00a2e9"/>
                <path id="路径_651" data-name="路径 651" d="M566.418,212.33h-7.726L539.3,185.647l19.387-26.683h7.726l-19.387,26.683Z" transform="translate(-547.007 -185.633)" fill="#c5ce00"/>
              </g>
            </g>
            <g id="组_256" data-name="组 256" transform="translate(13.646 26.686)">
              <g id="组_255" data-name="组 255" clip-path="url(#clip-path-2)">
                <path id="路径_652" data-name="路径 652" d="M525.677,158.964H533.4l19.387,26.683L533.4,212.33h-7.726l19.387-26.683Z" transform="translate(-539.324 -185.65)" fill="#00a2e9"/>
                <path id="路径_653" data-name="路径 653" d="M566.418,212.33h-7.726L539.3,185.647l19.387-26.683h7.726l-19.387,26.683Z" transform="translate(-541.29 -185.65)" fill="#c5ce00"/>
              </g>
            </g>
          </g>
        </g>
      </g>
      <g id="组_260" data-name="组 260" transform="translate(343.768 190.659)">
        <path id="路径_654" data-name="路径 654" d="M351.277,197.472a22.983,22.983,0,0,1,3.447,3.8l-1.022.761a10.614,10.614,0,0,0-.761-1.075c-7.21.38-8.049.406-8.639.616a11.238,11.238,0,0,0-.394-1.193,2.416,2.416,0,0,0,1.076-.748,21.06,21.06,0,0,0,2.9-3.631l1.219.525a25.882,25.882,0,0,1-3.133,3.618l6.1-.249c-.564-.63-1.167-1.259-1.73-1.782Zm-6.384,5.1h8.494v5.559h-1.3v-.668h-5.965v.694h-1.231Zm1.231,1.167v2.543h5.965v-2.543Z" transform="translate(-343.909 -196.004)" fill="#fff"/>
        <path id="路径_655" data-name="路径 655" d="M364.6,201.965a8.3,8.3,0,0,0-1.874-1.364l.669-.839a8.076,8.076,0,0,1,1.913,1.258Zm-1.612,5.453a42.609,42.609,0,0,0,1.626-4.156l.97.63c-.42,1.35-.984,2.923-1.508,4.142Zm1.835-8.823A8.278,8.278,0,0,0,363,197.141l.708-.8a8.534,8.534,0,0,1,1.862,1.337Zm1.533,2.478a6.367,6.367,0,0,1-.55,1.77,3.018,3.018,0,0,0-.564-.38,4.614,4.614,0,0,0,.472-1.547Zm1.691-.525a2.766,2.766,0,0,0-.13-.393,9.8,9.8,0,0,0-2.229.381,4.12,4.12,0,0,0-.262-.564,1.166,1.166,0,0,0,.616-.432,7.934,7.934,0,0,0,.733-.919,5.141,5.141,0,0,0-1.126.171,2.107,2.107,0,0,0-.263-.55.787.787,0,0,0,.433-.341,6.944,6.944,0,0,0,.773-1.639l.721.249a7.707,7.707,0,0,1-.866,1.494l.761-.039a6.347,6.347,0,0,0,.328-.59l.695.288a11.943,11.943,0,0,1-1.507,2.006l.957-.118c-.066-.131-.145-.262-.21-.38l.55-.2a6.029,6.029,0,0,1,.6,1.323Zm6.214,4.955a2.439,2.439,0,0,1-.079.46,3.249,3.249,0,0,1-.825,1.928,1.738,1.738,0,0,1-1.088.3c-.394,0-1.194,0-2.006-.039a2.086,2.086,0,0,0-.328-.931c.8.08,1.651.092,1.979.092a.946.946,0,0,0,.564-.092,1.7,1.7,0,0,0,.472-.93H366.2a20.1,20.1,0,0,0,.577-2.072h5.743v-.564h-6.175v-.733h7.314v2.032h-5.925l-.157.549Zm-7.42-2.884a6.58,6.58,0,0,0-.261-1.573l.576-.144a6.357,6.357,0,0,1,.3,1.507Zm1.141-.327a6.686,6.686,0,0,0-.406-1.429l.524-.184a5.431,5.431,0,0,1,.433,1.364Zm3.566-4.156h-3.119v-.682h1.324a7.526,7.526,0,0,0-.46-1l.8-.184a5.052,5.052,0,0,1,.524,1.023l-.6.157h1.533Zm-2.766,2.439h2.477V202.5h-2.477Zm2.464-1.4h-2.439v-.616h2.439Zm-2.439.354h2.439v.616h-2.439Zm.734,2.373h.93v-.72h-.93Zm2.911-.879a6.854,6.854,0,0,1-.552,1.77,3.522,3.522,0,0,0-.563-.394,4.76,4.76,0,0,0,.472-1.533Zm1.717-.445c-.039-.118-.092-.276-.157-.447a13.045,13.045,0,0,0-2.241.381c-.04-.105-.17-.406-.249-.564a1.2,1.2,0,0,0,.616-.445,9.594,9.594,0,0,0,.72-.905,4.254,4.254,0,0,0-1.128.184,2.9,2.9,0,0,0-.249-.564c.145-.014.276-.144.419-.341a6.32,6.32,0,0,0,.787-1.625l.708.249a7.409,7.409,0,0,1-.839,1.481l.747-.039c.1-.2.223-.394.315-.59l.695.3a11.32,11.32,0,0,1-1.508,2l.957-.117c-.065-.119-.144-.263-.21-.381l.537-.2a6.452,6.452,0,0,1,.655,1.377Zm-1.245,2.15a7.235,7.235,0,0,0-.276-1.691l.578-.145a7.716,7.716,0,0,1,.3,1.639Zm1.258-2.072a6.323,6.323,0,0,1,.525,1.626l-.565.249a6.762,6.762,0,0,0-.5-1.678Z" transform="translate(-346.624 -196.039)" fill="#fff"/>
        <path id="路径_656" data-name="路径 656" d="M394.191,196.815v11.5h-1.207v-.577h-8.573v.577h-1.153v-11.5Zm-1.207,9.819v-8.717h-8.573v8.717Zm-.969-5.6a9.951,9.951,0,0,1-1.4,3.107c.223.563.51.917.851.982.157.053.276-.484.354-1.3a4.363,4.363,0,0,0,.774.577c-.184,1.495-.734,2.006-1.495,1.7a2.03,2.03,0,0,1-1.192-1.088,7.941,7.941,0,0,1-1.561,1.311,6.021,6.021,0,0,0-.682-.748,7.74,7.74,0,0,0,1.01-.708c-1.284.21-2.609.459-3.657.643l-.131-.917c.957-.131,2.385-.354,3.8-.577l.027.812a5.888,5.888,0,0,0,.787-.825,18.455,18.455,0,0,1-.643-3.658h-3.84v-.9h3.762q-.038-.63-.079-1.259h1.01c.014.419.04.851.066,1.259h1.847a4.789,4.789,0,0,0-1.3-.905l.563-.563a5.436,5.436,0,0,1,1.337.864l-.576.6h.8v.9h-2.6a23.393,23.393,0,0,0,.38,2.57,8.629,8.629,0,0,0,.813-2.084Zm-3.7.013v2.517h-2.9V201.05Zm-.852.695h-1.233v1.128h1.233Z" transform="translate(-349.587 -196.121)" fill="#fff"/>
        <path id="路径_657" data-name="路径 657" d="M406.729,197.049c-.353,1.088-.785,2.386-1.166,3.435a4.319,4.319,0,0,1,1.023,2.766,1.955,1.955,0,0,1-.525,1.6,1.487,1.487,0,0,1-.681.249,4.2,4.2,0,0,1-.826.013,2.617,2.617,0,0,0-.263-1.009,5.451,5.451,0,0,0,.643.013A.676.676,0,0,0,405.3,204a1.156,1.156,0,0,0,.249-.864,3.9,3.9,0,0,0-1.009-2.53c.314-.879.629-1.966.851-2.832h-1.35v10.369h-1.048v-11.47H405.8l.157-.039Zm1.521,3.46a6.686,6.686,0,0,0,.46-.708,12.507,12.507,0,0,0-1.036-.917,8.471,8.471,0,0,1-.891,1.009,5.3,5.3,0,0,0-.761-.616,6.929,6.929,0,0,0,2.006-3.12l.944.21c-.092.263-.2.512-.3.761h1.194l.17-.039.629.223-.066.276.643-.157v-.59h2.268l.211-.052.681.393a10.212,10.212,0,0,1-1.664,3,5.787,5.787,0,0,0,1.913,1.835,2.943,2.943,0,0,0-.709.852,6.325,6.325,0,0,1-1.52-1.39v.774H408.5v-.564a7.409,7.409,0,0,1-1.363,1.166,3.424,3.424,0,0,0-.629-.747,5.824,5.824,0,0,0,1.612-1.429c-.6.105-1.128.2-1.677.276l-.133-.774c.552-.052,1.168-.131,1.915-.21Zm.813,4.746a16.6,16.6,0,0,1-1.8,2.386,8.3,8.3,0,0,0-.97-.629,10.518,10.518,0,0,0,1.664-2.124Zm2.019-.931v3.828h-1.154v-3.828h-2.674v-1h6.49v1Zm-2.832-6.371c-.052.092-.1.184-.157.276.341.236.708.55,1.023.812a9.9,9.9,0,0,0,.406-1.088Zm4.011,3.329a11.233,11.233,0,0,1-1.69-3.566,9.955,9.955,0,0,1-1.731,3.566Zm-.72-3.592a11.318,11.318,0,0,0,.655,1.6,9.836,9.836,0,0,0,.866-1.6Zm1.231,7.08c.6.668,1.443,1.611,1.835,2.162l-.93.616a26.927,26.927,0,0,0-1.8-2.241Z" transform="translate(-352.435 -196.026)" fill="#fff"/>
        <path id="路径_658" data-name="路径 658" d="M434.172,206.238v1.219H422.439v-1.219h5.126v-7.184h-4.432V197.8H433.49v1.259h-4.563v7.184Z" transform="translate(-355.241 -196.263)" fill="#fff"/>
        <path id="路径_659" data-name="路径 659" d="M450.216,205.45a32.44,32.44,0,0,1,3.828,1.914l-.944.892a28.927,28.927,0,0,0-3.8-2.045l.695-.761H445.8l1.047.709a16.1,16.1,0,0,1-3.932,2.1,8.015,8.015,0,0,0-.879-.892,12.711,12.711,0,0,0,3.7-1.914h-3.514v-1.1h1.9v-7.472h8.049v7.472h1.8v1.1Zm-4.877-7.59v.931H450.9v-.931Zm5.559,1.822H445.34v.918H450.9ZM445.34,201.5v.944H450.9V201.5Zm0,2.844H450.9v-1H445.34Z" transform="translate(-358.069 -196.13)" fill="#fff"/>
        <path id="路径_660" data-name="路径 660" d="M464.914,203.288a13.979,13.979,0,0,0-.629-1.429v6.318h-1.049V202.5a14.37,14.37,0,0,1-1.075,2.923,6.341,6.341,0,0,0-.511-1.219,15.055,15.055,0,0,0,1.521-4.456h-1.206v-1.128h1.271v-2.464h1.049v2.464h.983v1.128h-.983v.72c.3.433,1.036,1.652,1.193,1.966Zm8.115.931a7.222,7.222,0,0,1-1.521,2.031,1.627,1.627,0,0,0,1.127.735c.249.026.407-.447.512-1.377a3.332,3.332,0,0,0,.786.616c-.275,1.533-.733,1.979-1.284,1.953a2.61,2.61,0,0,1-1.979-1.231,9.542,9.542,0,0,1-2.19,1.18,5.834,5.834,0,0,0-.642-.787,8.163,8.163,0,0,0,2.333-1.272,11.6,11.6,0,0,1-.7-2.268h-1.992a4.012,4.012,0,0,1-.014.406,16.7,16.7,0,0,1,1.731,1.508l-.747.735a12.275,12.275,0,0,0-1.168-1.115,4.914,4.914,0,0,1-1.86,2.858,3.861,3.861,0,0,0-.814-.721,4.343,4.343,0,0,0,1.835-3.67h-.917v-.957h3.763a52.694,52.694,0,0,1-.55-6.608h1.023a44.528,44.528,0,0,0,.563,6.608H471.9a9.083,9.083,0,0,0-.944-.708l.537-.485a3.671,3.671,0,0,0-.93.236,8.984,8.984,0,0,0-.3-.891c.21-.053.406-.263.642-.59a10.752,10.752,0,0,0,.709-1.062,3.411,3.411,0,0,0-1.193.249,6.989,6.989,0,0,0-.3-.865c.158-.039.3-.21.459-.446a8.968,8.968,0,0,0,.866-2.006l.9.249a13.607,13.607,0,0,1-1.075,2.084l.773-.078a7.249,7.249,0,0,0,.419-.865l.905.328a18.422,18.422,0,0,1-1.835,2.844l1.062-.131c-.092-.222-.184-.471-.263-.681l.709-.2a13.728,13.728,0,0,1,.681,1.915l-.76.262c-.04-.157-.092-.354-.145-.564-.5.079-.878.131-1.18.184a8.766,8.766,0,0,1,1.207.891l-.341.329h1.062v.957h-3.04a10.354,10.354,0,0,0,.471,1.508,6.138,6.138,0,0,0,1.01-1.468Zm-4.877-2.032c-.027-.144-.051-.314-.092-.5a7.931,7.931,0,0,0-2.228.419,6.4,6.4,0,0,0-.3-.878c.211-.039.433-.263.668-.59a11.09,11.09,0,0,0,.734-1.074,3.952,3.952,0,0,0-1.232.261c-.052-.2-.2-.642-.288-.864a.9.9,0,0,0,.484-.472,9.3,9.3,0,0,0,1-2.19l.9.263a14.91,14.91,0,0,1-1.219,2.281l.812-.079c.157-.276.3-.564.433-.852l.879.328a20.127,20.127,0,0,1-1.9,2.832l1.049-.131c-.079-.249-.17-.5-.249-.721l.734-.2a11.758,11.758,0,0,1,.628,1.9Z" transform="translate(-360.9 -196.026)" fill="#fff"/>
        <path id="路径_661" data-name="路径 661" d="M484.173,200.046v.616c0,2.241-.2,5.493-1.545,7.629a4.959,4.959,0,0,0-1.088-.63c1.3-2.019,1.415-4.916,1.415-7v-3.815H492.8v3.2Zm0-2.15v1.114h7.408V197.9Zm8.785,7.131a13.812,13.812,0,0,1-1.9,1.18,7.207,7.207,0,0,0,2.649,1.061,3.759,3.759,0,0,0-.734,1.01,6.685,6.685,0,0,1-4.746-3.854h-1.586v2.4l2.544-.537a5.69,5.69,0,0,0-.08,1.022c-3.093.709-3.513.827-3.775,1v.013a3.641,3.641,0,0,0-.484-1.01,1.238,1.238,0,0,0,.668-1.088v-1.8h-1.3V203.4h2.15v-1.167h-1.822V201.2h1.822v-1.141h1.115V201.2h2.333v-1.141h1.141V201.2h2.058v1.035h-2.058V203.4h2.6v1.022h-1.468Zm-5.48-1.625h2.333v-1.167h-2.333Zm1.913,1.022a4.819,4.819,0,0,0,.892,1.166,13.247,13.247,0,0,0,1.73-1.166Z" transform="translate(-363.77 -196.126)" fill="#fff"/>
      </g>
      <g id="组_261" data-name="组 261" transform="translate(563.556 174.36)">
        <path id="路径_662" data-name="路径 662" d="M603.023,183.966c-.292.317-.583.632-.875.923a10.914,10.914,0,0,0-1.385-2.066,13.946,13.946,0,0,0,3.476-5.64l2.213.608a14.685,14.685,0,0,1-.754,1.871h1.849a16.184,16.184,0,0,0-.731-1.774l2.383-.657a23.313,23.313,0,0,1,1.07,2.431h1.775v1.823h-2.529v.924h2.043v.049a15.722,15.722,0,0,0,3.039-5.275l2.261.632a20.056,20.056,0,0,1-.778,1.871h1.873a16.462,16.462,0,0,0-.705-1.725l2.382-.657a25.975,25.975,0,0,1,1.07,2.382h2.188v1.8h-3.015v.924h2.382v1.677h-2.382v.924h2.382v1.7h-2.382v.923h3.305v1.8h-9.748v-5.446c-.292.364-.608.705-.876,1.021a16.6,16.6,0,0,0-1-1.361v.437h-2.043v.924h2.043v1.7h-2.043v.923h2.748v1.8h-9.239Zm17.869,7.561A13.88,13.88,0,0,1,616.177,196a51.256,51.256,0,0,0,7.074.948,13.369,13.369,0,0,0-1.8,2.748,35.987,35.987,0,0,1-9.117-1.921,44,44,0,0,1-10.017,2.09,10.451,10.451,0,0,0-1.166-2.6,49.391,49.391,0,0,0,7.609-1.118,18.351,18.351,0,0,1-3.646-2.844l1.118-.511h-3.719v-2.334h15.9l.51-.121ZM607.2,181.486h-1.751v.924H607.2Zm0,2.6h-1.751v.924H607.2Zm0,2.626h-1.751v.923H607.2Zm1.313,6.078a14.357,14.357,0,0,0,3.987,2.115,13.481,13.481,0,0,0,3.574-2.115Zm9.045-11.305h-1.7v.924h1.7Zm0,2.6h-1.7v.924h1.7Zm0,2.626h-1.7v.923h1.7Z" transform="translate(-600.762 -176.989)" fill="#fff"/>
        <path id="路径_663" data-name="路径 663" d="M644.456,193.465h4.012v2.528h-4.012v3.841h-2.576v-3.841h-4.035v-2.528h4.035v-1.459H638.6v-8.777h3.282v-1.265h-3.793v-2.5h3.793v-2.31h2.576v2.31h3.7v2.5h-3.7v1.265h3.4v8.777h-3.4Zm-3.745-6.784h1.46v-1.434h-1.46Zm0,3.331h1.46v-1.434h-1.46Zm4.96-4.765h-1.556v1.434h1.556Zm0,3.331h-1.556v1.434h1.556Zm14.222-6.176v17.262h-2.576v-1.24h-5.932v1.409h-2.48V182.4h4.035v-5.275h2.65V182.4Zm-8.509,2.577v3.963h1.653V184.98Zm0,10.867h1.653v-4.352h-1.653Zm5.932-10.867h-1.8v3.963h1.8Zm0,10.867v-4.352h-1.8v4.352Z" transform="translate(-606.113 -176.981)" fill="#fff"/>
        <path id="路径_664" data-name="路径 664" d="M684.216,189.185a38.84,38.84,0,0,0-3.136-2.358,11,11,0,0,1-4.474,3.5,9.124,9.124,0,0,0-1.823-1.945c2.48-.973,3.72-2.164,4.327-3.38h-4.036v-2.261H676.7c-.583-.365-1.361-.8-1.847-1.046a10.371,10.371,0,0,0,2.674-4.741l2.553.535c-.145.462-.292.948-.487,1.435h6.03v2.236h-3.161v1.094a3.3,3.3,0,0,1-.024.487h3.744V185h-4.011c1.021.535,3.453,1.921,4.084,2.334Zm-4.522-6.443a4.03,4.03,0,0,0,.025-.535v-1.046H678.5a11.259,11.259,0,0,1-1.119,1.58Zm-1.386,6.808H694.16v10.235h-2.967v-.778H681.153v.8h-2.845Zm2.845,2.26v1.362h10.041V191.81Zm10.041,4.887v-1.433H681.153V196.7Zm5.057-17.821v9.215h-9.239v-9.215Zm-2.869,2.553h-3.7v4.108h3.7Z" transform="translate(-611.444 -176.956)" fill="#fff"/>
        <path id="路径_665" data-name="路径 665" d="M719.088,188.412a27.5,27.5,0,0,1-2.286,6.613c.316.218.681.485,1.143.753,1.652,1,3.914,1.143,6.758,1.143a82.257,82.257,0,0,0,9.846-.632,11.325,11.325,0,0,0-.827,2.966c-2.042.122-6.3.292-9.141.292-3.209,0-5.251-.267-7-1.289-1-.559-1.872-1.361-2.358-1.361-.56,0-1.362,1.652-1.921,3.039l-1.921-2.772a9.036,9.036,0,0,1,2.991-2.6,23.024,23.024,0,0,0,1.483-4.084H712.6c.559-1.361,1.216-3.282,1.8-5.106h-2.576v-2.577h5.98c-.511,1.654-1.142,3.55-1.726,5.2h1.385l.413-.121Zm-4.57-6.224c-.316-1.07-.9-2.772-1.337-4.06l2.649-.778c.463,1.289,1.046,2.894,1.411,3.939Zm5.664,2.189a15.382,15.382,0,0,0-2.382-1.362,13.549,13.549,0,0,0,3.452-5.64l2.675.632a17.55,17.55,0,0,1-.729,1.872h1.7v-2.723h2.869v2.723h5.3v2.456h-5.3v2.043h6.3v2.431H718.432v-2.431Zm9.384,11.28V195H723v.728h-2.772v-7.682h12.2v7.609Zm-7.73-13.322a14.159,14.159,0,0,1-1.557,2.043H724.9v-2.043Zm7.73,10.235v-2.236H723v2.236Z" transform="translate(-616.725 -176.985)" fill="#fff"/>
        <path id="路径_666" data-name="路径 666" d="M750.419,186.44l1.866,3.144,1.756-3.144H756.5l-2.942,4.61,3.007,4.468H754l-1.712-2.908-1.734,2.908h-2.393l2.743-4.468-2.9-4.61Z" transform="translate(-622.01 -178.325)" fill="#fff"/>
        <path id="路径_667" data-name="路径 667" d="M775.8,187.573c-1.166,5.032-3.695,8.8-6.662,10.795a12.408,12.408,0,0,0-2.333-2.164,13.275,13.275,0,0,0,5.323-6.612h-4.716v-2.724h5.933l.51-.121Zm13.177-1.653a59.013,59.013,0,0,1-5.907,4.717,15.007,15.007,0,0,0,6.758,5.251,10.739,10.739,0,0,0-2.018,2.529,16.581,16.581,0,0,1-7.853-7.512v5.567c0,1.58-.317,2.358-1.361,2.844a11.864,11.864,0,0,1-4.522.486,11.615,11.615,0,0,0-.973-2.892c1.216.073,2.724.073,3.161.048s.584-.146.584-.535v-11.6H770.77v-2.772h9.019a50.145,50.145,0,0,0-7.125-2.456l1.435-2.358a43.859,43.859,0,0,1,8.947,2.966l-1.556,2.7c-.413-.243-.948-.51-1.532-.778v2.019a25.094,25.094,0,0,0,1.725,4.278,31.422,31.422,0,0,0,4.645-4.474Z" transform="translate(-624.723 -176.997)" fill="#fff"/>
        <path id="路径_668" data-name="路径 668" d="M810.528,192.415c-.049-.341-.1-.729-.17-1.167-4.3.632-5.105.851-5.616,1.094-.145-.486-.535-1.7-.827-2.358.584-.121,1.07-.705,1.8-1.628.292-.365.827-1.118,1.482-2.139a9.4,9.4,0,0,0-2.649.511,19.641,19.641,0,0,0-.8-2.262c.438-.122.827-.608,1.289-1.361a29.461,29.461,0,0,0,2.65-6.005l2.358.924a38.461,38.461,0,0,1-2.991,5.908l1.556-.122c.559-1.045,1.118-2.163,1.581-3.281l2.188,1.313a43.767,43.767,0,0,1-4.717,7.488l2.238-.268c-.171-.656-.341-1.313-.535-1.872l1.92-.511a31.889,31.889,0,0,1,1.289,5.081Zm-3.549,1.021a30.862,30.862,0,0,1-1.094,6.272,11.422,11.422,0,0,0-2.115-.729,23.409,23.409,0,0,0,1.021-5.884Zm2.261-.389a48.526,48.526,0,0,1,.56,5.592l-2.042.365a53.123,53.123,0,0,0-.414-5.616Zm2.139-.632a31.684,31.684,0,0,1,1.192,4.351l-1.847.632a37.5,37.5,0,0,0-1.119-4.473Zm10.747,3.816c1.629.535,3.282,1.167,4.376,1.6l-1.142,2.018c-1.289-.608-3.4-1.482-5.252-2.163l.8-1.459h-3.6l1.458,1.435c-1.921.827-4.351,1.725-6.126,2.31a19.088,19.088,0,0,0-1-1.994,43.053,43.053,0,0,0,4.6-1.751h-3.258v-7.293h12.3v7.293ZM817.8,180.016h-5.787v-1.847H817.8v-1.046h2.819v1.046h5.5v1.847h-5.5v.827h4.741v1.726H812.911v-1.726H817.8Zm-5.689,3.233h13.979v4.96H812.109Zm2.358,3.21h1.749V185h-1.749Zm1.07,4.693h7.05v-.73h-7.05Zm0,1.8h7.05v-.729h-7.05Zm0,1.823h7.05V194h-7.05Zm4.4-8.315V185h-1.581v1.459Zm3.67-1.459h-1.556v1.459h1.556Z" transform="translate(-630.054 -176.976)" fill="#fff"/>
        <path id="路径_669" data-name="路径 669" d="M855.008,189.627a23.728,23.728,0,0,0,8.656,6.686,13.784,13.784,0,0,0-2.091,2.5,25.62,25.62,0,0,1-7.9-6.686v7.731h-3.087v-7.585a26.7,26.7,0,0,1-7.9,6.515,14.807,14.807,0,0,0-2.139-2.5,23.565,23.565,0,0,0,8.7-6.662H841.37v-2.868h9.214v-3.112h-7.391v-2.868h7.391v-3.623h3.087v3.623h7.609v2.868h-7.609v3.112h9.36v2.868Z" transform="translate(-635.364 -176.985)" fill="#fff"/>
        <path id="路径_670" data-name="路径 670" d="M897.929,191.45a33.2,33.2,0,0,0-3.135-2.82,10.2,10.2,0,0,1-1.63,2.091,13.41,13.41,0,0,0-1.9-1.24,21.265,21.265,0,0,0,9.287,6.782,13.311,13.311,0,0,0-2.139,2.651,23.384,23.384,0,0,1-7.877-6.151v7.074H887.5v-6.929a23.443,23.443,0,0,1-7.8,6.006,17.753,17.753,0,0,0-2.043-2.48,21.508,21.508,0,0,0,9.846-7.829V182.99h-8.85v-2.845h8.85v-2.99h3.039v2.99H899.7v2.845h-9.165v5.446c.122.194.243.365.365.559a10.83,10.83,0,0,0,3.063-5.858l2.82.51a21.721,21.721,0,0,1-.8,2.6c1.385,1.07,3.063,2.358,3.963,3.185Zm-12.521-7.779a23.725,23.725,0,0,1-.875,2.625c.875.754,1.8,1.556,2.358,2.139l-1.945,2.018a19.8,19.8,0,0,0-1.628-1.7,13.064,13.064,0,0,1-2.8,3.331,17.4,17.4,0,0,0-2.238-1.9,11.766,11.766,0,0,0,4.3-7.05Z" transform="translate(-640.719 -176.985)" fill="#fff"/>
      </g>
      <g id="组_264" data-name="组 264" transform="translate(342.932 168.205)">
        <g id="组_262" data-name="组 262" transform="translate(73.344)">
          <path id="路径_671" data-name="路径 671" d="M428.645,179.347c0-1.652,1.4-2.334,3.419-2.974l3.848-1.239c.617-.206.95-.289.95-.827v-1.4c0-.311-.119-.413-.475-.413h-3.752c-.357,0-.476.1-.476.413v1.363h-3.324v-1.61c0-1.963,1.068-2.892,3.324-2.892h4.8c2.256,0,3.324.929,3.324,2.892v2.313c0,1.652-1.4,2.333-3.419,2.974l-3.847,1.24c-.619.206-.951.288-.951.825V181.5h8.266v2.726H428.645Z" transform="translate(-428.645 -169.763)" fill="#fff"/>
          <path id="路径_672" data-name="路径 672" d="M445.8,181.329v-8.674c0-1.963,1.069-2.892,3.325-2.892H454.8c2.256,0,3.324.929,3.324,2.892v8.674c0,1.963-1.069,2.892-3.324,2.892h-5.677C446.866,184.222,445.8,183.292,445.8,181.329Zm8.432.166c.356,0,.474-.1.474-.413V172.9c0-.311-.118-.413-.474-.413h-4.536c-.357,0-.476.1-.476.413v8.18c0,.311.119.413.476.413Z" transform="translate(-431.12 -169.763)" fill="#fff"/>
          <path id="路径_673" data-name="路径 673" d="M463.811,179.347c0-1.652,1.4-2.334,3.419-2.974l3.848-1.239c.618-.206.95-.289.95-.827v-1.4c0-.311-.118-.413-.475-.413H467.8c-.357,0-.476.1-.476.413v1.363H464v-1.61c0-1.963,1.068-2.892,3.324-2.892h4.8c2.256,0,3.323.929,3.323,2.892v2.313c0,1.652-1.4,2.333-3.419,2.974l-3.847,1.24c-.619.206-.951.288-.951.825V181.5H475.5v2.726H463.811Z" transform="translate(-433.72 -169.763)" fill="#fff"/>
          <path id="路径_674" data-name="路径 674" d="M487.332,181.247h-7.6l-.713-2.437,8.5-9.047h3.135v8.84h2.4v2.644h-2.4v2.974h-3.326Zm0-2.644V174.08L483.2,178.6Z" transform="translate(-435.915 -169.763)" fill="#fff"/>
        </g>
        <g id="组_263" data-name="组 263" transform="translate(0 0.056)">
          <path id="路径_675" data-name="路径 675" d="M343.837,172.976l-.9-3.147h15.988l-.9,3.147h-5.689v11.306h-3.063V172.976Z" transform="translate(-342.932 -169.829)" fill="#fff"/>
          <path id="路径_676" data-name="路径 676" d="M376.273,169.829h-2.159l-4.493,9.674-4.464-9.674H363l-4.143,14.453h3.384l2.276-8.451,4.2,8.451h1.838l4.26-8.6,2.188,8.6h3.384Z" transform="translate(-345.23 -169.829)" fill="#fff"/>
          <path id="路径_677" data-name="路径 677" d="M412.89,175.832h-8.023l-.992-1.456,1.109-1.4h9.54l.875-3.147H404.08s-3.56-.087-3.56,4.138c0,0-.146,4.313,3.268,4.313h8.023l.992,1.457-1.108,1.4h-9.833l-.875,3.147H412.6s3.559.087,3.559-4.138C416.158,180.144,416.3,175.832,412.89,175.832Z" transform="translate(-351.242 -169.829)" fill="#fff"/>
          <path id="路径_678" data-name="路径 678" d="M381.9,169.829l.875,3.176h5.426v11.306h3.063V172.976h5.369a5.209,5.209,0,0,1,1.546-3.147Z" transform="translate(-348.556 -169.829)" fill="#fff"/>
        </g>
      </g>
    </g>
  </g>
</svg>
