<svg xmlns="http://www.w3.org/2000/svg" width="281" height="39" viewBox="0 0 281 39">
  <g id="footer_logo_tmba" transform="translate(-397 -3692)">
    <rect id="矩形_201" data-name="矩形 201" width="281" height="39" transform="translate(397 3692)" fill="#fff" opacity="0"/>
    <g id="组_693" data-name="组 693" transform="translate(278.161 3046.564)">
      <g id="组_253" data-name="组 253" transform="translate(118.839 645.436)">
        <g id="组_250" data-name="组 250">
          <path id="路径_1181" data-name="路径 1181" d="M142.614,662.76a4.59,4.59,0,1,1-4.591-4.589A4.591,4.591,0,0,1,142.614,662.76Z" transform="translate(-122.308 -648.463)" fill="#fff" style="isolation: isolate"/>
          <path id="路径_1182" data-name="路径 1182" d="M132.535,657.612l.309-.31C132.739,657.4,132.634,657.5,132.535,657.612Z" transform="translate(-122.094 -648.256)" fill="#fff"/>
          <path id="路径_1183" data-name="路径 1183" d="M148.053,645.436h0l-7.152,7.153a7.235,7.235,0,0,1,6,5.771h8.617Z" transform="translate(-124.082 -645.436)" fill="#fff"/>
          <path id="路径_1184" data-name="路径 1184" d="M127.456,666h-8.617l7.459,12.919,7.15-7.15A7.236,7.236,0,0,1,127.456,666Z" transform="translate(-118.839 -650.323)" fill="#fff"/>
          <g id="组_248" data-name="组 248" transform="translate(11.631 15.674)">
            <path id="路径_1185" data-name="路径 1185" d="M146.3,670.594l-.471.47C146,670.916,146.153,670.757,146.3,670.594Z" transform="translate(-136.885 -667.09)" fill="#fff"/>
            <path id="路径_1186" data-name="路径 1186" d="M141.986,674.78h9.8l.515-.893h-9.42Z" transform="translate(-135.971 -667.872)" fill="#fff" style="isolation: isolate"/>
            <path id="路径_1187" data-name="路径 1187" d="M146.328,670.439c-.125.136-.257.268-.393.4h8.524l.515-.892h-8.232C146.61,670.114,146.473,670.28,146.328,670.439Z" transform="translate(-136.91 -666.935)" fill="#fff" style="isolation: isolate"/>
            <path id="路径_1188" data-name="路径 1188" d="M134.1,682.67h12.339l.515-.893H134.988Z" transform="translate(-134.096 -669.747)" fill="#fff" style="isolation: isolate"/>
            <path id="路径_1189" data-name="路径 1189" d="M143.958,672.808h9.162l.515-.893h-8.784Z" transform="translate(-136.44 -667.403)" fill="#fff" style="isolation: isolate"/>
            <path id="路径_1190" data-name="路径 1190" d="M136.069,680.7h11.7l.515-.893H136.961Z" transform="translate(-134.565 -669.279)" fill="#fff" style="isolation: isolate"/>
            <path id="路径_1191" data-name="路径 1191" d="M148.008,667.971a7.1,7.1,0,0,1-.465.892h8.165l.515-.892Z" transform="translate(-137.292 -666.466)" fill="#fff" style="isolation: isolate"/>
            <path id="路径_1192" data-name="路径 1192" d="M140.013,676.753h10.433l.515-.893H140.905Z" transform="translate(-135.502 -668.341)" fill="#fff" style="isolation: isolate"/>
            <path id="路径_1193" data-name="路径 1193" d="M157.31,666h-8.617a7.149,7.149,0,0,1-.234.893h8.335Z" transform="translate(-137.51 -665.997)" fill="#fff" style="isolation: isolate"/>
            <path id="路径_1194" data-name="路径 1194" d="M138.041,678.726h11.068l.515-.893H138.934Z" transform="translate(-135.034 -668.81)" fill="#fff" style="isolation: isolate"/>
          </g>
          <g id="组_249" data-name="组 249" transform="translate(0 0)">
            <path id="路径_1195" data-name="路径 1195" d="M123.4,654.22h9.415l.892-.893H123.91Z" transform="translate(-119.922 -647.312)" fill="#fff" style="isolation: isolate"/>
            <path id="路径_1196" data-name="路径 1196" d="M124.534,652.247h10.05l.892-.893H125.049Z" transform="translate(-120.193 -646.843)" fill="#fff" style="isolation: isolate"/>
            <path id="路径_1197" data-name="路径 1197" d="M121.118,658.164h8.229c.149-.194.307-.381.474-.56.1-.107.2-.209.31-.31l.023-.023h-8.521Z" transform="translate(-119.381 -648.249)" fill="#fff" style="isolation: isolate"/>
            <path id="路径_1198" data-name="路径 1198" d="M125.673,650.274h10.686l.893-.893H126.188Z" transform="translate(-120.463 -646.374)" fill="#fff" style="isolation: isolate"/>
            <path id="路径_1199" data-name="路径 1199" d="M118.839,662.11h8.617a7.116,7.116,0,0,1,.233-.893h-8.335Z" transform="translate(-118.839 -649.187)" fill="#fff" style="isolation: isolate"/>
            <path id="路径_1200" data-name="路径 1200" d="M119.978,660.137h8.216a7.166,7.166,0,0,1,.464-.893h-8.165Z" transform="translate(-119.11 -648.718)" fill="#fff" style="isolation: isolate"/>
            <path id="路径_1201" data-name="路径 1201" d="M122.256,656.191h8.779l.893-.893h-9.157Z" transform="translate(-119.651 -647.781)" fill="#fff" style="isolation: isolate"/>
            <path id="路径_1202" data-name="路径 1202" d="M140.8,645.436H128.465l-.516.893h11.957Z" transform="translate(-121.004 -645.436)" fill="#fff" style="isolation: isolate"/>
            <path id="路径_1203" data-name="路径 1203" d="M127.327,647.409l-.516.893h11.322l.892-.893Z" transform="translate(-120.734 -645.905)" fill="#fff" style="isolation: isolate"/>
          </g>
        </g>
        <g id="组_252" data-name="组 252" transform="translate(0.066 31.432)">
          <path id="路径_1204" data-name="路径 1204" d="M135.818,686.831l0,0,0,0h-.033v.041l-2.728,3.392-2.764-3.437,0,0h-1.674v7.206l1.675-.836v-3.7l1.691,2.1,1.075,1.336,1.075-1.336,1.653-2.055v4.491l1.675-.836v-6.37Z" transform="translate(-121.227 -686.706)" fill="#fff"/>
          <path id="路径_1205" data-name="路径 1205" d="M142.986,690.881h2.074l.22,0a.837.837,0,0,1,0,1.675l-.13.008h-.805l-.836,1.27h1.77l.583-.005a1.969,1.969,0,0,0,1.969-1.971,2,2,0,0,0-1.076-1.762,1.908,1.908,0,0,0-1.15-3.431h-4.28v7.159h1.662v-2.946m0-1.27v-1.67h1.959a.837.837,0,0,1,0,1.674l-.072,0h-1.887" transform="translate(-124.249 -686.668)" fill="#fff"/>
          <g id="组_251" data-name="组 251" transform="translate(23.645 0.019)">
            <path id="路径_1206" data-name="路径 1206" d="M151.657,693.8h-1.715l2.928-7.11h1.757l2.969,7.131h-1.8l-.711-1.653h-2.21l.5-1.234h1.372l-1-2.551Z" transform="translate(-149.942 -686.693)" fill="#fff"/>
          </g>
          <path id="路径_1207" data-name="路径 1207" d="M119.762,686.693l-.836,1.426h2.838v5.939l1.639-.837v-5.1h2.348v-1.426Z" transform="translate(-118.925 -686.674)" fill="#fff"/>
        </g>
      </g>
      <g id="组_254" data-name="组 254" transform="translate(161.457 653.621)">
        <path id="路径_1208" data-name="路径 1208" d="M186.882,661.187l-11.784.954-.354-1.353,1.446-.108a34.615,34.615,0,0,0,3.015-4.446l1.108.692a30.089,30.089,0,0,1-2.354,3.631l7.831-.57a15.774,15.774,0,0,0-1.923-1.954l1.031-.907A52.968,52.968,0,0,1,189,661.663l-1.062.831Zm-9.215,8.477v.677H176.3v-6.446a.418.418,0,0,1,.476-.477h10.215a.424.424,0,0,1,.477.477v6.446H186.1v-.677Zm0-1.308H186.1v-3.431c0-.139-.062-.2-.2-.2h-8.03c-.154,0-.216.076-.2.2Z" transform="translate(-174.744 -656.187)" fill="#fff"/>
        <path id="路径_1209" data-name="路径 1209" d="M197.443,662.649a12.7,12.7,0,0,0-1.769-1.445l.738-.954a11.643,11.643,0,0,1,1.816,1.493Zm-1.769,7.015a11.919,11.919,0,0,0,1.522-5.291l1.185.061a13.189,13.189,0,0,1-1.477,5.6Zm1.938-10.568a12.194,12.194,0,0,0-1.892-1.554l.754-.954A12.518,12.518,0,0,1,198.4,658.2Zm.646,4.692a15.5,15.5,0,0,0,.369-1.8l.908.2-.385,1.877Zm1.6-2.369-1.323.169a5.971,5.971,0,0,0-.246-.969l.754-.108.707-.831a6.872,6.872,0,0,0-1.461-1.061l.477-.892.338.2.846-1.753.892.476c-.215.462-.538,1.077-.984,1.831l.461.384a9.016,9.016,0,0,0,.63-1.384l.954.323a8.46,8.46,0,0,1-1.538,2.492l.923-.139-.184-.523.861-.246a8.8,8.8,0,0,1,.538,2l-.877.2-.077-.431-.677.108v2.616h-1.015Zm.076,7-.076.523-1.031-.338.369-2.446a.344.344,0,0,1,.384-.308h8.308v-.508c0-.062-.046-.108-.139-.108h-8.662v-1.015h9.585c.184,0,.277.092.277.261v2.784h-1.061v-.415h-7.523c-.184.015-.2.092-.277.554H209.2c.215,0,.338.092.338.307a5.384,5.384,0,0,1-.415,2.016l-.246.246c-.462.4-1.508.585-3.123.585a41.971,41.971,0,0,1-4.631-.323l-.062-1.092a37.926,37.926,0,0,0,5.323.353,2.942,2.942,0,0,0,1.907-.431,2.284,2.284,0,0,0,.077-.646Zm1.585-4.677a10.455,10.455,0,0,0-.308-1.569l.939-.139.292,1.631Zm5.862-2.43-1.323.169a4.546,4.546,0,0,0-.261-1l.831-.107.6-.708a8.13,8.13,0,0,0-1.492-1.2l.046-.093H202.32v-.753h3.568v.584l.354-.584.338.2.769-1.585.877.477a18.493,18.493,0,0,1-.908,1.692l.476.461a10.651,10.651,0,0,0,.662-1.446l.954.323a9.681,9.681,0,0,1-1.461,2.445l.831-.123-.184-.585.892-.246a18.349,18.349,0,0,1,.615,2.093l-.922.169-.108-.416-.692.107v2.754h-1Zm-4.816-4.846H205.7v.769h-3.139Zm.123,2.292h2.954v.769h-2.954Zm.062,1.076h2.831v.77H202.75Zm2.831,3.893a.114.114,0,0,1-.123.123h-2.569c-.077,0-.108-.046-.108-.123V661.08c0-.077.031-.107.108-.107h2.569c.077,0,.123.03.123.107Zm-.861-1.984h-1.092l-.031.031v1.262l.031.046h1.092l.046-.046v-1.262Zm1.107,1.954a14.371,14.371,0,0,0,.277-1.878l.938.169a18.515,18.515,0,0,1-.293,1.939Zm3.277.138a8.555,8.555,0,0,0-.446-1.785l.907-.215a17.393,17.393,0,0,1,.462,1.862Z" transform="translate(-179.718 -656.173)" fill="#fff"/>
        <path id="路径_1210" data-name="路径 1210" d="M222.964,668.65v-9.938h-5.692v-1.369h12.707v1.369h-5.6v9.938h6.261v1.369h-14.03V668.65Z" transform="translate(-184.694 -656.451)" fill="#fff"/>
        <path id="路径_1211" data-name="路径 1211" d="M239.528,666.185v-8.754a.383.383,0,0,1,.431-.431h9.492a.388.388,0,0,1,.446.431v8.754h1.754v1.2H237.682v-1.2Zm-1.739,3.23a9.568,9.568,0,0,0,4.216-1.692l.738,1.077a10.786,10.786,0,0,1-4.476,1.877Zm3.046-10.138h7.754v-.908c0-.124-.046-.185-.184-.185H241c-.123,0-.169.061-.169.185Zm0,2.4h7.754v-1.215h-7.754Zm0,2.23h7.754v-1.031h-7.754Zm0,2.277h7.754v-1.093h-7.754Zm10.246,4.553a26.265,26.265,0,0,0-4.431-1.676l.446-1.246a22.382,22.382,0,0,1,4.477,1.692Z" transform="translate(-189.702 -656.37)" fill="#fff"/>
        <path id="路径_1212" data-name="路径 1212" d="M265.853,662.982l-2.662.662.169.262-1.092.707-.738-1.307v7.184h-1.246v-6.4c-.23.646-.446,1.215-.661,1.677l-1.293-.262a14.121,14.121,0,0,0,1.662-5.046h-1.339v-1.308h1.631v-2.908h1.246v2.908h1.23v1.308h-1.23v.676c.569.8,1.108,1.616,1.631,2.446a6.046,6.046,0,0,0-.4-1.046l.616-.139a16.42,16.42,0,0,0,1.03-1.6,11.655,11.655,0,0,0-2.045-2.107l.707-.954.447.384c.246-.585.492-1.2.723-1.877l1.092.461a18.669,18.669,0,0,1-.984,2.231l.615.692a9.319,9.319,0,0,0,.415-1.446l1.154.231A10.819,10.819,0,0,1,264.9,662l.616-.153-.185-.492,1.015-.292a20.933,20.933,0,0,1,.692,2.276l-1.031.2Zm4.676,1.154h1.939v1.2h-3.6A9.876,9.876,0,0,0,269.56,667l1.138-1.416.969.677a12.761,12.761,0,0,1-1.477,1.8c.477.631.784.954.908.954.077,0,.123-.061.154-.169a11.224,11.224,0,0,0,.215-1.769l1.231.369a5.438,5.438,0,0,1-.846,2.969,1.023,1.023,0,0,1-.492.2c-.615,0-1.307-.6-2.077-1.785a12.143,12.143,0,0,1-3.892,1.661l-.569-1.123a11.771,11.771,0,0,0,3.861-1.554,12.987,12.987,0,0,1-1.015-2.477h-2.861c-.108,0-.154.031-.154.138v.631a26.8,26.8,0,0,1,2.754,1.153l-.524,1.185c-.646-.369-1.384-.739-2.246-1.123a4.84,4.84,0,0,1-1.339,3.215l-1.107-.63a4.263,4.263,0,0,0,1.214-3.246v-2.184c0-.231.108-.338.323-.338h3.631a34.474,34.474,0,0,1-.861-7.815l1.262.077.03,2.107.615-.83.4.323a16.144,16.144,0,0,0,.816-1.785l1.061.538a20.2,20.2,0,0,1-1.047,2.062l.646.723a10.883,10.883,0,0,0,.893-2.277l1.138.308a12.326,12.326,0,0,1-2.061,3.953l.861-.169-.2-.523,1.015-.323c.432,1.231.723,2.077.816,2.507l-1.015.246-.231-.769-1.415.293a6.867,6.867,0,0,1,.938.8Zm-.861-3.554a11.065,11.065,0,0,0-1.862-1.846,26.7,26.7,0,0,0,.323,3.246l.615-.123Zm.369,3.554a6.641,6.641,0,0,0-.784-.631l.508-.646-1.446.292.216.985Z" transform="translate(-194.61 -656.183)" fill="#fff"/>
        <path id="路径_1213" data-name="路径 1213" d="M280.868,657.1H286.3v4.476h-.538a23.33,23.33,0,0,1,1.076,2.308l-1.031.385c-.108-.277-.246-.6-.384-.908A23.705,23.705,0,0,1,280.3,664.5l-.354-1.123.923-.092Zm-.754,11.985h13.23v1.107h-13.23Zm1.616-.6V664.3h10.076v4.185Zm3.4-9.615v-.723h-3.092v.723Zm-3.092.984v.662h3.092v-.662Zm0,1.723V663.1a10.828,10.828,0,0,0,2.892-.739l-.261-.477.677-.308Zm8.538,4.354v-.692h-7.615v.692Zm-7.615.923v.692h7.615v-.692Zm10.153-9.753v1.046H291.3a6.757,6.757,0,0,1-.291,1.646h2.4v1.061h-2.77a5.16,5.16,0,0,1-.23.524h.8v.984a.611.611,0,0,0,.6.631.7.7,0,0,0,.523-.123,3.829,3.829,0,0,0,.078-.922l1.045.2a3.211,3.211,0,0,1-.245,1.477,1,1,0,0,1-.738.415h-1.293a1.227,1.227,0,0,1-1.092-1.093v-.954a6.048,6.048,0,0,1-2.215,2.2l-.922-.908c.076-.031.322-.169.692-.369a5.743,5.743,0,0,0,1.846-2.062h-2.647v-1.061h.8l.569-1.523,1,.37-.446,1.153h1.185a5.7,5.7,0,0,0,.323-1.646H287.33V657.1Z" transform="translate(-199.747 -656.394)" fill="#fff"/>
        <path id="路径_1214" data-name="路径 1214" d="M306.965,659.623H302.15a.11.11,0,0,0-.123.107v2.046h-1.246v-3.062a.2.2,0,0,1,.23-.231h5.954V657.9h-5.153v-1.061H313.3V657.9h-5.076v.584h5.492l1.015.524a10.676,10.676,0,0,1-.554,2.908l-1.2-.385a9.311,9.311,0,0,0,.416-1.769.123.123,0,0,0-.139-.139h-5.03v2.616h-.615l.938.338-.124.138a18.588,18.588,0,0,0,6.337,1.954l-.508,1.292a22.765,22.765,0,0,1-3.722-1.046v.923H304.81v-.877a31.311,31.311,0,0,1-3.892,1.2l-.507-1.292c3.338-.569,5.63-1.462,6.876-2.631h-.322Zm.537,7.985v3.03h-1.245v-3.03h-5.031v-1.123h11.815c.261.015.384.138.368.384v1.877c0,1.677-1.722,1.677-2.491,1.677a7.854,7.854,0,0,1-1.585-.153l-.154-1.246a9.381,9.381,0,0,0,1.892.245c.631,0,1.123-.092,1.153-.938v-.538a.162.162,0,0,0-.183-.184Zm-4.983-7.37h3.8v1h-3.8Zm0,1.554h3.8v1.016h-3.8Zm7.615,2.985c-.8-.354-1.662-.753-2.57-1.246a16.735,16.735,0,0,1-2.26,1.246Zm-1.246-4.538h3.753v1h-3.753Zm0,1.554H312.7v1.016h-3.815Z" transform="translate(-204.611 -656.331)" fill="#fff"/>
        <path id="路径_1215" data-name="路径 1215" d="M323.68,663.865l-2.016.277a5.654,5.654,0,0,0-.322-1.139l.861-.138a15.475,15.475,0,0,0,1.461-1.661,11.2,11.2,0,0,0-2.308-1.693l.553-1.045a1.029,1.029,0,0,1,.415.246,27.774,27.774,0,0,0,1.432-2.538l1,.63a18.825,18.825,0,0,1-1.523,2.554l1.092.892a11.059,11.059,0,0,0,1.278-2.615l1.123.384a13.531,13.531,0,0,1-2.907,4.6l1.984-.323-.4-1.153,1.139-.308.462,1.384a13.447,13.447,0,0,1,.492,1.8l-1.139.215-.2-.754-1.231.2v6.8H323.68Zm-2.324,5.476a30.5,30.5,0,0,0,.569-4.415l1.169.184a37.47,37.47,0,0,1-.6,4.477Zm5.308-4.507.508,3.323-1.185.169-.478-3.231ZM328,668.726V657.141a.393.393,0,0,1,.446-.43h5.939c.307,0,.46.153.46.43v11.584h.862v1.246h-8.846v-1.246Zm1.246-7.984H333.6v-2.6c0-.123-.061-.185-.2-.185h-3.969a.163.163,0,0,0-.185.185Zm0,3.954H333.6v-2.709h-4.354Zm0,4.03H333.6v-2.769h-4.354Z" transform="translate(-209.586 -656.173)" fill="#fff"/>
        <path id="路径_1216" data-name="路径 1216" d="M343.967,662.73l-.43.662-1.246-.523a15.266,15.266,0,0,0,2.584-6.507l1.276.2a22.325,22.325,0,0,1-.876,3.415v10.415h-1.308Zm7.062,2.908H346.4V664.33h4.631v-4.215h-2.585a10.435,10.435,0,0,1-1.461,2.646l-1.154-.708a8.593,8.593,0,0,0,1.985-5.446l1.307.078a16.692,16.692,0,0,1-.277,2.123h2.185v-2.554H352.4v2.554h3.755v1.308H352.4v4.215h4.185v1.307H352.4v4.816H351.03Z" transform="translate(-214.565 -656.192)" fill="#fff"/>
        <path id="路径_1217" data-name="路径 1217" d="M369.9,668.65v-9.938h-5.692v-1.369h12.707v1.369h-5.6v9.938h6.262v1.369H363.544V668.65Z" transform="translate(-219.616 -656.451)" fill="#fff"/>
        <path id="路径_1218" data-name="路径 1218" d="M398.026,669.791a18.47,18.47,0,0,1-5.8-2.523v3.185h-1.261v-3.062a16.491,16.491,0,0,1-5.953,2.34l-.478-1.262a16.011,16.011,0,0,0,6-2.169h-5.569v-1.185h6v-.861h-5.216v-1.062h5.216v-.922h-5.647v-1.062H388.7a14.533,14.533,0,0,0-.6-1.4h-3.323v-1.185H387.4a9.318,9.318,0,0,0-.922-1.585l1.03-.63a9.449,9.449,0,0,1,1.077,1.877l-.646.339h1.8v-2.369h1.2v2.369h1.385v-2.369h1.2v2.369H395l-.462-.339a12.853,12.853,0,0,0,1.262-1.923l1.015.63a11.722,11.722,0,0,1-1.031,1.631h2.539v1.185h-3.492l-.538,1.4h3.554v1.062h-5.616v.922h5.185v1.062h-5.185v.861H398.2V666.3h-5.338a15.66,15.66,0,0,0,5.8,2.308Zm-8.046-8.585h2.984l.6-1.4h-4.123Z" transform="translate(-224.605 -656.192)" fill="#fff"/>
        <path id="路径_1219" data-name="路径 1219" d="M407.665,670.434h-1.292V657.219a.4.4,0,0,1,.46-.461h11.831c.322,0,.492.154.492.461V668.9c0,1.107-.723,1.66-2.184,1.66a11.19,11.19,0,0,1-2.061-.231l-.108-1.461a10.417,10.417,0,0,0,2.077.385c.43,0,.969-.307.969-.8V658.173c0-.076-.047-.107-.123-.107h-9.954c-.077,0-.108.031-.108.107Zm1.015-11.122h8.184v1.246h-8.184Zm7.707,7.984a.322.322,0,0,1-.37.355h-6.477a.317.317,0,0,1-.353-.355v-5.108a.316.316,0,0,1,.353-.354h6.477a.322.322,0,0,1,.37.354Zm-1.307-4.154c0-.046-.016-.061-.062-.061h-4.462c-.062,0-.076.015-.062.061v3.185l.062.077h4.462l.062-.077Z" transform="translate(-229.795 -656.312)" fill="#fff"/>
        <path id="路径_1220" data-name="路径 1220" d="M440.006,669.791a18.469,18.469,0,0,1-5.8-2.523v3.185h-1.26v-3.062a16.5,16.5,0,0,1-5.954,2.34l-.477-1.262a16.012,16.012,0,0,0,6-2.169h-5.569v-1.185h6v-.861h-5.217v-1.062h5.217v-.922H427.3v-1.062h3.385a14.526,14.526,0,0,0-.6-1.4h-3.323v-1.185h2.615a9.274,9.274,0,0,0-.922-1.585l1.03-.63a9.409,9.409,0,0,1,1.077,1.877l-.646.339h1.8v-2.369h1.2v2.369H434.3v-2.369h1.2v2.369h1.477l-.462-.339a12.79,12.79,0,0,0,1.262-1.923l1.015.63a11.72,11.72,0,0,1-1.031,1.631H440.3v1.185h-3.492l-.537,1.4h3.554v1.062h-5.617v.922h5.185v1.062h-5.185v.861h5.969V666.3h-5.338a15.659,15.659,0,0,0,5.8,2.308Zm-8.046-8.585h2.984l.6-1.4h-4.123Z" transform="translate(-234.582 -656.192)" fill="#fff"/>
        <path id="路径_1221" data-name="路径 1221" d="M447.4,663.2a12,12,0,0,0,2.939-4.753l1.292.461a13.817,13.817,0,0,1-3,5.077Zm11.97,5.862L448.034,670l-.368-1.338,1.738-.123a48.589,48.589,0,0,0,3.508-7.046l1.26.554a47.363,47.363,0,0,1-3.138,6.385l7.538-.57a35.126,35.126,0,0,0-2.509-3.462l1.124-.753a62.429,62.429,0,0,1,4.23,6.184l-1.169.661ZM452.1,656.757h5.768a.294.294,0,0,1,.339.261,9.221,9.221,0,0,0,3.523,6.184l-1.23.769a11.207,11.207,0,0,1-3.248-5.707c-.014-.139-.061-.2-.137-.2H452.1Z" transform="translate(-239.547 -656.311)" fill="#fff"/>
        <path id="路径_1222" data-name="路径 1222" d="M482.2,659.885a36.038,36.038,0,0,1-4.032-1.108v.8h-5.23v-.815a36.948,36.948,0,0,1-4.091,1.076l-.447-1.246c3.4-.446,5.754-1.262,6.984-2.4l1.092.462-.107.108a18.754,18.754,0,0,0,6.308,1.878Zm-.785,4.092a.154.154,0,0,1-.169.169H469.765a.153.153,0,0,1-.169-.169v-3.615c0-.108.06-.154.169-.154h11.476c.108,0,.169.046.169.154Zm-9.584,5.83v.554H470.58v-5.246c-.016-.123.046-.2.2-.2h9.567c.169,0,.263.077.263.246v5.2h-1.246v-.554Zm1.153-8.4a8.605,8.605,0,0,1,.846,1.615h1.108v-1.692h-4.107c-.046,0-.062.015-.046.046v1.585l.046.062H472.5l-.585-1.047Zm-1.153,5.431h7.538v-.693c0-.108-.062-.169-.185-.169H472c-.124,0-.185.062-.169.169Zm7.538,1.061h-7.538v.83h7.538Zm-1.969-9.446-1.907-.938a14.451,14.451,0,0,1-1.77.938Zm1.862,3.646-.569.923h1.477l.062-.062v-1.585l-.062-.046h-4.032v1.692h1.047a10.469,10.469,0,0,0,1.062-1.585Z" transform="translate(-244.536 -656.177)" fill="#fff"/>
      </g>
      <g id="组_255" data-name="组 255" transform="translate(160.224 672.662)">
        <path id="路径_1223" data-name="路径 1223" d="M173.126,681.227h4.965v.938h-4.965Zm1.989.576h.987v6.46h-.987Z" transform="translate(-173.126 -681.168)" fill="#fff"/>
        <path id="路径_1224" data-name="路径 1224" d="M180.163,688.556a1.439,1.439,0,0,1-.46-1.169,1.415,1.415,0,0,1,.421-1.118,1.877,1.877,0,0,1,1.272-.372h1.428l.068.794H181.4a.844.844,0,0,0-.579.171.672.672,0,0,0-.191.525.653.653,0,0,0,.254.566,1.319,1.319,0,0,0,.772.184,2.224,2.224,0,0,0,.844-.121.4.4,0,0,0,.279-.377l.1.707a1.168,1.168,0,0,1-.322.334,1.436,1.436,0,0,1-.443.2,2.3,2.3,0,0,1-.566.065A2.126,2.126,0,0,1,180.163,688.556Zm2.618-2.872a1.062,1.062,0,0,0-.264-.767.992.992,0,0,0-.748-.274,1.934,1.934,0,0,0-.588.092,1.756,1.756,0,0,0-.511.256l-.721-.492a1.893,1.893,0,0,1,.752-.536,2.72,2.72,0,0,1,1.038-.191,2.4,2.4,0,0,1,1.07.22,1.539,1.539,0,0,1,.677.639,2.049,2.049,0,0,1,.232,1.01v3.227h-.938Z" transform="translate(-174.689 -681.773)" fill="#fff"/>
        <path id="路径_1225" data-name="路径 1225" d="M186.939,681.227h.987v.987h-.987Zm0,2.013h.987v5.023h-.987Z" transform="translate(-176.409 -681.168)" fill="#fff"/>
        <path id="路径_1226" data-name="路径 1226" d="M189.63,683.867h1.031l.89,3.585,1.253-3.585h.688l1.253,3.585.89-3.585h1.031l-1.548,5.023h-.746l-1.224-3.47-1.224,3.47h-.745Z" transform="translate(-177.049 -681.796)" fill="#fff"/>
        <path id="路径_1227" data-name="路径 1227" d="M200.4,688.556a1.439,1.439,0,0,1-.46-1.169,1.415,1.415,0,0,1,.421-1.118,1.878,1.878,0,0,1,1.273-.372h1.427l.068.794h-1.49a.843.843,0,0,0-.578.171.669.669,0,0,0-.191.525.651.651,0,0,0,.254.566,1.317,1.317,0,0,0,.771.184,2.228,2.228,0,0,0,.845-.121.4.4,0,0,0,.278-.377l.1.707a1.168,1.168,0,0,1-.322.334,1.427,1.427,0,0,1-.443.2,2.292,2.292,0,0,1-.566.065A2.128,2.128,0,0,1,200.4,688.556Zm2.618-2.872a1.059,1.059,0,0,0-.264-.767.991.991,0,0,0-.748-.274,1.934,1.934,0,0,0-.588.092,1.756,1.756,0,0,0-.511.256l-.72-.492a1.885,1.885,0,0,1,.752-.536,2.723,2.723,0,0,1,1.038-.191,2.4,2.4,0,0,1,1.07.22,1.54,1.54,0,0,1,.678.639,2.056,2.056,0,0,1,.232,1.01v3.227h-.938Z" transform="translate(-179.499 -681.773)" fill="#fff"/>
        <path id="路径_1228" data-name="路径 1228" d="M207.175,683.844h.987v5.023h-.987Zm3.049,1.979a1.143,1.143,0,0,0-.276-.822,1.015,1.015,0,0,0-.774-.29,1.026,1.026,0,0,0-.748.256.958.958,0,0,0-.264.72l-.1-.967a1.789,1.789,0,0,1,.607-.7,1.478,1.478,0,0,1,.83-.247,1.558,1.558,0,0,1,1.265.535,2.291,2.291,0,0,1,.447,1.512v3.049h-.987Z" transform="translate(-181.218 -681.773)" fill="#fff"/>
        <path id="路径_1229" data-name="路径 1229" d="M221.843,681.227h.924v7.036H221.8v-5.27l.049.309-1.733,3.983h-.687L217.7,683.4l.049-.406v5.27h-.963v-7.036h.924l2.066,4.645Z" transform="translate(-183.503 -681.168)" fill="#fff"/>
        <path id="路径_1230" data-name="路径 1230" d="M226.932,688.556a1.439,1.439,0,0,1-.46-1.169,1.415,1.415,0,0,1,.421-1.118,1.879,1.879,0,0,1,1.273-.372h1.427l.068.794h-1.49a.843.843,0,0,0-.578.171.669.669,0,0,0-.191.525.651.651,0,0,0,.254.566,1.319,1.319,0,0,0,.772.184,2.224,2.224,0,0,0,.844-.121.4.4,0,0,0,.278-.377l.1.707a1.171,1.171,0,0,1-.322.334,1.431,1.431,0,0,1-.442.2,2.3,2.3,0,0,1-.566.065A2.128,2.128,0,0,1,226.932,688.556Zm2.618-2.872a1.062,1.062,0,0,0-.263-.767.992.992,0,0,0-.748-.274,1.927,1.927,0,0,0-.588.092,1.747,1.747,0,0,0-.511.256l-.721-.492a1.882,1.882,0,0,1,.752-.536,2.716,2.716,0,0,1,1.038-.191,2.4,2.4,0,0,1,1.07.22,1.541,1.541,0,0,1,.678.639,2.057,2.057,0,0,1,.233,1.01v3.227h-.939Z" transform="translate(-185.805 -681.773)" fill="#fff"/>
        <path id="路径_1231" data-name="路径 1231" d="M235,688.94l-.486-.256a1.746,1.746,0,0,1-.743-.746,2.514,2.514,0,0,1-.256-1.18v-.828a2.463,2.463,0,0,1,.256-1.166,1.733,1.733,0,0,1,.743-.738,2.506,2.506,0,0,1,1.173-.254,2.81,2.81,0,0,1,.738.095,2.189,2.189,0,0,1,.622.273,1.708,1.708,0,0,1,.46.436l-.711.639a1.478,1.478,0,0,0-.5-.373,1.407,1.407,0,0,0-.6-.13,1.185,1.185,0,0,0-.885.319,1.23,1.23,0,0,0-.315.9v.828a1.277,1.277,0,0,0,.312.919,1.179,1.179,0,0,0,.888.324,1.349,1.349,0,0,0,.6-.14,1.446,1.446,0,0,0,.494-.4l.711.688a1.761,1.761,0,0,1-.465.428,2.209,2.209,0,0,1-.621.269,2.83,2.83,0,0,1-.733.091Z" transform="translate(-187.479 -681.773)" fill="#fff"/>
        <path id="路径_1232" data-name="路径 1232" d="M240.183,681.227h.987v7.036h-.987Zm3.049,3.992a1.147,1.147,0,0,0-.276-.822,1.015,1.015,0,0,0-.774-.29,1.037,1.037,0,0,0-.748.252.935.935,0,0,0-.264.711l-.1-.968a1.783,1.783,0,0,1,.607-.689,1.487,1.487,0,0,1,.83-.245,1.559,1.559,0,0,1,1.265.535,2.291,2.291,0,0,1,.447,1.512v3.049h-.987Z" transform="translate(-189.063 -681.168)" fill="#fff"/>
        <path id="路径_1233" data-name="路径 1233" d="M247.445,681.227h.987v.987h-.987Zm0,2.013h.987v5.023h-.987Z" transform="translate(-190.789 -681.168)" fill="#fff"/>
        <path id="路径_1234" data-name="路径 1234" d="M250.707,683.844h.987v5.023h-.987Zm3.049,1.979a1.147,1.147,0,0,0-.275-.822,1.2,1.2,0,0,0-1.522-.034.961.961,0,0,0-.264.72l-.1-.967a1.789,1.789,0,0,1,.607-.7,1.48,1.48,0,0,1,.83-.247,1.559,1.559,0,0,1,1.266.535,2.291,2.291,0,0,1,.447,1.512v3.049h-.987Z" transform="translate(-191.565 -681.773)" fill="#fff"/>
        <path id="路径_1235" data-name="路径 1235" d="M259.284,688.94l-.494-.261a1.746,1.746,0,0,1-.752-.768,2.644,2.644,0,0,1-.259-1.221v-.566a2.955,2.955,0,0,1,.249-1.272,1.783,1.783,0,0,1,.723-.8,2.235,2.235,0,0,1,1.142-.276,1.813,1.813,0,0,1,1.074.315,1.953,1.953,0,0,1,.68.909,3.893,3.893,0,0,1,.235,1.427v.329h-3.388v-.794h2.449a1.684,1.684,0,0,0-.317-.955.889.889,0,0,0-.733-.342,1.069,1.069,0,0,0-.868.367,1.575,1.575,0,0,0-.308,1.041v.639a1.308,1.308,0,0,0,.329.958,1.252,1.252,0,0,0,.934.334,1.547,1.547,0,0,0,.6-.121,1.736,1.736,0,0,0,.528-.339l.648.648a2.712,2.712,0,0,1-.837.554,2.374,2.374,0,0,1-.934.2Z" transform="translate(-193.245 -681.773)" fill="#fff"/>
        <path id="路径_1236" data-name="路径 1236" d="M266.018,681.227h4.965v.938h-4.965Zm1.989.576h.987v6.46h-.987Z" transform="translate(-195.204 -681.168)" fill="#fff"/>
        <path id="路径_1237" data-name="路径 1237" d="M273.484,688.684a1.7,1.7,0,0,1-.709-.748,2.639,2.639,0,0,1-.244-1.183v-.818a2.588,2.588,0,0,1,.244-1.169,1.686,1.686,0,0,1,.709-.74,2.589,2.589,0,0,1,2.236,0,1.686,1.686,0,0,1,.709.74,2.588,2.588,0,0,1,.244,1.169v.832a2.592,2.592,0,0,1-.244,1.173,1.7,1.7,0,0,1-.709.743,2.569,2.569,0,0,1-2.236,0Zm1.919-1.006a1.343,1.343,0,0,0,.283-.91v-.832a1.323,1.323,0,0,0-.283-.9,1.166,1.166,0,0,0-1.6,0,1.323,1.323,0,0,0-.283.9v.832a1.343,1.343,0,0,0,.283.91,1.152,1.152,0,0,0,1.6,0Z" transform="translate(-196.751 -681.773)" fill="#fff"/>
        <path id="路径_1238" data-name="路径 1238" d="M280.568,688.684a1.7,1.7,0,0,1-.709-.748,2.639,2.639,0,0,1-.244-1.183v-.818a2.588,2.588,0,0,1,.244-1.169,1.686,1.686,0,0,1,.709-.74,2.589,2.589,0,0,1,2.236,0,1.685,1.685,0,0,1,.709.74,2.588,2.588,0,0,1,.244,1.169v.832a2.593,2.593,0,0,1-.244,1.173,1.7,1.7,0,0,1-.709.743,2.569,2.569,0,0,1-2.236,0Zm1.919-1.006a1.343,1.343,0,0,0,.283-.91v-.832a1.323,1.323,0,0,0-.283-.9,1.166,1.166,0,0,0-1.6,0,1.323,1.323,0,0,0-.283.9v.832a1.343,1.343,0,0,0,.283.91,1.152,1.152,0,0,0,1.6,0Z" transform="translate(-198.435 -681.773)" fill="#fff"/>
        <path id="路径_1239" data-name="路径 1239" d="M287.876,686.966a.44.44,0,0,0,.08.283.272.272,0,0,0,.225.1h.464v.939h-.58a1.1,1.1,0,0,1-.869-.348,1.435,1.435,0,0,1-.307-.982v-5.729h.987Z" transform="translate(-200.164 -681.168)" fill="#fff"/>
        <path id="路径_1240" data-name="路径 1240" d="M293.972,685.452a1.089,1.089,0,0,0-.329.847,1.034,1.034,0,0,0,.351.835,1.481,1.481,0,0,0,.99.3,1.684,1.684,0,0,0,1.038-.324,1.98,1.98,0,0,0,.658-.942,4.331,4.331,0,0,0,.226-1.488h.938a4.85,4.85,0,0,1-.361,1.968,2.7,2.7,0,0,1-1.052,1.243,3.1,3.1,0,0,1-1.665.428,2.465,2.465,0,0,1-1.125-.237,1.626,1.626,0,0,1-.711-.689,2.266,2.266,0,0,1-.244-1.092,1.957,1.957,0,0,1,.474-1.378,1.991,1.991,0,0,1,1.34-.6l.406.832A1.339,1.339,0,0,0,293.972,685.452Zm.464,0a4.519,4.519,0,0,1-.576-.736,3.345,3.345,0,0,1-.363-.791,2.814,2.814,0,0,1-.126-.834,1.963,1.963,0,0,1,.493-1.43,1.856,1.856,0,0,1,1.394-.506,1.887,1.887,0,0,1,1.387.486,1.85,1.85,0,0,1,.491,1.377v.1h-.987v-.1a.9.9,0,0,0-.232-.665.883.883,0,0,0-.659-.235.857.857,0,0,0-.665.254,1.017,1.017,0,0,0-.235.719,1.98,1.98,0,0,0,.091.58,2.651,2.651,0,0,0,.271.6,3.4,3.4,0,0,0,.431.562l3.218,3.421h-1.253Z" transform="translate(-201.541 -681.15)" fill="#fff"/>
        <path id="路径_1241" data-name="路径 1241" d="M305.4,681.227h.842l2.594,7.036h-1.065l-1.95-5.676-1.951,5.676h-1.064ZM304,685.78h3.7v.94H304Z" transform="translate(-203.948 -681.168)" fill="#fff"/>
        <path id="路径_1242" data-name="路径 1242" d="M313.283,688.94l-.487-.256a1.742,1.742,0,0,1-.742-.746,2.514,2.514,0,0,1-.257-1.18v-.828a2.463,2.463,0,0,1,.257-1.166,1.729,1.729,0,0,1,.742-.738,2.512,2.512,0,0,1,1.173-.254,2.816,2.816,0,0,1,.739.095,2.213,2.213,0,0,1,.623.273,1.7,1.7,0,0,1,.458.436l-.71.639a1.489,1.489,0,0,0-.5-.373,1.407,1.407,0,0,0-.6-.13,1.189,1.189,0,0,0-.886.319,1.233,1.233,0,0,0-.314.9v.828a1.27,1.27,0,0,0,.313.919,1.175,1.175,0,0,0,.887.324,1.351,1.351,0,0,0,.6-.14,1.449,1.449,0,0,0,.495-.4l.71.688a1.745,1.745,0,0,1-.464.428,2.189,2.189,0,0,1-.621.269,2.822,2.822,0,0,1-.734.091Z" transform="translate(-206.084 -681.773)" fill="#fff"/>
        <path id="路径_1243" data-name="路径 1243" d="M319.758,688.94l-.487-.256a1.75,1.75,0,0,1-.743-.746,2.533,2.533,0,0,1-.256-1.18v-.828a2.481,2.481,0,0,1,.256-1.166,1.737,1.737,0,0,1,.743-.738,2.511,2.511,0,0,1,1.173-.254,2.816,2.816,0,0,1,.739.095,2.2,2.2,0,0,1,.622.273,1.705,1.705,0,0,1,.459.436l-.711.639a1.477,1.477,0,0,0-.5-.373,1.407,1.407,0,0,0-.6-.13,1.192,1.192,0,0,0-.887.319,1.235,1.235,0,0,0-.314.9v.828a1.271,1.271,0,0,0,.313.919,1.175,1.175,0,0,0,.887.324,1.351,1.351,0,0,0,.6-.14,1.445,1.445,0,0,0,.494-.4l.711.688a1.74,1.74,0,0,1-.465.428,2.185,2.185,0,0,1-.621.269,2.828,2.828,0,0,1-.734.091Z" transform="translate(-207.622 -681.773)" fill="#fff"/>
        <path id="路径_1244" data-name="路径 1244" d="M326.252,688.94l-.495-.261a1.747,1.747,0,0,1-.752-.768,2.644,2.644,0,0,1-.259-1.221v-.566a2.943,2.943,0,0,1,.25-1.272,1.78,1.78,0,0,1,.722-.8,2.239,2.239,0,0,1,1.142-.276,1.816,1.816,0,0,1,1.076.315,1.953,1.953,0,0,1,.68.909,3.892,3.892,0,0,1,.234,1.427v.329h-3.388v-.794h2.449a1.691,1.691,0,0,0-.317-.955.892.892,0,0,0-.734-.342,1.069,1.069,0,0,0-.868.367,1.583,1.583,0,0,0-.307,1.041v.639a1.3,1.3,0,0,0,.329.958,1.251,1.251,0,0,0,.934.334,1.546,1.546,0,0,0,.6-.121,1.723,1.723,0,0,0,.527-.339l.648.648a2.694,2.694,0,0,1-.837.554,2.373,2.373,0,0,1-.933.2Z" transform="translate(-209.161 -681.773)" fill="#fff"/>
        <path id="路径_1245" data-name="路径 1245" d="M333.109,688.94l-.39-.086a3.086,3.086,0,0,1-.729-.262,2.9,2.9,0,0,1-.624-.435l.585-.721a3.282,3.282,0,0,0,.808.464,2.188,2.188,0,0,0,.794.156,1.7,1.7,0,0,0,.879-.182.6.6,0,0,0,.291-.544.426.426,0,0,0-.159-.364.888.888,0,0,0-.4-.162c-.158-.027-.381-.053-.669-.075l-.082,0a.776.776,0,0,1-.082-.007l-.039,0-.038,0a3.858,3.858,0,0,1-.828-.143,1.13,1.13,0,0,1-.565-.389,1.307,1.307,0,0,1-.225-.819,1.662,1.662,0,0,1,.218-.885,1.323,1.323,0,0,1,.649-.53,2.865,2.865,0,0,1,1.079-.177,3.765,3.765,0,0,1,.748.072,3.314,3.314,0,0,1,1.3.576l-.6.72a3.324,3.324,0,0,0-.742-.363,2.252,2.252,0,0,0-.714-.12,1.344,1.344,0,0,0-.755.172.581.581,0,0,0-.252.515.346.346,0,0,0,.143.3.816.816,0,0,0,.361.136c.144.023.351.043.62.058a.3.3,0,0,0,.059.005.4.4,0,0,1,.066.005h.03a.1.1,0,0,1,.028,0,4.329,4.329,0,0,1,.9.139,1.218,1.218,0,0,1,.622.422,1.435,1.435,0,0,1,.252.91,1.61,1.61,0,0,1-.232.9,1.4,1.4,0,0,1-.7.534,3.3,3.3,0,0,1-1.173.179Z" transform="translate(-210.735 -681.773)" fill="#fff"/>
        <path id="路径_1246" data-name="路径 1246" d="M339.85,688.94l-.389-.086a3.032,3.032,0,0,1-.728-.262,2.861,2.861,0,0,1-.626-.435l.587-.721a3.3,3.3,0,0,0,.807.464,2.195,2.195,0,0,0,.794.156,1.691,1.691,0,0,0,.878-.182.6.6,0,0,0,.294-.544.432.432,0,0,0-.159-.364.909.909,0,0,0-.4-.162c-.158-.027-.38-.053-.667-.075l-.083,0c-.028,0-.055,0-.082-.007l-.038,0a.322.322,0,0,0-.039,0,3.867,3.867,0,0,1-.828-.143,1.127,1.127,0,0,1-.563-.389,1.292,1.292,0,0,1-.225-.819,1.649,1.649,0,0,1,.217-.885,1.32,1.32,0,0,1,.647-.53,2.87,2.87,0,0,1,1.079-.177,3.754,3.754,0,0,1,.748.072,3.388,3.388,0,0,1,.68.215,3.351,3.351,0,0,1,.624.361l-.6.72a3.352,3.352,0,0,0-.742-.363,2.265,2.265,0,0,0-.715-.12,1.351,1.351,0,0,0-.755.172.584.584,0,0,0-.252.515.346.346,0,0,0,.143.3.819.819,0,0,0,.36.136c.146.023.351.043.62.058a.316.316,0,0,0,.061.005.4.4,0,0,1,.066.005h.028a.1.1,0,0,1,.03,0,4.329,4.329,0,0,1,.9.139,1.215,1.215,0,0,1,.621.422,1.426,1.426,0,0,1,.252.91,1.61,1.61,0,0,1-.232.9,1.4,1.4,0,0,1-.7.534,3.3,3.3,0,0,1-1.175.179Z" transform="translate(-212.337 -681.773)" fill="#fff"/>
        <path id="路径_1247" data-name="路径 1247" d="M346.152,688.684a1.692,1.692,0,0,1-.709-.748,2.629,2.629,0,0,1-.244-1.183v-.818a2.579,2.579,0,0,1,.244-1.169,1.682,1.682,0,0,1,.709-.74,2.587,2.587,0,0,1,2.235,0,1.688,1.688,0,0,1,.71.74,2.589,2.589,0,0,1,.245,1.169v.832a2.593,2.593,0,0,1-.245,1.173,1.7,1.7,0,0,1-.71.743,2.567,2.567,0,0,1-2.235,0Zm1.92-1.006a1.347,1.347,0,0,0,.283-.91v-.832a1.327,1.327,0,0,0-.283-.9,1.167,1.167,0,0,0-1.6,0,1.319,1.319,0,0,0-.283.9v.832a1.339,1.339,0,0,0,.283.91,1.153,1.153,0,0,0,1.6,0Z" transform="translate(-214.022 -681.773)" fill="#fff"/>
        <path id="路径_1248" data-name="路径 1248" d="M352.473,683.844h.987v5.023h-.987Zm2.434.948a1.2,1.2,0,0,0-.46-.082.986.986,0,0,0-.728.258.972.972,0,0,0-.258.718l-.1-.967a1.838,1.838,0,0,1,.6-.7,1.419,1.419,0,0,1,.813-.249,1.846,1.846,0,0,1,.623.1,1.381,1.381,0,0,1,.485.293l-.643.871A.841.841,0,0,0,354.907,684.793Z" transform="translate(-215.751 -681.773)" fill="#fff"/>
        <path id="路径_1249" data-name="路径 1249" d="M357.322,683.867h1.007l1.544,4.365-.547,1.07Zm4.447,0-2.139,6.2a1.49,1.49,0,0,1-.3.545,1.069,1.069,0,0,1-.464.287,2.275,2.275,0,0,1-.678.088h-.2v-.948h.2a.766.766,0,0,0,.438-.111.894.894,0,0,0,.283-.383l1.859-5.676Z" transform="translate(-216.904 -681.796)" fill="#fff"/>
        <path id="路径_1250" data-name="路径 1250" d="M366.646,681.227h.983v7.036h-.983Zm.581,6.121h1.907a1.7,1.7,0,0,0,1.093-.285.987.987,0,0,0,.344-.8v-.015a1.415,1.415,0,0,0-.124-.614.855.855,0,0,0-.39-.395,1.478,1.478,0,0,0-.682-.137h-2.149v-.89h2.149a1.183,1.183,0,0,0,.825-.256.983.983,0,0,0,.278-.76.971.971,0,0,0-.31-.788,1.408,1.408,0,0,0-.929-.262h-2.013v-.914h2.192a2.511,2.511,0,0,1,1.142.232,1.544,1.544,0,0,1,.688.659,2.127,2.127,0,0,1,.227,1.016,1.654,1.654,0,0,1-.141.679,1.379,1.379,0,0,1-.428.542,1.607,1.607,0,0,1-.714.3,1.54,1.54,0,0,1,.736.3,1.584,1.584,0,0,1,.475.6,1.832,1.832,0,0,1,.164.775v.014a1.971,1.971,0,0,1-.252,1.007,1.682,1.682,0,0,1-.72.672,2.387,2.387,0,0,1-1.092.237h-2.276Z" transform="translate(-219.12 -681.168)" fill="#fff"/>
        <path id="路径_1251" data-name="路径 1251" d="M375.9,686.921a1.146,1.146,0,0,0,.269.815.986.986,0,0,0,.757.288,1.036,1.036,0,0,0,.75-.257.967.967,0,0,0,.267-.73l.067,1.05a1.444,1.444,0,0,1-.5.624,1.423,1.423,0,0,1-.856.251,1.591,1.591,0,0,1-1.285-.534,2.269,2.269,0,0,1-.453-1.507v-3.054h.987Zm2.043-3.054h.981v5.023h-.981Z" transform="translate(-221.084 -681.796)" fill="#fff"/>
        <path id="路径_1252" data-name="路径 1252" d="M382.143,681.227h.986v.987h-.986Zm0,2.013h.986v5.023h-.986Z" transform="translate(-222.803 -681.168)" fill="#fff"/>
        <path id="路径_1253" data-name="路径 1253" d="M386.391,686.966a.436.436,0,0,0,.081.283.272.272,0,0,0,.225.1h.464v.939h-.581a1.093,1.093,0,0,1-.868-.348,1.431,1.431,0,0,1-.309-.982v-5.729h.987Z" transform="translate(-223.578 -681.168)" fill="#fff"/>
        <path id="路径_1254" data-name="路径 1254" d="M389.773,688.11a1.521,1.521,0,0,1-.592-.7,2.709,2.709,0,0,1-.2-1.1V685.2a2.787,2.787,0,0,1,.2-1.108,1.5,1.5,0,0,1,.578-.7,1.673,1.673,0,0,1,.913-.239,1.506,1.506,0,0,1,.816.232,1.724,1.724,0,0,1,.6.653l-.1,1.026a1.194,1.194,0,0,0-.116-.547.8.8,0,0,0-.337-.346,1.112,1.112,0,0,0-.534-.118.952.952,0,0,0-.758.3,1.255,1.255,0,0,0-.268.856v1.094a1.22,1.22,0,0,0,.268.844.966.966,0,0,0,.758.3,1.077,1.077,0,0,0,.534-.124.822.822,0,0,0,.337-.355,1.241,1.241,0,0,0,.116-.557l.067,1.06a1.428,1.428,0,0,1-.492.623,1.366,1.366,0,0,1-.839.252A1.762,1.762,0,0,1,389.773,688.11Zm2.205-6.883h.987v7.036h-.987Z" transform="translate(-224.427 -681.168)" fill="#fff"/>
        <path id="路径_1255" data-name="路径 1255" d="M397.49,688.94l-.493-.261a1.751,1.751,0,0,1-.752-.768,2.655,2.655,0,0,1-.259-1.221v-.566a2.977,2.977,0,0,1,.249-1.272,1.793,1.793,0,0,1,.724-.8,2.235,2.235,0,0,1,1.142-.276,1.81,1.81,0,0,1,1.073.315,1.938,1.938,0,0,1,.68.909,3.875,3.875,0,0,1,.236,1.427v.329H396.7v-.794h2.448a1.674,1.674,0,0,0-.317-.955.889.889,0,0,0-.733-.342,1.069,1.069,0,0,0-.868.367,1.579,1.579,0,0,0-.308,1.041v.639a1.311,1.311,0,0,0,.329.958,1.257,1.257,0,0,0,.934.334,1.538,1.538,0,0,0,.6-.121,1.727,1.727,0,0,0,.528-.339l.649.648a2.716,2.716,0,0,1-.836.554,2.382,2.382,0,0,1-.935.2Z" transform="translate(-226.093 -681.773)" fill="#fff"/>
        <path id="路径_1256" data-name="路径 1256" d="M403.146,683.844h.987v5.023h-.987Zm2.435.948a1.2,1.2,0,0,0-.46-.082.986.986,0,0,0-.728.258.972.972,0,0,0-.259.718l-.1-.967a1.831,1.831,0,0,1,.6-.7,1.417,1.417,0,0,1,.813-.249,1.838,1.838,0,0,1,.622.1,1.377,1.377,0,0,1,.486.293l-.643.871A.833.833,0,0,0,405.581,684.793Z" transform="translate(-227.795 -681.773)" fill="#fff"/>
        <path id="路径_1257" data-name="路径 1257" d="M409.9,688.94l-.39-.086a3.069,3.069,0,0,1-.728-.262,2.886,2.886,0,0,1-.624-.435l.585-.721a3.282,3.282,0,0,0,.808.464,2.188,2.188,0,0,0,.794.156,1.7,1.7,0,0,0,.879-.182.6.6,0,0,0,.292-.544.428.428,0,0,0-.159-.364.9.9,0,0,0-.4-.162c-.158-.027-.381-.053-.669-.075l-.082,0a.791.791,0,0,1-.082-.007l-.039,0-.038,0a3.867,3.867,0,0,1-.828-.143,1.13,1.13,0,0,1-.565-.389,1.307,1.307,0,0,1-.224-.819,1.663,1.663,0,0,1,.217-.885,1.323,1.323,0,0,1,.649-.53,2.865,2.865,0,0,1,1.079-.177,3.765,3.765,0,0,1,.748.072,3.4,3.4,0,0,1,.678.215,3.363,3.363,0,0,1,.626.361l-.6.72a3.325,3.325,0,0,0-.743-.363,2.252,2.252,0,0,0-.714-.12,1.344,1.344,0,0,0-.755.172.581.581,0,0,0-.252.515.346.346,0,0,0,.143.3.816.816,0,0,0,.361.136c.145.023.351.043.62.058a.3.3,0,0,0,.059.005.4.4,0,0,1,.066.005h.03a.1.1,0,0,1,.028,0,4.33,4.33,0,0,1,.9.139,1.219,1.219,0,0,1,.622.422,1.435,1.435,0,0,1,.252.91,1.6,1.6,0,0,1-.233.9,1.4,1.4,0,0,1-.7.534,3.293,3.293,0,0,1-1.173.179Z" transform="translate(-228.985 -681.773)" fill="#fff"/>
        <path id="路径_1258" data-name="路径 1258" d="M414.928,681.227h.987v.987l-.987.977Z" transform="translate(-230.595 -681.168)" fill="#fff"/>
        <path id="路径_1259" data-name="路径 1259" d="M421.8,681.227h.843l2.593,7.036h-1.064l-1.951-5.676-1.95,5.676H419.2Zm-1.4,4.553h3.7v.94h-3.7Z" transform="translate(-231.611 -681.168)" fill="#fff"/>
        <path id="路径_1260" data-name="路径 1260" d="M429.588,688.94l-.39-.086a3.081,3.081,0,0,1-.728-.262,2.885,2.885,0,0,1-.624-.435l.585-.721a3.286,3.286,0,0,0,.809.464,2.182,2.182,0,0,0,.794.156,1.693,1.693,0,0,0,.878-.182.6.6,0,0,0,.292-.544.426.426,0,0,0-.159-.364.9.9,0,0,0-.4-.162c-.158-.027-.381-.053-.669-.075l-.082,0a.779.779,0,0,1-.082-.007l-.039,0-.039,0a3.867,3.867,0,0,1-.828-.143,1.124,1.124,0,0,1-.564-.389,1.307,1.307,0,0,1-.225-.819,1.67,1.67,0,0,1,.217-.885,1.329,1.329,0,0,1,.65-.53,2.862,2.862,0,0,1,1.079-.177,3.751,3.751,0,0,1,.747.072,3.3,3.3,0,0,1,1.3.576l-.6.72a3.313,3.313,0,0,0-.743-.363,2.247,2.247,0,0,0-.713-.12,1.345,1.345,0,0,0-.756.172.583.583,0,0,0-.252.515.346.346,0,0,0,.143.3.812.812,0,0,0,.361.136c.144.023.351.043.619.058a.3.3,0,0,0,.059.005.383.383,0,0,1,.066.005h.03a.089.089,0,0,1,.028,0,4.32,4.32,0,0,1,.9.139,1.216,1.216,0,0,1,.622.422,1.435,1.435,0,0,1,.252.91,1.61,1.61,0,0,1-.233.9,1.4,1.4,0,0,1-.7.534,3.3,3.3,0,0,1-1.173.179Z" transform="translate(-233.665 -681.773)" fill="#fff"/>
        <path id="路径_1261" data-name="路径 1261" d="M436.328,688.94l-.39-.086a3.082,3.082,0,0,1-.728-.262,2.885,2.885,0,0,1-.624-.435l.585-.721a3.287,3.287,0,0,0,.809.464,2.184,2.184,0,0,0,.794.156,1.691,1.691,0,0,0,.878-.182.6.6,0,0,0,.292-.544.426.426,0,0,0-.159-.364.889.889,0,0,0-.4-.162c-.158-.027-.381-.053-.669-.075l-.082,0a.777.777,0,0,1-.082-.007l-.039,0-.039,0a3.875,3.875,0,0,1-.828-.143,1.125,1.125,0,0,1-.564-.389,1.307,1.307,0,0,1-.225-.819,1.67,1.67,0,0,1,.217-.885,1.329,1.329,0,0,1,.65-.53,2.865,2.865,0,0,1,1.079-.177,3.751,3.751,0,0,1,.747.072,3.4,3.4,0,0,1,.679.215,3.356,3.356,0,0,1,.625.361l-.6.72a3.312,3.312,0,0,0-.743-.363,2.244,2.244,0,0,0-.713-.12,1.343,1.343,0,0,0-.755.172.581.581,0,0,0-.252.515.346.346,0,0,0,.143.3.812.812,0,0,0,.361.136c.144.023.351.043.619.058a.305.305,0,0,0,.06.005.384.384,0,0,1,.066.005h.03a.1.1,0,0,1,.029,0,4.321,4.321,0,0,1,.9.139,1.221,1.221,0,0,1,.623.422,1.44,1.44,0,0,1,.252.91,1.61,1.61,0,0,1-.233.9,1.4,1.4,0,0,1-.7.534,3.3,3.3,0,0,1-1.173.179Z" transform="translate(-235.267 -681.773)" fill="#fff"/>
        <path id="路径_1262" data-name="路径 1262" d="M442.631,688.684a1.688,1.688,0,0,1-.709-.748,2.618,2.618,0,0,1-.244-1.183v-.818a2.568,2.568,0,0,1,.244-1.169,1.678,1.678,0,0,1,.709-.74,2.585,2.585,0,0,1,2.234,0,1.689,1.689,0,0,1,.71.74,2.588,2.588,0,0,1,.244,1.169v.832a2.592,2.592,0,0,1-.244,1.173,1.7,1.7,0,0,1-.71.743,2.565,2.565,0,0,1-2.234,0Zm1.919-1.006a1.347,1.347,0,0,0,.283-.91v-.832a1.326,1.326,0,0,0-.283-.9,1.166,1.166,0,0,0-1.6,0,1.319,1.319,0,0,0-.283.9v.832a1.339,1.339,0,0,0,.283.91,1.152,1.152,0,0,0,1.6,0Z" transform="translate(-236.952 -681.773)" fill="#fff"/>
        <path id="路径_1263" data-name="路径 1263" d="M450.246,688.94l-.486-.256a1.736,1.736,0,0,1-.743-.746,2.505,2.505,0,0,1-.256-1.18v-.828a2.454,2.454,0,0,1,.256-1.166,1.723,1.723,0,0,1,.743-.738,2.508,2.508,0,0,1,1.173-.254,2.824,2.824,0,0,1,.739.095,2.171,2.171,0,0,1,.621.273,1.678,1.678,0,0,1,.46.436l-.712.639a1.463,1.463,0,0,0-.5-.373,1.4,1.4,0,0,0-.594-.13,1.187,1.187,0,0,0-.886.319,1.226,1.226,0,0,0-.314.9v.828a1.276,1.276,0,0,0,.311.919,1.178,1.178,0,0,0,.889.324,1.351,1.351,0,0,0,.6-.14,1.434,1.434,0,0,0,.492-.4l.712.688a1.793,1.793,0,0,1-.464.428,2.227,2.227,0,0,1-.623.269,2.823,2.823,0,0,1-.733.091Z" transform="translate(-238.636 -681.773)" fill="#fff"/>
        <path id="路径_1264" data-name="路径 1264" d="M455.426,681.227h.987v.987h-.987Zm0,2.013h.987v5.023h-.987Z" transform="translate(-240.22 -681.168)" fill="#fff"/>
        <path id="路径_1265" data-name="路径 1265" d="M458.83,688.556a1.441,1.441,0,0,1-.459-1.169,1.417,1.417,0,0,1,.42-1.118,1.881,1.881,0,0,1,1.273-.372h1.428l.067.794h-1.49a.845.845,0,0,0-.578.171.674.674,0,0,0-.191.525.652.652,0,0,0,.253.566,1.318,1.318,0,0,0,.772.184,2.231,2.231,0,0,0,.845-.121.4.4,0,0,0,.278-.377l.1.707a1.188,1.188,0,0,1-.322.334,1.439,1.439,0,0,1-.444.2,2.287,2.287,0,0,1-.566.065A2.128,2.128,0,0,1,458.83,688.556Zm2.619-2.872a1.059,1.059,0,0,0-.264-.767.991.991,0,0,0-.749-.274,1.93,1.93,0,0,0-.587.092,1.742,1.742,0,0,0-.51.256l-.723-.492a1.893,1.893,0,0,1,.754-.536,2.713,2.713,0,0,1,1.038-.191,2.392,2.392,0,0,1,1.069.22,1.533,1.533,0,0,1,.678.639,2.057,2.057,0,0,1,.232,1.01v3.227h-.938Z" transform="translate(-240.92 -681.773)" fill="#fff"/>
        <path id="路径_1266" data-name="路径 1266" d="M465.1,683.411h2.264v.89H465.1Zm.8,4.711a1.511,1.511,0,0,1-.283-.995V681.95h.987v5.188a.465.465,0,0,0,.073.283.244.244,0,0,0,.213.1h.473v.939h-.57A1.105,1.105,0,0,1,465.9,688.123Z" transform="translate(-242.519 -681.34)" fill="#fff"/>
        <path id="路径_1267" data-name="路径 1267" d="M469.848,681.227h.987v.987h-.987Zm0,2.013h.987v5.023h-.987Z" transform="translate(-243.648 -681.168)" fill="#fff"/>
        <path id="路径_1268" data-name="路径 1268" d="M473.873,688.684a1.692,1.692,0,0,1-.709-.748,2.62,2.62,0,0,1-.244-1.183v-.818a2.569,2.569,0,0,1,.244-1.169,1.682,1.682,0,0,1,.709-.74,2.587,2.587,0,0,1,2.235,0,1.692,1.692,0,0,1,.71.74,2.588,2.588,0,0,1,.244,1.169v.832a2.593,2.593,0,0,1-.244,1.173,1.707,1.707,0,0,1-.71.743,2.567,2.567,0,0,1-2.235,0Zm1.919-1.006a1.344,1.344,0,0,0,.284-.91v-.832a1.323,1.323,0,0,0-.284-.9,1.166,1.166,0,0,0-1.6,0,1.319,1.319,0,0,0-.283.9v.832a1.339,1.339,0,0,0,.283.91,1.152,1.152,0,0,0,1.6,0Z" transform="translate(-244.378 -681.773)" fill="#fff"/>
        <path id="路径_1269" data-name="路径 1269" d="M480.193,683.844h.987v5.023h-.987Zm3.049,1.979a1.144,1.144,0,0,0-.277-.822,1.013,1.013,0,0,0-.775-.29,1.026,1.026,0,0,0-.747.256.958.958,0,0,0-.264.72l-.1-.967a1.791,1.791,0,0,1,.608-.7,1.479,1.479,0,0,1,.829-.247,1.557,1.557,0,0,1,1.266.535,2.282,2.282,0,0,1,.448,1.512v3.049h-.987Z" transform="translate(-246.106 -681.773)" fill="#fff"/>
      </g>
    </g>
  </g>
</svg>
