<svg xmlns="http://www.w3.org/2000/svg" width="65" height="15" viewBox="0 0 65 15">
  <g id="footer_logo_gtmc" transform="translate(-644 -3749)">
    <rect id="矩形_202" data-name="矩形 202" width="65" height="15" transform="translate(644 3749)" fill="#fff" opacity="0"/>
    <g id="组_694" data-name="组 694" transform="translate(636.937 3740.15)">
      <g id="组_270" data-name="组 270" transform="translate(7.063 8.85)">
        <g id="组_269" data-name="组 269">
          <path id="路径_1270" data-name="路径 1270" d="M13.924,23.484a6.618,6.618,0,0,1-2.731-.546,7.545,7.545,0,0,1-2.185-1.5,6.844,6.844,0,0,1-1.434-2.287,7.868,7.868,0,0,1-.512-2.833,7.607,7.607,0,0,1,.512-2.833A6.4,6.4,0,0,1,9.009,11.3a6.319,6.319,0,0,1,2.185-1.4,7.069,7.069,0,0,1,2.731-.478H21.57v2.458H13.924a4.067,4.067,0,0,0-1.741.341,4.433,4.433,0,0,0-1.4.956,5.165,5.165,0,0,0-.922,1.434,4.552,4.552,0,0,0-.341,1.843A4.781,4.781,0,0,0,9.862,18.3a4.3,4.3,0,0,0,.922,1.468,4.079,4.079,0,0,0,1.4.956,4.283,4.283,0,0,0,1.741.341h5.154V17.408h-5.5V15.325h7.953v8.192l-7.612-.034Z" transform="translate(-7.063 -9.215)" fill="#fff"/>
          <path id="路径_1271" data-name="路径 1271" d="M58.687,23.423V11.783H53.328V9.325H66.5v2.458H61.145v11.64Z" transform="translate(-36.704 -9.154)" fill="#fff"/>
          <path id="路径_1272" data-name="路径 1272" d="M105.824,23.118l-2.7-9.9L99.134,22.4a1.8,1.8,0,0,1-.512.683,1.1,1.1,0,0,1-.751.239,1.327,1.327,0,0,1-1.263-.922l-3.96-9.182-2.7,9.9H87.528L91.146,9.874A1.182,1.182,0,0,1,92.375,8.85a1.262,1.262,0,0,1,.717.2,1.145,1.145,0,0,1,.512.614l4.335,9.967,4.335-9.967a1.208,1.208,0,0,1,1.195-.819,1.22,1.22,0,0,1,1.195,1.024l3.618,13.244Z" transform="translate(-58.616 -8.85)" fill="#fff"/>
          <path id="路径_1273" data-name="路径 1273" d="M154.239,23.484a6.618,6.618,0,0,1-2.731-.546,7.545,7.545,0,0,1-2.185-1.5,6.844,6.844,0,0,1-1.434-2.287,7.868,7.868,0,0,1-.512-2.833,7.607,7.607,0,0,1,.512-2.833,6.4,6.4,0,0,1,1.434-2.185,6.319,6.319,0,0,1,2.185-1.4,7.069,7.069,0,0,1,2.731-.478h7.646v2.458h-7.646a4.067,4.067,0,0,0-1.741.341,4.433,4.433,0,0,0-1.4.956,5.165,5.165,0,0,0-.922,1.434,5.212,5.212,0,0,0-.341,1.843,4.781,4.781,0,0,0,.341,1.843,3.839,3.839,0,0,0,.922,1.468,4.079,4.079,0,0,0,1.4.956,4.283,4.283,0,0,0,1.741.341h7.646v2.458l-7.646-.034Z" transform="translate(-96.961 -9.215)" fill="#fff"/>
        </g>
      </g>
    </g>
  </g>
</svg>
