<svg xmlns="http://www.w3.org/2000/svg" width="90" height="20.187" viewBox="0 0 90 20.187">
  <g id="组_4" data-name="组 4" transform="translate(-21.478 -26.724)">
    <g id="组_3" data-name="组 3" transform="translate(21.69 26.811)">
      <g id="组_2" data-name="组 2">
        <path id="路径_1" data-name="路径 1" d="M31.478,46.952a10.5,10.5,0,0,1-4-1,9.1,9.1,0,0,1-3-2,8.817,8.817,0,0,1-2-3,11.241,11.241,0,0,1-1-4,10.961,10.961,0,0,1,1-4,8.649,8.649,0,0,1,2-3,9.1,9.1,0,0,1,3-2,11.605,11.605,0,0,1,4-1h10v4h-10c-.877,0-2.259-.313-3,0a5.474,5.474,0,0,0-2,1,5.527,5.527,0,0,0-1,2c-.3.769,0,2.071,0,3,0,.912-.3,1.213,0,2s.463,2.437,1,3a5.464,5.464,0,0,0,2,1c.741.321,2.123,0,3,0h7v-5h-8v-3h11v12Z" transform="translate(-21.69 -26.952)" fill="#fff"/>
        <path id="路径_2" data-name="路径 2" d="M65.859,46.952v-16h-8v-4h18v4h-7v16Z" transform="translate(-35.072 -26.952)" fill="#fff"/>
        <path id="路径_3" data-name="路径 3" d="M110.76,46.811l-4-14-6,13c-.2.412.277.776,0,1s-.589,0-1,0a1.9,1.9,0,0,1-2-1l-6-13-3,14h-4l5-19c.232-.929,1.106-1,2-1,.358,0,.687-.2,1,0a2.906,2.906,0,0,1,1,1l6,14,6-14c.322-.768.231-1,1-1,.822,0,1.732.071,2,1l5,19Z" transform="translate(-44.973 -26.811)" fill="#fff"/>
        <path id="路径_4" data-name="路径 4" d="M141.092,46.952c-1.359,0-1.847-.49-3-1a9.1,9.1,0,0,1-3-2,8.818,8.818,0,0,1-2-3,11.255,11.255,0,0,1-1-4,10.974,10.974,0,0,1,1-4,8.65,8.65,0,0,1,2-3,9.1,9.1,0,0,1,3-2c1.153-.456,1.641-1,3-1h11v4h-11c-.876,0-1.259-.313-2,0a5.479,5.479,0,0,0-2,1,5.548,5.548,0,0,0-1,2,9.89,9.89,0,0,0-1,3c0,.912.7,1.213,1,2s.464,2.437,1,3a5.469,5.469,0,0,0,2,1c.741.321,1.124,0,2,0h11v4Z" transform="translate(-62.305 -26.952)" fill="#fff"/>
      </g>
    </g>
  </g>
</svg>
