<?xml version="1.0" encoding="utf-8"?>
<!-- Generator: Adobe Illustrator 22.0.1, SVG Export Plug-In . SVG Version: 6.00 Build 0)  -->
<svg version="1.1" id="圖層_1" xmlns="http://www.w3.org/2000/svg" xmlns:xlink="http://www.w3.org/1999/xlink" x="0px" y="0px"
	 viewBox="0 0 570 58" style="enable-background:new 0 0 570 58;" xml:space="preserve">
<style type="text/css">
	.st0{fill:#002169;}
	.st1{fill:#585757;}
	.st2{fill:#595757;}
</style>
<g>
	<g>
		<polygon class="st0" points="6.3,15 3.2,4.1 58,4.1 55,15 35.4,15 35.4,53.7 24.9,53.7 24.9,14.9 		"/>
		<polygon class="st0" points="109.5,4.1 102.2,4.1 86.8,37.3 71.5,4.1 64.1,4.1 49.9,53.7 61.5,53.7 69.3,24.7 83.7,53.7 87,53.7 
			90,53.7 104.6,24.2 112.1,53.7 123.7,53.7 		"/>
		<path class="st0" d="M214.5,24.7H187l-3.4-5l3.8-4.8h32.7l3-10.8h-38.8c0,0-12.2-0.3-12.2,14.2c0,0-0.5,14.8,11.2,14.8h27.5l3.4,5
			l-3.8,4.8h-33.7l-3,10.8h39.8c0,0,12.2,0.3,12.2-14.2C225.7,39.6,226.2,24.7,214.5,24.7z"/>
		<path class="st0" d="M165.7,4.1h-1.6h-46.7l3,10.9l18.6,0v38.8h10.5V15h16v0l2.4,0c1.7-8.2,5.3-10.8,5.3-10.8H165.7z"/>
	</g>
	<g>
		<g>
			<path class="st2" d="M265.9,25.4l-1.6,1.3c-0.4-0.6-0.8-1.3-1.3-1.8c-5.4,0.6-10.4,1-15,1.1l-0.4-1.8c2-0.6,4.2-2.9,6.5-6.6
				l2.1,0.4c-1.4,2.3-3.1,4.3-5,6c2.7-0.1,6.2-0.4,10.4-0.8c-0.9-1-1.9-1.9-3.2-2.9l1.6-1.2C262.6,21.2,264.5,23.3,265.9,25.4z
				 M264.1,36.1h-1.9v-0.9h-11.1v0.9h-1.9v-8.7h14.9V36.1z M262.2,33.3v-4.1h-11.1v4.1H262.2z"/>
			<path class="st2" d="M272.7,29.1c-0.7,2.3-1.7,4.5-3,6.8l-1.5-1c1.2-2.2,2.2-4.5,2.9-6.8L272.7,29.1z M272.6,25.7l-1.3,1.2
				c-0.7-0.8-1.7-1.7-3-2.7l1.3-1.3C270.8,23.9,271.8,24.8,272.6,25.7z M272.9,20.5l-1.3,1.2c-1-1.2-2-2.1-2.8-2.7l1.3-1.2
				C271.3,18.7,272.3,19.6,272.9,20.5z M276.3,22.2c-1.1,1.1-2.2,2-3.2,2.7l-1.2-1.2c1.2-0.8,2.2-1.7,3-2.5L276.3,22.2z M286.4,20.7
				h-4v3.1c0,0.6-0.2,1-0.5,1.2c-0.3,0.2-1.1,0.3-2.4,0.3l-0.6-1.6l1.4,0c0.2,0,0.4-0.1,0.4-0.3v-2.7h-1.5c-0.3,2.5-1.3,4.1-2.8,4.9
				l-1.4-1.1c1.4-0.7,2.2-2,2.3-3.8h-4.1v-1.6h5.5c-0.3-0.5-0.6-0.8-0.8-1l1.8-0.6c0.5,0.6,0.8,1.1,1.1,1.7h5.5V20.7z M286.2,31.3
				c-0.2,1.9-0.4,3.1-0.7,3.8c-0.3,0.6-0.8,1-1.6,1l-4.1,0l-0.6-1.5l4.2,0c0.2,0,0.4-0.1,0.5-0.3c0.2-0.2,0.3-0.7,0.4-1.5h-10.9
				l1-4.2h9v-1.2h-9.5V26H285v4.1h-9.2l-0.3,1.2H286.2z M287,23.8l-1.2,1.1c-0.8-0.9-1.7-1.8-2.8-2.6l1.3-1.1
				C285.4,22,286.3,22.9,287,23.8z"/>
			<path class="st2" d="M306.9,36.1h-1.8v-1.3H292v1.3h-1.8V18.2h16.7V36.1z M305.1,33V20H292V33H305.1z M304.3,31.6h-11.5V30h4.8
				v-3h-4.4v-1.6h4.4V23H293v-1.6h11.1V23h-4.7v2.3h4.4v1.6h-4.4v3h4.9V31.6z M303.8,28.7l-1.1,1.1c-0.8-0.6-1.7-1.1-2.5-1.5l1-1.2
				C302.3,27.6,303.1,28.2,303.8,28.7z"/>
			<path class="st2" d="M316.4,20c0,0.1-0.1,0.6-0.4,1.5c-0.3,0.9-0.5,1.8-0.9,2.7c0.9,1.5,1.3,3.1,1.3,4.6c0,1.1-0.2,1.8-0.6,2.3
				c-0.4,0.4-1,0.7-1.8,0.7c-0.2,0-0.4,0-0.6,0L313,30c0.1,0,0.3,0,0.5,0c0.5,0,0.8-0.1,1-0.2s0.2-0.4,0.2-0.9
				c0-1.3-0.5-2.8-1.5-4.6c0.5-1.2,1-2.7,1.4-4.3h-1.8v16H311V18.3h5.4V20z M321,31.4c-1.3,1.8-2.6,3.2-4,4.3l-1.4-1.2
				c1.4-1,2.7-2.3,3.9-4L321,31.4z M318.9,23.7c-0.9,0.4-1.7,0.8-2.4,1l-0.4-1.2c0.9-0.3,1.7-0.6,2.4-1L318.9,23.7z M323.1,19.3
				c-0.6,2.4-1.4,4.1-2.4,5.2c-1,1.1-2.1,2-3.3,2.7l-1.1-1.3c1.6-0.9,2.8-1.8,3.6-2.9c-0.4-0.4-0.9-0.8-1.4-1.1
				c-0.3,0.3-0.5,0.6-0.7,0.8l-1.3-1.1c1.4-1.3,2.4-2.6,2.9-4l1.5,0.6c0,0.2-0.1,0.4-0.2,0.6L323.1,19.3z M328.6,29.8h-4.9v6.2h-1.8
				v-6.2h-4.8v-1.7h11.5V29.8z M321,20.5l-1.2-0.3c-0.1,0.2-0.2,0.3-0.3,0.5c0.6,0.4,1,0.7,1.2,0.9C320.8,21.2,320.9,20.8,321,20.5z
				 M325.2,26.8h-4.8v-1.7h4.8V26.8z M329.1,25.9l-1.1,1.4c-2.4-1.6-4.1-3.6-4.9-6.1l1.5-0.7c0.2,0.6,0.5,1.1,0.7,1.6
				c0.5-0.7,0.9-1.4,1.1-2h-2.9v-1.7h4.8V20c-0.6,1.3-1.2,2.5-2,3.5C326.9,24.3,327.8,25.1,329.1,25.9z M329,34.6l-1.6,0.9
				c-0.6-1.2-1.5-2.5-2.7-4l1.4-1.1C327.2,31.6,328.1,32.9,329,34.6z"/>
			<path class="st2" d="M349.8,35.4h-18.3v-1.9h8.2v-13h-7.3v-2H349v2h-7.3v13h8.1V35.4z"/>
			<path class="st2" d="M358.4,18c-0.3,0.9-0.6,1.6-0.9,2.3l-0.9,2.1v13.7h-1.9V25.6c-0.5,0.8-1,1.3-1.4,1.7l-0.9-2
				c1.7-2.1,3.1-4.7,4.1-7.8L358.4,18z M370.8,22.2h-6.5v3.1h6.1V27h-6.1v3h6.1v1.7h-6.1v4.3h-1.9V22.2h-0.7c-1,2-2,3.5-3,4.6
				l-1.4-1.3c1.8-2.2,3.2-4.8,4.1-7.9l1.9,0.4c-0.1,0.4-0.4,1.2-0.8,2.4h8.4V22.2z"/>
			<path class="st2" d="M379.3,26.6l-1.1,1c-0.3-0.7-0.6-1.3-0.8-1.6v10.2h-1.8v-9.3c-0.4,1.6-0.9,2.9-1.5,4l-0.8-2.2
				c0.8-1.6,1.5-3.5,2-5.7h-1.8v-1.8h2.1v-3.6h1.8v3.6h1.4v1.8h-1.4v0.3C378.3,24.6,378.9,25.7,379.3,26.6z M392,32.7
				c-0.4,2.4-1.1,3.7-2.3,3.7c-0.8,0-1.7-0.7-2.8-2.2c-1.7,1.1-3.1,1.8-4.1,2.2l-1-1.6c1.9-0.7,3.3-1.4,4.3-2.2
				c-0.4-0.9-0.7-1.9-1-3.2h-3l0,0.5c1.3,0.9,2.2,1.6,2.6,2l-1.1,1.5c-0.4-0.4-0.9-0.9-1.7-1.5c-0.4,1.8-1.2,3.4-2.4,4.5l-1.5-1
				c1.5-1.4,2.3-3.4,2.3-6h-1.8v-1.7h6.3c-0.3-2.4-0.5-5.7-0.6-9.9h1.7c0,3.8,0.2,7.1,0.6,9.9h1.2c0-0.2-0.2-0.4-0.3-0.6l2-0.4
				c0.1,0.2,0.3,0.6,0.6,1h1.8v1.7h-4.9c0.1,0.6,0.3,1.3,0.6,2c0.5-0.5,1-1.1,1.5-1.8l1.6,0.8c-0.7,1-1.4,1.9-2.2,2.6
				c0.6,0.9,1,1.3,1.3,1.3c0.4,0,0.6-0.9,0.8-2.6L392,32.7z M384.3,26.8l-1.3,0.3c0-0.5-0.1-0.9-0.2-1.1c-1.2,0.2-2.2,0.3-3.2,0.4
				l-0.4-1.5c0.4-0.5,1-1.2,1.7-2.2c-0.6,0.1-1.1,0.1-1.5,0.1l-0.3-1.3c0.8-1,1.3-2.3,1.7-3.7l1.6,0.5c-0.6,1.4-1.1,2.4-1.5,2.9
				c0.3,0,0.6,0,1-0.1c0.1-0.2,0.4-0.7,0.7-1.4l1.4,0.8c-0.9,1.7-1.9,3.1-3,4.4c0.5,0,0.9-0.1,1.5-0.2c0-0.3-0.1-0.6-0.3-0.9
				l1.3-0.4C383.9,24.8,384.2,25.9,384.3,26.8z M391.8,26.7l-1.3,0.4l-0.2-1.2c-1.2,0.2-2.3,0.3-3.3,0.4l-0.5-1.5
				c0.4-0.4,1-1.1,1.7-2.1c-0.5,0.1-1.1,0.1-1.6,0.2l-0.3-1.5c0.8-1,1.4-2.3,1.9-3.7l1.6,0.6c-0.4,0.9-0.9,1.9-1.7,3.1
				c0.4,0,0.8-0.1,1.1-0.1c0.3-0.6,0.6-1.1,0.8-1.4l1.5,0.6c-0.7,1.4-1.7,2.9-3,4.4c0.3,0,0.7-0.1,1.4-0.2c-0.1-0.3-0.1-0.5-0.3-0.8
				l1.3-0.4C391.4,24.5,391.7,25.6,391.8,26.7z"/>
			<path class="st2" d="M400.3,26.1l-1.1,1.4c-0.4-0.9-0.6-1.4-0.8-1.7V36h-1.8v-9.1c-0.4,1.5-0.8,2.7-1.4,3.8l-0.9-2
				c0.9-1.7,1.6-3.6,2.1-5.7h-1.9v-1.8h2.2v-3.6h1.8v3.6h1.9v1.8h-1.9v0.2C399.2,24.2,399.8,25.1,400.3,26.1z M406.9,28.5H406v4.4
				h-1.6v-4.4h-1.1c0,2.7-0.6,4.9-1.8,6.7l-1.5-1c1.1-1.5,1.7-3.4,1.6-5.6h-1.3v-1.7h1.3v-3.3h1.7v3.3h1.1v-3.3h1.6v3.3h0.9V28.5z
				 M412.9,32.3c-0.3,2.6-1,3.9-2.2,3.9c-1,0-1.8-0.9-2.3-2.7c-0.9,1-1.7,1.9-2.4,2.5l-1.4-1.1c1.3-1.1,2.4-2.3,3.3-3.5
				c-0.3-2.5-0.5-5.3-0.6-8.6H401V21h6.4l0-3.2h1.8V21h3.6v1.7h-3.5c0,2.1,0.1,4.1,0.3,6c0.7-1.5,1.2-3.1,1.6-4.8l1.7,0.8
				c-0.7,2.6-1.6,4.9-2.9,6.8c0.1,0.7,0.3,1.2,0.5,1.7c0.2,0.5,0.4,0.7,0.5,0.7c0.3,0,0.5-0.9,0.6-2.7L412.9,32.3z M412.9,19.8
				l-1.4,1c-0.4-0.6-1-1.2-1.9-2l1.4-0.9C411.6,18.3,412.2,19,412.9,19.8z"/>
			<path class="st2" d="M433.7,29.7h-11.1v4.2c0.9-0.2,2.1-0.6,3.6-1.2v1.9c-1.5,0.6-3.2,1.1-5.4,1.6l-0.4-1.5
				c0.3-0.3,0.4-0.6,0.4-0.8v-4.2h-2.1c-0.2,2.7-0.8,4.8-1.7,6.5l-1.6-1.2c1-1.9,1.5-4.7,1.5-8.5v-8.4h15.8v4.8h-13.9v1.9h3.5v-1.3
				h1.8v1.3h4v-1.3h1.8v1.3h3v1.5h-3v1.8h3.7V29.7z M422.4,28.1v-1.8h-3.5c0,0.7,0,1.3,0,1.8H422.4z M430.9,21.3v-1.5h-12v1.5H430.9
				z M428.2,28.1v-1.8h-4v1.8H428.2z M434.1,34.8l-1,1.6c-3.7-1.2-6.2-3-7.7-5.5l1.7-0.7c0.5,0.8,1.1,1.5,2,2.1
				c0.9-0.5,1.6-1.1,2.4-2l1.7,0.9c-0.7,0.8-1.5,1.6-2.4,2.2C431.5,33.9,432.7,34.4,434.1,34.8z"/>
		</g>
		<g>
			<path class="st1" d="M247,46.7c0-1.2,0.3-2.2,1-2.8c0.5-0.5,1.1-0.8,1.9-0.8c0.9,0,1.6,0.3,2.1,0.8c0.5,0.5,0.8,1.2,0.8,1.9
				c0,1-0.3,1.8-0.9,2.5c-0.6,0.7-1.1,1.4-1.8,2c-0.3,0.4-0.6,0.7-1,1.1c-0.3,0.3-0.5,0.6-0.7,1h4.5v1.1h-6.2v-1
				c0.1-0.4,0.4-1,1-1.7c1-1.1,1.8-2,2.5-2.7c0.7-0.7,1-1.5,1-2.3c0-0.5-0.2-0.9-0.5-1.2c-0.2-0.2-0.5-0.4-0.9-0.4
				c-0.3,0-0.6,0.1-0.8,0.4c-0.4,0.4-0.7,1.1-0.7,2.1H247z"/>
			<path class="st1" d="M254.3,47.7c0-1.8,0.4-3.1,1.2-3.9c0.6-0.6,1.3-0.8,2.1-0.8c0.8,0,1.6,0.3,2.1,0.8c0.8,0.8,1.2,2.1,1.2,3.9
				v1.2c0,1.7-0.4,3-1.2,3.8c-0.6,0.6-1.3,0.8-2.1,0.8c-0.8,0-1.6-0.3-2.1-0.8c-0.8-0.8-1.2-2.1-1.2-3.8V47.7z M256.5,44.6
				c-0.5,0.5-0.8,1.5-0.8,3v1.4c0,1.4,0.3,2.4,0.8,3c0.3,0.3,0.7,0.5,1,0.5c0.4,0,0.8-0.2,1.1-0.5c0.5-0.5,0.8-1.5,0.8-3v-1.4
				c0-1.5-0.3-2.4-0.8-3c-0.3-0.3-0.7-0.5-1.1-0.5C257.2,44.1,256.9,44.3,256.5,44.6z"/>
			<path class="st1" d="M262.5,46.7c0-1.2,0.3-2.2,1-2.8c0.5-0.5,1.1-0.8,1.9-0.8c0.9,0,1.6,0.3,2.1,0.8c0.5,0.5,0.8,1.2,0.8,1.9
				c0,1-0.3,1.8-0.9,2.5c-0.6,0.7-1.1,1.4-1.8,2c-0.3,0.4-0.6,0.7-1,1.1c-0.3,0.3-0.5,0.6-0.7,1h4.5v1.1h-6.2v-1
				c0.1-0.4,0.4-1,1-1.7c1-1.1,1.8-2,2.5-2.7c0.7-0.7,1-1.5,1-2.3c0-0.5-0.2-0.9-0.5-1.2c-0.2-0.2-0.5-0.4-0.9-0.4
				c-0.3,0-0.6,0.1-0.8,0.4c-0.4,0.4-0.7,1.1-0.7,2.1H262.5z"/>
			<path class="st1" d="M269.8,47.7c0-1.8,0.4-3.1,1.2-3.9c0.6-0.6,1.3-0.8,2.1-0.8c0.8,0,1.6,0.3,2.1,0.8c0.8,0.8,1.2,2.1,1.2,3.9
				v1.2c0,1.7-0.4,3-1.2,3.8c-0.6,0.6-1.3,0.8-2.1,0.8c-0.8,0-1.6-0.3-2.1-0.8c-0.8-0.8-1.2-2.1-1.2-3.8V47.7z M272,44.6
				c-0.5,0.5-0.8,1.5-0.8,3v1.4c0,1.4,0.3,2.4,0.8,3c0.3,0.3,0.7,0.5,1,0.5c0.4,0,0.8-0.2,1.1-0.5c0.5-0.5,0.8-1.5,0.8-3v-1.4
				c0-1.5-0.3-2.4-0.8-3c-0.3-0.3-0.7-0.5-1.1-0.5C272.7,44.1,272.3,44.3,272,44.6z"/>
			<path class="st1" d="M277.9,52.2h1.4v1.3h-1.4V52.2z"/>
			<path class="st1" d="M284.2,43h0.7v10.5h-1.4v-8h-1.8v-0.7h0.5c0.6,0,1-0.2,1.3-0.5C284,43.8,284.2,43.4,284.2,43z"/>
			<path class="st1" d="M292,43h0.7v10.5h-1.4v-8h-1.8v-0.7h0.5c0.6,0,1-0.2,1.3-0.5C291.7,43.8,291.9,43.4,292,43z"/>
			<path class="st1" d="M296.5,52.2h1.4v1.3h-1.4V52.2z"/>
			<path class="st1" d="M302.9,43h0.7v10.5h-1.4v-8h-1.8v-0.7h0.5c0.6,0,1-0.2,1.3-0.5C302.6,43.8,302.8,43.4,302.9,43z"/>
			<path class="st1" d="M307,47.7c0-1.8,0.4-3.1,1.2-3.9c0.6-0.6,1.3-0.8,2.1-0.8c0.8,0,1.6,0.3,2.1,0.8c0.8,0.8,1.2,2.1,1.2,3.9
				v1.2c0,1.7-0.4,3-1.2,3.8c-0.6,0.6-1.3,0.8-2.1,0.8c-0.8,0-1.6-0.3-2.1-0.8c-0.8-0.8-1.2-2.1-1.2-3.8V47.7z M309.3,44.6
				c-0.5,0.5-0.8,1.5-0.8,3v1.4c0,1.4,0.3,2.4,0.8,3c0.3,0.3,0.7,0.5,1,0.5c0.4,0,0.8-0.2,1.1-0.5c0.5-0.5,0.8-1.5,0.8-3v-1.4
				c0-1.5-0.3-2.4-0.8-3c-0.3-0.3-0.7-0.5-1.1-0.5C310,44.1,309.6,44.3,309.3,44.6z"/>
			<path class="st1" d="M316.6,52.9l2.8,1l-0.3,0.8l-3.4-1.2v-8.7l3.4-1.2l0.3,0.8l-2.8,1V52.9z"/>
			<path class="st1" d="M322,54.7l-0.6-1.2c3-1,4.5-2.9,4.5-5.8v-3.8l1.1,0.1c0.2,0.1,0.2,0.2,0,0.4v3.3c0,2.5,1.6,4.4,4.8,5.6
				l-0.5,1.2c-2.4-1-4-2.5-4.8-4.5C326,52.2,324.4,53.7,322,54.7z M322.2,49.5c0.5-0.8,0.7-1.9,0.6-3.2l1.2,0.3
				c0.3,0.1,0.3,0.2,0,0.3c0,0.9-0.2,1.9-0.6,3L322.2,49.5z M329.4,49.7l-1-0.6c0.6-0.8,1.1-1.8,1.6-3l1.1,0.5
				c0.2,0.1,0.1,0.2-0.1,0.3C330.4,48.2,329.9,49.1,329.4,49.7z"/>
			<path class="st1" d="M337.6,53.6l-3.4,1.2l-0.3-0.8l2.8-1v-7.5l-2.8-1l0.3-0.8l3.4,1.2V53.6z"/>
			<path class="st1" d="M339.5,47.7h6.9v1h-6.9V47.7z"/>
			<path class="st1" d="M350.9,43h0.7v10.5h-1.4v-8h-1.8v-0.7h0.5c0.6,0,1-0.2,1.3-0.5C350.6,43.8,350.8,43.4,350.9,43z"/>
			<path class="st1" d="M359.1,43h1.4v6.7h1.3v1.1h-1.3v2.7h-1.4v-2.7h-4.1v-1.2L359.1,43z M359.1,45.3l-2.7,4.4h2.7V45.3z"/>
			<path class="st1" d="M364.6,52.9l2.8,1l-0.3,0.8l-3.4-1.2v-8.7l3.4-1.2l0.3,0.8l-2.8,1V52.9z"/>
			<path class="st1" d="M375.1,44c0.3,0.1,0.3,0.2,0,0.4v2.7h3.8v1.1h-3.8v4.6h4.7v1.1h-10.5v-1.1h4.6v-4.6h-3.8v-1.1h3.8v-3H375.1z
				"/>
			<path class="st1" d="M385.6,53.6l-3.4,1.2l-0.3-0.8l2.8-1v-7.5l-2.8-1l0.3-0.8l3.4,1.2V53.6z"/>
			<path class="st1" d="M409.7,47.9l-1-1l-10.5,0.4c0,0.3-0.1,0.4-0.3,0.2l-0.3-1.6h2.6c1-1.6,1.9-3.2,2.7-4.8l1.3,0.5
				c0.2,0.2,0.2,0.3-0.2,0.4c-0.8,1.3-1.7,2.6-2.5,3.9l6.5-0.1c-0.9-0.8-1.7-1.5-2.4-2.1l0.9-0.8c1.6,1.1,3,2.4,4.4,3.8L409.7,47.9z
				 M407.4,54.7V54h-6.5v0.8h-1.2v-6.1h8.9v5.9H407.4z M400.9,52.9h6.5v-3h-6.5V52.9z"/>
			<path class="st1" d="M419,41.4h1.1c0.3,0,0.3,0.2,0.1,0.4v2.4h5.3v6.7h-1.2v-0.4h-4.1v4.5H419v-4.5h-3.9v0.8h-1.2v-7h5.1V41.4z
				 M419,49.3v-3.9h-3.9v3.9H419z M424.3,49.3v-3.9h-4.1v3.9H424.3z"/>
			<path class="st1" d="M434.7,47.1V49h-1.9v-1.9H434.7z"/>
			<path class="st1" d="M453.3,47.9l-1-1l-10.5,0.4c0,0.3-0.1,0.4-0.3,0.2l-0.3-1.6h2.6c1-1.6,1.9-3.2,2.7-4.8l1.3,0.5
				c0.2,0.2,0.2,0.3-0.2,0.4c-0.8,1.3-1.7,2.6-2.5,3.9l6.5-0.1c-0.9-0.8-1.7-1.5-2.4-2.1l0.9-0.8c1.6,1.1,3,2.4,4.4,3.8L453.3,47.9z
				 M450.9,54.7V54h-6.5v0.8h-1.2v-6.1h8.9v5.9H450.9z M444.5,52.9h6.5v-3h-6.5V52.9z"/>
			<path class="st1" d="M456.3,53.9c0.8-1.2,1.6-2.8,2.2-4.5l1,0.7c-0.6,1.8-1.2,3.3-1.8,4.5c0.1,0.2,0,0.3-0.2,0.3L456.3,53.9z
				 M457.5,45.2c0.8,0.4,1.5,0.8,2.1,1.5l-0.9,1.1c-0.5-0.6-1.2-1.1-2-1.5L457.5,45.2z M458.2,41.8c0.7,0.3,1.3,0.8,1.9,1.3
				l-0.9,1.1c-0.6-0.6-1.2-1-1.9-1.4L458.2,41.8z M459.6,45.7c0.9-0.5,1.7-1,2.2-1.7l0.8,0.8c0,0.2-0.1,0.3-0.2,0.2
				c-0.4,0.6-1.1,1.1-2.1,1.6L459.6,45.7z M467.8,53.5l0.3-1.1h-6.3l-0.2,1l-1.1-0.2c0.3-1,0.5-2.2,0.7-3.6h6.4v-0.8h-7.1v-1h1.1
				l-0.4-0.9c1.5-0.2,2.2-1,2.2-2.3v-1h-2.8v-1h3.8v-1.6h1.1c0.4,0.1,0.4,0.2,0.1,0.5v1.1h4.4v1h-3.3v2.9c0,0.6-0.2,0.9-0.7,0.9
				h-0.9l-0.4-1h0.7c0.2,0,0.2-0.1,0.2-0.2v-2.6h-1.3V45c0,1.6-0.8,2.5-2.5,2.9h6.8v2.7h-6.5l-0.1,0.8h7.6L469,54
				c-0.2,0.7-0.6,1-1.3,1h-1.9l-0.1-1.1h1.6C467.6,53.9,467.8,53.8,467.8,53.5z M468,44.3c0.9,0.6,1.5,1.3,1.9,1.9L469,47
				c-0.5-0.7-1.1-1.4-1.9-2L468,44.3z"/>
		</g>
	</g>
</g>
</svg>
