<?xml version="1.0" encoding="utf-8"?>
<!-- Generator: Adobe Illustrator 22.0.1, SVG Export Plug-In . SVG Version: 6.00 Build 0)  -->
<svg version="1.1" id="圖層_1" xmlns="http://www.w3.org/2000/svg" xmlns:xlink="http://www.w3.org/1999/xlink" x="0px" y="0px"
	 viewBox="0 0 171 20" style="enable-background:new 0 0 171 20;" xml:space="preserve">
<style type="text/css">
	.st0{fill:#002169;}
	.st1{fill:#585757;}
	.st2{fill:#595757;}
	.st3{fill:#CE0E2D;}
</style>
<g>
	<g>
		<polygon class="st0" points="6.8,4.9 5.7,1 25.2,1 24.1,4.9 17.1,4.9 17.1,18.6 13.4,18.6 13.4,4.8 		"/>
		<polygon class="st0" points="43.5,1 40.9,1 35.4,12.8 30,1 27.4,1 22.3,18.6 26.4,18.6 29.2,8.3 34.3,18.6 35.5,18.6 36.5,18.6 
			41.7,8.1 44.4,18.6 48.5,18.6 		"/>
		<path class="st0" d="M80.8,8.3H71l-1.2-1.8l1.4-1.7h11.6L83.8,1H70.1c0,0-4.3-0.1-4.3,5c0,0-0.2,5.3,4,5.3h9.8l1.2,1.8l-1.4,1.7
			h-12l-1.1,3.8h14.1c0,0,4.3,0.1,4.3-5C84.7,13.6,84.9,8.3,80.8,8.3z"/>
		<path class="st0" d="M63.4,1h-0.6H46.3l1.1,3.9l6.6,0v13.8h3.7V4.9h5.7v0l0.8,0C64.9,1.9,66.1,1,66.1,1H63.4z"/>
	</g>
	<g>
		<path class="st3" d="M107.7,16.1v2.6h-14v-4.8c0-2.4,0.8-3.2,4.2-4.1l3.9-1.1c2.3-0.6,2.6-0.9,2.6-2.2V5.9c0-1.7-0.6-2.2-2.4-2.2
			h-2.6c-1.8,0-2.4,0.6-2.4,2.2v0.2l-3.1-0.4c0-0.1,0-0.1,0-0.3c0-3,1.5-4.4,4.6-4.4h4.3c3.2,0,4.7,1.4,4.7,4.4v2
			c0,2.3-0.8,3.1-4.4,4l-3.9,1.1c-2.1,0.6-2.4,0.9-2.4,2.2v1.3H107.7z"/>
		<path class="st3" d="M125.6,5.5v9.1c0,3-1.5,4.4-4.6,4.4h-4.7c-3.2,0-4.7-1.4-4.7-4.4V5.5c0-3,1.5-4.4,4.7-4.4h4.7
			C124.1,1,125.6,2.4,125.6,5.5z M120.1,3.7h-3c-1.8,0-2.4,0.6-2.4,2.2v8.2c0,1.7,0.6,2.2,2.4,2.2h3c1.8,0,2.4-0.6,2.4-2.2V5.9
			C122.5,4.3,121.9,3.7,120.1,3.7z"/>
		<path class="st3" d="M143.3,16.1v2.6h-14v-4.8c0-2.4,0.8-3.2,4.2-4.1l3.9-1.1c2.3-0.6,2.6-0.9,2.6-2.2V5.9c0-1.7-0.6-2.2-2.4-2.2
			h-2.6c-1.8,0-2.4,0.6-2.4,2.2v0.2l-3.1-0.4c0-0.1,0-0.1,0-0.3c0-3,1.5-4.4,4.6-4.4h4.3c3.2,0,4.7,1.4,4.7,4.4v2
			c0,2.3-0.8,3.1-4.4,4l-3.9,1.1c-2.1,0.6-2.4,0.9-2.4,2.2v1.3H143.3z"/>
		<path class="st3" d="M161.2,5.5v9.1c0,3-1.5,4.4-4.6,4.4h-4.7c-3.2,0-4.7-1.4-4.7-4.4V5.5c0-3,1.5-4.4,4.7-4.4h4.7
			C159.7,1,161.2,2.4,161.2,5.5z M155.7,3.7h-3c-1.8,0-2.4,0.6-2.4,2.2v8.2c0,1.7,0.6,2.2,2.4,2.2h3c1.8,0,2.4-0.6,2.4-2.2V5.9
			C158.1,4.3,157.5,3.7,155.7,3.7z"/>
	</g>
</g>
</svg>
