<svg xmlns="http://www.w3.org/2000/svg" width="195" height="70" viewBox="0 0 195 70">
  <defs>
    <style>
      .cls-1 {
        fill: #595757;
      }

      .cls-2 {
        fill: #002169;
      }
.st3{fill:#FF0000;}
	.st4{font-family:'MicrosoftJhengHeiRegular';}
	.st5{font-size:36px;}
      
    </style>
  </defs>
  <g id="logo-tw_v2" transform="translate(-260 -42)">
    <g id="组_397" data-name="组 397" transform="translate(38.2 75.7)">
      <path id="路径_978" data-name="路径 978" class="cls-1" d="M263.374,24.938l-1.362,1.106a10.04,10.04,0,0,0-1.106-1.532c-4.6.511-8.851.851-12.766.936l-.34-1.532c1.7-.511,3.574-2.468,5.532-5.617l1.787.34a22.644,22.644,0,0,1-4.255,5.106c2.3-.085,5.277-.34,8.851-.681a19.684,19.684,0,0,0-2.723-2.468l1.362-1.021A28.509,28.509,0,0,1,263.374,24.938Zm-1.617,9.191H260.14v-.766h-9.447v.766h-1.617v-7.4h12.681Zm-1.617-2.383V28.257h-9.447v3.489Z" transform="translate(0 0)"/>
      <path id="路径_979" data-name="路径 979" class="cls-1" d="M271.7,28.428a33.418,33.418,0,0,1-2.043,5.872L268.3,33.279a31.943,31.943,0,0,0,1.957-5.7Zm-.17-3.149-1.106,1.191a20.245,20.245,0,0,0-1.957-2.213l1.021-1.191A10.186,10.186,0,0,1,271.534,25.279Zm.34-4.6-1.106,1.106a16.568,16.568,0,0,0-2.043-2.213l1.106-1.106A16.565,16.565,0,0,1,271.874,20.683Zm1.021,4.34a12.515,12.515,0,0,1-.681,2.128l-.936-.255a8.339,8.339,0,0,0,.681-2.128Zm2.979-.766-.936.34a3.687,3.687,0,0,1-.085-.426c-.6.085-1.532.17-2.809.34l-.34-1.021a13.383,13.383,0,0,0,1.617-1.532,9.623,9.623,0,0,1-1.191.085l-.34-.936a8.772,8.772,0,0,0,2.043-2.723l1.021.426a9.983,9.983,0,0,1-1.7,2.213,3.191,3.191,0,0,0,.936-.085l.6-.936,1.021.511a15.885,15.885,0,0,1-2.383,2.809,5.745,5.745,0,0,0,1.191-.17c-.085-.255-.085-.426-.17-.511l.851-.34A10.727,10.727,0,0,1,275.874,24.257Zm7.66,6.979a3.383,3.383,0,0,1-.6,2.3,1.906,1.906,0,0,1-1.447.6h-4.17l-.426-1.106h4.34c.255,0,.426-.255.511-.681h-9.872l.936-2.979h8.34V28.6H271.96V27.577h10.808V30.47h-8.6l-.34.851h9.7Zm-9.277-4.255-.936.17a19.464,19.464,0,0,0-.17-2.128l.851-.17A7.664,7.664,0,0,1,274.257,26.981Zm1.532-.426-.936.255a12.219,12.219,0,0,0-.341-1.872l.851-.255C275.534,25.449,275.7,26.045,275.789,26.555Zm4.255-6.128h-4.255V19.406h1.362a3.95,3.95,0,0,1-.255-.766l1.191-.34a2.723,2.723,0,0,1,.426,1.106h1.447l.085,1.021Zm-.511,1.532h-3.4v-.936h3.4Zm0,1.532h-3.4v-.936h3.4Zm0,3.4h-3.4V24.172h3.4Zm-1.191-.936v-.851h-1.106v.851Zm2.723-.766a10.1,10.1,0,0,1-.34,2.043l-.936-.34a11.2,11.2,0,0,0,.426-1.957Zm2.979-.851-.936.34-.085-.426c-1.021.17-1.957.255-2.894.34l-.255-.936a10.233,10.233,0,0,0,1.787-1.617l-1.447.085-.34-.936A8.192,8.192,0,0,0,282,18.47l1.021.511a26.523,26.523,0,0,1-1.7,2.128,3.507,3.507,0,0,0,1.021-.085,6.109,6.109,0,0,0,.6-.936l1.021.511a15.261,15.261,0,0,1-2.553,3.064,9.767,9.767,0,0,0,1.191-.17,1.436,1.436,0,0,0-.17-.426l.936-.34A4.4,4.4,0,0,1,284.045,24.343Zm-1.532,2.723-1.021.255a10.631,10.631,0,0,0-.17-2.043l.936-.085A8.2,8.2,0,0,1,282.513,27.066Zm1.617-.17-1.021.255a17.7,17.7,0,0,0-.511-2.043l.936-.255A7.629,7.629,0,0,1,284.13,26.9Z" transform="translate(-3.053 0)"/>
      <path id="路径_980" data-name="路径 980" class="cls-1" d="M304.7,34.2h-1.617v-.681H291.932V34.2H290.4V18.8h14.3Zm-1.617-2.128V20.247H291.932v11.83Zm-5.362-2.468a34.587,34.587,0,0,1-5.277,1.617l-.17-1.447a36.956,36.956,0,0,0,5.362-1.532Zm5.106-.681c-.255,1.787-.936,2.638-1.872,2.638-.6,0-1.106-.426-1.617-1.191a8.256,8.256,0,0,1-1.617,1.447L296.7,30.8a11.552,11.552,0,0,0,2.043-2.043,25.45,25.45,0,0,1-.936-5.532h-5.362V21.949h5.277V20.587h1.447a8.256,8.256,0,0,0,.085,1.447h2.043a6.385,6.385,0,0,0-1.532-.681l.851-.851a5.644,5.644,0,0,1,1.617.766l-.766.766h1.021v1.277h-3.149a20.933,20.933,0,0,0,.511,3.83,20.6,20.6,0,0,0,1.362-3.319l1.277.6a14.086,14.086,0,0,1-2.128,4.681,1.282,1.282,0,0,0,.34.681l.255.255c.085,0,.17-.17.34-.511a5.143,5.143,0,0,0,.34-1.532Zm-5.617-.936h-4.255v-3.83h4.255Zm-1.447-1.277V25.523H294.4v1.191Z" transform="translate(-6.345 -0.074)"/>
      <path id="路径_981" data-name="路径 981" class="cls-1" d="M315.711,20.428a6.8,6.8,0,0,1-.34,1.277c-.255.766-.426,1.532-.766,2.3a7.612,7.612,0,0,1,1.106,3.915,3,3,0,0,1-.511,1.957,2.111,2.111,0,0,1-1.532.6h-.511l-.34-1.532h.426a1.832,1.832,0,0,0,.851-.17,1.226,1.226,0,0,0,.17-.766,8.353,8.353,0,0,0-1.277-3.915,26.441,26.441,0,0,0,1.191-3.66h-1.447V34.045H311.2V18.9h4.6v1.532Zm4,9.7a17.823,17.823,0,0,1-3.4,3.66l-1.192-1.021a14.08,14.08,0,0,0,3.319-3.4Zm-1.872-6.638a17.724,17.724,0,0,1-2.043.851l-.34-1.021a11.34,11.34,0,0,0,2.043-.851Zm3.659-3.745a10.215,10.215,0,0,1-2.043,4.426,11.887,11.887,0,0,1-2.808,2.3l-.936-1.106a9.264,9.264,0,0,0,3.064-2.468,6.428,6.428,0,0,0-1.191-.936c-.255.255-.426.511-.6.681l-1.106-.936a8.882,8.882,0,0,0,2.468-3.4l1.277.511a1.208,1.208,0,0,1-.17.511Zm4.6,9.021h-4.17v5.277h-1.532V28.768h-4.085V27.321h9.787Zm-6.468-8-1.021-.255c-.085.17-.17.255-.255.426a7.6,7.6,0,0,1,1.021.766A3.839,3.839,0,0,0,319.626,20.768Zm3.66,5.447H319.2V24.768h4.085Zm3.319-.851-.936,1.191a9.871,9.871,0,0,1-4.17-5.191l1.277-.6c.17.511.426.936.6,1.362a6.882,6.882,0,0,0,.936-1.7h-2.468V18.981h4.085v1.447a14.335,14.335,0,0,1-1.7,2.979A7.156,7.156,0,0,0,326.6,25.364Zm-.085,7.489-1.362.766a19.94,19.94,0,0,0-2.3-3.4l1.191-.936A17.46,17.46,0,0,1,326.519,32.853Z" transform="translate(-9.443 0)"/>
      <path id="路径_982" data-name="路径 982" class="cls-1" d="M347.274,33.583H331.7V31.966h6.979V20.9h-6.213V19.2h14.128v1.7h-6.213V31.966h6.894v1.617Z" transform="translate(-12.496 -0.134)"/>
      <path id="路径_983" data-name="路径 983" class="cls-1" d="M358.783,32.177a22.231,22.231,0,0,1-5.617,2.043l-.766-1.532a17.442,17.442,0,0,0,5.021-1.7Zm9.447-1.447H352.74V29.368h1.617V18.9h12.17V29.368h1.7Zm-3.4-9.277V20.262h-8.851v1.191Zm0,2.553V22.815h-8.851v1.191Zm0,2.638V25.453h-8.851v1.191Zm0,2.638V27.921h-8.851v1.362Zm3.574,3.745-.936,1.362a32.421,32.421,0,0,0-5.447-2.043l.936-1.362A36.515,36.515,0,0,1,368.4,33.028Z" transform="translate(-15.579 -0.089)"/>
      <path id="路径_984" data-name="路径 984" class="cls-1" d="M378.506,25.974l-.936.851a9.882,9.882,0,0,0-.681-1.362V34.23h-1.532V26.315a14.264,14.264,0,0,1-1.277,3.4l-.681-1.872A21.488,21.488,0,0,0,375.1,23H373.57V21.464h1.787V18.4h1.532v3.064h1.191V23h-1.191v.255A17.193,17.193,0,0,1,378.506,25.974ZM389.4,31.166c-.34,2.043-.936,3.149-1.957,3.149-.681,0-1.447-.6-2.383-1.872a21.036,21.036,0,0,1-3.489,1.872l-.851-1.362a13.164,13.164,0,0,0,3.66-1.872,14.8,14.8,0,0,1-.851-2.723h-2.553v.426a18.963,18.963,0,0,1,2.213,1.7l-.936,1.277a12.466,12.466,0,0,0-1.447-1.277,7.284,7.284,0,0,1-2.043,3.83l-1.277-.851a6.665,6.665,0,0,0,1.957-5.106h-1.532V26.911h5.362q-.383-3.064-.511-8.426h1.447a60.447,60.447,0,0,0,.511,8.426h1.021c0-.17-.17-.34-.255-.511l1.7-.34a5.456,5.456,0,0,0,.511.851h1.532v1.447h-4.255a7.6,7.6,0,0,0,.511,1.7,12.161,12.161,0,0,0,1.277-1.532l1.362.681a12.214,12.214,0,0,1-1.872,2.213c.511.766.851,1.106,1.106,1.106.34,0,.511-.766.681-2.213Zm-6.553-4.936-1.106.255a2.278,2.278,0,0,0-.17-.936c-1.021.17-1.872.255-2.723.34l-.34-1.277c.34-.426.851-1.021,1.447-1.872a7.35,7.35,0,0,1-1.277.085l-.255-1.106a8.939,8.939,0,0,0,1.447-3.149L381.23,19a12.324,12.324,0,0,1-1.277,2.468,3.193,3.193,0,0,0,.851-.085c.085-.17.34-.6.6-1.191l1.192.681a20.649,20.649,0,0,1-2.553,3.745,7.555,7.555,0,0,0,1.277-.17,1.373,1.373,0,0,0-.255-.766l1.106-.34A19.246,19.246,0,0,1,382.847,26.23Zm6.383-.085-1.106.34-.17-1.021c-1.021.17-1.957.255-2.809.34l-.426-1.277a13.894,13.894,0,0,0,1.447-1.787c-.425.085-.936.085-1.362.17l-.255-1.277a10.968,10.968,0,0,0,1.617-3.149l1.362.511a17.038,17.038,0,0,1-1.447,2.638c.34,0,.681-.085.936-.085a11.633,11.633,0,0,1,.681-1.191l1.277.511a18.321,18.321,0,0,1-2.553,3.745c.255,0,.6-.085,1.191-.17a2.225,2.225,0,0,0-.255-.681l1.106-.34A14.312,14.312,0,0,1,389.23,26.145Z" transform="translate(-18.706 -0.015)"/>
      <path id="路径_985" data-name="路径 985" class="cls-1" d="M410.174,28.772h-9.447v3.574a21.155,21.155,0,0,0,3.064-1.021v1.617a30.356,30.356,0,0,1-4.6,1.362l-.34-1.277a1.018,1.018,0,0,0,.34-.681V28.772h-1.787a13.81,13.81,0,0,1-1.447,5.532L394.6,33.283c.851-1.617,1.277-4,1.277-7.234V18.9h13.447v4.085h-11.83V24.6h2.979V23.5H402V24.6h3.4V23.5h1.532V24.6h2.553v1.277H406.94v1.532h3.149v1.362Zm-9.7-1.362V25.879h-2.979v1.532Zm7.234-5.872V20.262H397.494v1.277Zm-2.3,5.872V25.879H402v1.532Zm5.021,5.617-.851,1.362c-3.149-1.021-5.277-2.553-6.553-4.681l1.447-.6a5.641,5.641,0,0,0,1.7,1.787,7.5,7.5,0,0,0,2.043-1.7l1.447.766a10.687,10.687,0,0,1-2.043,1.872A8.694,8.694,0,0,0,410.43,33.028Z" transform="translate(-21.864 -0.089)"/>
    </g>
    <g id="组_398" data-name="组 398" transform="translate(257.7 41.101)">
      <path id="路径_986" data-name="路径 986" class="cls-2" d="M5.961,14.172,3.3,4.9H50.344l-2.661,9.272H30.943V47.48H21.929V14.172Z" transform="translate(0 0)"/>
      <path id="路径_987" data-name="路径 987" class="cls-2" d="M101.251,4.9H94.9L81.678,33.4,68.543,4.9H62.19L50,47.48h9.958l6.7-24.9,12.362,24.9h5.408L96.959,22.155,103.4,47.48h9.958Z" transform="translate(-6.609 0)"/>
      <path id="路径_988" data-name="路径 988" class="cls-2" d="M208.6,22.585H184.991l-2.919-4.292,3.262-4.121h28.072L215.982,4.9H182.673S172.2,4.642,172.2,17.09c0,0-.429,12.705,9.615,12.705h23.608l2.919,4.292-3.262,4.121H176.149l-2.575,9.272H207.74s10.473.258,10.473-12.19C218.214,35.29,218.643,22.585,208.6,22.585Z" transform="translate(-23.903)"/>
      <path id="路径_989" data-name="路径 989" class="cls-2" d="M159.064,4.9H117.6l2.575,9.357h15.968V47.566h9.014V14.172h15.8C162.412,7.132,165.5,4.9,165.5,4.9Z" transform="translate(-16.176 0)"/>
    </g>
   
  </g>
<text transform="matrix(1 0 0 1 249.3 48.0996)" class="st3 st4 st5">測試環境</text>
<text transform="matrix(1 0 0 1 26.5667 48.0996)" class="st3 st4 st5">測試環境</text>
</svg>
