<?xml version="1.0" encoding="utf-8"?>
<!-- Generator: Adobe Illustrator 24.1.1, SVG Export Plug-In . SVG Version: 6.00 Build 0)  -->
<svg version="1.1" id="圖層_1" xmlns="http://www.w3.org/2000/svg" xmlns:xlink="http://www.w3.org/1999/xlink" x="0px" y="0px"
	 viewBox="0 0 570 58" style="enable-background:new 0 0 570 58;" xml:space="preserve">
<style type="text/css">
	.st0{fill:#002169;}
	.st1{fill:#595757;}
	.st2{fill:#585757;}
</style>
<g>
	<g>
		<polygon class="st0" points="6.4,15.7 3.3,4.9 58.1,4.9 55,15.7 35.5,15.7 35.5,54.5 25,54.5 25,15.7 		"/>
		<polygon class="st0" points="109.7,4.9 102.3,4.9 86.9,38.1 71.6,4.9 64.2,4.9 50,54.5 61.6,54.5 69.4,25.5 83.8,54.5 87.1,54.5 
			90.1,54.5 104.7,25 112.2,54.5 123.8,54.5 		"/>
		<path class="st0" d="M214.6,25.5h-27.5l-3.4-5l3.8-4.8h32.7l3-10.8h-38.8c0,0-12.2-0.3-12.2,14.2c0,0-0.5,14.8,11.2,14.8h27.5
			l3.4,5l-3.8,4.8h-33.7l-3,10.8h39.8c0,0,12.2,0.3,12.2-14.2C225.8,40.3,226.3,25.5,214.6,25.5z"/>
		<path class="st0" d="M165.9,4.9h-1.6h-46.7l3,10.9h18.6v38.8h10.5V15.7h16l0,0h2.4c1.7-8.2,5.3-10.8,5.3-10.8S165.9,4.9,165.9,4.9
			z"/>
	</g>
	<g>
		<g>
			<path class="st1" d="M266.1,26.1l-1.6,1.3c-0.4-0.6-0.8-1.3-1.3-1.8c-5.4,0.6-10.4,1-15,1.1l-0.4-1.8c2-0.6,4.2-2.9,6.5-6.6
				l2.1,0.4c-1.4,2.3-3.1,4.3-5,6c2.7-0.1,6.2-0.4,10.4-0.8c-0.9-1-1.9-1.9-3.2-2.9l1.6-1.2C262.8,22,264.7,24.1,266.1,26.1z
				 M264.2,36.9h-1.9V36h-11.1v0.9h-1.9v-8.7h14.9V36.9z M262.3,34.1V30h-11.1v4.1H262.3z"/>
			<path class="st1" d="M272.3,30.2c-0.7,2.7-1.5,5-2.4,6.9l-1.6-1.2c0.9-2,1.7-4.2,2.3-6.7L272.3,30.2z M272.1,26.5l-1.3,1.4
				c-1-1.2-1.7-2.1-2.3-2.6l1.2-1.4C270.6,24.6,271.4,25.5,272.1,26.5z M272.5,21.1l-1.3,1.3c-0.7-0.9-1.5-1.8-2.4-2.6l1.3-1.3
				C271,19.3,271.8,20.2,272.5,21.1z M273.7,26.2c-0.2,0.9-0.5,1.8-0.8,2.5l-1.1-0.3c0.5-1.1,0.7-1.9,0.8-2.5L273.7,26.2z
				 M277.2,25.3l-1.1,0.4c0-0.1-0.1-0.3-0.1-0.5c-0.7,0.1-1.8,0.2-3.3,0.4l-0.4-1.2c0.6-0.5,1.3-1.1,1.9-1.8
				c-0.8,0.1-1.3,0.1-1.4,0.1l-0.4-1.1c0.9-0.8,1.7-1.8,2.4-3.2l1.2,0.5c-0.7,1.1-1.3,2-2,2.6c0.4,0,0.8,0,1.1-0.1l0.7-1.1l1.2,0.6
				c-0.9,1.3-1.8,2.4-2.8,3.3c0.5,0,0.9-0.1,1.4-0.2c-0.1-0.3-0.1-0.5-0.2-0.6l1-0.4C276.9,24.1,277.1,24.9,277.2,25.3z M286.2,33.5
				c0,1.4-0.3,2.3-0.7,2.7s-0.9,0.7-1.7,0.7h-4.9l-0.5-1.3h5.1c0.3,0,0.5-0.3,0.6-0.8h-11.6l1.1-3.5h9.8v-0.9h-10.8v-1.2h12.7v3.4
				h-10.1l-0.4,1h11.4V33.5z M275.3,28.5l-1.1,0.2c0-0.8-0.1-1.6-0.2-2.5l1-0.2C275.2,26.7,275.3,27.5,275.3,28.5z M277.1,28
				l-1.1,0.3c-0.1-0.8-0.2-1.5-0.4-2.2l1-0.3C276.8,26.7,277,27.4,277.1,28z M282.1,20.8h-5v-1.2h1.6c-0.1-0.2-0.2-0.5-0.3-0.9
				l1.4-0.4c0.2,0.3,0.4,0.7,0.5,1.3h1.7L282.1,20.8L282.1,20.8z M281.5,22.6h-4v-1.1h4V22.6z M281.5,24.4h-4v-1.1h4V24.4z
				 M281.5,28.4h-4v-3.2h4V28.4z M280.1,27.3v-1h-1.3v1H280.1z M283.3,26.4c-0.1,1-0.2,1.8-0.4,2.4l-1.1-0.4
				c0.2-0.7,0.4-1.4,0.5-2.3L283.3,26.4z M286.8,25.4l-1.1,0.4l-0.1-0.5c-1.2,0.2-2.3,0.3-3.4,0.4l-0.3-1.1c0.7-0.5,1.4-1.1,2.1-1.9
				l-1.7,0.1l-0.4-1.1c0.9-0.7,1.7-1.7,2.5-3.2l1.2,0.6c-0.7,1-1.4,1.8-2,2.5c0.5,0,0.9,0,1.2-0.1c0.2-0.2,0.4-0.6,0.7-1.1l1.2,0.6
				c-0.9,1.4-1.9,2.6-3,3.6c0.3,0,0.8-0.1,1.4-0.2c0-0.1-0.1-0.3-0.2-0.5l1.1-0.4C286.4,24.1,286.7,24.8,286.8,25.4z M285,28.6
				l-1.2,0.3c0-0.5,0-1.3-0.2-2.4l1.1-0.1C284.8,26.9,285,27.6,285,28.6z M286.9,28.4l-1.2,0.3c-0.2-1-0.4-1.8-0.6-2.4l1.1-0.3
				C286.6,26.9,286.8,27.7,286.9,28.4z"/>
			<path class="st1" d="M307.2,36.9h-1.9v-0.8h-13.1v0.8h-1.8V18.8h16.8V36.9z M305.3,34.4V20.5h-13.1v13.9H305.3z M299,31.5
				c-2,0.8-4,1.4-6.2,1.9l-0.2-1.7c2-0.4,4.1-1,6.3-1.8L299,31.5z M305,30.7c-0.3,2.1-1.1,3.1-2.2,3.1c-0.7,0-1.3-0.5-1.9-1.4
				c-0.6,0.7-1.3,1.3-1.9,1.7l-1.2-1.2c0.8-0.6,1.6-1.4,2.4-2.4c-0.5-1.6-0.9-3.8-1.1-6.5h-6.3v-1.5h6.2c0-0.3,0-0.8,0-1.6h1.7
				c0,0.6,0,1.1,0.1,1.7h2.4c-0.5-0.3-1.1-0.6-1.8-0.8l1-1c0.7,0.2,1.3,0.5,1.9,0.9l-0.9,0.9h1.2v1.5h-3.7c0.1,1.8,0.3,3.3,0.6,4.5
				c0.6-1.1,1.1-2.4,1.6-3.9l1.5,0.7c-0.6,2.3-1.5,4.1-2.5,5.5c0.1,0.4,0.2,0.6,0.4,0.8c0.2,0.2,0.3,0.3,0.3,0.3
				c0.1,0,0.2-0.2,0.4-0.6c0.2-0.4,0.3-1,0.4-1.8L305,30.7z M298.4,29.6h-5v-4.5h5V29.6z M296.7,28.1v-1.4h-1.6v1.4H296.7z"/>
			<path class="st1" d="M316.5,20.8c0,0.1-0.1,0.6-0.4,1.5s-0.5,1.8-0.9,2.7c0.9,1.5,1.3,3.1,1.3,4.6c0,1.1-0.2,1.8-0.6,2.3
				c-0.4,0.4-1,0.7-1.8,0.7c-0.2,0-0.4,0-0.6,0l-0.4-1.8c0.1,0,0.3,0,0.5,0c0.5,0,0.8-0.1,1-0.2c0.1-0.1,0.2-0.4,0.2-0.9
				c0-1.3-0.5-2.8-1.5-4.6c0.5-1.2,1-2.7,1.4-4.3H313v16h-1.8V19h5.4v1.8H316.5z M321.2,32.2c-1.3,1.8-2.6,3.2-4,4.3l-1.4-1.2
				c1.4-1,2.7-2.3,3.9-4L321.2,32.2z M319,24.4c-0.9,0.4-1.7,0.8-2.4,1l-0.4-1.2c0.9-0.3,1.7-0.6,2.4-1L319,24.4z M323.3,20
				c-0.6,2.4-1.4,4.1-2.4,5.2s-2.1,2-3.3,2.7l-1.1-1.3c1.6-0.9,2.8-1.8,3.6-2.9c-0.4-0.4-0.9-0.8-1.4-1.1c-0.3,0.3-0.5,0.6-0.7,0.8
				l-1.3-1.1c1.4-1.3,2.4-2.6,2.9-4l1.5,0.6c0,0.2-0.1,0.4-0.2,0.6L323.3,20z M328.7,30.6h-4.9v6.2H322v-6.2h-4.8v-1.7h11.5V30.6z
				 M321.1,21.2l-1.2-0.3c-0.1,0.2-0.2,0.3-0.3,0.5c0.6,0.4,1,0.7,1.2,0.9C320.9,21.9,321.1,21.6,321.1,21.2z M325.4,27.6h-4.8v-1.7
				h4.8V27.6z M329.3,26.6l-1.1,1.4c-2.4-1.6-4.1-3.6-4.9-6.1l1.5-0.7c0.2,0.6,0.5,1.1,0.7,1.6c0.5-0.7,0.9-1.4,1.1-2h-2.9v-1.7h4.8
				v1.7c-0.6,1.3-1.2,2.5-2,3.5C327.1,25.1,328,25.9,329.3,26.6z M329.2,35.4l-1.6,0.9c-0.6-1.2-1.5-2.5-2.7-4l1.4-1.1
				C327.3,32.3,328.3,33.7,329.2,35.4z"/>
			<path class="st1" d="M350,36.1h-18.3v-1.9h8.2v-13h-7.3v-2h16.6v2h-7.3v13h8.1L350,36.1L350,36.1z"/>
			<path class="st1" d="M359.9,34.5c-2.1,1.1-4.3,1.9-6.6,2.4l-0.9-1.8c2.2-0.4,4.2-1.1,5.9-2L359.9,34.5z M371,32.8h-18.2v-1.6h1.9
				V18.9H369v12.3h2V32.8z M367,21.9v-1.4h-10.4v1.4H367z M367,24.9v-1.4h-10.4v1.4H367z M367,28v-1.4h-10.4V28H367z M367,31.1v-1.6
				h-10.4v1.6H367z M371.2,35.5l-1.1,1.6c-2.1-1-4.2-1.8-6.4-2.4l1.1-1.6C367.2,33.8,369.3,34.6,371.2,35.5z"/>
			<path class="st1" d="M379.4,27.3l-1.1,1c-0.3-0.7-0.6-1.3-0.8-1.6V37h-1.8v-9.3c-0.4,1.6-0.9,2.9-1.5,4l-0.8-2.2
				c0.8-1.6,1.5-3.5,2-5.7h-1.8V22h2.1v-3.6h1.8V22h1.4v1.8h-1.4v0.3C378.4,25.4,379,26.4,379.4,27.3z M392.2,33.4
				c-0.4,2.4-1.1,3.7-2.3,3.7c-0.8,0-1.7-0.7-2.8-2.2c-1.7,1.1-3.1,1.8-4.1,2.2l-1-1.6c1.9-0.7,3.3-1.4,4.3-2.2
				c-0.4-0.9-0.7-1.9-1-3.2h-3v0.5c1.3,0.9,2.2,1.6,2.6,2l-1.1,1.5c-0.4-0.4-0.9-0.9-1.7-1.5c-0.4,1.8-1.2,3.4-2.4,4.5l-1.5-1
				c1.5-1.4,2.3-3.4,2.3-6h-1.8v-1.7h6.3c-0.3-2.4-0.5-5.7-0.6-9.9h1.7c0,3.8,0.2,7.1,0.6,9.9h1.2c0-0.2-0.2-0.4-0.3-0.6l2-0.4
				c0.1,0.2,0.3,0.6,0.6,1h1.8v1.7h-5c0.1,0.6,0.3,1.3,0.6,2c0.5-0.5,1-1.1,1.5-1.8l1.6,0.8c-0.7,1-1.4,1.9-2.2,2.6
				c0.6,0.9,1,1.3,1.3,1.3c0.4,0,0.6-0.9,0.8-2.6L392.2,33.4z M384.5,27.6l-1.3,0.3c0-0.5-0.1-0.9-0.2-1.1c-1.2,0.2-2.2,0.3-3.2,0.4
				l-0.4-1.5c0.4-0.5,1-1.2,1.7-2.2c-0.6,0.1-1.1,0.1-1.5,0.1l-0.3-1.3c0.8-1,1.3-2.3,1.7-3.7l1.6,0.5c-0.6,1.4-1.1,2.4-1.5,2.9
				c0.3,0,0.6,0,1-0.1c0.1-0.2,0.4-0.7,0.7-1.4l1.4,0.8c-0.9,1.7-1.9,3.1-3,4.4c0.5,0,0.9-0.1,1.5-0.2c0-0.3-0.1-0.6-0.3-0.9
				l1.3-0.4C384.1,25.6,384.4,26.7,384.5,27.6z M392,27.5l-1.3,0.4l-0.2-1.2c-1.2,0.2-2.3,0.3-3.3,0.4l-0.5-1.5
				c0.4-0.4,1-1.1,1.7-2.1c-0.5,0.1-1.1,0.1-1.6,0.2l-0.3-1.5c0.8-1,1.4-2.3,1.9-3.7l1.6,0.6c-0.4,0.9-0.9,1.9-1.7,3.1
				c0.4,0,0.8-0.1,1.1-0.1c0.3-0.6,0.6-1.1,0.8-1.4l1.5,0.6c-0.7,1.4-1.7,2.9-3,4.4c0.3,0,0.7-0.1,1.4-0.2c-0.1-0.3-0.1-0.5-0.3-0.8
				l1.3-0.4C391.5,25.3,391.8,26.4,392,27.5z"/>
			<path class="st1" d="M412.9,30.5h-11.1v4.2c0.9-0.2,2.1-0.6,3.6-1.2v1.9c-1.5,0.6-3.2,1.1-5.4,1.6l-0.4-1.5
				c0.3-0.3,0.4-0.6,0.4-0.8v-4.2h-2.1c-0.2,2.7-0.8,4.8-1.7,6.5l-1.6-1.2c1-1.9,1.5-4.7,1.5-8.5v-8.4h15.8v4.8H398v1.9h3.5v-1.3
				h1.8v1.3h4v-1.3h1.8v1.3h3v1.5h-3v1.8h3.7v1.6H412.9z M401.5,28.9v-1.8H398c0,0.7,0,1.3,0,1.8H401.5z M410,22v-1.5h-12V22H410z
				 M407.3,28.9v-1.8h-4v1.8H407.3z M413.2,35.5l-1,1.6c-3.7-1.2-6.2-3-7.7-5.5l1.7-0.7c0.5,0.8,1.1,1.5,2,2.1
				c0.9-0.5,1.6-1.1,2.4-2l1.7,0.9c-0.7,0.8-1.5,1.6-2.4,2.2C410.7,34.7,411.8,35.1,413.2,35.5z"/>
		</g>
		<g>
			<path class="st2" d="M247.2,47.4c0-1.2,0.3-2.2,1-2.8c0.5-0.5,1.2-0.8,1.9-0.8c0.9,0,1.6,0.3,2.1,0.8s0.8,1.2,0.8,1.9
				c0,1-0.3,1.8-0.9,2.5c-0.6,0.7-1.2,1.4-1.8,2c-0.3,0.4-0.6,0.7-1,1.1c-0.3,0.3-0.5,0.6-0.7,1h4.5v1.1H247v-1c0.1-0.4,0.4-1,1-1.7
				c1-1.1,1.8-2,2.5-2.7s1-1.5,1-2.3c0-0.5-0.2-0.9-0.5-1.2c-0.2-0.2-0.5-0.4-0.9-0.4c-0.3,0-0.6,0.1-0.8,0.4
				c-0.4,0.4-0.7,1.2-0.7,2.1C248.6,47.4,247.2,47.4,247.2,47.4z"/>
			<path class="st2" d="M254.5,48.4c0-1.8,0.4-3.1,1.2-3.9c0.6-0.6,1.3-0.8,2.1-0.8s1.6,0.3,2.1,0.8c0.8,0.8,1.2,2.1,1.2,3.9v1.2
				c0,1.7-0.4,3-1.2,3.8c-0.6,0.6-1.3,0.8-2.1,0.8c-0.8,0-1.6-0.3-2.1-0.8c-0.8-0.8-1.2-2.1-1.2-3.8L254.5,48.4L254.5,48.4z
				 M256.7,45.4c-0.5,0.5-0.8,1.5-0.8,3v1.4c0,1.4,0.3,2.4,0.8,3c0.3,0.3,0.7,0.5,1,0.5c0.4,0,0.8-0.2,1.1-0.5
				c0.5-0.5,0.8-1.5,0.8-3v-1.4c0-1.5-0.3-2.4-0.8-3c-0.3-0.3-0.7-0.5-1.1-0.5C257.4,44.9,257,45,256.7,45.4z"/>
			<path class="st2" d="M262.7,47.4c0-1.2,0.3-2.2,1-2.8c0.5-0.5,1.2-0.8,1.9-0.8c0.9,0,1.6,0.3,2.1,0.8s0.8,1.2,0.8,1.9
				c0,1-0.3,1.8-0.9,2.5s-1.2,1.4-1.8,2c-0.3,0.4-0.6,0.7-1,1.1c-0.3,0.3-0.5,0.6-0.7,1h4.5v1.1h-6.2v-1c0.1-0.4,0.4-1,1-1.7
				c1-1.1,1.8-2,2.5-2.7s1-1.5,1-2.3c0-0.5-0.2-0.9-0.5-1.2c-0.2-0.2-0.5-0.4-0.9-0.4c-0.3,0-0.6,0.1-0.8,0.4
				c-0.4,0.4-0.7,1.2-0.7,2.1C264,47.4,262.7,47.4,262.7,47.4z"/>
			<path class="st2" d="M269.9,48.4c0-1.8,0.4-3.1,1.2-3.9c0.6-0.6,1.3-0.8,2.1-0.8c0.8,0,1.6,0.3,2.1,0.8c0.8,0.8,1.2,2.1,1.2,3.9
				v1.2c0,1.7-0.4,3-1.2,3.8c-0.6,0.6-1.3,0.8-2.1,0.8c-0.8,0-1.6-0.3-2.1-0.8c-0.8-0.8-1.2-2.1-1.2-3.8V48.4z M272.2,45.4
				c-0.5,0.5-0.8,1.5-0.8,3v1.4c0,1.4,0.3,2.4,0.8,3c0.3,0.3,0.7,0.5,1,0.5c0.4,0,0.8-0.2,1.1-0.5c0.5-0.5,0.8-1.5,0.8-3v-1.4
				c0-1.5-0.3-2.4-0.8-3c-0.3-0.3-0.7-0.5-1.1-0.5C272.9,44.9,272.5,45,272.2,45.4z"/>
			<path class="st2" d="M278.1,52.9h1.4v1.3h-1.4V52.9z"/>
			<path class="st2" d="M284.4,43.7h0.7v10.5h-1.4v-8.1h-1.8v-0.7h0.5c0.6,0,1-0.2,1.3-0.5C284.2,44.6,284.4,44.2,284.4,43.7z"/>
			<path class="st2" d="M292.2,43.7h0.7v10.5h-1.4v-8.1h-1.8v-0.7h0.5c0.6,0,1-0.2,1.3-0.5C291.9,44.6,292.1,44.2,292.2,43.7z"/>
			<path class="st2" d="M296.7,52.9h1.4v1.3h-1.4V52.9z"/>
			<path class="st2" d="M303.1,43.7h0.7v10.5h-1.4v-8.1h-1.8v-0.7h0.5c0.6,0,1-0.2,1.3-0.5C302.8,44.6,303,44.2,303.1,43.7z"/>
			<path class="st2" d="M307.2,48.4c0-1.8,0.4-3.1,1.2-3.9c0.6-0.6,1.3-0.8,2.1-0.8c0.8,0,1.6,0.3,2.1,0.8c0.8,0.8,1.2,2.1,1.2,3.9
				v1.2c0,1.7-0.4,3-1.2,3.8c-0.6,0.6-1.3,0.8-2.1,0.8c-0.8,0-1.6-0.3-2.1-0.8c-0.8-0.8-1.2-2.1-1.2-3.8V48.4z M309.5,45.4
				c-0.5,0.5-0.8,1.5-0.8,3v1.4c0,1.4,0.3,2.4,0.8,3c0.3,0.3,0.7,0.5,1,0.5c0.4,0,0.8-0.2,1.1-0.5c0.5-0.5,0.8-1.5,0.8-3v-1.4
				c0-1.5-0.3-2.4-0.8-3c-0.3-0.3-0.7-0.5-1.1-0.5C310.2,44.9,309.8,45,309.5,45.4z"/>
			<path class="st2" d="M314.9,48.4h6.9v1h-6.9V48.4z"/>
			<path class="st2" d="M326.3,43.7h0.7v10.5h-1.4v-8.1h-1.8v-0.7h0.5c0.6,0,1-0.2,1.3-0.5C326,44.6,326.3,44.2,326.3,43.7z"/>
			<path class="st2" d="M334.5,43.8h1.4v6.7h1.3v1.1h-1.3v2.7h-1.4v-2.7h-4.1v-1.2L334.5,43.8z M334.5,46l-2.7,4.4h2.7V46z"/>
			<path class="st2" d="M362.7,47.8l-1.1,0.9c-0.3-0.4-0.6-0.9-0.9-1.3c-3.7,0.4-7.2,0.7-10.3,0.8l-0.3-1.2c1.4-0.4,2.9-2,4.5-4.6
				l1.5,0.3c-1,1.6-2.1,2.9-3.4,4.1c1.9-0.1,4.3-0.3,7.1-0.6c-0.6-0.7-1.3-1.3-2.2-2l1.1-0.9C360.4,44.9,361.7,46.4,362.7,47.8z
				 M361.4,55.2h-1.3v-0.6h-7.6v0.6h-1.3v-6h10.2L361.4,55.2L361.4,55.2z M360.1,53.3v-2.8h-7.6v2.8H360.1z"/>
			<path class="st2" d="M376.3,51h-5v4.2H370V51h-4.9v-6.1h4.9v-2.3h1.3v2.3h5V51z M370.1,49.7v-3.6h-3.6v3.6H370.1z M375,49.7v-3.6
				h-3.6v3.6H375z"/>
		</g>
	</g>
</g>
</svg>
