<svg id="圖層_1" data-name="圖層 1" xmlns="http://www.w3.org/2000/svg" viewBox="0 0 400.5 38.18"><defs><style>.cls-1{fill:#002169;}.cls-2,.cls-3{fill:#595857;}.cls-3{font-size:18px;font-family:MicrosoftJhengHeiUIBold, Microsoft JhengHei UI;}</style></defs><title>logo-tw</title><g id="圖層_1-2" data-name="圖層 1-2"><polygon class="cls-1" points="2.33 8.36 0 0 42.12 0 39.78 8.36 24.73 8.36 24.73 38.18 16.64 38.18 16.64 8.32 2.33 8.36"/><polygon class="cls-1" points="81.78 0 76.12 0 64.31 25.53 52.5 0 46.84 0 35.92 38.18 44.84 38.18 50.83 15.85 61.87 38.18 64.45 38.18 66.74 38.18 77.97 15.46 83.78 38.18 92.7 38.18 81.78 0"/><path class="cls-1" d="M162.54,15.88H141.36L138.76,12l3-3.7h25.17l2.3-8.3H139.4S130-.21,130,10.89c0,0-.38,11.41,8.62,11.41H159.8l2.61,3.84-3,3.7h-25.9l-2.33,8.34h30.59s9.38.21,9.38-10.89C171.15,27.29,171.54,15.88,162.54,15.88Z" transform="translate(0 0)"/><path class="cls-1" d="M87.9,0l2.33,8.36h14.3V38.18h8.1V8.36h14.16C128.09,2,130.87,0,130.87,0Z" transform="translate(0 0)"/><path class="cls-2" d="M189.33,35.05V25.6h1.8l2.18,4a32.51,32.51,0,0,1,1.45,3.11h0c-.1-1.24-.15-2.53-.15-4V25.6h1.51v9.45h-1.66l-2.21-4.12a28.74,28.74,0,0,1-1.49-3.18h0c.07,1.18.1,2.46.1,4.13V35Z" transform="translate(0 0)"/><path class="cls-2" d="M204.17,31.58c0,2.58-1.65,3.61-3.18,3.61-1.78,0-3.12-1.3-3.12-3.51s1.39-3.6,3.21-3.6S204.17,29.46,204.17,31.58Zm-4.62.06c0,1.26.52,2.32,1.49,2.32s1.45-1.07,1.45-2.34c0-1-.39-2.31-1.45-2.31S199.55,30.55,199.55,31.64Z" transform="translate(0 0)"/><path class="cls-2" d="M206.8,28.23l1,3.44c.16.58.3,1.15.41,1.73h0c.11-.58.25-1.13.41-1.73l1-3.44h1.72L209,35.05h-1.59L205,28.23Z" transform="translate(0 0)"/><path class="cls-2" d="M211.89,34.1A1,1,0,0,1,212.8,33h.09a1.09,1.09,0,1,1-1,1.18Z" transform="translate(0 0)"/><path class="cls-2" d="M220.87,27.46h0l-1.63.84-.31-1.3,2.16-1.1h1.39V35h-1.61Z" transform="translate(0 0)"/><path class="cls-2" d="M231.65,30.44c0,3-1.14,4.75-3.09,4.75s-3-1.94-3-4.67,1.11-4.72,3.11-4.72S231.65,27.82,231.65,30.44Zm-4.44.07c0,2.2.51,3.37,1.4,3.37s1.37-1.24,1.37-3.4-.42-3.37-1.37-3.37-1.4,1.16-1.4,3.4Z" transform="translate(0 0)"/><path class="cls-2" d="M236.23,30.72v1.16h-3.37V30.72Z" transform="translate(0 0)"/><path class="cls-2" d="M240.08,27.46h0l-1.62.84-.32-1.3,2.16-1.1h1.39V35h-1.61Z" transform="translate(0 0)"/><path class="cls-2" d="M248.38,35.05V32.73h-3.81V31.64l3.5-5.7h1.85v5.51H251v1.28h-1.11v2.32Zm0-3.6V29.06a12.24,12.24,0,0,1,.07-1.59h0c-.28.58-.5,1-.78,1.54l-1.49,2.41h0Z" transform="translate(0 0)"/><path class="cls-2" d="M251.78,36.76a21.56,21.56,0,0,0,.92-3.64l1.74-.14a18.76,18.76,0,0,1-1.54,3.67Z" transform="translate(0 0)"/><path class="cls-2" d="M258.79,35.05V34l1-1c1.84-1.84,2.88-3,2.89-4.33a1.37,1.37,0,0,0-1.24-1.49h-.27a3,3,0,0,0-1.76.67l-.44-1.2a4.13,4.13,0,0,1,2.53-.83,2.58,2.58,0,0,1,2.82,2.31,2.54,2.54,0,0,1,0,.39c0,1.64-1.13,3-2.57,4.42l-.73.7h3.48V35Z" transform="translate(0 0)"/><path class="cls-2" d="M272.1,30.44c0,3-1.14,4.75-3.09,4.75s-3-1.94-3-4.67,1.11-4.72,3.11-4.72S272.1,27.82,272.1,30.44Zm-4.43.07c0,2.2.51,3.37,1.4,3.37s1.37-1.24,1.37-3.4-.42-3.37-1.37-3.37S267.67,28.27,267.67,30.51Z" transform="translate(0 0)"/><path class="cls-2" d="M273.44,35.05V34l1-1c1.84-1.84,2.88-3,2.89-4.33a1.36,1.36,0,0,0-1.22-1.49h-.28a3,3,0,0,0-1.77.67l-.44-1.2a4.13,4.13,0,0,1,2.53-.83A2.57,2.57,0,0,1,279,28.09a2.81,2.81,0,0,1,0,.41c0,1.64-1.13,3-2.57,4.42l-.72.7h3.48V35Z" transform="translate(0 0)"/><path class="cls-2" d="M286.75,30.44c0,3-1.14,4.75-3.09,4.75s-3-1.94-3-4.67,1.11-4.72,3.11-4.72S286.75,27.82,286.75,30.44Zm-4.43.07c0,2.2.51,3.37,1.4,3.37s1.37-1.24,1.37-3.4-.43-3.37-1.37-3.37S282.31,28.27,282.32,30.51Z" transform="translate(0 0)"/><path class="cls-2" d="M293.91,23.54v14H292.7v-14Z" transform="translate(0 0)"/><path class="cls-2" d="M302.51,27h-2.4V25.6h6.47V27h-2.41v8h-1.66Z" transform="translate(0 0)"/><path class="cls-2" d="M310.64,35.05l-.11-.74h0a2.25,2.25,0,0,1-1.84.88,2,2,0,0,1-2-2c0-1.73,1.52-2.56,3.74-2.56V30.5a1.11,1.11,0,0,0-1-1.21,1.22,1.22,0,0,0-.27,0,3.26,3.26,0,0,0-1.67.47l-.32-1.08a4.49,4.49,0,0,1,2.29-.58c2.06,0,2.63,1.33,2.63,2.81v2.54a11,11,0,0,0,.1,1.62Zm-.22-3.37c-1,0-2.16.22-2.16,1.31a.88.88,0,0,0,.77,1h.14a1.23,1.23,0,0,0,1.2-.9,1.12,1.12,0,0,0,.05-.36Z" transform="translate(0 0)"/><path class="cls-2" d="M315.81,26.35a.92.92,0,1,1-.93-.91h0a.87.87,0,0,1,.91.83Zm-1.74,8.7V28.23h1.66v6.82Z" transform="translate(0 0)"/><path class="cls-2" d="M322.37,34.86a4.26,4.26,0,0,1-1.69.31,3.14,3.14,0,0,1-3.28-3,2.57,2.57,0,0,1,0-.48,3.39,3.39,0,0,1,3.16-3.61,3.09,3.09,0,0,1,.43,0,3.83,3.83,0,0,1,1.46.28l-.29,1.26A2.5,2.5,0,0,0,321,29.4a2,2,0,0,0-1.91,2.08.81.81,0,0,0,0,.16,2,2,0,0,0,1.78,2.2H321a2.64,2.64,0,0,0,1.17-.24Z" transform="translate(0 0)"/><path class="cls-2" d="M323.87,25.18h1.66v3.91h0a2.24,2.24,0,0,1,1.87-1c1.14,0,2.17.81,2.17,2.86v4.11h-1.66v-4c0-.91-.29-1.64-1.15-1.64a1.25,1.25,0,0,0-1.19.93,1.81,1.81,0,0,0-.07.52V35h-1.66Z" transform="translate(0 0)"/><path class="cls-2" d="M337.29,33v2H335.9l-.08-.94h0a2.29,2.29,0,0,1-2,1.08c-1.24,0-2.18-.81-2.18-2.9v-4h1.65V32c0,1.09.31,1.8,1.13,1.8a1.24,1.24,0,0,0,1.15-.85,1.71,1.71,0,0,0,.09-.55V28.2h1.66Z" transform="translate(0 0)"/><path class="cls-2" d="M339.36,30.22c0-.78,0-1.4-.06-2h1.44l.09,1h0a2.33,2.33,0,0,1,2-1.1c1.17,0,2.22.81,2.22,2.79V35h-1.66V31c0-.89-.3-1.62-1.15-1.62a1.29,1.29,0,0,0-1.19,1A1.9,1.9,0,0,0,341,31v4.08h-1.65Z" transform="translate(0 0)"/><path class="cls-2" d="M352.88,28.23c0,.48-.06,1.08-.06,2V34.1a3.85,3.85,0,0,1-.93,3,3.55,3.55,0,0,1-2.46.81,4.53,4.53,0,0,1-2.14-.48l.35-1.27a3.69,3.69,0,0,0,1.78.46c1.05,0,1.77-.59,1.77-2v-.57h0a2,2,0,0,1-1.77.93c-1.6,0-2.65-1.45-2.65-3.33,0-2.29,1.35-3.6,2.83-3.6a1.93,1.93,0,0,1,1.77,1h0l.06-.85Zm-1.71,2.64a2,2,0,0,0-.06-.48,1.25,1.25,0,0,0-1.21-1c-.89,0-1.49.87-1.49,2.23s.54,2.13,1.48,2.13a1.24,1.24,0,0,0,1.2-.94,2,2,0,0,0,.08-.6Z" transform="translate(0 0)"/><path class="cls-2" d="M353.94,36.76a21.56,21.56,0,0,0,.92-3.64L356.6,33a18,18,0,0,1-1.55,3.67Z" transform="translate(0 0)"/><path class="cls-2" d="M362.46,27h-2.4V25.6h6.47V27h-2.42v8h-1.65Z" transform="translate(0 0)"/><path class="cls-2" d="M370.59,35.05l-.11-.74h0a2.25,2.25,0,0,1-1.84.88,2,2,0,0,1-2-2c0-1.73,1.52-2.56,3.74-2.56V30.5c0-.53-.21-1.2-1.28-1.2a3.33,3.33,0,0,0-1.66.47l-.33-1.08a4.63,4.63,0,0,1,2.3-.58c2.06,0,2.63,1.33,2.63,2.81v2.54a9.79,9.79,0,0,0,.1,1.62Zm-.23-3.37c-1,0-2.15.22-2.15,1.31a.88.88,0,0,0,.77,1h.14a1.23,1.23,0,0,0,1.2-.9,1.09,1.09,0,0,0,0-.36Z" transform="translate(0 0)"/><path class="cls-2" d="M375.76,26.35a.88.88,0,0,1-.85.91h-.09a.86.86,0,0,1-.89-.83v-.08a.92.92,0,0,1,1-.82.93.93,0,0,1,.82.82ZM374,35.05V28.23h1.65v6.82Z" transform="translate(0 0)"/><path class="cls-2" d="M378.77,28.23l.64,3.1c.15.73.29,1.46.4,2.18h0c.13-.72.32-1.48.5-2.17l.83-3.11h1.32l.8,3c.19.79.37,1.52.5,2.25h0c.09-.72.24-1.46.41-2.24l.68-3h1.63l-2,6.82H383l-.77-2.79c-.19-.71-.35-1.43-.47-2.15h0a17.75,17.75,0,0,1-.49,2.16l-.81,2.78H379l-1.91-6.82Z" transform="translate(0 0)"/><path class="cls-2" d="M391.38,35.05l-.11-.74h0a2.25,2.25,0,0,1-1.84.88,2,2,0,0,1-2-2c0-1.73,1.52-2.56,3.74-2.56V30.5c0-.53-.21-1.2-1.28-1.2a3.33,3.33,0,0,0-1.66.47l-.33-1.08a4.63,4.63,0,0,1,2.3-.58c2.06,0,2.63,1.33,2.63,2.81v2.54a11,11,0,0,0,.1,1.62Zm-.23-3.37c-1,0-2.15.22-2.15,1.31a.88.88,0,0,0,.77,1h.14a1.23,1.23,0,0,0,1.2-.9,1.09,1.09,0,0,0,0-.36Z" transform="translate(0 0)"/><path class="cls-2" d="M394.81,30.22c0-.78,0-1.4-.06-2h1.45l.08,1h0a2.33,2.33,0,0,1,2-1.1c1.17,0,2.22.81,2.22,2.79V35h-1.66V31c0-.89-.29-1.62-1.15-1.62a1.29,1.29,0,0,0-1.19,1,1.83,1.83,0,0,0-.08.57v4.08h-1.65Z" transform="translate(0 0)"/><text class="cls-3" transform="translate(186.87 18.02)">台灣國際工具機展</text></g></svg>