<?xml version="1.0" encoding="utf-8"?>
<!-- Generator: Adobe Illustrator 22.0.1, SVG Export Plug-In . SVG Version: 6.00 Build 0)  -->
<svg version="1.1" id="圖層_1" xmlns="http://www.w3.org/2000/svg" xmlns:xlink="http://www.w3.org/1999/xlink" x="0px" y="0px"
	 viewBox="0 0 570 58" style="enable-background:new 0 0 570 58;" xml:space="preserve">
<style type="text/css">
	.st0{fill:#002169;}
	.st1{fill:#585757;}
	.st2{fill:#595757;}
</style>
<g>
	<g>
		<polygon class="st0" points="6.3,15.6 3.2,4.8 58,4.8 55,15.6 35.4,15.6 35.4,54.4 24.9,54.4 24.9,15.6 		"/>
		<polygon class="st0" points="109.6,4.8 102.2,4.8 86.9,38 71.5,4.8 64.1,4.8 49.9,54.4 61.5,54.4 69.3,25.4 83.7,54.4 87,54.4 
			90,54.4 104.6,24.9 112.2,54.4 123.8,54.4 		"/>
		<path class="st0" d="M214.6,25.4H187l-3.4-5l3.8-4.8h32.7l3-10.8h-38.8c0,0-12.2-0.3-12.2,14.2c0,0-0.5,14.8,11.2,14.8H211l3.4,5
			l-3.8,4.8h-33.7l-3,10.8h39.8c0,0,12.2,0.3,12.2-14.2C225.8,40.3,226.3,25.4,214.6,25.4z"/>
		<path class="st0" d="M165.8,4.8h-1.6h-46.7l3,10.9l18.6,0v38.8h10.5V15.6h16v0l2.4,0c1.7-8.2,5.3-10.8,5.3-10.8H165.8z"/>
	</g>
	<g>
		<g>
			<path class="st2" d="M266,26.1l-1.6,1.3c-0.4-0.6-0.8-1.3-1.3-1.8c-5.4,0.6-10.4,1-15,1.1l-0.4-1.8c2-0.6,4.2-2.9,6.5-6.6
				l2.1,0.4c-1.4,2.3-3.1,4.3-5,6c2.7-0.1,6.2-0.4,10.4-0.8c-0.9-1-1.9-1.9-3.2-2.9l1.6-1.2C262.7,21.9,264.6,24,266,26.1z
				 M264.2,36.8h-1.9v-0.9h-11.1v0.9h-1.9v-8.7h14.9V36.8z M262.3,34v-4.1h-11.1V34H262.3z"/>
			<path class="st2" d="M272.8,29.8c-0.7,2.3-1.7,4.5-3,6.8l-1.5-1c1.2-2.2,2.2-4.5,2.9-6.8L272.8,29.8z M272.7,26.4l-1.3,1.2
				c-0.7-0.8-1.7-1.7-3-2.7l1.3-1.3C270.9,24.6,271.9,25.5,272.7,26.4z M273,21.1l-1.3,1.2c-1-1.2-2-2.1-2.8-2.7l1.3-1.2
				C271.4,19.4,272.4,20.3,273,21.1z M276.4,22.8c-1.1,1.1-2.2,2-3.2,2.7l-1.2-1.2c1.2-0.8,2.2-1.7,3-2.5L276.4,22.8z M286.5,21.4
				h-4v3.1c0,0.6-0.2,1-0.5,1.2c-0.3,0.2-1.1,0.3-2.4,0.3l-0.6-1.6l1.4,0c0.2,0,0.4-0.1,0.4-0.3v-2.7h-1.5c-0.3,2.5-1.3,4.1-2.8,4.9
				l-1.4-1.1c1.4-0.7,2.2-2,2.3-3.8h-4.1v-1.6h5.5c-0.3-0.5-0.6-0.8-0.8-1l1.8-0.6c0.5,0.6,0.8,1.1,1.1,1.7h5.5V21.4z M286.3,32
				c-0.2,1.9-0.4,3.1-0.7,3.8c-0.3,0.6-0.8,1-1.6,1l-4.1,0l-0.6-1.5l4.2,0c0.2,0,0.4-0.1,0.5-0.3c0.2-0.2,0.3-0.7,0.4-1.5h-10.9
				l1-4.2h9v-1.2h-9.5v-1.4h11.3v4.1h-9.2l-0.3,1.2H286.3z M287.1,24.5l-1.2,1.1c-0.8-0.9-1.7-1.8-2.8-2.6l1.3-1.1
				C285.5,22.7,286.4,23.6,287.1,24.5z"/>
			<path class="st2" d="M307,36.7h-1.8v-1.3h-13.1v1.3h-1.8V18.9H307V36.7z M305.2,33.7V20.6h-13.1v13.1H305.2z M304.4,32.3h-11.5
				v-1.7h4.8v-3h-4.4V26h4.4v-2.3h-4.6v-1.6h11.1v1.6h-4.7V26h4.4v1.6h-4.4v3h4.9V32.3z M303.9,29.4l-1.1,1.1
				c-0.8-0.6-1.7-1.1-2.5-1.5l1-1.2C302.4,28.3,303.2,28.8,303.9,29.4z"/>
			<path class="st2" d="M315.6,25.2c1.2,1.4,1.8,2.9,1.8,4.4c0,2-0.9,3-2.7,3c-0.4,0-0.7,0-1-0.1l-0.5-1.8c0.4,0,0.8,0.1,1.3,0.1
				c0.2,0,0.4-0.1,0.6-0.2c0.2-0.1,0.3-0.5,0.3-1.2c0-1.4-0.6-2.7-1.8-4.1c0.7-1.4,1.2-2.9,1.7-4.6h-2.5v16.1H311V19h6.2v1.7
				C316.8,22.5,316.2,23.9,315.6,25.2z M321.2,27.9c-1,3-2.1,5.5-3.4,7.4l-1.5-1c1.3-2,2.3-4.3,3.1-7.1L321.2,27.9z M328.8,26.2h-5
				V35c0,0.6-0.1,1-0.4,1.3c-0.3,0.3-0.6,0.5-0.8,0.5c-0.3,0-1,0.1-2.2,0.1l-0.5-1.8c0.3,0,0.6,0,1,0c0.5,0,0.9,0,1-0.1
				c0.1-0.1,0.2-0.2,0.2-0.4v-8.4h-4.8v-1.8h11.6V26.2z M327.9,20.8h-9.8v-1.8h9.8V20.8z M328.9,34.5l-1.7,0.8
				c-0.4-2.3-1.1-4.7-2.3-7.4l1.6-0.7C327.8,30.3,328.5,32.8,328.9,34.5z"/>
			<path class="st2" d="M339.8,28.8l-1.3,1.3c-0.6-1.1-1.3-2.2-1.9-3v9.7h-1.9v-9.2c-0.8,1.7-1.6,3-2.5,4l-0.9-1.8
				c1.3-1.6,2.4-3.4,3.2-5.6h-3v-1.8h3.1v-3.9h1.9v3.9h3.1v1.8h-3.1v0.5C338,26.2,339.1,27.6,339.8,28.8z M350.2,31.7
				c0,0.7,0,1.4-0.1,2.2c-0.1,0.7-0.1,1.2-0.1,1.5c0,0.2-0.2,0.5-0.4,0.8c-0.2,0.3-0.5,0.4-0.9,0.5c-0.3,0.1-0.8,0.1-1.3,0.1
				c-0.9,0-1.5-0.2-1.8-0.5c-0.3-0.4-0.4-0.8-0.4-1.3v-14h-3V29c0,3.1-0.9,5.8-2.6,8l-1.3-1.5c1.3-1.7,2-4.2,2-7.4V19h6.7v15.5
				c0,0.3,0.2,0.4,0.6,0.4c0.2,0,0.3-0.1,0.4-0.2c0.1-0.1,0.2-0.6,0.2-1.3c0-0.8,0.1-1.6,0-2.4L350.2,31.7z"/>
			<path class="st2" d="M370.6,22.1H356v6.1c0,3.3-0.6,6.2-1.9,8.8l-1.6-1.2c1.1-2,1.6-4.5,1.6-7.5v-8h7.2c-0.2-0.5-0.5-1-0.8-1.5
				l2-0.5c0.4,0.8,0.7,1.5,0.9,2h7.2V22.1z M371.1,33.8l-1.2,1.5c-2.1-1.6-3.8-3.8-5.2-6.4v7.9h-1.9v-7.9c-1.2,2.4-3,4.5-5.2,6.5
				l-1.4-1.4c2.4-1.9,4.3-4.1,5.6-6.7h-4.8v-1.8h5.8v-2.6h1.9v2.6h5.7v1.8h-4.8C366.8,29.8,368.6,32,371.1,33.8z"/>
			<path class="st2" d="M391.8,30.4h-11.1v4.2c0.9-0.2,2.1-0.6,3.6-1.2v1.9c-1.5,0.6-3.2,1.1-5.4,1.6l-0.4-1.5
				c0.3-0.3,0.4-0.6,0.4-0.8v-4.2h-2.1c-0.2,2.7-0.8,4.8-1.7,6.5l-1.6-1.2c1-1.9,1.5-4.7,1.5-8.5v-8.4h15.8v4.8H377v1.9h3.5v-1.3
				h1.8v1.3h4v-1.3h1.8v1.3h3V27h-3v1.8h3.7V30.4z M380.4,28.8V27h-3.5c0,0.7,0,1.3,0,1.8H380.4z M388.9,21.9v-1.5h-12v1.5H388.9z
				 M386.2,28.8V27h-4v1.8H386.2z M392.1,35.4l-1,1.6c-3.7-1.2-6.2-3-7.7-5.5l1.7-0.7c0.5,0.8,1.1,1.5,2,2.1c0.9-0.5,1.6-1.1,2.4-2
				l1.7,0.9c-0.7,0.8-1.5,1.6-2.4,2.2C389.6,34.6,390.7,35,392.1,35.4z"/>
		</g>
		<g>
			<path class="st1" d="M247.1,47.3c0-1.2,0.3-2.2,1-2.8c0.5-0.5,1.2-0.8,1.9-0.8c0.9,0,1.6,0.3,2.1,0.8c0.5,0.5,0.8,1.2,0.8,1.9
				c0,1-0.3,1.8-0.9,2.5c-0.6,0.7-1.2,1.4-1.8,2c-0.3,0.4-0.6,0.7-1,1.1c-0.3,0.3-0.5,0.6-0.7,1h4.5v1.1h-6.2v-1
				c0.1-0.4,0.4-1,1-1.7c1-1.1,1.8-2,2.5-2.7c0.7-0.7,1-1.5,1-2.3c0-0.5-0.2-0.9-0.5-1.2c-0.2-0.2-0.5-0.4-0.9-0.4
				c-0.3,0-0.6,0.1-0.8,0.4c-0.4,0.4-0.7,1.1-0.7,2.1H247.1z"/>
			<path class="st1" d="M254.4,48.4c0-1.8,0.4-3.1,1.2-3.9c0.6-0.6,1.3-0.8,2.1-0.8s1.6,0.3,2.1,0.8c0.8,0.8,1.2,2.1,1.2,3.9v1.2
				c0,1.7-0.4,3-1.2,3.8c-0.6,0.6-1.3,0.8-2.1,0.8s-1.6-0.3-2.1-0.8c-0.8-0.8-1.2-2.1-1.2-3.8V48.4z M256.6,45.3
				c-0.5,0.5-0.8,1.5-0.8,3v1.4c0,1.4,0.3,2.4,0.8,3c0.3,0.3,0.7,0.5,1,0.5c0.4,0,0.8-0.2,1.1-0.5c0.5-0.5,0.8-1.5,0.8-3v-1.4
				c0-1.5-0.3-2.4-0.8-3c-0.3-0.3-0.7-0.5-1.1-0.5C257.3,44.8,256.9,45,256.6,45.3z"/>
			<path class="st1" d="M262.6,47.3c0-1.2,0.3-2.2,1-2.8c0.5-0.5,1.2-0.8,1.9-0.8c0.9,0,1.6,0.3,2.1,0.8c0.5,0.5,0.8,1.2,0.8,1.9
				c0,1-0.3,1.8-0.9,2.5c-0.6,0.7-1.2,1.4-1.8,2c-0.3,0.4-0.6,0.7-1,1.1c-0.3,0.3-0.5,0.6-0.7,1h4.5v1.1h-6.2v-1
				c0.1-0.4,0.4-1,1-1.7c1-1.1,1.8-2,2.5-2.7c0.7-0.7,1-1.5,1-2.3c0-0.5-0.2-0.9-0.5-1.2c-0.2-0.2-0.5-0.4-0.9-0.4
				c-0.3,0-0.6,0.1-0.8,0.4c-0.4,0.4-0.7,1.1-0.7,2.1H262.6z"/>
			<path class="st1" d="M269.9,48.4c0-1.8,0.4-3.1,1.2-3.9c0.6-0.6,1.3-0.8,2.1-0.8c0.8,0,1.6,0.3,2.1,0.8c0.8,0.8,1.2,2.1,1.2,3.9
				v1.2c0,1.7-0.4,3-1.2,3.8c-0.6,0.6-1.3,0.8-2.1,0.8c-0.8,0-1.6-0.3-2.1-0.8c-0.8-0.8-1.2-2.1-1.2-3.8V48.4z M272.1,45.3
				c-0.5,0.5-0.8,1.5-0.8,3v1.4c0,1.4,0.3,2.4,0.8,3c0.3,0.3,0.7,0.5,1,0.5c0.4,0,0.8-0.2,1.1-0.5c0.5-0.5,0.8-1.5,0.8-3v-1.4
				c0-1.5-0.3-2.4-0.8-3c-0.3-0.3-0.7-0.5-1.1-0.5C272.8,44.8,272.4,45,272.1,45.3z"/>
			<path class="st1" d="M278,52.8h1.4v1.3H278V52.8z"/>
			<path class="st1" d="M284.3,43.6h0.7v10.5h-1.4v-8h-1.8v-0.7h0.5c0.6,0,1-0.2,1.3-0.5C284.1,44.5,284.3,44.1,284.3,43.6z"/>
			<path class="st1" d="M292.1,43.6h0.7v10.5h-1.4v-8h-1.8v-0.7h0.5c0.6,0,1-0.2,1.3-0.5C291.8,44.5,292,44.1,292.1,43.6z"/>
			<path class="st1" d="M296.6,52.8h1.4v1.3h-1.4V52.8z"/>
			<path class="st1" d="M303,43.6h0.7v10.5h-1.4v-8h-1.8v-0.7h0.5c0.6,0,1-0.2,1.3-0.5C302.7,44.5,302.9,44.1,303,43.6z"/>
			<path class="st1" d="M307.2,48.4c0-1.8,0.4-3.1,1.2-3.9c0.6-0.6,1.3-0.8,2.1-0.8c0.8,0,1.6,0.3,2.1,0.8c0.8,0.8,1.2,2.1,1.2,3.9
				v1.2c0,1.7-0.4,3-1.2,3.8c-0.6,0.6-1.3,0.8-2.1,0.8c-0.8,0-1.6-0.3-2.1-0.8c-0.8-0.8-1.2-2.1-1.2-3.8V48.4z M309.4,45.3
				c-0.5,0.5-0.8,1.5-0.8,3v1.4c0,1.4,0.3,2.4,0.8,3c0.3,0.3,0.7,0.5,1,0.5c0.4,0,0.8-0.2,1.1-0.5c0.5-0.5,0.8-1.5,0.8-3v-1.4
				c0-1.5-0.3-2.4-0.8-3c-0.3-0.3-0.7-0.5-1.1-0.5C310.1,44.8,309.7,45,309.4,45.3z"/>
			<path class="st1" d="M314.8,48.4h6.9v1h-6.9V48.4z"/>
			<path class="st1" d="M326.2,43.6h0.7v10.5h-1.4v-8h-1.8v-0.7h0.5c0.6,0,1-0.2,1.3-0.5C326,44.5,326.2,44.1,326.2,43.6z"/>
			<path class="st1" d="M334.4,43.7h1.4v6.7h1.3v1.2h-1.3v2.7h-1.4v-2.7h-4.1v-1.2L334.4,43.7z M334.4,45.9l-2.7,4.4h2.7V45.9z"/>
			<path class="st1" d="M362.2,48.6l-1-1l-10.5,0.4c0,0.3-0.1,0.4-0.3,0.2l-0.3-1.6h2.6c1-1.6,1.9-3.2,2.7-4.8l1.3,0.5
				c0.2,0.2,0.2,0.3-0.2,0.4c-0.8,1.3-1.7,2.6-2.5,3.9l6.5-0.1c-0.9-0.8-1.7-1.5-2.4-2.1l0.9-0.8c1.6,1.1,3,2.4,4.4,3.8L362.2,48.6z
				 M359.8,55.4v-0.7h-6.5v0.8h-1.2v-6.1h8.9v5.9H359.8z M353.3,53.6h6.5v-3h-6.5V53.6z"/>
			<path class="st1" d="M371.5,42.1h1.1c0.3,0,0.3,0.2,0.1,0.4v2.4h5.3v6.7h-1.2v-0.4h-4.1v4.5h-1.2v-4.5h-3.9v0.8h-1.2v-7h5.1V42.1
				z M371.5,49.9V46h-3.9v3.9H371.5z M376.8,49.9V46h-4.1v3.9H376.8z"/>
			<path class="st1" d="M387.1,47.8v1.9h-1.9v-1.9H387.1z"/>
			<path class="st1" d="M405.8,48.6l-1-1l-10.5,0.4c0,0.3-0.1,0.4-0.3,0.2l-0.3-1.6h2.6c1-1.6,1.9-3.2,2.7-4.8l1.3,0.5
				c0.2,0.2,0.2,0.3-0.2,0.4c-0.8,1.3-1.7,2.6-2.5,3.9l6.5-0.1c-0.9-0.8-1.7-1.5-2.4-2.1l0.9-0.8c1.6,1.1,3,2.4,4.4,3.8L405.8,48.6z
				 M403.4,55.4v-0.7h-6.5v0.8h-1.2v-6.1h8.9v5.9H403.4z M396.9,53.6h6.5v-3h-6.5V53.6z"/>
			<path class="st1" d="M408.8,54.5c0.8-1.2,1.6-2.8,2.2-4.5l1,0.7c-0.6,1.8-1.2,3.3-1.8,4.5c0.1,0.2,0,0.3-0.2,0.3L408.8,54.5z
				 M410,45.9c0.8,0.4,1.5,0.8,2.1,1.5l-0.9,1.1c-0.5-0.6-1.2-1.1-2-1.5L410,45.9z M410.7,42.4c0.7,0.3,1.3,0.8,1.9,1.3l-0.9,1.2
				c-0.6-0.6-1.2-1-1.9-1.4L410.7,42.4z M412.1,46.4c0.9-0.5,1.7-1,2.2-1.7l0.8,0.8c0,0.2-0.1,0.3-0.2,0.2c-0.4,0.6-1.1,1.1-2.1,1.6
				L412.1,46.4z M420.3,54.2l0.3-1.1h-6.3l-0.2,1l-1.1-0.2c0.3-1,0.5-2.2,0.7-3.6h6.4v-0.8h-7.1v-1h1.1l-0.4-0.9
				c1.5-0.2,2.2-1,2.2-2.3v-1H413v-1h3.8v-1.6h1.1c0.4,0.1,0.4,0.2,0.1,0.5v1.1h4.4v1h-3.3v2.9c0,0.6-0.2,0.9-0.7,0.9h-0.9l-0.4-1
				h0.7c0.2,0,0.2-0.1,0.2-0.2v-2.6h-1.3v1.3c0,1.6-0.8,2.5-2.5,2.9h6.8v2.7h-6.5l-0.1,0.8h7.6l-0.7,2.5c-0.2,0.7-0.6,1-1.3,1h-1.9
				l-0.1-1.1h1.6C420,54.5,420.2,54.4,420.3,54.2z M420.5,45c0.9,0.6,1.5,1.3,1.9,1.9l-0.9,0.8c-0.5-0.7-1.1-1.4-1.9-2L420.5,45z"/>
		</g>
	</g>
</g>
</svg>
