<svg id="圖層_1" data-name="圖層 1" xmlns="http://www.w3.org/2000/svg" viewBox="0 0 171.15 38.18"><defs><style>.cls-1{fill:#002169;}</style></defs><title>logo-</title><g id="圖層_1-2" data-name="圖層 1-2"><polygon class="cls-1" points="2.33 8.36 0 0 42.12 0 39.78 8.36 24.73 8.36 24.73 38.18 16.64 38.18 16.64 8.32 2.33 8.36"/><polygon class="cls-1" points="81.78 0 76.12 0 64.31 25.53 52.5 0 46.84 0 35.92 38.18 44.84 38.18 50.83 15.85 61.87 38.18 64.45 38.18 66.74 38.18 77.97 15.46 83.78 38.18 92.7 38.18 81.78 0"/><path class="cls-1" d="M162.54,15.88H141.36L138.76,12l3-3.7h25.17l2.3-8.3H139.4S130-.21,130,10.89c0,0-.38,11.41,8.62,11.41H159.8l2.61,3.84-3,3.7h-25.9l-2.33,8.34h30.59s9.38.21,9.38-10.89C171.15,27.29,171.54,15.88,162.54,15.88Z" transform="translate(0 0)"/><path class="cls-1" d="M87.9,0l2.33,8.36h14.3V38.18h8.1V8.36h14.16C128.09,2,130.87,0,130.87,0Z" transform="translate(0 0)"/></g></svg>