<?xml version="1.0" encoding="utf-8"?>
<!-- Generator: Adobe Illustrator 24.3.0, SVG Export Plug-In . SVG Version: 6.00 Build 0)  -->
<svg version="1.1" id="圖層_1" xmlns="http://www.w3.org/2000/svg" xmlns:xlink="http://www.w3.org/1999/xlink" x="0px" y="0px"
	 viewBox="0 0 171 20" style="enable-background:new 0 0 171 20;" xml:space="preserve">
<style type="text/css">
	.st0{fill:#002169;}
</style>
<g>
	<polygon class="st0" points="6.8,4.9 5.7,1 25.2,1 24.1,4.9 17.1,4.9 17.1,18.6 13.4,18.6 13.4,4.8 	"/>
	<polygon class="st0" points="43.5,1 40.9,1 35.4,12.8 30,1 27.4,1 22.3,18.6 26.4,18.6 29.2,8.3 34.3,18.6 35.5,18.6 36.5,18.6 
		41.7,8.1 44.4,18.6 48.5,18.6 	"/>
	<path class="st0" d="M80.8,8.3H71l-1.2-1.8l1.4-1.7h11.6l1-3.8H70.1c0,0-4.3-0.1-4.3,5c0,0-0.2,5.3,4,5.3h9.8l1.2,1.8l-1.4,1.7h-12
		l-1.1,3.8h14.1c0,0,4.3,0.1,4.3-5C84.7,13.6,84.9,8.3,80.8,8.3z"/>
	<path class="st0" d="M63.4,1h-0.6H46.3l1.1,3.9H54v13.8h3.7V4.9h5.7l0,0h0.8c0.7-3,1.9-3.9,1.9-3.9H63.4z"/>
</g>
</svg>
