<?xml version="1.0" encoding="utf-8"?>
<!-- Generator: Adobe Illustrator 22.0.1, SVG Export Plug-In . SVG Version: 6.00 Build 0)  -->
<svg version="1.1" id="圖層_1" xmlns="http://www.w3.org/2000/svg" xmlns:xlink="http://www.w3.org/1999/xlink" x="0px" y="0px"
	 viewBox="0 0 570 58" style="enable-background:new 0 0 570 58;" xml:space="preserve">
<style type="text/css">
	.st0{fill:#002169;}
	.st1{fill:#585757;}
	.st2{fill:#595757;}
</style>
<g>
	<g>
		<g>
			<polygon class="st0" points="5.9,15.3 2.8,4.3 58.1,4.3 55.1,15.3 35.3,15.3 35.3,54.5 24.7,54.5 24.7,15.2 			"/>
			<polygon class="st0" points="110.2,4.3 102.8,4.3 87.3,37.8 71.8,4.3 64.3,4.3 50,54.5 61.7,54.5 69.6,25.1 84.1,54.5 87.5,54.5 
				90.5,54.5 105.2,24.6 112.8,54.5 124.6,54.5 			"/>
			<path class="st0" d="M216.3,25.2h-27.8l-3.4-5l3.9-4.9H222l3.1-11h-39.2c0,0-12.3-0.3-12.3,14.3c0,0-0.5,15,11.3,15h27.8l3.4,5
				l-3.9,4.9h-34.1l-3.1,11h40.2c0,0,12.3,0.3,12.3-14.3C227.6,40.2,228.1,25.2,216.3,25.2z"/>
			<path class="st0" d="M118.3,4.3l3.1,11l18.8,0v39.2h10.6V15.3l18.6,0c1.7-8.3,5.4-11,5.4-11H118.3z"/>
		</g>
	</g>
	<g>
		<path class="st1" d="M253.6,21.7h-3.1v-1.9h8.5v1.9h-3.2v10.5h-2.2V21.7z"/>
		<path class="st1" d="M264.3,32.2l-0.1-1h-0.1c-0.5,0.7-1.4,1.2-2.4,1.2c-1.7,0-2.7-1.2-2.7-2.7c0-2.3,2-3.4,4.9-3.4v-0.2
			c0-0.7-0.3-1.6-1.7-1.6c-0.8,0-1.6,0.3-2.2,0.6l-0.4-1.4c0.6-0.4,1.7-0.7,3-0.7c2.7,0,3.5,1.7,3.5,3.7v3.3c0,0.8,0,1.6,0.1,2.1
			H264.3z M264,27.8c-1.3,0-2.8,0.3-2.8,1.7c0,0.9,0.6,1.3,1.2,1.3c0.8,0,1.4-0.5,1.6-1.2c0-0.2,0.1-0.3,0.1-0.5V27.8z"/>
		<path class="st1" d="M271,20.8c0,0.7-0.5,1.2-1.2,1.2c-0.7,0-1.2-0.5-1.2-1.2c0-0.7,0.5-1.2,1.2-1.2C270.6,19.6,271,20.1,271,20.8
			z M268.8,32.2v-9h2.2v9H268.8z"/>
		<path class="st1" d="M275,23.3l0.8,4.1c0.2,1,0.4,1.9,0.5,2.9h0c0.2-0.9,0.4-1.9,0.7-2.8l1.1-4.1h1.7l1,4c0.3,1,0.5,2,0.7,2.9h0
			c0.1-0.9,0.3-1.9,0.5-2.9l0.9-4h2.1l-2.7,9h-2l-1-3.7c-0.3-0.9-0.4-1.8-0.6-2.8h0c-0.2,1.1-0.4,2-0.6,2.8l-1.1,3.6h-2l-2.5-9H275z
			"/>
		<path class="st1" d="M291.6,32.2l-0.1-1h-0.1c-0.5,0.7-1.4,1.2-2.4,1.2c-1.7,0-2.7-1.2-2.7-2.7c0-2.3,2-3.4,4.9-3.4v-0.2
			c0-0.7-0.3-1.6-1.7-1.6c-0.8,0-1.6,0.3-2.2,0.6l-0.4-1.4c0.6-0.4,1.7-0.7,3-0.7c2.7,0,3.5,1.7,3.5,3.7v3.3c0,0.8,0,1.6,0.1,2.1
			H291.6z M291.3,27.8c-1.3,0-2.8,0.3-2.8,1.7c0,0.9,0.6,1.3,1.2,1.3c0.8,0,1.4-0.5,1.6-1.2c0-0.2,0.1-0.3,0.1-0.5V27.8z"/>
		<path class="st1" d="M296.1,25.9c0-1,0-1.8-0.1-2.6h1.9l0.1,1.3h0c0.4-0.7,1.3-1.4,2.6-1.4c1.5,0,2.9,1.1,2.9,3.7v5.5h-2.2V27
			c0-1.2-0.4-2.1-1.5-2.1c-0.8,0-1.3,0.6-1.6,1.3c-0.1,0.2-0.1,0.5-0.1,0.7v5.4h-2.2V25.9z"/>
		<path class="st1" d="M312.5,19.8v12.4h-2.2V19.8H312.5z"/>
		<path class="st1" d="M315.5,25.9c0-1,0-1.8-0.1-2.6h1.9l0.1,1.3h0c0.4-0.7,1.3-1.4,2.6-1.4c1.5,0,2.9,1.1,2.9,3.7v5.5h-2.2V27
			c0-1.2-0.4-2.1-1.5-2.1c-0.8,0-1.3,0.6-1.6,1.3c-0.1,0.2-0.1,0.5-0.1,0.7v5.4h-2.2V25.9z"/>
		<path class="st1" d="M328.1,20.7v2.5h2v1.6h-2V29c0,1.1,0.3,1.6,1.1,1.6c0.3,0,0.6,0,0.8-0.1l0,1.7c-0.3,0.1-0.9,0.2-1.5,0.2
			c-0.8,0-1.4-0.2-1.8-0.7c-0.5-0.5-0.7-1.3-0.7-2.5v-4.3h-1.2v-1.6h1.2v-2L328.1,20.7z"/>
		<path class="st1" d="M333.6,28.3c0,1.7,1.2,2.4,2.5,2.4c0.9,0,1.6-0.2,2.2-0.4l0.3,1.5c-0.7,0.3-1.7,0.5-2.9,0.5
			c-2.7,0-4.3-1.8-4.3-4.5c0-2.6,1.5-4.8,4.1-4.8c2.6,0,3.6,2.2,3.6,4.3c0,0.4,0,0.8-0.1,1H333.6z M337.1,26.8c0-1-0.4-2.2-1.7-2.2
			c-1.2,0-1.8,1.3-1.8,2.2H337.1z"/>
		<path class="st1" d="M341.3,26c0-1.1,0-2-0.1-2.8h1.9l0.1,1.6h0.1c0.4-1.2,1.4-1.8,2.3-1.8c0.2,0,0.3,0,0.5,0v2.1
			c-0.2,0-0.3-0.1-0.6-0.1c-1,0-1.7,0.7-1.9,1.7c0,0.2-0.1,0.5-0.1,0.7v4.7h-2.2V26z"/>
		<path class="st1" d="M347.8,25.9c0-1,0-1.8-0.1-2.6h1.9l0.1,1.3h0c0.4-0.7,1.3-1.4,2.6-1.4c1.5,0,2.9,1.1,2.9,3.7v5.5h-2.2V27
			c0-1.2-0.4-2.1-1.5-2.1c-0.8,0-1.3,0.6-1.6,1.3c-0.1,0.2-0.1,0.5-0.1,0.7v5.4h-2.2V25.9z"/>
		<path class="st1" d="M362.7,32.2l-0.1-1h-0.1c-0.5,0.7-1.4,1.2-2.4,1.2c-1.7,0-2.7-1.2-2.7-2.7c0-2.3,2-3.4,4.9-3.4v-0.2
			c0-0.7-0.3-1.6-1.7-1.6c-0.8,0-1.6,0.3-2.2,0.6l-0.4-1.4c0.6-0.4,1.7-0.7,3-0.7c2.7,0,3.5,1.7,3.5,3.7v3.3c0,0.8,0,1.6,0.1,2.1
			H362.7z M362.4,27.8c-1.3,0-2.8,0.3-2.8,1.7c0,0.9,0.6,1.3,1.2,1.3c0.8,0,1.4-0.5,1.6-1.2c0-0.2,0.1-0.3,0.1-0.5V27.8z"/>
		<path class="st1" d="M369.6,20.7v2.5h2v1.6h-2V29c0,1.1,0.3,1.6,1.1,1.6c0.3,0,0.6,0,0.8-0.1l0,1.7c-0.3,0.1-0.9,0.2-1.5,0.2
			c-0.8,0-1.4-0.2-1.8-0.7c-0.5-0.5-0.7-1.3-0.7-2.5v-4.3h-1.2v-1.6h1.2v-2L369.6,20.7z"/>
		<path class="st1" d="M375.9,20.8c0,0.7-0.5,1.2-1.2,1.2c-0.7,0-1.2-0.5-1.2-1.2c0-0.7,0.5-1.2,1.2-1.2
			C375.4,19.6,375.9,20.1,375.9,20.8z M373.6,32.2v-9h2.2v9H373.6z"/>
		<path class="st1" d="M386.3,27.7c0,3.4-2.2,4.7-4.2,4.7c-2.3,0-4.1-1.7-4.1-4.6c0-3,1.8-4.7,4.2-4.7
			C384.7,23.1,386.3,24.9,386.3,27.7z M380.2,27.7c0,1.7,0.7,3.1,1.9,3.1c1.2,0,1.9-1.4,1.9-3.1c0-1.4-0.5-3-1.9-3
			C380.8,24.7,380.2,26.3,380.2,27.7z"/>
		<path class="st1" d="M388.5,25.9c0-1,0-1.8-0.1-2.6h1.9l0.1,1.3h0c0.4-0.7,1.3-1.4,2.6-1.4c1.5,0,2.9,1.1,2.9,3.7v5.5h-2.2V27
			c0-1.2-0.4-2.1-1.5-2.1c-0.8,0-1.3,0.6-1.6,1.3c-0.1,0.2-0.1,0.5-0.1,0.7v5.4h-2.2V25.9z"/>
		<path class="st1" d="M403.4,32.2l-0.1-1h-0.1c-0.5,0.7-1.4,1.2-2.4,1.2c-1.7,0-2.7-1.2-2.7-2.7c0-2.3,2-3.4,4.9-3.4v-0.2
			c0-0.7-0.3-1.6-1.7-1.6c-0.8,0-1.6,0.3-2.2,0.6l-0.4-1.4c0.6-0.4,1.7-0.7,3-0.7c2.7,0,3.5,1.7,3.5,3.7v3.3c0,0.8,0,1.6,0.1,2.1
			H403.4z M403.1,27.8c-1.3,0-2.8,0.3-2.8,1.7c0,0.9,0.6,1.3,1.2,1.3c0.8,0,1.4-0.5,1.6-1.2c0-0.2,0.1-0.3,0.1-0.5V27.8z"/>
		<path class="st1" d="M407.9,19.3h2.2v13h-2.2V19.3z"/>
		<path class="st1" d="M426.5,27.2c-0.1-1.5-0.2-3.4-0.1-5h-0.1c-0.4,1.5-0.8,3.1-1.3,4.5l-1.7,5.3h-1.6l-1.5-5.2
			c-0.4-1.5-0.8-3.1-1.1-4.6h0c0,1.6-0.1,3.4-0.2,5.1l-0.3,4.9h-2l0.8-12.4h2.7l1.5,5c0.4,1.5,0.8,2.9,1.1,4.3h0.1
			c0.3-1.4,0.7-2.8,1.1-4.3l1.6-5h2.7l0.7,12.4h-2.1L426.5,27.2z"/>
		<path class="st1" d="M436.1,32.2l-0.1-1h-0.1c-0.5,0.7-1.4,1.2-2.4,1.2c-1.7,0-2.7-1.2-2.7-2.7c0-2.3,2-3.4,4.9-3.4v-0.2
			c0-0.7-0.3-1.6-1.7-1.6c-0.8,0-1.6,0.3-2.2,0.6l-0.4-1.4c0.6-0.4,1.7-0.7,3-0.7c2.7,0,3.5,1.7,3.5,3.7v3.3c0,0.8,0,1.6,0.1,2.1
			H436.1z M435.8,27.8c-1.3,0-2.8,0.3-2.8,1.7c0,0.9,0.6,1.3,1.2,1.3c0.8,0,1.4-0.5,1.6-1.2c0-0.2,0.1-0.3,0.1-0.5V27.8z"/>
		<path class="st1" d="M446.6,32c-0.4,0.2-1.2,0.4-2.2,0.4c-2.6,0-4.3-1.7-4.3-4.6c0-2.7,1.7-4.7,4.6-4.7c0.7,0,1.5,0.2,1.9,0.4
			l-0.4,1.7c-0.3-0.1-0.8-0.3-1.5-0.3c-1.6,0-2.5,1.3-2.5,2.9c0,1.8,1.1,2.9,2.5,2.9c0.7,0,1.1-0.1,1.5-0.3L446.6,32z"/>
		<path class="st1" d="M448.6,19.3h2.2v5.1h0c0.3-0.4,0.6-0.7,1-0.9c0.4-0.2,0.9-0.4,1.4-0.4c1.5,0,2.9,1.1,2.9,3.8v5.4h-2.2V27
			c0-1.2-0.4-2.2-1.5-2.2c-0.8,0-1.3,0.5-1.6,1.2c-0.1,0.2-0.1,0.4-0.1,0.7v5.5h-2.2V19.3z"/>
		<path class="st1" d="M461.1,20.8c0,0.7-0.5,1.2-1.2,1.2c-0.7,0-1.2-0.5-1.2-1.2c0-0.7,0.5-1.2,1.2-1.2
			C460.6,19.6,461.1,20.1,461.1,20.8z M458.8,32.2v-9h2.2v9H458.8z"/>
		<path class="st1" d="M463.7,25.9c0-1,0-1.8-0.1-2.6h1.9l0.1,1.3h0c0.4-0.7,1.3-1.4,2.6-1.4c1.5,0,2.9,1.1,2.9,3.7v5.5H469V27
			c0-1.2-0.4-2.1-1.5-2.1c-0.8,0-1.3,0.6-1.6,1.3c-0.1,0.2-0.1,0.5-0.1,0.7v5.4h-2.2V25.9z"/>
		<path class="st1" d="M475.5,28.3c0,1.7,1.2,2.4,2.5,2.4c0.9,0,1.6-0.2,2.2-0.4l0.3,1.5c-0.7,0.3-1.7,0.5-2.9,0.5
			c-2.7,0-4.3-1.8-4.3-4.5c0-2.6,1.5-4.8,4.1-4.8c2.6,0,3.6,2.2,3.6,4.3c0,0.4,0,0.8-0.1,1H475.5z M478.9,26.8c0-1-0.4-2.2-1.7-2.2
			c-1.2,0-1.8,1.3-1.8,2.2H478.9z"/>
		<path class="st1" d="M488.7,21.7h-3.1v-1.9h8.5v1.9h-3.2v10.5h-2.2V21.7z"/>
		<path class="st1" d="M502.3,27.7c0,3.4-2.2,4.7-4.2,4.7c-2.3,0-4.1-1.7-4.1-4.6c0-3,1.8-4.7,4.2-4.7
			C500.7,23.1,502.3,24.9,502.3,27.7z M496.2,27.7c0,1.7,0.7,3.1,1.9,3.1c1.2,0,1.9-1.4,1.9-3.1c0-1.4-0.5-3-1.9-3
			C496.7,24.7,496.2,26.3,496.2,27.7z"/>
		<path class="st1" d="M512.3,27.7c0,3.4-2.2,4.7-4.2,4.7c-2.3,0-4.1-1.7-4.1-4.6c0-3,1.8-4.7,4.2-4.7
			C510.7,23.1,512.3,24.9,512.3,27.7z M506.2,27.7c0,1.7,0.7,3.1,1.9,3.1c1.2,0,1.9-1.4,1.9-3.1c0-1.4-0.5-3-1.9-3
			C506.8,24.7,506.2,26.3,506.2,27.7z"/>
		<path class="st1" d="M514.5,19.3h2.2v13h-2.2V19.3z"/>
		<path class="st1" d="M523.4,29.9c0.7,0.4,1.7,0.7,2.7,0.7c1.4,0,2.1-0.7,2.1-1.7c0-1-0.6-1.5-2-2.1c-1.8-0.8-3.1-1.9-3.1-3.6
			c0-2,1.6-3.5,4.2-3.5c1.2,0,2.1,0.3,2.6,0.6l-0.5,1.8c-0.4-0.2-1.2-0.5-2.2-0.5c-1.3,0-1.9,0.8-1.9,1.5c0,1,0.7,1.4,2.2,2.1
			c2,0.9,2.9,2,2.9,3.6c0,2.1-1.5,3.7-4.4,3.7c-1.2,0-2.4-0.3-3-0.7L523.4,29.9z"/>
		<path class="st1" d="M532.7,19.3h2.2v5.1h0c0.3-0.4,0.6-0.7,1-0.9c0.4-0.2,0.9-0.4,1.4-0.4c1.5,0,2.9,1.1,2.9,3.8v5.4H538V27
			c0-1.2-0.4-2.2-1.5-2.2c-0.8,0-1.3,0.5-1.6,1.2c-0.1,0.2-0.1,0.4-0.1,0.7v5.5h-2.2V19.3z"/>
		<path class="st1" d="M550.6,27.7c0,3.4-2.2,4.7-4.2,4.7c-2.3,0-4.1-1.7-4.1-4.6c0-3,1.8-4.7,4.2-4.7
			C549,23.1,550.6,24.9,550.6,27.7z M544.6,27.7c0,1.7,0.7,3.1,1.9,3.1c1.2,0,1.9-1.4,1.9-3.1c0-1.4-0.5-3-1.9-3
			C545.1,24.7,544.6,26.3,544.6,27.7z"/>
		<path class="st1" d="M554,23.3l0.8,4.1c0.2,1,0.4,1.9,0.5,2.9h0c0.2-0.9,0.4-1.9,0.7-2.8l1.1-4.1h1.7l1,4c0.3,1,0.5,2,0.7,2.9h0
			c0.1-0.9,0.3-1.9,0.5-2.9l0.9-4h2.1l-2.7,9h-2l-1-3.7c-0.2-0.9-0.4-1.8-0.6-2.8h0c-0.2,1.1-0.4,2-0.6,2.8l-1.1,3.6h-2l-2.5-9H554z
			"/>
		<path class="st1" d="M251.5,54.3V41.9h2.4l2.9,5.3c0.7,1.3,1.4,2.8,1.9,4.1l0,0c-0.1-1.6-0.2-3.3-0.2-5.3v-4.1h2v12.4h-2.2
			l-2.9-5.4c-0.7-1.3-1.4-2.8-2-4.2l-0.1,0c0.1,1.6,0.1,3.2,0.1,5.4v4.1H251.5z"/>
		<path class="st1" d="M271,49.7c0,3.4-2.2,4.7-4.2,4.7c-2.3,0-4.1-1.7-4.1-4.6c0-3,1.8-4.7,4.2-4.7C269.4,45.1,271,47,271,49.7z
			 M264.9,49.8c0,1.7,0.7,3.1,1.9,3.1c1.2,0,1.9-1.4,1.9-3.1c0-1.4-0.5-3-1.9-3C265.4,46.7,264.9,48.4,264.9,49.8z"/>
		<path class="st1" d="M274.4,45.3l1.3,4.5c0.2,0.8,0.4,1.5,0.5,2.3h0.1c0.1-0.8,0.3-1.5,0.5-2.3l1.3-4.5h2.2l-3.1,9h-2.1l-3-9
			H274.4z"/>
		<path class="st1" d="M281.1,53c0-0.8,0.6-1.4,1.3-1.4c0.8,0,1.3,0.6,1.3,1.4c0,0.8-0.5,1.4-1.3,1.4
			C281.7,54.5,281.1,53.9,281.1,53z"/>
		<path class="st1" d="M292.9,44.3L292.9,44.3l-2.2,1.1l-0.4-1.7l2.8-1.4h1.8v12h-2.1V44.3z"/>
		<path class="st1" d="M307.1,48.2c0,4-1.5,6.2-4.1,6.2c-2.6,0-3.9-2.5-3.9-6.1c0-3.7,1.5-6.2,4.1-6.2
			C305.9,42.1,307.1,44.8,307.1,48.2z M301.3,48.3c0,2.9,0.7,4.4,1.8,4.4c1.2,0,1.8-1.6,1.8-4.5c0-2.8-0.6-4.4-1.8-4.4
			C302,43.9,301.2,45.4,301.3,48.3z"/>
		<path class="st1" d="M313.1,48.6v1.5h-4.4v-1.5H313.1z"/>
		<path class="st1" d="M318.2,44.3L318.2,44.3l-2.2,1.1l-0.4-1.7l2.8-1.4h1.8v12h-2.1V44.3z"/>
		<path class="st1" d="M329.1,54.3v-3h-5v-1.4l4.6-7.5h2.4v7.2h1.4v1.7h-1.4v3H329.1z M329.1,49.6v-3.1c0-0.7,0-1.4,0.1-2.1l-0.1,0
			c-0.4,0.8-0.7,1.4-1,2l-2,3.2l0,0H329.1z"/>
		<path class="st1" d="M333.5,56.5c0.5-1.4,1-3.3,1.2-4.8l2.3-0.2c-0.5,1.7-1.3,3.7-2,4.8L333.5,56.5z"/>
		<path class="st1" d="M342.7,54.3v-1.4l1.3-1.4c2.4-2.4,3.8-4,3.8-5.7c0-1.1-0.6-2-2-2c-1,0-1.8,0.5-2.3,0.9l-0.6-1.6
			c0.7-0.6,1.9-1.1,3.3-1.1c2.6,0,3.7,1.7,3.7,3.5c0,2.1-1.5,3.9-3.4,5.8l-1,0.9v0h4.6v1.8H342.7z"/>
		<path class="st1" d="M360.2,48.2c0,4-1.5,6.2-4.1,6.2c-2.6,0-3.9-2.5-3.9-6.1c0-3.7,1.5-6.2,4.1-6.2
			C359,42.1,360.2,44.8,360.2,48.2z M354.4,48.3c0,2.9,0.7,4.4,1.8,4.4c1.2,0,1.8-1.6,1.8-4.5c0-2.8-0.6-4.4-1.8-4.4
			C355.1,43.9,354.4,45.4,354.4,48.3z"/>
		<path class="st1" d="M362,54.3v-1.4l1.3-1.4c2.4-2.4,3.8-4,3.8-5.7c0-1.1-0.6-2-2-2c-1,0-1.8,0.5-2.3,0.9l-0.6-1.6
			c0.7-0.6,1.9-1.1,3.3-1.1c2.6,0,3.7,1.7,3.7,3.5c0,2.1-1.5,3.9-3.4,5.8l-1,0.9v0h4.6v1.8H362z"/>
		<path class="st1" d="M379.4,48.2c0,4-1.5,6.2-4.1,6.2c-2.6,0-3.9-2.5-3.9-6.1c0-3.7,1.5-6.2,4.1-6.2
			C378.3,42.1,379.4,44.8,379.4,48.2z M373.6,48.3c0,2.9,0.7,4.4,1.8,4.4c1.2,0,1.8-1.6,1.8-4.5c0-2.8-0.6-4.4-1.8-4.4
			C374.3,43.9,373.6,45.4,373.6,48.3z"/>
		<path class="st1" d="M388.9,39.2v18.4h-1.6V39.2H388.9z"/>
		<path class="st1" d="M400.1,43.8H397v-1.9h8.5v1.9h-3.2v10.5h-2.2V43.8z"/>
		<path class="st1" d="M410.8,54.3l-0.1-1h-0.1c-0.5,0.7-1.4,1.2-2.4,1.2c-1.7,0-2.7-1.2-2.7-2.7c0-2.3,2-3.4,4.9-3.4v-0.2
			c0-0.7-0.3-1.6-1.7-1.6c-0.8,0-1.6,0.3-2.2,0.6l-0.4-1.4c0.6-0.4,1.7-0.7,3-0.7c2.7,0,3.5,1.7,3.5,3.7v3.3c0,0.8,0,1.6,0.1,2.1
			H410.8z M410.5,49.9c-1.3,0-2.8,0.3-2.8,1.7c0,0.9,0.6,1.3,1.2,1.3c0.8,0,1.4-0.5,1.6-1.2c0-0.2,0.1-0.3,0.1-0.5V49.9z"/>
		<path class="st1" d="M417.6,42.9c0,0.7-0.5,1.2-1.2,1.2c-0.7,0-1.2-0.5-1.2-1.2c0-0.7,0.5-1.2,1.2-1.2
			C417.1,41.7,417.6,42.2,417.6,42.9z M415.3,54.3v-9h2.2v9H415.3z"/>
		<path class="st1" d="M426.2,54c-0.4,0.2-1.2,0.4-2.2,0.4c-2.6,0-4.3-1.7-4.3-4.6c0-2.7,1.7-4.7,4.6-4.7c0.7,0,1.5,0.2,1.9,0.4
			l-0.4,1.7c-0.3-0.1-0.8-0.3-1.5-0.3c-1.6,0-2.5,1.3-2.5,2.9c0,1.8,1.1,2.9,2.5,2.9c0.7,0,1.1-0.1,1.5-0.3L426.2,54z"/>
		<path class="st1" d="M428.2,41.3h2.2v5.1h0c0.3-0.4,0.6-0.7,1-0.9c0.4-0.2,0.9-0.4,1.4-0.4c1.5,0,2.9,1.1,2.9,3.8v5.4h-2.2v-5.2
			c0-1.2-0.4-2.2-1.5-2.2c-0.8,0-1.3,0.5-1.6,1.2c-0.1,0.2-0.1,0.4-0.1,0.7v5.5h-2.2V41.3z"/>
		<path class="st1" d="M445.8,51.6c0,1,0,1.9,0.1,2.7H444l-0.1-1.2h0c-0.4,0.6-1.2,1.4-2.6,1.4c-1.6,0-2.9-1.1-2.9-3.8v-5.3h2.2v5
			c0,1.4,0.4,2.4,1.5,2.4c0.8,0,1.3-0.6,1.5-1.1c0.1-0.2,0.1-0.5,0.1-0.7v-5.5h2.2V51.6z"/>
		<path class="st1" d="M448.5,47.9c0-1,0-1.8-0.1-2.6h1.9l0.1,1.3h0c0.4-0.7,1.3-1.4,2.6-1.4c1.5,0,2.9,1.1,2.9,3.7v5.5h-2.2V49
			c0-1.2-0.4-2.1-1.5-2.1c-0.8,0-1.3,0.6-1.6,1.3c-0.1,0.2-0.1,0.5-0.1,0.7v5.4h-2.2V47.9z"/>
		<path class="st1" d="M466.3,45.3c0,0.6-0.1,1.4-0.1,2.6V53c0,2-0.4,3.2-1.2,4c-0.8,0.8-2,1.1-3.2,1.1c-1,0-2.1-0.2-2.8-0.6
			l0.5-1.7c0.5,0.3,1.4,0.6,2.3,0.6c1.4,0,2.3-0.8,2.3-2.6V53h0c-0.4,0.7-1.3,1.2-2.3,1.2c-2.1,0-3.5-1.9-3.5-4.4
			c0-3,1.8-4.7,3.7-4.7c1.2,0,1.9,0.6,2.3,1.3h0l0.1-1.1H466.3z M464.1,48.8c0-0.2,0-0.4-0.1-0.6c-0.2-0.7-0.7-1.3-1.6-1.3
			c-1.2,0-2,1.1-2,2.9c0,1.6,0.7,2.8,1.9,2.8c0.7,0,1.3-0.4,1.6-1.2c0.1-0.2,0.1-0.5,0.1-0.8V48.8z"/>
		<path class="st1" d="M467.7,56.5c0.5-1.4,1-3.3,1.2-4.8l2.3-0.2c-0.5,1.7-1.3,3.7-2,4.8L467.7,56.5z"/>
		<path class="st1" d="M478.9,43.8h-3.1v-1.9h8.5v1.9h-3.2v10.5h-2.2V43.8z"/>
		<path class="st1" d="M489.6,54.3l-0.1-1h-0.1c-0.5,0.7-1.4,1.2-2.4,1.2c-1.7,0-2.7-1.2-2.7-2.7c0-2.3,2-3.4,4.9-3.4v-0.2
			c0-0.7-0.3-1.6-1.7-1.6c-0.8,0-1.6,0.3-2.2,0.6l-0.4-1.4c0.6-0.4,1.7-0.7,3-0.7c2.7,0,3.5,1.7,3.5,3.7v3.3c0,0.8,0,1.6,0.1,2.1
			H489.6z M489.3,49.9c-1.3,0-2.8,0.3-2.8,1.7c0,0.9,0.6,1.3,1.2,1.3c0.8,0,1.4-0.5,1.6-1.2c0-0.2,0.1-0.3,0.1-0.5V49.9z"/>
		<path class="st1" d="M496.4,42.9c0,0.7-0.5,1.2-1.2,1.2c-0.7,0-1.2-0.5-1.2-1.2c0-0.7,0.5-1.2,1.2-1.2
			C495.9,41.7,496.4,42.2,496.4,42.9z M494.1,54.3v-9h2.2v9H494.1z"/>
		<path class="st1" d="M500.3,45.3l0.8,4.1c0.2,1,0.4,1.9,0.5,2.9h0c0.2-0.9,0.4-1.9,0.7-2.8l1.1-4.1h1.7l1,4c0.3,1,0.5,2,0.7,2.9h0
			c0.1-0.9,0.3-1.9,0.5-2.9l0.9-4h2.1l-2.7,9h-2l-1-3.7c-0.2-0.9-0.4-1.8-0.6-2.8h0c-0.2,1.1-0.4,2-0.6,2.8l-1.1,3.6h-2l-2.5-9
			H500.3z"/>
		<path class="st1" d="M516.9,54.3l-0.1-1h-0.1c-0.5,0.7-1.4,1.2-2.4,1.2c-1.7,0-2.7-1.2-2.7-2.7c0-2.3,2-3.4,4.9-3.4v-0.2
			c0-0.7-0.3-1.6-1.7-1.6c-0.8,0-1.6,0.3-2.2,0.6l-0.4-1.4c0.6-0.4,1.7-0.7,3-0.7c2.7,0,3.5,1.7,3.5,3.7v3.3c0,0.8,0,1.6,0.1,2.1
			H516.9z M516.6,49.9c-1.3,0-2.8,0.3-2.8,1.7c0,0.9,0.6,1.3,1.2,1.3c0.8,0,1.4-0.5,1.6-1.2c0-0.2,0.1-0.3,0.1-0.5V49.9z"/>
		<path class="st1" d="M521.4,47.9c0-1,0-1.8-0.1-2.6h1.9l0.1,1.3h0c0.4-0.7,1.3-1.4,2.6-1.4c1.5,0,2.9,1.1,2.9,3.7v5.5h-2.2V49
			c0-1.2-0.4-2.1-1.5-2.1c-0.8,0-1.3,0.6-1.6,1.3c-0.1,0.2-0.1,0.5-0.1,0.7v5.4h-2.2V47.9z"/>
	</g>
</g>
</svg>
