<svg xmlns="http://www.w3.org/2000/svg" viewBox="0 0 427.46 40.94"><defs><style>.cls-1{fill:#002169;}.cls-2{fill:#595857;}</style></defs><title>logo</title><g id="圖層_2" data-name="圖層 2"><g id="圖層_1-2" data-name="圖層 1"><polygon class="cls-1" points="2.33 8.36 0 0 42.12 0 39.78 8.36 24.73 8.36 24.73 38.18 16.64 38.18 16.64 8.32 2.33 8.36"/><polygon class="cls-1" points="81.78 0 76.12 0 64.31 25.53 52.5 0 46.84 0 35.92 38.18 44.84 38.18 50.83 15.85 61.87 38.18 64.45 38.18 66.74 38.18 77.97 15.46 83.78 38.18 92.7 38.18 81.78 0"/><path class="cls-1" d="M162.54,15.88H141.36L138.76,12l3-3.7h25.17L169.23,0H139.4S130-.21,130,10.89c0,0-.38,11.41,8.62,11.41H159.8l2.61,3.84-3,3.7H133.51l-2.33,8.34h30.59s9.38.21,9.38-10.89C171.15,27.29,171.54,15.88,162.54,15.88Z"/><path class="cls-1" d="M87.9,0l2.33,8.36,14.3,0V38.18h8.1V8.36l14.16,0C128.09,2,130.87,0,130.87,0Z"/><path class="cls-2" d="M190.92,13.23h-2.4V11.81H195v1.42h-2.42v8h-1.65Z"/><path class="cls-2" d="M199.05,21.25l-.11-.74h0a2.23,2.23,0,0,1-1.84.88,2,2,0,0,1-2-2c0-1.73,1.52-2.56,3.74-2.56v-.13c0-.53-.21-1.2-1.28-1.19a3.29,3.29,0,0,0-1.66.46l-.33-1.08a4.57,4.57,0,0,1,2.3-.57c2.06,0,2.63,1.32,2.63,2.8v2.54a11,11,0,0,0,.1,1.62Zm-.23-3.37c-1,0-2.15.22-2.15,1.31a.89.89,0,0,0,.91,1,1.24,1.24,0,0,0,1.2-.9,1.42,1.42,0,0,0,0-.36Z"/><path class="cls-2" d="M204.22,12.55a.88.88,0,0,1-.94.91.87.87,0,0,1-.89-.91.88.88,0,0,1,.91-.91A.87.87,0,0,1,204.22,12.55Zm-1.74,8.7V14.43h1.66v6.82Z"/><path class="cls-2" d="M207.23,14.43l.64,3.1c.15.73.29,1.46.4,2.18h0c.13-.72.32-1.48.5-2.17l.83-3.11H211l.79,3c.19.79.37,1.52.5,2.25h0c.1-.72.24-1.46.41-2.24l.68-3H215l-2,6.82h-1.5l-.77-2.79a21.66,21.66,0,0,1-.47-2.15h0a18.9,18.9,0,0,1-.49,2.16l-.81,2.78h-1.51l-1.91-6.82Z"/><path class="cls-2" d="M219.84,21.25l-.11-.74h0a2.23,2.23,0,0,1-1.84.88,2,2,0,0,1-2-2c0-1.73,1.52-2.56,3.74-2.56v-.13c0-.53-.21-1.2-1.27-1.19a3.3,3.3,0,0,0-1.67.46l-.33-1.08a4.57,4.57,0,0,1,2.3-.57c2.06,0,2.63,1.32,2.63,2.8v2.54a11,11,0,0,0,.1,1.62Zm-.23-3.37c-1,0-2.15.22-2.15,1.31a.89.89,0,0,0,.91,1,1.24,1.24,0,0,0,1.2-.9,1.42,1.42,0,0,0,0-.36Z"/><path class="cls-2" d="M223.27,16.42c0-.78,0-1.4-.06-2h1.45l.08,1h0a2.28,2.28,0,0,1,2-1.09c1.17,0,2.22.8,2.22,2.78v4.18h-1.66v-4c0-.89-.29-1.62-1.15-1.62a1.28,1.28,0,0,0-1.19,1,1.93,1.93,0,0,0-.07.57v4.08h-1.66Z"/><path class="cls-2" d="M235.82,11.81v9.44h-1.66V11.81Z"/><path class="cls-2" d="M238,16.42c0-.78,0-1.4-.06-2h1.45l.08,1h0a2.27,2.27,0,0,1,2-1.09c1.17,0,2.22.8,2.22,2.78v4.18h-1.66v-4c0-.89-.29-1.62-1.15-1.62a1.28,1.28,0,0,0-1.19,1,1.93,1.93,0,0,0-.07.57v4.08H238Z"/><path class="cls-2" d="M247.66,12.51v1.92h1.54v1.22h-1.54v3.17c0,.83.25,1.19.82,1.19a2.44,2.44,0,0,0,.61-.06l0,1.27a3.79,3.79,0,0,1-1.18.15,1.87,1.87,0,0,1-1.4-.52A2.65,2.65,0,0,1,246,19V15.65h-.93V14.43H246V12.91Z"/><path class="cls-2" d="M251.85,18.29a1.75,1.75,0,0,0,1.93,1.83,4.63,4.63,0,0,0,1.68-.3L255.7,21a5.67,5.67,0,0,1-2.18.39,3.1,3.1,0,0,1-3.27-3.43c0-2,1.13-3.65,3.1-3.65s2.7,1.66,2.7,3.25a4.28,4.28,0,0,1-.05.75Zm2.65-1.16c0-.77-.29-1.69-1.26-1.69s-1.33,1-1.39,1.69Z"/><path class="cls-2" d="M257.69,16.54c0-.83,0-1.51-.05-2.11h1.44l.06,1.21h.05a1.89,1.89,0,0,1,1.72-1.35,1.46,1.46,0,0,1,.38,0V15.9a2.9,2.9,0,0,0-.45,0,1.45,1.45,0,0,0-1.44,1.26,3.06,3.06,0,0,0,0,.56v3.56h-1.66Z"/><path class="cls-2" d="M262.68,16.42c0-.78,0-1.4-.06-2h1.45l.08,1h0a2.27,2.27,0,0,1,2-1.09c1.17,0,2.22.8,2.22,2.78v4.18h-1.66v-4c0-.89-.29-1.62-1.15-1.62a1.28,1.28,0,0,0-1.19,1,1.93,1.93,0,0,0-.07.57v4.08h-1.66Z"/><path class="cls-2" d="M274,21.25l-.1-.74h0a2.25,2.25,0,0,1-1.84.88,2,2,0,0,1-2-2c0-1.73,1.51-2.56,3.74-2.56v-.13c0-.53-.21-1.2-1.28-1.19a3.26,3.26,0,0,0-1.66.46l-.33-1.08a4.54,4.54,0,0,1,2.3-.57c2.05,0,2.63,1.32,2.63,2.8v2.54a9.76,9.76,0,0,0,.1,1.62Zm-.22-3.37c-1,0-2.16.22-2.16,1.31a.89.89,0,0,0,.91,1,1.25,1.25,0,0,0,1.21-.9,1.42,1.42,0,0,0,0-.36Z"/><path class="cls-2" d="M279.25,12.51v1.92h1.55v1.22h-1.55v3.17c0,.83.26,1.19.83,1.19a2.44,2.44,0,0,0,.61-.06l0,1.27a3.72,3.72,0,0,1-1.17.15,1.86,1.86,0,0,1-1.4-.52,2.6,2.6,0,0,1-.53-1.89V15.65h-.92V14.43h.92V12.91Z"/><path class="cls-2" d="M284.06,12.55a.92.92,0,0,1-1.83,0,.89.89,0,0,1,.92-.91A.87.87,0,0,1,284.06,12.55Zm-1.74,8.7V14.43H284v6.82Z"/><path class="cls-2" d="M292,17.78c0,2.58-1.66,3.61-3.19,3.61-1.78,0-3.12-1.29-3.12-3.51s1.39-3.59,3.22-3.59S292,15.66,292,17.78Zm-4.62.06c0,1.26.52,2.32,1.48,2.32s1.45-1.07,1.45-2.34c0-1-.38-2.31-1.45-2.31S287.35,16.75,287.35,17.84Z"/><path class="cls-2" d="M293.65,16.42c0-.78,0-1.4-.06-2H295l.09,1h0a2.3,2.3,0,0,1,2-1.09c1.17,0,2.22.8,2.22,2.78v4.18h-1.66v-4c0-.89-.29-1.62-1.15-1.62a1.28,1.28,0,0,0-1.19,1,1.91,1.91,0,0,0-.08.57v4.08h-1.65Z"/><path class="cls-2" d="M305,21.25l-.11-.74h0a2.23,2.23,0,0,1-1.84.88,2,2,0,0,1-2-2c0-1.73,1.52-2.56,3.74-2.56v-.13c0-.53-.2-1.2-1.27-1.19a3.3,3.3,0,0,0-1.67.46l-.32-1.08a4.49,4.49,0,0,1,2.29-.57c2.06,0,2.63,1.32,2.63,2.8v2.54a11,11,0,0,0,.1,1.62Zm-.22-3.37c-1,0-2.16.22-2.16,1.31a.89.89,0,0,0,.91,1,1.24,1.24,0,0,0,1.2-.9,1.08,1.08,0,0,0,.05-.36Z"/><path class="cls-2" d="M308.4,11.38h1.66v9.87H308.4Z"/><path class="cls-2" d="M322.58,17.46c-.06-1.17-.12-2.59-.11-3.8h0c-.27,1.12-.62,2.36-1,3.46l-1.26,4H319l-1.15-3.94c-.33-1.13-.65-2.38-.87-3.53h0c0,1.19-.09,2.62-.16,3.85l-.2,3.74H315l.62-9.44h2.07l1.13,3.8c.33,1.14.61,2.22.82,3.28h0c.23-1,.52-2.14.86-3.29l1.18-3.79h2.05l.55,9.44h-1.59Z"/><path class="cls-2" d="M329.86,21.25l-.1-.74h0a2.25,2.25,0,0,1-1.84.88,2,2,0,0,1-2-2c0-1.73,1.51-2.56,3.74-2.56v-.13c0-.53-.21-1.2-1.28-1.19a3.26,3.26,0,0,0-1.66.46l-.33-1.08a4.54,4.54,0,0,1,2.3-.57c2.05,0,2.62,1.32,2.62,2.8v2.54a9.66,9.66,0,0,0,.11,1.62Zm-.22-3.37c-1,0-2.16.22-2.16,1.31a.89.89,0,0,0,.91,1,1.23,1.23,0,0,0,1.2-.9,1.08,1.08,0,0,0,.05-.36Z"/><path class="cls-2" d="M337.87,21.06a4.25,4.25,0,0,1-1.69.31,3.14,3.14,0,0,1-3.27-3.47,3.39,3.39,0,0,1,3.54-3.61,3.86,3.86,0,0,1,1.46.28l-.29,1.26a2.6,2.6,0,0,0-1.13-.23,2,2,0,0,0-1.9,2.24,2,2,0,0,0,1.91,2.21,2.72,2.72,0,0,0,1.17-.24Z"/><path class="cls-2" d="M339.37,11.38H341v3.91h0a2.22,2.22,0,0,1,.77-.72,2.19,2.19,0,0,1,1.1-.28c1.14,0,2.17.8,2.17,2.85v4.11h-1.66v-4c0-.91-.29-1.64-1.15-1.64a1.25,1.25,0,0,0-1.19.93,1.68,1.68,0,0,0-.07.52v4.15h-1.66Z"/><path class="cls-2" d="M348.88,12.55a.92.92,0,1,1-.91-.91A.87.87,0,0,1,348.88,12.55Zm-1.74,8.7V14.43h1.66v6.82Z"/><path class="cls-2" d="M350.87,16.42c0-.78,0-1.4-.06-2h1.44l.09,1h0a2.3,2.3,0,0,1,2-1.09c1.17,0,2.22.8,2.22,2.78v4.18h-1.66v-4c0-.89-.3-1.62-1.15-1.62a1.28,1.28,0,0,0-1.19,1,1.91,1.91,0,0,0-.08.57v4.08h-1.65Z"/><path class="cls-2" d="M359.84,18.29a1.75,1.75,0,0,0,1.93,1.83,4.65,4.65,0,0,0,1.69-.3L363.7,21a5.71,5.71,0,0,1-2.18.39,3.09,3.09,0,0,1-3.27-3.43c0-2,1.12-3.65,3.1-3.65s2.7,1.66,2.7,3.25a4.28,4.28,0,0,1-.05.75Zm2.66-1.16c0-.77-.29-1.69-1.26-1.69s-1.34,1-1.4,1.69Z"/><path class="cls-2" d="M369.92,13.23h-2.39V11.81H374v1.42h-2.41v8h-1.66Z"/><path class="cls-2" d="M380.28,17.78c0,2.58-1.66,3.61-3.19,3.61-1.78,0-3.12-1.29-3.12-3.51s1.4-3.59,3.22-3.59S380.28,15.66,380.28,17.78Zm-4.62.06c0,1.26.52,2.32,1.48,2.32s1.45-1.07,1.45-2.34c0-1-.38-2.31-1.45-2.31S375.66,16.75,375.66,17.84Z"/><path class="cls-2" d="M387.89,17.78c0,2.58-1.65,3.61-3.18,3.61-1.79,0-3.12-1.29-3.12-3.51s1.39-3.59,3.21-3.59S387.89,15.66,387.89,17.78Zm-4.61.06c0,1.26.51,2.32,1.48,2.32s1.45-1.07,1.45-2.34c0-1-.39-2.31-1.45-2.31S383.28,16.75,383.28,17.84Z"/><path class="cls-2" d="M389.58,11.38h1.65v9.87h-1.65Z"/><path class="cls-2" d="M396.36,19.45a4.25,4.25,0,0,0,2,.53c1.05,0,1.63-.52,1.63-1.29s-.47-1.15-1.54-1.61c-1.4-.59-2.32-1.46-2.32-2.71,0-1.53,1.2-2.69,3.17-2.69a4.21,4.21,0,0,1,2,.43L401,13.47a3.37,3.37,0,0,0-1.67-.42c-1,0-1.47.59-1.47,1.14,0,.73.5,1.07,1.67,1.59,1.51.67,2.2,1.52,2.2,2.78,0,1.57-1.16,2.81-3.37,2.81a4.9,4.9,0,0,1-2.3-.53Z"/><path class="cls-2" d="M403.39,11.38h1.66v3.91h0a2.31,2.31,0,0,1,.77-.72,2.22,2.22,0,0,1,1.1-.28c1.14,0,2.17.8,2.17,2.85v4.11h-1.65v-4c0-.91-.3-1.64-1.16-1.64a1.25,1.25,0,0,0-1.19.93,1.68,1.68,0,0,0-.07.52v4.15h-1.66Z"/><path class="cls-2" d="M417.08,17.78c0,2.58-1.65,3.61-3.18,3.61-1.79,0-3.12-1.29-3.12-3.51s1.39-3.59,3.21-3.59S417.08,15.66,417.08,17.78Zm-4.62.06c0,1.26.52,2.32,1.49,2.32s1.45-1.07,1.45-2.34c0-1-.39-2.31-1.45-2.31S412.46,16.75,412.46,17.84Z"/><path class="cls-2" d="M419.68,14.43l.64,3.1c.15.73.29,1.46.4,2.18h0c.12-.72.32-1.48.5-2.17l.83-3.11h1.32l.8,3c.19.79.36,1.52.5,2.25h0c.09-.72.24-1.46.41-2.24l.68-3h1.63l-2,6.82h-1.5l-.76-2.79a21.66,21.66,0,0,1-.47-2.15h0a17.07,17.07,0,0,1-.48,2.16l-.81,2.78h-1.51L418,14.43Z"/><path class="cls-2" d="M189.33,38.05V28.6h1.8l2.18,4a31,31,0,0,1,1.45,3.11h0c-.1-1.24-.15-2.53-.15-4V28.6h1.51v9.45h-1.66l-2.21-4.12a29.74,29.74,0,0,1-1.49-3.18h0c.07,1.18.1,2.46.1,4.13v3.16Z"/><path class="cls-2" d="M204.17,34.58c0,2.58-1.65,3.61-3.18,3.61-1.78,0-3.12-1.3-3.12-3.51s1.39-3.6,3.21-3.6S204.17,32.46,204.17,34.58Zm-4.62.06c0,1.26.52,2.32,1.49,2.32s1.45-1.07,1.45-2.34c0-1-.39-2.31-1.45-2.31S199.55,33.55,199.55,34.64Z"/><path class="cls-2" d="M206.8,31.23l1,3.44c.16.58.3,1.15.41,1.73h0c.11-.58.25-1.13.41-1.73l1-3.44h1.72l-2.37,6.82h-1.59L205,31.23Z"/><path class="cls-2" d="M211.89,37.1a1,1,0,0,1,1-1.09,1.09,1.09,0,1,1-1,1.09Z"/><path class="cls-2" d="M220.87,30.46h0l-1.63.84L218.93,30l2.16-1.1h1.39v9.11h-1.61Z"/><path class="cls-2" d="M231.65,33.44c0,3-1.14,4.75-3.09,4.75s-3-1.94-3-4.67,1.11-4.72,3.11-4.72S231.65,30.82,231.65,33.44Zm-4.44.07c0,2.2.51,3.37,1.4,3.37s1.37-1.24,1.37-3.4-.42-3.37-1.37-3.37S227.21,31.27,227.21,33.51Z"/><path class="cls-2" d="M236.23,33.72v1.16h-3.37V33.72Z"/><path class="cls-2" d="M240.08,30.46h0l-1.62.84L238.14,30l2.16-1.1h1.39v9.11h-1.61Z"/><path class="cls-2" d="M248.38,38.05V35.73h-3.81V34.64l3.5-5.7h1.85v5.51H251v1.28h-1.11v2.32Zm0-3.6V32.06c0-.52,0-1.05.07-1.59h0c-.28.58-.5,1-.78,1.54l-1.49,2.41v0Z"/><path class="cls-2" d="M251.78,39.76a22,22,0,0,0,.92-3.64l1.74-.14a18.59,18.59,0,0,1-1.54,3.67Z"/><path class="cls-2" d="M258.79,38.05V37l1-1c1.84-1.84,2.88-3,2.89-4.33a1.37,1.37,0,0,0-1.51-1.49,3,3,0,0,0-1.76.67l-.44-1.2a4.17,4.17,0,0,1,2.53-.83,2.58,2.58,0,0,1,2.83,2.7c0,1.64-1.13,3-2.57,4.42l-.73.7v0h3.48v1.4Z"/><path class="cls-2" d="M272.1,33.44c0,3-1.14,4.75-3.09,4.75s-3-1.94-3-4.67,1.11-4.72,3.11-4.72S272.1,30.82,272.1,33.44Zm-4.43.07c0,2.2.51,3.37,1.4,3.37s1.37-1.24,1.37-3.4-.42-3.37-1.37-3.37S267.67,31.27,267.67,33.51Z"/><path class="cls-2" d="M273.44,38.05V37l1-1c1.84-1.84,2.88-3,2.89-4.33a1.36,1.36,0,0,0-1.5-1.49,3,3,0,0,0-1.77.67l-.44-1.2a4.17,4.17,0,0,1,2.53-.83A2.57,2.57,0,0,1,279,31.5c0,1.64-1.13,3-2.57,4.42l-.72.7v0h3.48v1.4Z"/><path class="cls-2" d="M286.75,33.44c0,3-1.14,4.75-3.09,4.75s-3-1.94-3-4.67,1.11-4.72,3.11-4.72S286.75,30.82,286.75,33.44Zm-4.43.07c0,2.2.51,3.37,1.4,3.37s1.37-1.24,1.37-3.4-.43-3.37-1.37-3.37S282.31,31.27,282.32,33.51Z"/><path class="cls-2" d="M293.91,26.54v14H292.7v-14Z"/><path class="cls-2" d="M302.51,30h-2.4V28.6h6.47V30h-2.41v8h-1.66Z"/><path class="cls-2" d="M310.64,38.05l-.11-.74h0a2.23,2.23,0,0,1-1.84.88,2,2,0,0,1-2-2c0-1.73,1.52-2.56,3.74-2.56v-.13a1.11,1.11,0,0,0-1.27-1.2,3.3,3.3,0,0,0-1.67.47l-.32-1.08a4.48,4.48,0,0,1,2.29-.58c2.06,0,2.63,1.33,2.63,2.81v2.54a11,11,0,0,0,.1,1.62Zm-.22-3.37c-1,0-2.16.22-2.16,1.31a.89.89,0,0,0,.91,1,1.24,1.24,0,0,0,1.2-.9,1.08,1.08,0,0,0,.05-.36Z"/><path class="cls-2" d="M315.81,29.35a.92.92,0,1,1-.91-.91A.87.87,0,0,1,315.81,29.35Zm-1.74,8.7V31.23h1.66v6.82Z"/><path class="cls-2" d="M322.37,37.86a4.25,4.25,0,0,1-1.69.31,3.14,3.14,0,0,1-3.27-3.47A3.39,3.39,0,0,1,321,31.09a3.86,3.86,0,0,1,1.46.28l-.29,1.26A2.6,2.6,0,0,0,321,32.4a2,2,0,0,0-1.9,2.24A2,2,0,0,0,321,36.85a2.72,2.72,0,0,0,1.17-.24Z"/><path class="cls-2" d="M323.87,28.18h1.66v3.91h0a2.22,2.22,0,0,1,.77-.72,2.2,2.2,0,0,1,1.1-.29c1.14,0,2.17.81,2.17,2.86v4.11h-1.66v-4c0-.91-.29-1.64-1.15-1.64a1.25,1.25,0,0,0-1.19.93,1.68,1.68,0,0,0-.07.52v4.15h-1.66Z"/><path class="cls-2" d="M337.29,36c0,.79,0,1.46,0,2H335.9l-.08-.94h0a2.27,2.27,0,0,1-2,1.08c-1.24,0-2.18-.81-2.18-2.9V31.23h1.65V35c0,1.09.31,1.8,1.13,1.8a1.24,1.24,0,0,0,1.15-.85,1.51,1.51,0,0,0,.09-.55v-4.2h1.66Z"/><path class="cls-2" d="M339.36,33.22c0-.78,0-1.4-.06-2h1.44l.09.95h0a2.31,2.31,0,0,1,2-1.1c1.17,0,2.22.81,2.22,2.79v4.18h-1.66v-4c0-.89-.3-1.62-1.15-1.62a1.28,1.28,0,0,0-1.19,1A1.91,1.91,0,0,0,341,34v4.08h-1.65Z"/><path class="cls-2" d="M352.88,31.23c0,.48-.06,1.08-.06,2v3.87a3.83,3.83,0,0,1-.93,3,3.55,3.55,0,0,1-2.46.81,4.54,4.54,0,0,1-2.14-.48l.35-1.27a3.68,3.68,0,0,0,1.78.46c1.05,0,1.77-.59,1.77-2v-.57h0a2,2,0,0,1-1.77.93c-1.6,0-2.65-1.45-2.65-3.33,0-2.29,1.35-3.6,2.83-3.6a1.92,1.92,0,0,1,1.77,1h0l.06-.85Zm-1.71,2.64a1.8,1.8,0,0,0-.06-.48,1.25,1.25,0,0,0-1.21-1c-.89,0-1.49.87-1.49,2.23s.54,2.13,1.48,2.13a1.25,1.25,0,0,0,1.2-.94,2,2,0,0,0,.08-.6Z"/><path class="cls-2" d="M353.94,39.76a22,22,0,0,0,.92-3.64L356.6,36a18.58,18.58,0,0,1-1.55,3.67Z"/><path class="cls-2" d="M362.46,30h-2.4V28.6h6.47V30h-2.42v8h-1.65Z"/><path class="cls-2" d="M370.59,38.05l-.11-.74h0a2.23,2.23,0,0,1-1.84.88,2,2,0,0,1-2-2c0-1.73,1.52-2.56,3.74-2.56v-.13c0-.53-.21-1.2-1.28-1.2a3.29,3.29,0,0,0-1.66.47l-.33-1.08a4.53,4.53,0,0,1,2.3-.58c2.06,0,2.63,1.33,2.63,2.81v2.54a9.76,9.76,0,0,0,.1,1.62Zm-.23-3.37c-1,0-2.15.22-2.15,1.31a.89.89,0,0,0,.91,1,1.24,1.24,0,0,0,1.2-.9,1.42,1.42,0,0,0,0-.36Z"/><path class="cls-2" d="M375.76,29.35a.88.88,0,0,1-.94.91.86.86,0,0,1-.89-.91.92.92,0,0,1,1.83,0ZM374,38.05V31.23h1.65v6.82Z"/><path class="cls-2" d="M378.77,31.23l.64,3.1c.15.73.29,1.46.4,2.18h0c.13-.72.32-1.48.5-2.17l.83-3.11h1.32l.8,3c.19.79.37,1.52.5,2.25h0c.09-.72.24-1.46.41-2.24l.68-3h1.63l-2,6.82H383l-.77-2.79a21.66,21.66,0,0,1-.47-2.15h0a18.9,18.9,0,0,1-.49,2.16l-.81,2.78H379l-1.91-6.82Z"/><path class="cls-2" d="M391.38,38.05l-.11-.74h0a2.23,2.23,0,0,1-1.84.88,2,2,0,0,1-2-2c0-1.73,1.52-2.56,3.74-2.56v-.13c0-.53-.21-1.2-1.28-1.2a3.29,3.29,0,0,0-1.66.47l-.33-1.08a4.53,4.53,0,0,1,2.3-.58c2.06,0,2.63,1.33,2.63,2.81v2.54a11,11,0,0,0,.1,1.62Zm-.23-3.37c-1,0-2.15.22-2.15,1.31a.89.89,0,0,0,.91,1,1.24,1.24,0,0,0,1.2-.9,1.42,1.42,0,0,0,0-.36Z"/><path class="cls-2" d="M394.81,33.22c0-.78,0-1.4-.06-2h1.45l.08.95h0a2.31,2.31,0,0,1,2-1.1c1.17,0,2.22.81,2.22,2.79v4.18h-1.66v-4c0-.89-.29-1.62-1.15-1.62a1.28,1.28,0,0,0-1.19,1,1.91,1.91,0,0,0-.08.57v4.08h-1.65Z"/></g></g></svg>