<svg xmlns="http://www.w3.org/2000/svg" width="195" height="70" viewBox="0 0 195 70">
  <defs>
    <style>
      .cls-1 {
        fill: #585757;
      }

      .cls-2 {
        fill: #002169;
      }

      
    </style>
  </defs>
  <g id="logo-en_v2" transform="translate(-260 -42)">
    <g id="组_361" data-name="组 361" transform="translate(11.5 73.7)">
      <path id="路径_863" data-name="路径 863" class="cls-1" d="M252.374,20.948H250.5V19.8h5.138v1.148H253.7V27.3h-1.33Z" transform="translate(0 -0.198)"/>
      <path id="路径_864" data-name="路径 864" class="cls-1" d="M262.2,28.561l-.06-.6h-.061a1.8,1.8,0,0,1-1.451.725A1.554,1.554,0,0,1,259,27.05c0-1.39,1.209-2.055,2.962-2.055v-.121a.9.9,0,0,0-1.027-.967,3.1,3.1,0,0,0-1.33.363l-.242-.846A3.477,3.477,0,0,1,261.176,23c1.632,0,2.116,1.028,2.116,2.237v1.995a7.712,7.712,0,0,0,.061,1.269H262.2Zm-.181-2.66c-.786,0-1.693.181-1.693,1.028a.714.714,0,0,0,.725.786.98.98,0,0,0,.967-.725c0-.121.06-.181.06-.3V25.9Z" transform="translate(-3.362 -1.463)"/>
      <path id="路径_865" data-name="路径 865" class="cls-1" d="M270.051,20.325a.725.725,0,1,1-.725-.725A.667.667,0,0,1,270.051,20.325Zm-1.33,6.891v-5.44h1.33v5.44Z" transform="translate(-7.159 -0.119)"/>
      <path id="路径_866" data-name="路径 866" class="cls-1" d="M274.011,23.3l.484,2.478a17.671,17.671,0,0,1,.3,1.753h0a17.292,17.292,0,0,1,.423-1.692l.665-2.478h1.028l.6,2.418c.181.6.3,1.209.423,1.753h0c.06-.544.181-1.148.3-1.753l.544-2.418h1.269l-1.632,5.44h-1.209l-.6-2.237a13.916,13.916,0,0,1-.363-1.693h0c-.121.665-.242,1.209-.363,1.693l-.665,2.176h-1.209L272.5,23.3Z" transform="translate(-8.702 -1.582)"/>
      <path id="路径_867" data-name="路径 867" class="cls-1" d="M289.5,28.561l-.06-.6h-.061a1.8,1.8,0,0,1-1.451.725A1.554,1.554,0,0,1,286.3,27.05c0-1.39,1.209-2.055,2.962-2.055v-.121a.9.9,0,0,0-1.027-.967,3.1,3.1,0,0,0-1.33.363l-.242-.846A3.478,3.478,0,0,1,288.476,23c1.632,0,2.116,1.028,2.116,2.237v1.995a7.708,7.708,0,0,0,.061,1.269H289.5Zm-.181-2.66c-.786,0-1.693.181-1.693,1.028a.714.714,0,0,0,.725.786.98.98,0,0,0,.967-.725c0-.121.06-.181.06-.3V25.9Z" transform="translate(-14.16 -1.463)"/>
      <path id="路径_868" data-name="路径 868" class="cls-1" d="M296.021,24.832a12.7,12.7,0,0,0-.06-1.572h1.148l.061.786h0a1.783,1.783,0,0,1,1.572-.846c.907,0,1.753.665,1.753,2.237v3.325h-1.33V25.5c0-.725-.242-1.269-.907-1.269a1.094,1.094,0,0,0-.967.786,1.026,1.026,0,0,0-.061.423V28.7H295.9V24.832Z" transform="translate(-17.957 -1.543)"/>
      <path id="路径_869" data-name="路径 869" class="cls-1" d="M311.63,19.8v7.5H310.3V19.8Z" transform="translate(-23.653 -0.198)"/>
      <path id="路径_870" data-name="路径 870" class="cls-1" d="M315.421,24.832a12.678,12.678,0,0,0-.06-1.572h1.148l.061.786h0a1.783,1.783,0,0,1,1.572-.846c.907,0,1.753.665,1.753,2.237v3.325h-1.33V25.5c0-.725-.242-1.269-.907-1.269a1.094,1.094,0,0,0-.967.786,1.027,1.027,0,0,0-.061.423V28.7H315.3V24.832Z" transform="translate(-25.631 -1.543)"/>
      <path id="路径_871" data-name="路径 871" class="cls-1" d="M326.795,20.7v1.511H328v.967h-1.209v2.539c0,.665.181.967.665.967a1.179,1.179,0,0,0,.484-.06v1.028a3.277,3.277,0,0,1-.907.121,1.293,1.293,0,0,1-1.088-.423,2.056,2.056,0,0,1-.423-1.511v-2.6H324.8v-.967h.725V21.063Z" transform="translate(-29.388 -0.554)"/>
      <path id="路径_872" data-name="路径 872" class="cls-1" d="M332.73,26.2a1.377,1.377,0,0,0,1.511,1.451,4.019,4.019,0,0,0,1.33-.242l.182.907a4.571,4.571,0,0,1-1.753.3,2.477,2.477,0,0,1-2.6-2.72c0-1.572.907-2.9,2.479-2.9s2.176,1.33,2.176,2.6a1.7,1.7,0,0,1-.06.6Zm2.116-.907c0-.6-.242-1.33-1.028-1.33-.725,0-1.088.786-1.088,1.33Z" transform="translate(-31.999 -1.463)"/>
      <path id="路径_873" data-name="路径 873" class="cls-1" d="M341.26,24.813a14.187,14.187,0,0,0-.061-1.692h1.149l.06.967h.06A1.5,1.5,0,0,1,343.859,23h.3v1.269c-.121,0-.182-.06-.363-.06a1.169,1.169,0,0,0-1.149,1.028c0,.121-.06.3-.06.423V28.5h-1.33V24.813Z" transform="translate(-35.875 -1.463)"/>
      <path id="路径_874" data-name="路径 874" class="cls-1" d="M347.721,24.832a12.691,12.691,0,0,0-.06-1.572h1.148l.061.786h0a1.782,1.782,0,0,1,1.571-.846c.907,0,1.753.665,1.753,2.237v3.325h-1.33V25.5c0-.725-.242-1.269-.907-1.269a1.094,1.094,0,0,0-.967.786,1.029,1.029,0,0,0-.06.423V28.7H347.6V24.832Z" transform="translate(-38.407 -1.543)"/>
      <path id="路径_875" data-name="路径 875" class="cls-1" d="M360.6,28.561l-.061-.6h-.06a1.8,1.8,0,0,1-1.451.725A1.554,1.554,0,0,1,357.4,27.05c0-1.39,1.209-2.055,2.962-2.055v-.121a.9.9,0,0,0-1.028-.967,3.1,3.1,0,0,0-1.33.363l-.242-.846A3.477,3.477,0,0,1,359.576,23c1.632,0,2.116,1.028,2.116,2.237v1.995a7.747,7.747,0,0,0,.06,1.269H360.6Zm-.182-2.66c-.786,0-1.692.181-1.692,1.028a.714.714,0,0,0,.725.786.98.98,0,0,0,.967-.725c0-.121.061-.181.061-.3V25.9Z" transform="translate(-42.283 -1.463)"/>
      <path id="路径_876" data-name="路径 876" class="cls-1" d="M368.295,20.7v1.511H369.5v.967h-1.209v2.539c0,.665.181.967.665.967a1.177,1.177,0,0,0,.483-.06v1.028a3.275,3.275,0,0,1-.907.121,1.293,1.293,0,0,1-1.088-.423,2.057,2.057,0,0,1-.423-1.511v-2.6H366.3v-.967h.725V21.063Z" transform="translate(-45.803 -0.554)"/>
      <path id="路径_877" data-name="路径 877" class="cls-1" d="M374.951,20.325a.725.725,0,1,1-.725-.725A.7.7,0,0,1,374.951,20.325Zm-1.39,6.891v-5.44h1.33v5.44Z" transform="translate(-48.651 -0.119)"/>
      <path id="路径_878" data-name="路径 878" class="cls-1" d="M383.017,25.881a2.525,2.525,0,1,1-5.017.06,2.534,2.534,0,0,1,2.539-2.841A2.471,2.471,0,0,1,383.017,25.881Zm-3.687,0c0,1.028.423,1.874,1.149,1.874s1.148-.846,1.148-1.874c0-.846-.3-1.813-1.148-1.813C379.693,24.067,379.33,25.034,379.33,25.881Z" transform="translate(-50.431 -1.503)"/>
      <path id="路径_879" data-name="路径 879" class="cls-1" d="M388.421,24.832a12.6,12.6,0,0,0-.061-1.572h1.149l.06.786h0a1.783,1.783,0,0,1,1.572-.846c.907,0,1.753.665,1.753,2.237v3.325h-1.33V25.5c0-.725-.242-1.269-.907-1.269a1.094,1.094,0,0,0-.967.786,1.032,1.032,0,0,0-.06.423V28.7H388.3V24.832Z" transform="translate(-54.505 -1.543)"/>
      <path id="路径_880" data-name="路径 880" class="cls-1" d="M401.3,28.561l-.06-.6h-.06a1.8,1.8,0,0,1-1.451.725A1.554,1.554,0,0,1,398.1,27.05c0-1.39,1.209-2.055,2.962-2.055v-.121a.9.9,0,0,0-1.028-.967,3.1,3.1,0,0,0-1.33.363l-.242-.846A3.478,3.478,0,0,1,400.276,23c1.632,0,2.116,1.028,2.116,2.237v1.995a7.751,7.751,0,0,0,.06,1.269H401.3Zm-.181-2.66c-.786,0-1.692.181-1.692,1.028a.714.714,0,0,0,.725.786.98.98,0,0,0,.967-.725c0-.121.06-.181.06-.3V25.9Z" transform="translate(-58.381 -1.463)"/>
      <path id="路径_881" data-name="路径 881" class="cls-1" d="M407.9,19.3h1.33v7.858H407.9Z" transform="translate(-62.257 0)"/>
      <path id="路径_882" data-name="路径 882" class="cls-1" d="M422.584,24.273a24.966,24.966,0,0,1-.06-3.022h-.06c-.242.907-.483,1.874-.786,2.72l-1.027,3.2h-.967l-.907-3.143c-.242-.907-.484-1.874-.665-2.781h0c0,.967-.06,2.055-.121,3.083l-.181,2.962H416.6l.484-7.5h1.632l.907,3.022c.242.907.484,1.753.665,2.6h.06c.181-.846.423-1.693.665-2.6l.967-3.022h1.632l.423,7.5h-1.269Z" transform="translate(-65.698 -0.198)"/>
      <path id="路径_883" data-name="路径 883" class="cls-1" d="M434,28.561l-.06-.6h-.06a1.8,1.8,0,0,1-1.451.725A1.554,1.554,0,0,1,430.8,27.05c0-1.39,1.209-2.055,2.962-2.055v-.121a.9.9,0,0,0-1.028-.967,3.1,3.1,0,0,0-1.33.363l-.242-.846A3.478,3.478,0,0,1,432.976,23c1.632,0,2.116,1.028,2.116,2.237v1.995a7.758,7.758,0,0,0,.06,1.269H434Zm-.181-2.66c-.786,0-1.693.181-1.693,1.028a.714.714,0,0,0,.725.786.98.98,0,0,0,.967-.725c0-.121.061-.181.061-.3V25.9Z" transform="translate(-71.315 -1.463)"/>
      <path id="路径_884" data-name="路径 884" class="cls-1" d="M444.029,28.48a3.234,3.234,0,0,1-1.33.242,2.5,2.5,0,0,1-2.6-2.781,2.649,2.649,0,0,1,2.781-2.841,2.949,2.949,0,0,1,1.148.242l-.242,1.028a2.605,2.605,0,0,0-.907-.181,1.564,1.564,0,0,0-1.511,1.753,1.568,1.568,0,0,0,1.511,1.753,1.851,1.851,0,0,0,.907-.181Z" transform="translate(-74.993 -1.503)"/>
      <path id="路径_885" data-name="路径 885" class="cls-1" d="M448.561,19.3h1.33v3.083h0a1.717,1.717,0,0,1,.6-.544,1.967,1.967,0,0,1,.846-.242c.907,0,1.753.665,1.753,2.3v3.264h-1.33v-3.2c0-.725-.242-1.33-.906-1.33a1.035,1.035,0,0,0-.967.725.9.9,0,0,0-.06.423V27.1H448.5V19.3Z" transform="translate(-78.316 0)"/>
      <path id="路径_886" data-name="路径 886" class="cls-1" d="M460.151,20.325a.725.725,0,1,1-.725-.725A.7.7,0,0,1,460.151,20.325Zm-1.39,6.891v-5.44h1.33v5.44Z" transform="translate(-82.35 -0.119)"/>
      <path id="路径_887" data-name="路径 887" class="cls-1" d="M463.661,24.832a12.627,12.627,0,0,0-.061-1.572h1.148l.06.786h0a1.783,1.783,0,0,1,1.572-.846c.906,0,1.753.665,1.753,2.237v3.325h-1.269V25.5c0-.725-.242-1.269-.907-1.269a1.094,1.094,0,0,0-.967.786,1.028,1.028,0,0,0-.061.423V28.7H463.6V24.832Z" transform="translate(-84.288 -1.543)"/>
      <path id="路径_888" data-name="路径 888" class="cls-1" d="M474.63,26.2a1.377,1.377,0,0,0,1.511,1.451,4.021,4.021,0,0,0,1.33-.242l.181.907a4.571,4.571,0,0,1-1.753.3,2.477,2.477,0,0,1-2.6-2.72c0-1.572.907-2.9,2.478-2.9s2.176,1.33,2.176,2.6a1.684,1.684,0,0,1-.06.6Zm2.055-.907c0-.6-.242-1.33-1.028-1.33-.725,0-1.088.786-1.088,1.33Z" transform="translate(-88.125 -1.463)"/>
      <path id="路径_889" data-name="路径 889" class="cls-1" d="M487.474,20.948H485.6V19.8h5.138v1.148H488.8V27.3h-1.33V20.948Z" transform="translate(-92.99 -0.198)"/>
      <path id="路径_890" data-name="路径 890" class="cls-1" d="M499.017,25.881a2.525,2.525,0,1,1-5.017.06,2.534,2.534,0,0,1,2.539-2.841A2.471,2.471,0,0,1,499.017,25.881Zm-3.687,0c0,1.028.423,1.874,1.149,1.874s1.148-.846,1.148-1.874c0-.846-.3-1.813-1.148-1.813S495.33,25.034,495.33,25.881Z" transform="translate(-96.312 -1.503)"/>
      <path id="路径_891" data-name="路径 891" class="cls-1" d="M509.017,25.881a2.525,2.525,0,1,1-5.017.06,2.534,2.534,0,0,1,2.539-2.841A2.47,2.47,0,0,1,509.017,25.881Zm-3.687,0c0,1.028.423,1.874,1.149,1.874s1.148-.846,1.148-1.874c0-.846-.3-1.813-1.148-1.813C505.693,24.067,505.33,25.034,505.33,25.881Z" transform="translate(-100.268 -1.503)"/>
      <path id="路径_892" data-name="路径 892" class="cls-1" d="M514.5,19.3h1.33v7.858H514.5Z" transform="translate(-104.421 0)"/>
      <path id="路径_893" data-name="路径 893" class="cls-1" d="M523.242,25.866a3.434,3.434,0,0,0,1.632.423c.846,0,1.269-.423,1.269-1.028s-.363-.907-1.209-1.269c-1.088-.484-1.874-1.148-1.874-2.176,0-1.209.967-2.116,2.539-2.116a3.152,3.152,0,0,1,1.572.363l-.3,1.088a3.064,3.064,0,0,0-1.33-.3c-.786,0-1.149.484-1.149.907,0,.6.424.846,1.33,1.269,1.209.544,1.753,1.209,1.753,2.176,0,1.269-.907,2.237-2.66,2.237A3.644,3.644,0,0,1,523,27.014Z" transform="translate(-107.783 -0.158)"/>
      <path id="路径_894" data-name="路径 894" class="cls-1" d="M532.66,19.3h1.33v3.083h0a1.714,1.714,0,0,1,.6-.544,1.968,1.968,0,0,1,.847-.242c.906,0,1.753.665,1.753,2.3v3.264h-1.33v-3.2c0-.725-.242-1.33-.906-1.33a1.034,1.034,0,0,0-.967.725.892.892,0,0,0-.061.423V27.1H532.6V19.3Z" transform="translate(-111.58 0)"/>
      <path id="路径_895" data-name="路径 895" class="cls-1" d="M547.317,25.881a2.525,2.525,0,1,1-5.017.06,2.534,2.534,0,0,1,2.539-2.841A2.47,2.47,0,0,1,547.317,25.881Zm-3.627,0c0,1.028.423,1.874,1.149,1.874s1.149-.846,1.149-1.874c0-.846-.3-1.813-1.149-1.813S543.69,25.034,543.69,25.881Z" transform="translate(-115.417 -1.503)"/>
      <path id="路径_896" data-name="路径 896" class="cls-1" d="M553.012,23.3l.484,2.478c.121.6.241,1.148.3,1.753h0a17.209,17.209,0,0,1,.423-1.692l.665-2.478h1.028l.6,2.418c.182.6.3,1.209.423,1.753h0c.061-.544.181-1.148.3-1.753l.544-2.418h1.269l-1.632,5.44h-1.209l-.6-2.237c-.121-.544-.242-1.088-.363-1.693h0c-.121.665-.242,1.209-.363,1.693l-.665,2.176h-1.209L551.5,23.3Z" transform="translate(-119.056 -1.582)"/>
    </g>
    <g id="组_398" data-name="组 398" transform="translate(257.7 41.101)">
      <path id="路径_986" data-name="路径 986" class="cls-2" d="M5.961,14.172,3.3,4.9H50.344l-2.661,9.272H30.943V47.48H21.929V14.172Z" transform="translate(0 0)"/>
      <path id="路径_987" data-name="路径 987" class="cls-2" d="M101.251,4.9H94.9L81.678,33.4,68.543,4.9H62.19L50,47.48h9.958l6.7-24.9,12.362,24.9h5.408L96.959,22.155,103.4,47.48h9.958Z" transform="translate(-6.609 0)"/>
      <path id="路径_988" data-name="路径 988" class="cls-2" d="M208.6,22.585H184.991l-2.919-4.292,3.262-4.121h28.072L215.982,4.9H182.673S172.2,4.642,172.2,17.09c0,0-.429,12.705,9.615,12.705h23.608l2.919,4.292-3.262,4.121H176.149l-2.575,9.272H207.74s10.473.258,10.473-12.19C218.214,35.29,218.643,22.585,208.6,22.585Z" transform="translate(-23.903)"/>
      <path id="路径_989" data-name="路径 989" class="cls-2" d="M159.064,4.9H117.6l2.575,9.357h15.968V47.566h9.014V14.172h15.8C162.412,7.132,165.5,4.9,165.5,4.9Z" transform="translate(-16.176 0)"/>
    </g>
    
  </g>
</svg>
