<?xml version="1.0" encoding="utf-8"?>
<!-- Generator: Adobe Illustrator 22.0.1, SVG Export Plug-In . SVG Version: 6.00 Build 0)  -->
<svg version="1.1" id="圖層_1" xmlns="http://www.w3.org/2000/svg" xmlns:xlink="http://www.w3.org/1999/xlink" x="0px" y="0px"
	 viewBox="0 0 20 20" style="enable-background:new 0 0 20 20;" xml:space="preserve">
<style type="text/css">
	.st0{fill:#FFFFFF;}
</style>
<g>
	<g>
		<path class="st0" d="M9.9,19.9c-5.4,0-9.8-4.5-9.8-9.9c0-5.5,4.5-9.9,9.9-9.9c5.4,0,9.8,4.5,9.8,9.9C19.8,15.5,15.4,19.9,9.9,19.9
			z M10.1,18.2c4.4-0.1,8-3.5,8-8.2c0-4.6-3.6-8.1-8.2-8.1c-4.6,0-8.1,3.6-8.1,8.2C1.9,14.7,5.5,18.1,10.1,18.2z"/>
		<path class="st0" d="M9.8,15C9.8,15,9.8,15.1,9.8,15c0.1,0.4,0.6,0.5,0.5,0.8c-0.2,0.4-0.6,0.7-1,1c-0.1,0.1-0.2,0-0.3-0.1
			c-0.7-0.7-1.3-1.3-2-2c-0.4-0.5-0.4-0.9,0-1.3c0.6-0.6,1.3-1.3,1.9-1.9c0.2-0.2,0.3-0.2,0.5,0c0.1,0.1,0.2,0.2,0.3,0.3
			c0.7,0.7,0.7,0.7,0,1.4c0.8,0.1,1.5-0.1,2.1-0.5c1.2-0.8,1.7-2.2,1.3-3.5c-0.1-0.4,0-0.6,0.2-0.8c0.2-0.2,0.4-0.4,0.6-0.6
			c0.2-0.3,0.4-0.2,0.5,0.1c0.9,1.9,0.7,3.7-0.6,5.3c-0.9,1.2-2.2,1.8-3.7,1.9C10.1,14.9,10,14.9,9.8,15C9.8,15,9.8,15,9.8,15z"/>
		<path class="st0" d="M10,6.8c-2.1-0.1-3.5,1.9-3.2,3.7c0,0.3,0.3,0.6,0.1,0.8c-0.3,0.4-0.7,0.8-1.1,1.1c-0.3,0.2-0.3-0.1-0.4-0.3
			c-0.6-1.4-0.6-2.8,0-4.1c0.8-1.7,2.2-2.7,4.2-2.9C9.8,5.1,10,5.1,10,5c0-0.1-0.1-0.2-0.2-0.3c-0.3-0.3-0.3-0.5,0-0.8
			c0.9-0.8,0.9-0.9,1.7,0c0.4,0.4,0.8,0.8,1.3,1.3c0.5,0.5,0.5,0.9,0,1.4c-0.6,0.7-1.3,1.3-1.9,1.9c-0.2,0.2-0.3,0.2-0.5,0
			c0,0-0.1-0.1-0.1-0.1C10.1,8.2,9.8,8,9.6,7.7C9.4,7.3,10,7.2,10,6.8z"/>
	</g>
</g>
</svg>
