<?xml version="1.0" encoding="utf-8"?>
<!-- Generator: Adobe Illustrator 22.0.1, SVG Export Plug-In . SVG Version: 6.00 Build 0)  -->
<svg version="1.1" id="圖層_1" xmlns="http://www.w3.org/2000/svg" xmlns:xlink="http://www.w3.org/1999/xlink" x="0px" y="0px"
	 viewBox="0 0 17 17" style="enable-background:new 0 0 17 17;" xml:space="preserve">
<style type="text/css">
	.st0{fill:#002169;}
	.st1{fill:#585757;}
	.st2{fill:#595757;}
	.st3{fill:#CE0E2D;}
	.st4{fill:#FFFFFF;}
</style>
<g id="louK07.tif">
	<g>
		<path class="st4" d="M17,2.3c0,4.2,0,8.3,0,12.5c0,0.1,0,0.1,0,0.2c-0.1,0.7-0.5,1.3-1.1,1.7c-0.3,0.2-0.7,0.3-1,0.4
			c-4.3,0-8.5,0-12.8,0c-0.1,0-0.2,0-0.2-0.1C0.8,16.7,0,15.7,0,14.6c0-4.1,0-8.1,0-12.2C0,2.2,0,2,0.1,1.8C0.4,0.7,1.4,0,2.5,0
			c0.9,0,1.9,0,2.8,0c3,0,6.1,0,9.1,0c1,0,1.8,0.4,2.3,1.3C16.9,1.6,16.9,1.9,17,2.3z M8.5,5.2c0.6,0,1.1,0,1.7,0c1.1,0,2.2,0,3.3,0
			c0.3,0,0.5-0.1,0.6-0.3c0.2-0.3,0.3-0.6,0.2-1C14.2,3.4,14,3,13.3,3c-3.2,0-6.5,0-9.7,0C3.6,3,3.5,3,3.4,3C3.2,3.1,3.1,3.1,3,3.2
			c-0.3,0.5-0.5,1-0.2,1.5C3,5.1,3.2,5.2,3.6,5.2C5.2,5.2,6.9,5.2,8.5,5.2z M8.5,9.6c1.7,0,3.3,0,5,0c0.3,0,0.5-0.1,0.6-0.3
			c0.2-0.3,0.3-0.6,0.2-1c-0.1-0.6-0.4-0.9-1-0.9c-3.2,0-6.4,0-9.6,0c-0.1,0-0.2,0-0.3,0C3.2,7.4,3.1,7.5,3,7.6
			C2.6,8.1,2.6,8.7,2.9,9.2C3,9.5,3.2,9.6,3.5,9.6C5.2,9.6,6.9,9.6,8.5,9.6z M8.5,14c1.7,0,3.3,0,5,0c0.3,0,0.5-0.1,0.6-0.3
			c0.2-0.3,0.3-0.7,0.2-1c-0.1-0.5-0.3-0.8-1-0.8c-3.2,0-6.5,0-9.7,0c-0.1,0-0.2,0-0.2,0c-0.1,0-0.2,0.1-0.3,0.1
			c-0.4,0.4-0.5,1.1-0.2,1.6C3,13.8,3.2,14,3.6,14C5.2,14,6.9,14,8.5,14z"/>
	</g>
</g>
</svg>
