<?xml version="1.0" encoding="utf-8"?>
<!-- Generator: Adobe Illustrator 22.0.1, SVG Export Plug-In . SVG Version: 6.00 Build 0)  -->
<svg version="1.1" id="圖層_1" xmlns="http://www.w3.org/2000/svg" xmlns:xlink="http://www.w3.org/1999/xlink" x="0px" y="0px"
	 viewBox="0 0 20 20" style="enable-background:new 0 0 20 20;" xml:space="preserve">
<style type="text/css">
	.st0{fill:#002169;}
	.st1{fill:#585757;}
	.st2{fill:#595757;}
	.st3{fill:#CE0E2D;}
	.st4{fill:#FFFFFF;}
</style>
<g>
	<g>
		<path class="st4" d="M5.7,12.9c0-1.1,0.2-2.1,0.7-3.1C6.6,9.3,6.9,9,7.1,8.6c0-0.1,0-0.1,0-0.1c-0.5-0.5-1-1-1.5-1.5
			c0,0-0.1,0-0.1,0C5.2,7.1,4.9,7.1,4.5,7.1C4.3,7.1,4.1,7,3.9,6.8C3.1,5.9,2.2,5.1,1.3,4.2c-0.3-0.3-0.7-0.7-1-1C0,2.9,0,2.7,0,2.3
			c0-0.4,0.2-0.8,0.5-1.2c0.3-0.4,0.6-0.7,1-0.9C1.9,0.1,2.2,0,2.6,0C2.8,0,3,0.1,3.2,0.3C4.4,1.5,5.6,2.7,6.9,4
			c0.2,0.2,0.3,0.5,0.2,0.8C7.1,5,7,5.3,6.9,5.5c0,0,0,0.1,0,0.1c0.5,0.5,1,1,1.6,1.6c0,0,0.1,0,0.1,0C9.2,6.7,9.9,6.3,10.7,6
			c0.5-0.1,0.9-0.2,1.4-0.3c0.3,0,0.6,0,0.9,0c1,0,2,0.2,3,0.7c0.7,0.3,1.3,0.7,1.8,1.2c0.9,0.9,1.6,1.9,2,3.1
			c0.1,0.4,0.2,0.9,0.3,1.3c0,0.4,0.1,0.7,0,1.1c0,0.9-0.2,1.8-0.6,2.6c-0.3,0.7-0.7,1.3-1.2,1.9c-0.5,0.6-1.2,1.1-1.8,1.5
			c-0.6,0.3-1.2,0.6-1.9,0.7c-0.3,0.1-0.7,0.1-1,0.1c-0.3,0-0.7,0-1,0c-0.8-0.1-1.6-0.2-2.4-0.6c-0.7-0.3-1.3-0.7-1.9-1.3
			c-0.8-0.7-1.3-1.5-1.7-2.4c-0.2-0.6-0.4-1.1-0.5-1.7C5.7,13.6,5.7,13.2,5.7,12.9z M7.2,12.9c-0.1,3,2.6,5.7,5.6,5.6
			c3.1,0,5.6-2.6,5.6-5.6c0-3-2.5-5.6-5.6-5.6C9.8,7.2,7.2,9.8,7.2,12.9z"/>
	</g>
</g>
</svg>
