<?xml version="1.0" encoding="utf-8"?>
<!-- Generator: Adobe Illustrator 22.0.1, SVG Export Plug-In . SVG Version: 6.00 Build 0)  -->
<svg version="1.1" id="圖層_1" xmlns="http://www.w3.org/2000/svg" xmlns:xlink="http://www.w3.org/1999/xlink" x="0px" y="0px"
	 viewBox="0 0 20 20" style="enable-background:new 0 0 20 20;" xml:space="preserve">
<style type="text/css">
	.st0{fill:#FFFFFF;}
</style>
<g>
	<g>
		<path class="st0" d="M14.4,7c0,1.1-0.2,2.1-0.7,3.1c-0.2,0.5-0.5,0.8-0.7,1.2c0,0.1,0,0.1,0,0.1c0.5,0.5,1,1,1.5,1.5h0.1
			c0.3-0.1,0.6-0.1,1-0.1c0.2,0,0.4,0.1,0.6,0.3c0.8,0.9,1.7,1.7,2.6,2.6c0.3,0.3,0.7,0.7,1,1c0.3,0.3,0.3,0.5,0.3,0.9
			c0,0.4-0.2,0.8-0.5,1.2c-0.3,0.4-0.6,0.7-1,0.9c-0.4,0.1-0.7,0.2-1.1,0.2c-0.2,0-0.4-0.1-0.6-0.3c-1.2-1.2-2.4-2.4-3.7-3.7
			c-0.2-0.2-0.3-0.5-0.2-0.8c0-0.2,0.1-0.5,0.2-0.7v-0.1c-0.5-0.5-1-1-1.6-1.6h-0.1c-0.6,0.5-1.3,0.9-2.1,1.2
			C8.9,14,8.5,14.1,8,14.2c-0.3,0-0.6,0-0.9,0c-1,0-2-0.2-3-0.7c-0.7-0.3-1.3-0.7-1.8-1.2c-0.9-0.9-1.6-1.9-2-3.1
			C0.2,8.8,0.1,8.3,0,7.9c0-0.4-0.1-0.7,0-1.1C0,5.9,0.2,5,0.6,4.2c0.3-0.7,0.7-1.3,1.2-1.9S3,1.2,3.6,0.8c0.6-0.3,1.2-0.6,1.9-0.7
			C5.8,0,6.2,0,6.5,0s0.7,0,1,0c0.8,0.1,1.6,0.2,2.4,0.6c0.7,0.3,1.3,0.7,1.9,1.3c0.8,0.7,1.3,1.5,1.7,2.4C13.7,4.9,13.9,5.4,14,6
			C14.4,6.3,14.4,6.7,14.4,7z M12.9,7c0.1-3-2.6-5.7-5.6-5.6C4.2,1.4,1.7,4,1.7,7s2.5,5.6,5.6,5.6C10.3,12.7,12.9,10.1,12.9,7z"/>
	</g>
</g>
</svg>
