<svg xmlns="http://www.w3.org/2000/svg" width="190" height="70" viewBox="0 0 190 70">
  <g id="TMTS_2024_tw_logo" transform="translate(-320 -24)">
    <rect id="矩形_188" data-name="矩形 188" width="190" height="70" transform="translate(320 24)" fill="#fff" opacity="0"/>
    <g id="组_675" data-name="组 675" transform="translate(0 -4)">
      <g id="组_439" data-name="组 439" transform="translate(321.208 56.578)">
        <path id="路径_1343" data-name="路径 1343" d="M387.5,190.895a33.336,33.336,0,0,1,4.983,5.494l-1.479,1.1a14.766,14.766,0,0,0-1.1-1.553c-10.42.548-11.632.587-12.484.89a16.425,16.425,0,0,0-.569-1.724,3.489,3.489,0,0,0,1.553-1.08,30.357,30.357,0,0,0,4.187-5.247l1.761.757a37.266,37.266,0,0,1-4.527,5.229l8.809-.361c-.814-.91-1.686-1.819-2.5-2.577Zm-9.226,7.369h12.275V206.3h-1.874v-.965h-8.62v1h-1.781Zm1.781,1.687v3.674h8.62v-3.674Z" transform="translate(-376.85 -188.774)" fill="#0d2245"/>
        <path id="路径_1344" data-name="路径 1344" d="M397.686,197.269a12.114,12.114,0,0,0-2.709-1.971l.966-1.212a11.613,11.613,0,0,1,2.765,1.819Zm-2.33,7.88a61.632,61.632,0,0,0,2.348-6l1.4.909c-.606,1.951-1.42,4.224-2.179,5.985Zm2.652-12.749a12,12,0,0,0-2.634-2.1l1.023-1.155a12.29,12.29,0,0,1,2.69,1.932Zm2.216,3.581a9.2,9.2,0,0,1-.8,2.557,4.334,4.334,0,0,0-.814-.549,6.722,6.722,0,0,0,.682-2.235Zm2.443-.757a3.788,3.788,0,0,0-.19-.569,14.192,14.192,0,0,0-3.22.55,5.979,5.979,0,0,0-.379-.815,1.676,1.676,0,0,0,.891-.625,11.66,11.66,0,0,0,1.06-1.325,7.49,7.49,0,0,0-1.629.245,3.026,3.026,0,0,0-.379-.795,1.137,1.137,0,0,0,.625-.493,9.947,9.947,0,0,0,1.117-2.369l1.042.361a11.088,11.088,0,0,1-1.25,2.159l1.1-.058a9.087,9.087,0,0,0,.474-.852l1,.419a17.315,17.315,0,0,1-2.179,2.9l1.383-.169c-.095-.191-.208-.38-.3-.551l.8-.284a8.784,8.784,0,0,1,.87,1.913Zm8.979,7.16a3.57,3.57,0,0,1-.113.662c-.322,1.573-.7,2.406-1.194,2.785a2.491,2.491,0,0,1-1.573.437c-.567,0-1.723,0-2.9-.058a3.027,3.027,0,0,0-.474-1.344c1.156.113,2.387.132,2.86.132a1.381,1.381,0,0,0,.815-.132,2.466,2.466,0,0,0,.68-1.344H400a29.676,29.676,0,0,0,.833-2.994h8.3v-.814H400.2v-1.06h10.57v2.936h-8.562l-.227.795Zm-10.721-4.167a9.514,9.514,0,0,0-.379-2.274l.833-.208a9.185,9.185,0,0,1,.435,2.177Zm1.649-.474a9.682,9.682,0,0,0-.588-2.066l.758-.264a7.821,7.821,0,0,1,.625,1.969Zm5.152-6h-4.509v-.986h1.913a10.7,10.7,0,0,0-.663-1.439l1.156-.266a7.4,7.4,0,0,1,.759,1.479l-.872.226h2.216Zm-4,3.523h3.579v2.785h-3.579Zm3.561-2.027h-3.524v-.89h3.524Zm-3.524.511h3.524v.891h-3.524Zm1.062,3.429h1.344v-1.041h-1.344Zm4.2-1.268a9.908,9.908,0,0,1-.8,2.557,5.151,5.151,0,0,0-.814-.569,6.888,6.888,0,0,0,.682-2.217Zm2.482-.645c-.057-.171-.132-.4-.227-.644a18.654,18.654,0,0,0-3.239.551c-.058-.151-.246-.588-.359-.815a1.729,1.729,0,0,0,.89-.644,13.559,13.559,0,0,0,1.041-1.307,6.2,6.2,0,0,0-1.629.264,4.25,4.25,0,0,0-.359-.814c.208-.019.4-.208.606-.492a9.27,9.27,0,0,0,1.138-2.349l1.022.359a10.754,10.754,0,0,1-1.212,2.14l1.08-.057c.151-.285.322-.567.454-.852l1,.437a16.234,16.234,0,0,1-2.179,2.9l1.384-.171c-.095-.171-.209-.379-.3-.549l.777-.282a9.325,9.325,0,0,1,.946,1.987Zm-1.8,3.107a10.535,10.535,0,0,0-.4-2.443l.834-.209a11.124,11.124,0,0,1,.435,2.367Zm1.819-2.993a9.075,9.075,0,0,1,.758,2.348l-.815.359a9.836,9.836,0,0,0-.719-2.424Z" transform="translate(-371.704 -188.707)" fill="#0d2245"/>
        <path id="路径_1345" data-name="路径 1345" d="M430.554,189.556v16.613h-1.744v-.833H416.421v.833h-1.666V189.556Zm-1.744,14.188v-12.6H416.421v12.6Zm-1.4-8.088a14.343,14.343,0,0,1-2.026,4.49c.322.815.738,1.326,1.231,1.42.227.077.4-.7.511-1.874a6.36,6.36,0,0,0,1.118.833c-.266,2.159-1.06,2.9-2.159,2.464a2.942,2.942,0,0,1-1.724-1.573,11.366,11.366,0,0,1-2.254,1.894,8.667,8.667,0,0,0-.985-1.08,11.1,11.1,0,0,0,1.458-1.023c-1.856.3-3.769.664-5.286.93l-.189-1.327c1.383-.189,3.447-.511,5.494-.833l.037,1.175a8.337,8.337,0,0,0,1.136-1.194,26.581,26.581,0,0,1-.927-5.284h-5.551v-1.307h5.437c-.037-.606-.076-1.213-.113-1.818h1.458c.018.6.056,1.231.095,1.818h2.67a6.986,6.986,0,0,0-1.876-1.308l.814-.814a7.944,7.944,0,0,1,1.933,1.25l-.835.872h1.157v1.307h-3.751a33.852,33.852,0,0,0,.549,3.713,12.527,12.527,0,0,0,1.175-3.012Zm-5.341.018v3.637h-4.187v-3.637Zm-1.232,1.005h-1.779v1.629h1.779Z" transform="translate(-366.09 -188.552)" fill="#0d2245"/>
        <path id="路径_1346" data-name="路径 1346" d="M439.166,190.21c-.512,1.571-1.136,3.447-1.686,4.962a6.24,6.24,0,0,1,1.478,4,2.832,2.832,0,0,1-.759,2.311,2.15,2.15,0,0,1-.985.359,6.134,6.134,0,0,1-1.193.019,3.824,3.824,0,0,0-.379-1.458,7.8,7.8,0,0,0,.927.019.991.991,0,0,0,.532-.171,1.674,1.674,0,0,0,.359-1.249A5.641,5.641,0,0,0,436,195.343c.454-1.268.909-2.841,1.231-4.092h-1.951v14.984h-1.515V189.66h4.053l.229-.058Zm2.2,5a9.421,9.421,0,0,0,.663-1.022,17.952,17.952,0,0,0-1.5-1.328,12.21,12.21,0,0,1-1.288,1.46,7.53,7.53,0,0,0-1.1-.891,10.008,10.008,0,0,0,2.9-4.509l1.363.3c-.132.379-.284.738-.435,1.1h1.724l.247-.056.909.322-.1.4.928-.226v-.852h3.278l.3-.076.985.567a14.765,14.765,0,0,1-2.406,4.338,8.366,8.366,0,0,0,2.765,2.652,4.215,4.215,0,0,0-1.022,1.231,9.184,9.184,0,0,1-2.2-2.008v1.117h-5.664v-.813a10.734,10.734,0,0,1-1.971,1.684,4.9,4.9,0,0,0-.909-1.08,8.438,8.438,0,0,0,2.33-2.064c-.87.152-1.629.284-2.424.4l-.19-1.117c.8-.076,1.686-.189,2.765-.3Zm1.173,6.857a23.978,23.978,0,0,1-2.595,3.448,11.919,11.919,0,0,0-1.4-.909,15.235,15.235,0,0,0,2.406-3.07Zm2.918-1.345v5.532h-1.668v-5.532h-3.864v-1.439H449.3v1.439Zm-4.092-9.207-.228.4c.493.341,1.023.795,1.478,1.173a13.839,13.839,0,0,0,.588-1.573Zm5.8,4.813a16.2,16.2,0,0,1-2.444-5.153,14.385,14.385,0,0,1-2.5,5.153Zm-1.043-5.191a16.446,16.446,0,0,0,.948,2.31,14.219,14.219,0,0,0,1.25-2.31Zm1.781,10.229c.872.967,2.084,2.331,2.652,3.126l-1.346.89a38.77,38.77,0,0,0-2.595-3.238Z" transform="translate(-360.694 -188.732)" fill="#0d2245"/>
        <path id="路径_1347" data-name="路径 1347" d="M469.453,202.7v1.763H452.5V202.7H459.9v-10.38h-6.4V190.5h14.966v1.819h-6.593V202.7Z" transform="translate(-355.377 -188.284)" fill="#0d2245"/>
        <path id="路径_1348" data-name="路径 1348" d="M483.2,202a46.7,46.7,0,0,1,5.532,2.765l-1.365,1.288a41.8,41.8,0,0,0-5.494-2.955l1.005-1.1h-6.062l1.515,1.023a23.246,23.246,0,0,1-5.684,3.03,11.454,11.454,0,0,0-1.268-1.288A18.355,18.355,0,0,0,476.719,202h-5.076v-1.592h2.746v-10.8h11.632v10.8h2.595V202Zm-7.047-10.968v1.344h8.033v-1.344Zm8.033,2.633H476.15V195h8.033ZM476.15,196.3v1.365h8.033V196.3Zm0,4.111h8.033v-1.439H476.15Z" transform="translate(-350.018 -188.536)" fill="#0d2245"/>
        <path id="路径_1349" data-name="路径 1349" d="M494.987,199.227a20.146,20.146,0,0,0-.909-2.064v9.131h-1.516v-8.2a20.8,20.8,0,0,1-1.553,4.225,9.066,9.066,0,0,0-.738-1.763,21.708,21.708,0,0,0,2.2-6.441h-1.743v-1.629h1.837v-3.561h1.516v3.561h1.42v1.629h-1.42v1.041c.435.627,1.5,2.388,1.724,2.842Zm11.727,1.345a10.464,10.464,0,0,1-2.2,2.936,2.347,2.347,0,0,0,1.629,1.06c.359.039.587-.645.74-1.989a4.761,4.761,0,0,0,1.136.89c-.4,2.217-1.061,2.862-1.856,2.823a3.776,3.776,0,0,1-2.86-1.781,13.694,13.694,0,0,1-3.163,1.7,8.393,8.393,0,0,0-.928-1.136,11.817,11.817,0,0,0,3.371-1.838,16.862,16.862,0,0,1-1-3.276H498.7c0,.189,0,.4-.019.587a23.918,23.918,0,0,1,2.5,2.179l-1.08,1.06a17.911,17.911,0,0,0-1.686-1.61,7.111,7.111,0,0,1-2.69,4.13,5.633,5.633,0,0,0-1.175-1.042,6.28,6.28,0,0,0,2.652-5.3h-1.326v-1.384h5.436a76.192,76.192,0,0,1-.795-9.547H502a64.392,64.392,0,0,0,.815,9.547h2.274a13.642,13.642,0,0,0-1.365-1.023l.777-.7a5.3,5.3,0,0,0-1.344.34,13.081,13.081,0,0,0-.437-1.288c.3-.076.588-.379.928-.852a15.858,15.858,0,0,0,1.023-1.534,4.948,4.948,0,0,0-1.724.359,9.911,9.911,0,0,0-.435-1.249c.227-.058.435-.3.662-.644a12.919,12.919,0,0,0,1.251-2.9l1.307.359a19.417,19.417,0,0,1-1.553,3.013l1.118-.114a10.869,10.869,0,0,0,.606-1.25l1.307.474a26.359,26.359,0,0,1-2.651,4.111l1.534-.19c-.134-.322-.266-.682-.379-.985l1.022-.284a19.825,19.825,0,0,1,.986,2.765l-1.1.379c-.056-.227-.132-.511-.209-.815-.719.114-1.268.191-1.7.266a12.635,12.635,0,0,1,1.742,1.288l-.493.474h1.536v1.384h-4.4a14.993,14.993,0,0,0,.683,2.179,8.826,8.826,0,0,0,1.458-2.123Zm-7.047-2.936c-.039-.209-.076-.454-.134-.719-2.519.339-2.954.453-3.22.6a9.166,9.166,0,0,0-.435-1.268c.3-.058.625-.38.965-.853a16.264,16.264,0,0,0,1.06-1.553,5.669,5.669,0,0,0-1.781.379c-.074-.285-.284-.928-.416-1.25a1.317,1.317,0,0,0,.7-.682,13.481,13.481,0,0,0,1.439-3.163l1.308.379a21.584,21.584,0,0,1-1.763,3.3l1.175-.114c.227-.4.435-.814.625-1.23l1.27.474a29.069,29.069,0,0,1-2.747,4.09l1.515-.189c-.113-.361-.245-.72-.359-1.043l1.061-.284a17.329,17.329,0,0,1,.91,2.746Z" transform="translate(-344.655 -188.732)" fill="#0d2245"/>
        <path id="路径_1350" data-name="路径 1350" d="M513.237,194.208v.89c0,3.239-.284,7.938-2.235,11.026a7.109,7.109,0,0,0-1.573-.91c1.876-2.917,2.046-7.1,2.046-10.116v-5.513H525.7v4.623Zm0-3.107v1.61h10.7V191.1Zm12.692,10.306a19.933,19.933,0,0,1-2.746,1.7,10.394,10.394,0,0,0,3.826,1.535,5.429,5.429,0,0,0-1.061,1.458,9.658,9.658,0,0,1-6.857-5.571H516.8V204l3.676-.778a8.376,8.376,0,0,0-.114,1.478c-4.47,1.022-5.076,1.193-5.456,1.44v.018a5.187,5.187,0,0,0-.7-1.458,1.787,1.787,0,0,0,.966-1.573v-2.6h-1.875v-1.476H516.4V197.37h-2.635v-1.5H516.4v-1.648h1.609v1.648h3.373v-1.648h1.649v1.648H526v1.5h-2.973v1.687h3.75v1.476h-2.121Zm-7.919-2.349h3.373V197.37H518.01Zm2.767,1.476a6.972,6.972,0,0,0,1.288,1.687,19.071,19.071,0,0,0,2.5-1.687Z" transform="translate(-339.216 -188.544)" fill="#0d2245"/>
      </g>
      <g id="组_453" data-name="组 453" transform="translate(320 29.176)">
        <g id="组_451" data-name="组 451" transform="translate(106.004)">
          <path id="路径_1385" data-name="路径 1385" d="M458.476,178.168c0-2.389,2.025-3.374,4.942-4.3l5.56-1.791c.894-.3,1.374-.419,1.374-1.194v-2.03c0-.448-.172-.6-.687-.6h-5.423c-.515,0-.686.149-.686.6v1.969h-4.805v-2.329c0-2.836,1.544-4.179,4.805-4.179h6.933c3.26,0,4.8,1.343,4.8,4.179v3.344c0,2.388-2.025,3.374-4.942,4.3l-5.56,1.791c-.892.3-1.374.417-1.374,1.194v2.15h11.945v3.94H458.476Z" transform="translate(-458.476 -164.315)" fill="#0d2245"/>
          <path id="路径_1386" data-name="路径 1386" d="M475,181.033V168.494c0-2.836,1.544-4.179,4.8-4.179h8.2c3.261,0,4.805,1.343,4.805,4.179v12.539c0,2.836-1.545,4.18-4.805,4.18h-8.2C476.543,185.214,475,183.869,475,181.033Zm12.184.24c.515,0,.687-.15.687-.6V168.853c0-.448-.172-.6-.687-.6h-6.555c-.515,0-.686.149-.686.6v11.823c0,.447.171.6.686.6Z" transform="translate(-453.786 -164.315)" fill="#0d2245"/>
          <path id="路径_1387" data-name="路径 1387" d="M492.351,178.168c0-2.389,2.025-3.374,4.942-4.3l5.56-1.791c.894-.3,1.374-.419,1.374-1.194v-2.03c0-.448-.172-.6-.687-.6h-5.423c-.515,0-.686.149-.686.6v1.969h-4.805v-2.329c0-2.836,1.544-4.179,4.805-4.179h6.933c3.26,0,4.8,1.343,4.8,4.179v3.344c0,2.388-2.025,3.374-4.942,4.3l-5.56,1.791c-.892.3-1.374.417-1.374,1.194v2.15h11.945v3.94H492.351Z" transform="translate(-448.86 -164.315)" fill="#0d2245"/>
          <path id="路径_1388" data-name="路径 1388" d="M519.016,180.914H508.033L507,177.391l12.287-13.076h4.531v12.778h3.466v3.821H523.82v4.3h-4.8Zm0-3.821v-6.539l-5.972,6.539Z" transform="translate(-444.701 -164.315)" fill="#0d2245"/>
        </g>
        <g id="组_452" data-name="组 452" transform="translate(0 0.083)">
          <path id="路径_1389" data-name="路径 1389" d="M377.217,168.928l-1.307-4.549h23.108l-1.307,4.549h-8.223v16.341H385.06V168.928Z" transform="translate(-375.909 -164.38)" fill="#0d2245"/>
          <path id="路径_1390" data-name="路径 1390" d="M416.422,164.38H413.3l-6.494,13.982-6.452-13.982h-3.12l-5.988,20.889h4.891l3.289-12.214,6.072,12.214h2.657l6.156-12.424,3.163,12.424h4.891Z" transform="translate(-371.556 -164.38)" fill="#0d2245"/>
          <path id="路径_1391" data-name="路径 1391" d="M449.263,173.056h-11.6l-1.433-2.107,1.6-2.021h13.789l1.265-4.549h-16.36s-5.144-.127-5.144,5.98c0,0-.212,6.233,4.722,6.233h11.6l1.434,2.106-1.6,2.022H433.323l-1.265,4.549h16.783s5.144.126,5.144-5.98C453.985,179.289,454.2,173.056,449.263,173.056Z" transform="translate(-360.163 -164.38)" fill="#0d2245"/>
          <path id="路径_1392" data-name="路径 1392" d="M413.45,164.38l1.266,4.591h7.843v16.341h4.428V168.929h7.758c.716-3.454,2.235-4.549,2.235-4.549Z" transform="translate(-365.253 -164.38)" fill="#0d2245"/>
        </g>
      </g>
      <rect id="矩形_184" data-name="矩形 184" width="189" height="19" transform="translate(320 78.5)" fill="#0d2245"/>
      <g id="组_554" data-name="组 554" transform="translate(-412.736 -42.841)">
        <path id="路径_1520" data-name="路径 1520" d="M822.056,125.36h1.22v12.129h-1.22Z" transform="translate(-9.781 -1.019)" fill="#fff"/>
        <path id="路径_1521" data-name="路径 1521" d="M837.205,127.616v.615h3.563v5.746c0,.7-.17,1.028-.646,1.24a5.1,5.1,0,0,1-1.962.223,5.157,5.157,0,0,0-.5-1.283c.434.032,1.1.032,1.261.021.191,0,.254-.053.254-.212v-4.325h-1.749l1.061.286c-.212.37-.414.71-.6.986h.721v1.177h-1.58v.488h1.834V133.8h-1.834v1.325h-1.452V133.8h-1.781v-1.219h1.781v-.488h-1.558v-1.177h.795a7.236,7.236,0,0,0-.467-1.028l.859-.244h-1.749v5.81H831.9v-7.22h3.616v-.615h-3.913v-1.431h3.913v-.667h1.685v.667h3.86v1.431Zm-.583,3.234a8.247,8.247,0,0,0,.552-1.208h-1.527a7.023,7.023,0,0,1,.487.986l-.869.286h1.58Z" transform="translate(-10.889 -0.038)" fill="#fff"/>
        <path id="路径_1522" data-name="路径 1522" d="M846.816,130.477a7.1,7.1,0,0,0-1.792-1.04l.838-1.167a7.017,7.017,0,0,1,1.845.923Zm3.9,2.64v.509c0,.423.085.476.678.476h1.591c.477,0,.561-.148.625-1.017a4.355,4.355,0,0,0,1.294.519c-.18,1.421-.583,1.813-1.792,1.813h-1.877c-1.495,0-1.93-.392-1.93-1.77v-1.591a6.073,6.073,0,0,1-.773.711,5.517,5.517,0,0,0-.435-.541c-.435,1.061-.933,2.142-1.431,3.138l-1.39-.911a30.491,30.491,0,0,0,1.707-3.4l.626.477a5.812,5.812,0,0,0,1.612-1.824h-1.452v-1.378H849.4v-.552h-1.24v-1.208l-.764,1.081a7.3,7.3,0,0,0-1.813-1.081l.849-1.155a7.482,7.482,0,0,1,1.865.964l-.02.032H849.4v-1H850.9v1h1.134v-1h1.516v1H854.8v1.368h-1.252v.552h1.58V129.7H853.7a5.353,5.353,0,0,0,1.654,1.686,5.646,5.646,0,0,0-1.081,1.219,5.342,5.342,0,0,1-.923-.911v1.421Zm.042-3.414a7.025,7.025,0,0,1-.329.7H852.5a7.039,7.039,0,0,1-.329-.7Zm1.219,1.834h-1.261v.445h1.261Zm-1.081-3.212h1.134v-.552H850.9Z" transform="translate(-12.446 -0.025)" fill="#fff"/>
        <path id="路径_1523" data-name="路径 1523" d="M868.506,133.086a11.165,11.165,0,0,1-1.124.667,5.881,5.881,0,0,0,1.527.477,5.413,5.413,0,0,0-.9,1.272,4.965,4.965,0,0,1-3.584-2.947h-.88v1.378l1.505-.265a8.284,8.284,0,0,0-.137,1.273,11.667,11.667,0,0,0-2.8.667v.011a3.981,3.981,0,0,0-.54-1.219,1.272,1.272,0,0,0,.561-1.092v-.753H861.4v-1.283h1.378v-.52h-1.2v-1.272h1.2v-.541h-1.336v.106c0,1.9-.18,4.76-1.3,6.52a6.9,6.9,0,0,0-1.39-.8c1.061-1.611,1.135-4.028,1.135-5.725v-3.17h8.354v3.064h-1.346v.541h1.378v1.272h-1.378v.52h1.866v1.283h-1.039Zm-7.06-5.439h5.238v-.477h-5.238Zm2.746,1.834h1.272v-.541h-1.272Zm0,1.792h1.272v-.52h-1.272Zm1.718,1.283a2.832,2.832,0,0,0,.4.467c.244-.149.5-.308.71-.467Z" transform="translate(-14.038 -0.079)" fill="#fff"/>
        <path id="路径_1524" data-name="路径 1524" d="M881.052,134.231c.308,0,.371-.106.424-.7a3.885,3.885,0,0,0,1.251.445c-.149,1.092-.52,1.389-1.516,1.389h-1.431c-1.41,0-1.76-.339-1.76-1.421v-.255h-.943c-.308,1.018-1.093,1.538-3.817,1.781a3.625,3.625,0,0,0-.647-1.166c1.993-.074,2.629-.233,2.894-.615h-1.251v-3.647h6.881v3.647h-1.612v.244c0,.276.074.3.466.3Zm-3.372-4.421h-4.516V125.7h4.421v.838H876.2v.286h1.23v.065a3.436,3.436,0,0,0,1.092-1.464l1.3.212a2.955,2.955,0,0,1-.117.276h2.778v.923H879.2c-.042.074-.106.149-.159.223h2.99v.816h-3.349v-.392a5.752,5.752,0,0,1-.446.4,4.22,4.22,0,0,0-.806-.752v1.515H876.2v.339h1.484Zm-3.223-3.276v.286h.552v-.286Zm0,1.049v.308h1.686v-.308Zm0,1.4h.552v-.339h-.552Zm1.251,2.057h3.9v-.255h-3.9Zm0,.954h3.9v-.255h-3.9Zm0,.955h3.9v-.255h-3.9Zm2.312-4.866h4.3V129.8h-4.3Zm.986,1.049h.286v-.392h-.286Zm.986,0h.3v-.392h-.3Zm1,0h.3v-.392h-.3Z" transform="translate(-15.646 -0.026)" fill="#fff"/>
        <path id="路径_1525" data-name="路径 1525" d="M892.461,131.342v.488h3.52V135.4h-1.347v-.275h-2.173v.3H891.1v-6.817h-.467v-1.761l-.4.8c-.085-.053-.2-.106-.318-.17v.891H888v-.636a7.038,7.038,0,0,1-1.07.849,8.76,8.76,0,0,0-.561-1.39,5.878,5.878,0,0,0,2.088-1.993l1.187.436c-.042.084-.1.169-.149.264.477.18,1.029.392,1.347.552l-.064.117h2.131c-.139-.265-.3-.552-.424-.785l1.368-.551a10.89,10.89,0,0,1,.667,1.155l-.381.18h2.247v2.046h-.869v2.735Zm-2.672,1.219c.329.647.764,1.527.965,2.057l-1.1.53c-.064-.191-.149-.435-.255-.69a9.92,9.92,0,0,0-2.364.954,4.048,4.048,0,0,0-.467-1.251.656.656,0,0,0,.435-.668v-4.9h3.414v3.955h-2.109v1.017l.625-.19-.17-.371Zm-1.483-2.884v.382h.773v-.382Zm.773,1.792V131.1h-.773v.371Zm.647-4.093c-.308-.149-.658-.308-.976-.445-.127.158-.265.3-.392.445Zm2.183.382v.509h3.138v-.509Zm2.3,1.707h-1.749v.678h1.749Zm-1.749,3.616v.763h2.173v-.763Z" transform="translate(-17.241)" fill="#fff"/>
        <path id="路径_1526" data-name="路径 1526" d="M900.9,133.114h1.675v-4.283h-1.452v-1.167a5.511,5.511,0,0,0,1.95-.72h1.39v6.17h1.421v1.527H900.9Z" transform="translate(-18.927 -0.203)" fill="#fff"/>
        <path id="路径_1527" data-name="路径 1527" d="M909.392,132.476a2.547,2.547,0,0,1,1.431-2.215,3.523,3.523,0,0,1-.477-1.622,2.071,2.071,0,0,1,2.194-2.078,1.789,1.789,0,0,1,1.993,1.813c0,1.039-.806,1.675-1.633,2.226a10.317,10.317,0,0,0,1.516,1.346,5.133,5.133,0,0,0,.89-1.845h1.718a8.3,8.3,0,0,1-1.314,2.64,4.761,4.761,0,0,0,1.357.477l-.445,1.527a6.818,6.818,0,0,1-2.068-.785,4.15,4.15,0,0,1-2.491.785C910.294,134.745,909.392,133.674,909.392,132.476Zm2.9.827a1.912,1.912,0,0,0,.923-.265,10.83,10.83,0,0,1-1.569-1.548,1.237,1.237,0,0,0-.467.869C911.184,132.921,911.619,133.3,912.3,133.3Zm-.158-3.775c.551-.318.954-.658.954-1.155,0-.361-.17-.583-.509-.583-.382,0-.689.318-.689.849A1.966,1.966,0,0,0,912.139,129.528Z" transform="translate(-19.913 -0.159)" fill="#fff"/>
        <path id="路径_1528" data-name="路径 1528" d="M920.636,133.54c1.909-1.781,3.3-3.1,3.3-4.178a.973.973,0,0,0-1.028-1.113,2,2,0,0,0-1.336.763L920.541,128a3.3,3.3,0,0,1,2.618-1.219,2.4,2.4,0,0,1,2.587,2.48c0,1.283-1.2,2.651-2.386,3.881a11.188,11.188,0,0,1,1.294-.106h1.452v1.59h-5.471Z" transform="translate(-21.206 -0.184)" fill="#fff"/>
        <path id="路径_1529" data-name="路径 1529" d="M935.553,131.342v.488h3.519V135.4h-1.346v-.275h-2.173v.3H934.2v-6.817h-.466v-1.761l-.4.8c-.085-.053-.2-.106-.318-.17v.891h-1.919v-.636a7.078,7.078,0,0,1-1.071.849,8.742,8.742,0,0,0-.561-1.39,5.877,5.877,0,0,0,2.088-1.993l1.187.436c-.042.084-.1.169-.148.264.477.18,1.029.392,1.347.552l-.064.117H936c-.138-.265-.3-.552-.424-.785l1.368-.551a11.06,11.06,0,0,1,.667,1.155l-.381.18h2.247v2.046h-.869v2.735Zm-2.672,1.219c.329.647.764,1.527.964,2.057l-1.1.53c-.063-.191-.149-.435-.255-.69a9.92,9.92,0,0,0-2.364.954,4.048,4.048,0,0,0-.467-1.251.657.657,0,0,0,.435-.668v-4.9h3.414v3.955H931.4v1.017l.626-.19-.17-.371Zm-1.484-2.884v.382h.774v-.382Zm.774,1.792V131.1H931.4v.371Zm.646-4.093c-.307-.149-.657-.308-.975-.445-.127.158-.265.3-.393.445Zm2.184.382v.509h3.138v-.509Zm2.3,1.707h-1.749v.678H937.3Zm-1.749,3.616v.763h2.173v-.763Z" transform="translate(-22.24)" fill="#fff"/>
        <path id="路径_1531" data-name="路径 1531" d="M958.711,126.716h2.047l1.251,3.414c.16.455.287.954.436,1.431h.052c.16-.477.286-.976.435-1.431l1.209-3.414H966.2v7.9h-1.727v-2.7a23.817,23.817,0,0,1,.254-2.736h-.053l-.657,1.887-1.061,2.884h-1.039l-1.071-2.884-.635-1.887h-.043a25.98,25.98,0,0,1,.244,2.736v2.7h-1.7Z" transform="translate(-220.975 -0.177)" fill="#fff"/>
        <path id="路径_1532" data-name="路径 1532" d="M972.358,126.716h2.268l2.45,7.9h-1.993l-.456-1.813h-2.333l-.455,1.813h-1.93Zm.3,4.622h1.612l-.17-.668c-.213-.784-.414-1.728-.627-2.534h-.042c-.191.827-.4,1.749-.6,2.534Z" transform="translate(-222.274 -0.177)" fill="#fff"/>
        <path id="路径_1533" data-name="路径 1533" d="M980.755,126.716h2.894c1.687,0,3.086.583,3.086,2.491a2.336,2.336,0,0,1-1.358,2.28l1.761,3.128h-2.122l-1.451-2.778h-.912v2.778h-1.9Zm2.746,3.625c.9,0,1.39-.392,1.39-1.134s-.488-.986-1.39-.986h-.848v2.12Z" transform="translate(-223.532 -0.177)" fill="#fff"/>
        <path id="路径_1534" data-name="路径 1534" d="M995.059,133.54c1.909-1.781,3.3-3.1,3.3-4.178a.975.975,0,0,0-1.029-1.113,2,2,0,0,0-1.336.763L994.964,128a3.3,3.3,0,0,1,2.618-1.219,2.4,2.4,0,0,1,2.588,2.48c0,1.283-1.2,2.651-2.387,3.881a11.2,11.2,0,0,1,1.294-.106h1.452v1.59h-5.471Z" transform="translate(-225.18 -0.184)" fill="#fff"/>
        <path id="路径_1535" data-name="路径 1535" d="M1007.68,128.523h-3.393v-1.579h5.407v1.166c-1.781,2.109-2.015,3.531-2.153,6.531h-1.9A10.249,10.249,0,0,1,1007.68,128.523Z" transform="translate(-226.262 -0.203)" fill="#fff"/>
        <path id="路径_1536" data-name="路径 1536" d="M1013.383,131.429h3v1.325h-3Z" transform="translate(-227.317 -0.724)" fill="#fff"/>
        <path id="路径_1537" data-name="路径 1537" d="M1019.467,133.667l.87-1.187a2.452,2.452,0,0,0,1.643.764c.732,0,1.208-.3,1.208-.849,0-.646-.36-1.028-2.015-1.028v-1.336c1.346,0,1.771-.4,1.771-.976,0-.519-.318-.805-.9-.805a2.071,2.071,0,0,0-1.411.667l-.954-1.155a3.777,3.777,0,0,1,2.45-.986c1.632,0,2.7.773,2.7,2.131a1.793,1.793,0,0,1-1.262,1.7v.054a1.908,1.908,0,0,1,1.517,1.865c0,1.442-1.346,2.248-2.916,2.248A3.385,3.385,0,0,1,1019.467,133.667Z" transform="translate(-228.023 -0.184)" fill="#fff"/>
        <path id="路径_1538" data-name="路径 1538" d="M1029.223,133.114h1.675v-4.283h-1.453v-1.167a5.515,5.515,0,0,0,1.951-.72h1.389v6.17h1.42v1.527h-4.982Z" transform="translate(-229.155 -0.203)" fill="#fff"/>
      </g>
    </g>
  </g>
</svg>
