<?xml version="1.0" encoding="utf-8"?>
<!-- Generator: Adobe Illustrator 25.1.0, SVG Export Plug-In . SVG Version: 6.00 Build 0)  -->
<svg version="1.1" id="Capa_1" xmlns="http://www.w3.org/2000/svg" xmlns:xlink="http://www.w3.org/1999/xlink" x="0px" y="0px"
	 viewBox="0 0 512.1 512.1" style="enable-background:new 0 0 512.1 512.1;" xml:space="preserve">
<style type="text/css">
	.st0{fill:#FFFFFF;}
</style>
<path class="st0" d="M96.7,377.7H51.2c-12.5,0-22.8,10.2-22.8,22.8V499c0,4.2,3.4,7.6,7.6,7.6h75.8c4.2,0,7.6-3.4,7.6-7.6v-98.6
	C119.5,387.9,109.4,377.7,96.7,377.7z M104.4,491.5H43.7v-91c0-4.2,3.4-7.6,7.6-7.6h45.5c4.2,0,7.6,3.4,7.6,7.6L104.4,491.5
	L104.4,491.5z"/>
<path class="st0" d="M218.2,271.5h-45.5c-12.5,0-22.8,10.2-22.8,22.8V499c0,4.2,3.4,7.6,7.6,7.6h75.8c4.2,0,7.6-3.4,7.6-7.6V294.2
	C240.9,281.7,230.7,271.6,218.2,271.5z M225.7,491.5H165V294.2c0-4.2,3.4-7.6,7.6-7.6h45.5c4.2,0,7.6,3.4,7.6,7.6L225.7,491.5
	L225.7,491.5z"/>
<path class="st0" d="M339.5,317H294c-12.5,0-22.8,10.2-22.8,22.8V499c0,4.2,3.4,7.6,7.6,7.6h75.9c4.2,0,7.6-3.4,7.6-7.6V339.7
	C362.3,327.2,352,317.1,339.5,317z M347.1,491.5h-60.7V339.7c0-4.2,3.4-7.6,7.6-7.6h45.5c4.2,0,7.6,3.4,7.6,7.6L347.1,491.5
	L347.1,491.5z"/>
<path class="st0" d="M460.8,256.4h-45.5c-12.5,0-22.8,10.2-22.8,22.8v220c0,4.2,3.4,7.6,7.6,7.6H476c4.2,0,7.6-3.4,7.6-7.6v-220
	C483.6,266.5,473.5,256.4,460.8,256.4z M468.5,491.5h-60.7V279.1c0-4.2,3.4-7.6,7.6-7.6h45.5c4.2,0,7.6,3.4,7.6,7.6L468.5,491.5
	L468.5,491.5z"/>
<path class="st0" d="M404.1,142.4c13.9,15.6,36.7,19.8,55.2,10s28-30.8,22.9-51.2S459,66.7,438.1,66.7c-15.2,0-29.4,7.6-37.9,20.2
	c-8.4,12.6-10,28.6-4.3,42.7l-45.3,28.4c-8.2-9.2-19.7-14.8-32.1-15.3c-12.4-0.5-24.4,4-33.2,12.5l-49.7-37.2
	c10.7-20.3,4.5-45.2-14.2-58.3s-44.3-10.1-59.6,6.8s-15.8,42.6-1,60l-63.6,75.6c-20.4-12-46.6-6.4-60.3,13s-10.2,45.9,7.8,61.1
	c18,15.2,44.9,14,61.5-2.8c16.6-16.8,17.8-43.6,2.4-61.6l63.6-75.6c17.4,10.4,39.7,7.8,54.4-6.2l49.7,37.2
	c-9.7,18.8-5.2,41.6,10.8,55.4c16,13.8,39.3,14.8,56.4,2.4c17.1-12.4,23.5-34.8,15.4-54.2L404.1,142.4z M438.1,81.9
	c16.8,0,30.3,13.6,30.3,30.3s-13.6,30.3-30.3,30.3c-16.8,0-30.3-13.6-30.3-30.3S421.4,81.9,438.1,81.9z M74,271.5
	c-16.8,0-30.3-13.6-30.3-30.3s13.6-30.3,30.3-30.3s30.3,13.6,30.3,30.3S90.8,271.5,74,271.5z M195.4,127.4
	c-16.8,0-30.3-13.6-30.3-30.3s13.6-30.3,30.3-30.3s30.3,13.6,30.3,30.3C225.7,113.8,212.1,127.4,195.4,127.4z M316.8,218.4
	c-16.8,0-30.3-13.6-30.3-30.3s13.6-30.3,30.3-30.3c16.8,0,30.3,13.6,30.3,30.3S333.5,218.4,316.8,218.4z"/>
</svg>
