<svg id="圖層_1" data-name="圖層 1" xmlns="http://www.w3.org/2000/svg" viewBox="0 0 24.69 32"><path d="M17.19.55v7h7Zm0,0"/><path d="M16.25,9.38a.94.94,0,0,1-.94-.94V0H.94A.94.94,0,0,0,0,.94V31.06A.94.94,0,0,0,.94,32H23.75a.94.94,0,0,0,.94-.94V9.38ZM3.82,5.5A2.87,2.87,0,1,1,7.4,9.33V10a.94.94,0,1,1-1.87,0V8.55a.94.94,0,0,1,.94-.94,1,1,0,1,0-.92-1.38A.94.94,0,0,1,3.82,5.5ZM7.4,13.74a.94.94,0,0,1-.27.66.92.92,0,0,1-.66.28.94.94,0,0,1-.94-.94,1,1,0,0,1,.27-.66.93.93,0,0,1,1.33,0,1,1,0,0,1,.27.66ZM20,28.19H4.84a.94.94,0,0,1,0-1.88H20a.94.94,0,0,1,0,1.88Zm0-3.75H4.84a.94.94,0,0,1,0-1.88H20a.94.94,0,0,1,0,1.88Zm0-3.75H4.84a.94.94,0,0,1,0-1.88H20a.94.94,0,0,1,0,1.88Zm0-3.75H10.06a.94.94,0,0,1,0-1.88H20a.94.94,0,1,1,0,1.88Zm0-3.75H10.06a.94.94,0,0,1,0-1.88H20a.94.94,0,0,1,0,1.88Zm0,0"/></svg>