<svg xmlns="http://www.w3.org/2000/svg" viewBox="0 0 512.01 512.07"><defs><style>.cls-1{fill:#fff;}</style></defs><g id="圖層_2" data-name="圖層 2"><g id="Capa_1" data-name="Capa 1"><path class="cls-1" d="M76.8,367H25.6A25.62,25.62,0,0,0,0,392.61V503.54a8.53,8.53,0,0,0,8.53,8.53H93.87a8.53,8.53,0,0,0,8.53-8.53V392.61A25.62,25.62,0,0,0,76.8,367Zm8.53,128H17.07V392.61a8.55,8.55,0,0,1,8.53-8.54H76.8a8.55,8.55,0,0,1,8.53,8.54V495Z"/><path class="cls-1" d="M213.33,247.54h-51.2a25.63,25.63,0,0,0-25.6,25.6v230.4a8.53,8.53,0,0,0,8.54,8.53H230.4a8.53,8.53,0,0,0,8.53-8.53V273.14A25.62,25.62,0,0,0,213.33,247.54ZM221.87,495H153.6V273.14a8.54,8.54,0,0,1,8.53-8.53h51.2a8.55,8.55,0,0,1,8.54,8.53V495Z"/><path class="cls-1" d="M349.87,298.74h-51.2a25.62,25.62,0,0,0-25.6,25.6v179.2a8.53,8.53,0,0,0,8.53,8.53h85.33a8.53,8.53,0,0,0,8.54-8.53V324.34A25.63,25.63,0,0,0,349.87,298.74ZM358.4,495H290.13V324.34a8.55,8.55,0,0,1,8.54-8.53h51.2a8.54,8.54,0,0,1,8.53,8.53V495Z"/><path class="cls-1" d="M486.4,230.47H435.2a25.64,25.64,0,0,0-25.6,25.6V503.54a8.53,8.53,0,0,0,8.53,8.53h85.34a8.53,8.53,0,0,0,8.53-8.53V256.07A25.63,25.63,0,0,0,486.4,230.47ZM494.93,495H426.67V256.07a8.54,8.54,0,0,1,8.53-8.53h51.2a8.54,8.54,0,0,1,8.53,8.53V495Z"/><path class="cls-1" d="M422.58,102.29a51,51,0,1,0-9.1-14.45l-51,31.88a51,51,0,0,0-73.43-3.12L233.21,74.71a51.2,51.2,0,1,0-84.5,9.62l-71.54,85a51.21,51.21,0,1,0,13.06,11l71.54-85a50.85,50.85,0,0,0,61.18-7l55.85,41.89a51.19,51.19,0,1,0,92.79,3.93ZM460.8,34.21a34.13,34.13,0,1,1-34.13,34.13A34.13,34.13,0,0,1,460.8,34.21ZM51.2,247.54a34.14,34.14,0,1,1,34.13-34.13A34.13,34.13,0,0,1,51.2,247.54ZM187.73,85.41a34.14,34.14,0,1,1,34.14-34.14A34.14,34.14,0,0,1,187.73,85.41Zm136.54,102.4a34.14,34.14,0,1,1,34.13-34.14A34.15,34.15,0,0,1,324.27,187.81Z"/></g></g></svg>