<svg xmlns="http://www.w3.org/2000/svg" viewBox="0 0 429.92 512"><defs><style>.cls-1{fill:#fff;}</style></defs><g id="圖層_2" data-name="圖層 2"><g id="Capa_1" data-name="Capa 1"><path class="cls-1" d="M367,63A215,215,0,0,0,22.61,118.9,7.49,7.49,0,0,0,36,125.6,200,200,0,0,1,215,15c110.27,0,200,89.72,200,200,0,31.7-9.46,62-28.12,90-32.7,49.14-75.65,93.07-117.18,135.55-17.36,17.75-35.31,36.11-52.19,54.53l-1.36,1.46a1.56,1.56,0,0,1-1.15.5h0a1.54,1.54,0,0,1-1.16-.51l-1.31-1.44c-16.89-18.43-34.84-36.79-52.2-54.54C118.74,398.06,75.79,354.14,43.09,305,24.43,277,15,246.66,15,215a200.61,200.61,0,0,1,6-49,7.49,7.49,0,0,0-14.52-3.65A215.56,215.56,0,0,0,0,215c0,34.7,10.31,67.78,30.63,98.32C64.11,363.6,107.55,408,149.57,451c17.27,17.66,35.13,35.93,51.87,54.2l1.3,1.42A16.59,16.59,0,0,0,214.86,512H215A16.57,16.57,0,0,0,227,506.76l.72-.76.75-.8c16.73-18.26,34.59-36.53,51.87-54.19,42-43,85.46-87.41,118.93-137.73,20.33-30.54,30.63-63.62,30.63-98.32A213.55,213.55,0,0,0,367,63Z"/><path class="cls-1" d="M347.47,248.24a7.49,7.49,0,0,0,9.22-5.22,147.74,147.74,0,0,0,5.3-39.27c0-81.07-66-147-147-147s-147,66-147,147,66,147,147,147A147.34,147.34,0,0,0,335.3,288.26a7.49,7.49,0,0,0-12.25-8.62A132.31,132.31,0,0,1,215,335.82c-72.82,0-132.06-59.25-132.06-132.07S142.14,71.69,215,71.69,347,130.94,347,203.75A132.41,132.41,0,0,1,342.25,239a7.49,7.49,0,0,0,5.22,9.21Z"/><path class="cls-1" d="M191.94,309.56h47.6A12.48,12.48,0,0,0,252,297.09V187a12.49,12.49,0,0,0-12.47-12.48H171.87A12.5,12.5,0,0,0,159.39,187v23.1a12.49,12.49,0,0,0,12.48,12.47h7.59v74.53a12.49,12.49,0,0,0,12.48,12.47Zm-17.58-102V189.48H237V294.59H194.43V220.07A12.5,12.5,0,0,0,182,207.59Z"/><path class="cls-1" d="M250.29,131.38A35.34,35.34,0,1,0,215,166.71,35.37,35.37,0,0,0,250.29,131.38Zm-55.69,0A20.36,20.36,0,1,1,215,151.74,20.39,20.39,0,0,1,194.6,131.38Z"/></g></g></svg>