<?xml version="1.0" encoding="utf-8"?>
<!-- Generator: Adobe Illustrator 25.1.0, SVG Export Plug-In . SVG Version: 6.00 Build 0)  -->
<svg version="1.1" id="Capa_1" xmlns="http://www.w3.org/2000/svg" xmlns:xlink="http://www.w3.org/1999/xlink" x="0px" y="0px"
	 viewBox="0 0 512 512" style="enable-background:new 0 0 512 512;" xml:space="preserve">
<path d="M453.7,224.6c-4.2,0-8.1-2.8-9.5-6.8c-1.3-3.8-0.1-8.1,2.9-10.7c3.3-2.9,8.2-3.3,11.9-1c3.5,2.1,5.3,6.3,4.6,10.3
	C462.7,221.1,458.5,224.6,453.7,224.6z"/>
<path d="M301,239.1c-38.9,0-70.5-31.7-70.5-70.6c0-38.9,31.6-70.6,70.5-70.6s70.5,31.7,70.5,70.6C371.6,207.4,339.9,239.1,301,239.1
	z M301,117.9c-27.9,0-50.5,22.7-50.5,50.6s22.7,50.6,50.5,50.6s50.5-22.7,50.5-50.6C351.6,140.6,328.9,117.9,301,117.9z"/>
<path d="M448.5,251.9c-5.2-1.8-10.9,0.9-12.7,6.1c-7.1,20.4-18.5,38.5-33.9,53.9c-5.3,5.3-11,10.2-17,14.6v-44.9
	c0-16.6-13.5-30.2-30.2-30.2H247.3c-16.6,0-30.2,13.5-30.2,30.2v45.1c-6.1-4.4-11.8-9.3-17.1-14.7c-55.6-55.6-55.6-146.2,0.1-201.9
	c27-27,62.8-41.8,101-41.9h0.1c38.1,0,73.9,14.8,100.8,41.8c15.5,15.5,26.9,33.7,34,54.3c1.8,5.2,7.5,8,12.7,6.2
	c5.2-1.8,8-7.5,6.2-12.7c-8.1-23.4-21.1-44.3-38.7-61.9c-30.7-30.7-71.5-47.6-115-47.6h-0.1c-43.5,0-84.3,17-115.1,47.7
	c-63.5,63.5-63.5,166.8-0.1,230.2c10.9,10.9,23.1,20.1,36.5,27.5c0,0,0,0,0,0c23.9,13.2,51.1,20.2,78.5,20.2h0.2
	c27.5,0,54.7-7,78.7-20.3c0,0,0,0,0,0c13.3-7.3,25.5-16.6,36.3-27.4c17.5-17.5,30.5-38.2,38.6-61.4
	C456.5,259.4,453.7,253.7,448.5,251.9L448.5,251.9z M237.2,338.8v-57.2c0-5.6,4.6-10.2,10.2-10.2h107.3c5.6,0,10.2,4.6,10.2,10.2
	v57.1C325,358.6,277,358.7,237.2,338.8L237.2,338.8z"/>
<path d="M301,0C184.7,0,90,94.6,90,211c0,45.8,14.7,88.2,39.5,122.8L110.4,353l-4.8-4.8c-1.9-1.9-4.4-2.9-7.1-2.9
	c-2.7,0-5.2,1.1-7.1,2.9l-29.1,29.1c0,0,0,0,0,0L15,424.7c-19.9,19.9-19.9,52.4,0,72.3c9.7,9.7,22.5,15,36.2,15s26.5-5.3,36.2-15
	l47.4-47.4h0l29.1-29.1c3.9-3.9,3.9-10.2,0-14.1l-4.8-4.8l19.2-19.2c34.6,24.9,77,39.5,122.8,39.5c116.3,0,211-94.6,211-211
	S417.3,0,301,0L301,0z M73.2,482.9c-5.9,5.9-13.7,9.1-22,9.1c-8.3,0-16.1-3.2-22-9.1C17,470.7,17,451,29.2,438.8l40.3-40.3l22,22
	l22.1,22.1L73.2,482.9z M127.7,428.4l-22-22l-22.1-22.1l14.9-14.9l44.1,44.1L127.7,428.4z M144.9,387.5l-10.2-10.2l-10.2-10.2
	l17.5-17.5c6.3,7.2,13.1,14,20.4,20.4L144.9,387.5z M301,402c-105.3,0-191-85.7-191-191c0-105.3,85.7-191,191-191s191,85.7,191,191
	S406.3,402,301,402z"/>
</svg>
