<?xml version="1.0" encoding="utf-8"?>
<!-- Generator: Adobe Illustrator 25.1.0, SVG Export Plug-In . SVG Version: 6.00 Build 0)  -->
<svg version="1.1" id="圖層_1" xmlns="http://www.w3.org/2000/svg" xmlns:xlink="http://www.w3.org/1999/xlink" x="0px" y="0px"
	 viewBox="0 0 512 480" style="enable-background:new 0 0 512 480;" xml:space="preserve">
<path d="M462,50H190c-5.5,0-10,4.5-10,10s4.5,10,10,10h272c16.5,0,30,13.5,30,30v280c0,16.5-13.5,30-30,30H50c-16.5,0-30-13.5-30-30
	V100c0-16.5,13.5-30,30-30h60c5.5,0,10-4.5,10-10s-4.5-10-10-10H50C22.4,50,0,72.4,0,100v280c0,27.6,22.4,50,50,50h412
	c27.6,0,50-22.4,50-50V100C512,72.4,489.6,50,462,50z"/>
<path d="M150,102c-52.9,0-96,43.1-96,96s43.1,96,96,96s96-43.1,96-96S202.9,102,150,102z M106.6,260.3c7.2-17.3,24.2-28.9,43.4-28.9
	s36.2,11.6,43.4,28.9c-12.3,8.6-27.3,13.7-43.4,13.7S118.9,268.9,106.6,260.3z M131.8,193.2v-3.8c0-10,8.2-18.2,18.2-18.2
	s18.2,8.2,18.2,18.2v3.8c0,10-8.2,18.2-18.2,18.2S131.8,203.2,131.8,193.2z M208.8,246.1C202,233.8,191.5,224,179,218
	c5.7-6.7,9.2-15.3,9.2-24.8v-3.8c0-21.1-17.1-38.2-38.2-38.2s-38.2,17.1-38.2,38.2v3.8c0,9.5,3.5,18.1,9.2,24.8
	c-12.5,6-23,15.8-29.8,28.1C80.5,233,74,216.3,74,198c0-41.9,34.1-76,76-76s76,34.1,76,76C226,216.3,219.5,233,208.8,246.1z"/>
<path d="M304,250h144c5.5,0,10-4.5,10-10v-80c0-5.5-4.5-10-10-10H304c-5.5,0-10,4.5-10,10v80C294,245.5,298.5,250,304,250z M314,170
	h124v60H314V170z"/>
<path d="M304,290h144c5.5,0,10-4.5,10-10s-4.5-10-10-10H304c-5.5,0-10,4.5-10,10S298.5,290,304,290z"/>
<path d="M296.9,327.1c1.9,1.9,4.4,2.9,7.1,2.9s5.2-1.1,7.1-2.9s2.9-4.4,2.9-7.1s-1.1-5.2-2.9-7.1s-4.4-2.9-7.1-2.9s-5.2,1.1-7.1,2.9
	s-2.9,4.4-2.9,7.1S295.1,325.2,296.9,327.1z"/>
<path d="M336.9,312.9c-1.9,1.9-2.9,4.4-2.9,7.1s1.1,5.2,2.9,7.1s4.4,2.9,7.1,2.9s5.2-1.1,7.1-2.9s2.9-4.4,2.9-7.1s-1.1-5.2-2.9-7.1
	s-4.4-2.9-7.1-2.9S338.8,311.1,336.9,312.9z"/>
<path d="M448,310h-64c-5.5,0-10,4.5-10,10s4.5,10,10,10h64c5.5,0,10-4.5,10-10S453.5,310,448,310z"/>
<path d="M221.7,324.1c0-5.5-4.5-10-10-10H88.3c-5.5,0-10,4.5-10,10c0,5.5,4.5,10,10,10h123.3C217.2,334.1,221.7,329.6,221.7,324.1z"
	/>
<path d="M104.3,354.1c-5.5,0-10,4.5-10,10c0,5.5,4.5,10,10,10h91.3c5.5,0,10-4.5,10-10c0-5.5-4.5-10-10-10H104.3z"/>
<path d="M150,70c2.6,0,5.2-1.1,7.1-2.9s2.9-4.4,2.9-7.1s-1.1-5.2-2.9-7.1S152.6,50,150,50s-5.2,1.1-7.1,2.9S140,57.4,140,60
	s1.1,5.2,2.9,7.1S147.4,70,150,70z"/>
</svg>
