<?xml version="1.0" encoding="utf-8"?>
<!-- Generator: Adobe Illustrator 25.1.0, SVG Export Plug-In . SVG Version: 6.00 Build 0)  -->
<svg version="1.1" id="Capa_1" xmlns="http://www.w3.org/2000/svg" xmlns:xlink="http://www.w3.org/1999/xlink" x="0px" y="0px"
	 viewBox="0 0 512.1 512.1" style="enable-background:new 0 0 512.1 512.1;" xml:space="preserve">
<style type="text/css">
	.st0{fill:#FFFFFF;}
</style>
<path class="st0" d="M408,63C367.4,22.4,313.5,0,256,0c-40.7,0-80.3,11.4-114.5,33c-33.3,21-60.2,50.7-77.8,85.9
	c-1.9,3.7-0.4,8.2,3.3,10c3.7,1.9,8.2,0.4,10-3.3c16.4-32.7,41.4-60.4,72.4-79.9C181.3,25.6,218.2,15,256,15
	c110.3,0,200,89.7,200,200c0,31.7-9.5,62-28.1,90c-32.7,49.1-75.6,93.1-117.2,135.6c-17.4,17.8-35.3,36.1-52.2,54.5l-1.4,1.5
	c-0.4,0.4-0.8,0.5-1.1,0.5c0,0,0,0,0,0c-0.3,0-0.8-0.1-1.2-0.5l-1.3-1.4c-16.9-18.4-34.8-36.8-52.2-54.5
	c-41.5-42.5-84.5-86.4-117.2-135.6C65.5,277,56,246.7,56,215c0-16.6,2-33,6-49c1-4-1.4-8.1-5.4-9.1c-4-1-8.1,1.4-9.1,5.4
	c-4.3,17.1-6.5,34.8-6.5,52.6c0,34.7,10.3,67.8,30.6,98.3c33.5,50.3,76.9,94.8,118.9,137.7c17.3,17.7,35.1,35.9,51.9,54.2l1.3,1.4
	c3.1,3.4,7.5,5.3,12.1,5.4h0.1c4.6,0,9-1.9,12.1-5.2l0.7-0.8c0.4-0.4,0.7-0.7,0.8-0.8c16.7-18.3,34.6-36.5,51.9-54.2
	c42-43,85.5-87.4,118.9-137.7c20.3-30.5,30.6-63.6,30.6-98.3C471,157.6,448.6,103.6,408,63L408,63z"/>
<path class="st0" d="M388.6,248.3c4,1.1,8.1-1.2,9.2-5.2c3.5-12.7,5.3-25.9,5.3-39.3c0-81.1-66-147-147-147s-147,66-147,147
	s66,147,147,147c47.8,0,92.8-23.4,120.3-62.5c2.4-3.4,1.6-8.1-1.8-10.4c-3.4-2.4-8.1-1.6-10.4,1.8c-24.7,35.2-65.2,56.2-108.1,56.2
	c-72.8,0-132.1-59.2-132.1-132.1S183.2,71.7,256,71.7S388.1,131,388.1,203.8c0,12-1.6,23.8-4.8,35.3
	C382.2,243.1,384.6,247.2,388.6,248.3L388.6,248.3z"/>
<path class="st0" d="M233,309.6h47.6c6.9,0,12.5-5.6,12.5-12.5V187c0-6.9-5.6-12.5-12.5-12.5h-67.7c-6.9,0-12.5,5.6-12.5,12.5v23.1
	c0,6.9,5.6,12.5,12.5,12.5h7.6v74.5C220.5,304,226.1,309.6,233,309.6L233,309.6z M215.4,207.6v-18.1h62.7v105.1h-42.6v-74.5
	c0-6.9-5.6-12.5-12.5-12.5H215.4z"/>
<path class="st0" d="M291.4,131.4c0-19.5-15.8-35.3-35.3-35.3s-35.3,15.9-35.3,35.3s15.8,35.3,35.3,35.3S291.4,150.9,291.4,131.4z
	 M235.7,131.4c0-11.2,9.1-20.4,20.4-20.4s20.4,9.1,20.4,20.4c0,11.2-9.1,20.4-20.4,20.4C244.8,151.8,235.7,142.6,235.7,131.4z"/>
</svg>
